<?xml version="1.0" standalone="no"?>
<!DOCTYPE svg PUBLIC "-//W3C//DTD SVG 1.1//EN" "http://www.w3.org/Graphics/SVG/1.1/DTD/svg11.dtd" >
<svg xmlns="http://www.w3.org/2000/svg" xmlns:xlink="http://www.w3.org/1999/xlink" version="1.1">
<metadata></metadata>
<defs>
<font id="psu_stidtioblique" horiz-adv-x="0" >
<font-face units-per-em="2048" ascent="1536" descent="-512" />
<missing-glyph horiz-adv-x="475" />
<glyph unicode="&#xe2f;&#xe2f;" horiz-adv-x="1376" d="M180 1012h201q-7 -43 -9.5 -73t1.5 -64.5t18 -55.5t44 -35t75 -14q111 0 192.5 75.5t100.5 166.5h188l-178 -1012h-209l98 555l58 195h-4q-123 -144 -295 -144q-166 0 -240 109t-41 297zM938 0l178 1012h205l-178 -1012h-205z" />
<glyph unicode="&#xe4f;&#x22;" horiz-adv-x="1241" d="M100 528q0 121 48.5 231.5t132 192t200.5 130t248 48.5q205 0 326 -124.5t121 -315.5q0 -120 -49 -230.5t-133 -191.5t-201 -129.5t-246 -48.5q-204 0 -325.5 124.5t-121.5 313.5zM262 549q0 -136 82.5 -223.5t226.5 -87.5q123 0 225.5 59t160 158.5t57.5 214.5 q0 135 -83 224t-226 89q-187 0 -315 -129t-128 -305zM446 580q0 89 63.5 152t160.5 63q73 0 114 -43t41 -111q0 -89 -62.5 -154t-158.5 -65q-75 0 -116.5 44.5t-41.5 113.5zM520 1214l62 359h176l-62 -359h-176zM795 1214l61 359h176l-61 -359h-176z" />
<glyph unicode="&#xe24;&#xe32;" horiz-adv-x="1986" d="M119 276l14 78q21 126 72 206t153 134v4l-188 148l-8 119q109 109 272.5 182.5t327.5 73.5q250 0 360 -82q161 82 355 82q129 0 220 -34t137 -94.5t61.5 -144t-5.5 -182.5l-225 -1278h-209l225 1278q22 132 -31 205t-204 73q-110 0 -225 -43q27 -88 6 -210l-230 -1303 h-209l230 1303q23 129 -43 191t-223 62q-214 0 -394 -129v-6l213 -166l-16 -96q-95 -40 -142 -107t-71 -186l-16 -84q-24 -127 90 -127q62 0 112 35l52 -151q-92 -56 -211 -56q-144 0 -209.5 83t-40.5 222z" />
<glyph unicode="&#xe26;&#xe32;" horiz-adv-x="2025" d="M-16 6l61 160q38 -19 80 -19q74 0 86 70l27 158q22 124 60 193.5t130 127.5v4l-221 146l-8 119q109 109 273.5 182.5t330.5 73.5q248 0 358 -82q161 82 355 82q129 0 220 -34t137 -94.5t61.5 -144t-5.5 -182.5l-225 -1278h-209l225 1278q22 132 -31 205t-204 73 q-110 0 -225 -43q27 -88 6 -210l-230 -1303h-209l230 1303q23 129 -43 191t-221 62q-218 0 -398 -129v-6l246 -164l-16 -96q-92 -42 -124.5 -96t-54.5 -178l-28 -164q-44 -240 -260 -240q-109 0 -174 35z" />
<glyph unicode="fi" horiz-adv-x="1183" d="M115 0l133 752h-123l31 172h123l14 86q31 175 141 269.5t291 94.5q149 0 243.5 -56.5t153.5 -170.5l-155 -74q-39 70 -94 105.5t-148 35.5q-192 0 -231 -204l-15 -86h258l-30 -172h-258l-134 -752h-200zM770 0l170 971h209l-170 -971h-209z" />
<glyph unicode="fl" horiz-adv-x="1406" d="M115 0l133 752h-123l31 172h123l16 90q30 170 139.5 265t290.5 95q306 0 461 -198l-142 -793q-25 -137 -9 -186.5t87 -49.5t142 33l39 -149q-105 -60 -256 -60q-83 0 -134.5 31t-72 89.5t-20.5 130.5t18 167l129 735q-86 86 -242 86q-96 0 -154.5 -52.5t-76.5 -147.5 l-15 -86h258l-30 -172h-258l-134 -752h-200z" />
<glyph unicode="&#xd;" horiz-adv-x="475" />
<glyph unicode=" "  horiz-adv-x="475" />
<glyph unicode="&#x09;" horiz-adv-x="475" />
<glyph unicode="&#xa0;" horiz-adv-x="475" />
<glyph unicode="!" horiz-adv-x="466" d="M43 2l35 193h201l-35 -193h-201zM119 338l180 1012h197l-209 -1012h-168z" />
<glyph unicode="&#x22;" horiz-adv-x="604" d="M166 987l63 361h181l-64 -361h-180zM426 987l63 361h181l-64 -361h-180z" />
<glyph unicode="#" horiz-adv-x="1396" d="M43 293l70 143h184l164 332h-238l70 143h237l154 303h170l-154 -303h297l152 303h172l-152 -303h215l-71 -143h-211l-160 -332h262l-69 -143h-261l-141 -293h-170l142 293h-308l-147 -293h-170l147 293h-184zM469 436h303l160 332h-299z" />
<glyph unicode="$" horiz-adv-x="1175" d="M23 170l96 143q150 -140 356 -149l80 452q-89 34 -151.5 67t-112.5 74.5t-74 92.5t-24 113q0 93 37.5 164.5t105.5 116.5t155 70.5t193 31.5l35 202h143l-35 -202q195 -15 347 -111l-101 -141q-135 80 -274 90l-76 -430q91 -32 152 -63.5t108 -71.5t68.5 -89.5 t21.5 -113.5q0 -173 -122 -282.5t-361 -129.5l-35 -205h-143l34 205q-278 12 -423 166zM385 985q0 -60 45.5 -98t157.5 -82l67 379q-134 -5 -202 -51.5t-68 -147.5zM618 164q127 14 195 69t68 152q0 63 -43.5 101t-147.5 79z" />
<glyph unicode="%" horiz-adv-x="1376" d="M74 0l1091 1350h195l-1092 -1350h-194zM166 977q0 183 88 291t266 108q123 0 184.5 -72t61.5 -194q0 -181 -88.5 -290t-265.5 -109q-118 0 -182 73.5t-64 192.5zM319 993q0 -151 111 -151q95 0 139.5 63.5t44.5 188.5q0 151 -112 151q-183 0 -183 -252zM668 240 q0 183 88 291t266 108q123 0 184.5 -72t61.5 -194q0 -182 -89 -291t-266 -109q-118 0 -181.5 73.5t-63.5 193.5zM821 256q0 -73 28 -112.5t83 -39.5q95 0 139.5 63.5t44.5 188.5q0 152 -112 152q-183 0 -183 -252z" />
<glyph unicode="&#x26;" horiz-adv-x="1361" d="M45 287q0 69 20.5 130t53 106.5t81.5 88t96 71.5t107 60l46 23q-121 121 -121 254q0 106 56.5 189t145 125t189.5 42q77 0 136 -23t93 -62t51 -85.5t17 -97.5q0 -55 -14.5 -101.5t-36.5 -82t-62 -72t-78 -63.5t-98 -64l223 -287q11 11 20.5 21.5t19 23t16 20.5t16.5 23 t14 20.5t15 23.5t13.5 22t15 25.5t14.5 25.5l118 -108q-68 -130 -168 -230l207 -305h-229l-109 160q-112 -95 -225 -142t-244 -47q-176 0 -287.5 84.5t-111.5 231.5zM231 307q0 -86 65.5 -127t176.5 -41q109 0 192 40.5t156 115.5l-268 348l-49 -25q-54 -27 -84 -44 t-71.5 -47.5t-63.5 -59t-38 -70t-16 -90.5zM508 1042q0 -98 117 -198q121 64 169 116t48 123q0 55 -39 92t-113 37q-86 0 -134 -51.5t-48 -118.5z" />
<glyph unicode="'" horiz-adv-x="344" d="M166 987l63 361h181l-64 -361h-180z" />
<glyph unicode="(" horiz-adv-x="602" d="M86 481q0 549 451 979l120 -51q-185 -250 -268.5 -471.5t-83.5 -468.5q0 -145 28 -301.5t81 -259.5l-140 -74q-89 108 -138.5 283t-49.5 364z" />
<glyph unicode=")" horiz-adv-x="602" d="M-25 -92q183 213 278 459.5t95 506.5q0 130 -23 275.5t-65 259.5l141 51q82 -117 124 -280.5t42 -331.5q0 -306 -127 -561.5t-350 -452.5z" />
<glyph unicode="*" horiz-adv-x="708" d="M166 987l176 92l-141 97l98 118l107 -96l16 150h160l-37 -150l139 96l57 -118l-176 -97l146 -92l-103 -119l-104 95l-15 -138h-159l35 138l-138 -95z" />
<glyph unicode="+" horiz-adv-x="831" d="M74 461l28 172h244l49 274h180l-49 -274h244l-29 -172h-243l-47 -258h-181l47 258h-243z" />
<glyph unicode="," horiz-adv-x="450" d="M-41 -186l158 356h192l-172 -356h-178z" />
<glyph unicode="-" horiz-adv-x="829" d="M72 461l28 172h668l-29 -172h-667z" />
<glyph unicode="." horiz-adv-x="380" d="M-8 0l35 201h217l-35 -201h-217z" />
<glyph unicode="/" horiz-adv-x="866" d="M-8 0l731 1348h209l-733 -1348h-207z" />
<glyph unicode="0" horiz-adv-x="1314" d="M90 516q0 141 25.5 266.5t81 235t137.5 188.5t201.5 124.5t265.5 45.5q122 0 215.5 -41.5t151 -116t86 -172.5t28.5 -217q0 -143 -25 -268.5t-80.5 -234.5t-137 -187t-200.5 -123t-266 -45q-120 0 -213.5 41t-151.5 115t-88 172.5t-30 216.5zM309 516q0 -169 68.5 -266.5 t216.5 -97.5q78 0 144.5 22.5t113.5 61t84.5 92.5t61 113.5t38.5 128t21 131.5t6 128q0 82 -16 147t-49 115t-88.5 77.5t-131.5 27.5q-78 0 -144.5 -23t-113.5 -61.5t-84.5 -93t-61 -114t-38.5 -128.5t-21 -132t-6 -128z" />
<glyph unicode="1" horiz-adv-x="747" d="M129 1065l381 283h221l-237 -1348h-218l195 1104l-242 -180z" />
<glyph unicode="2" horiz-adv-x="1132" d="M-10 0q20 116 47.5 199.5t67 153t102.5 129.5t141.5 114.5t198.5 122.5q37 21 88 48.5t80 43t65 37.5t55 40t38 42t26.5 51.5t7.5 60.5q0 77 -58.5 115.5t-166.5 38.5q-109 0 -206.5 -47t-166.5 -119l-98 139q80 89 209.5 148t271.5 59q194 0 312 -84t118 -250 q0 -41 -7.5 -78t-25 -70t-35.5 -59t-50.5 -53.5t-57 -47t-68 -45t-70.5 -40.5t-77.5 -42t-77.5 -42q-97 -56 -153.5 -92t-115.5 -84.5t-89.5 -99t-40.5 -109.5h721l-31 -180h-954z" />
<glyph unicode="3" horiz-adv-x="1193" d="M10 162l135 155q51 -73 141.5 -119t213.5 -46q170 0 272 63.5t102 196.5q0 59 -28.5 100t-78.5 62t-103 29.5t-115 8.5l31 176q71 0 133.5 12.5t116.5 39.5t85 75t31 113q0 47 -23 81t-62 52.5t-83 26.5t-94 8q-119 0 -206 -40t-138 -95l-94 135q62 71 186.5 125.5 t282.5 54.5q207 0 329.5 -78t122.5 -237q0 -98 -49 -177t-123.5 -122t-158.5 -51v-4q119 -19 188.5 -94t69.5 -189q0 -147 -80.5 -250.5t-219.5 -153t-325 -49.5q-155 0 -275.5 49.5t-183.5 141.5z" />
<glyph unicode="4" horiz-adv-x="1193" d="M31 334l28 168l793 846h229l-147 -842h199l-31 -172h-195l-59 -334h-213l59 334h-663zM281 506h452l107 608h-4z" />
<glyph unicode="5" horiz-adv-x="1206" d="M20 160l125 155q59 -78 151.5 -123t240.5 -45q180 0 274 87t94 239q0 227 -301 227q-196 0 -407 -57l125 705h858l-31 -181h-649l-56 -305q135 15 199 15q224 0 349.5 -98t125.5 -285q0 -246 -163 -384.5t-449 -138.5q-339 0 -486 189z" />
<glyph unicode="6" horiz-adv-x="1216" d="M80 449q0 79 7 157t27.5 172.5t52.5 176t87.5 161t127.5 135.5t177 90.5t232 34.5q87 0 156.5 -17t118 -49t80 -64t60.5 -75l-151 -124q-96 149 -295 149q-94 0 -169.5 -37t-126.5 -102.5t-84 -146.5t-50 -179h4q62 58 155.5 95.5t204.5 37.5q209 0 320.5 -108 t111.5 -281q0 -102 -38.5 -192.5t-111 -160.5t-186.5 -110.5t-255 -40.5q-230 0 -342.5 127t-112.5 351zM291 395q0 -248 278 -248q167 0 256.5 91t89.5 229q0 109 -71 165t-180 56q-159 0 -266 -78.5t-107 -214.5z" />
<glyph unicode="7" horiz-adv-x="1089" d="M78 0l821 1167h-700l30 181h926l-35 -193l-801 -1155h-241z" />
<glyph unicode="8" horiz-adv-x="1232" d="M49 315q0 146 81.5 237.5t236.5 147.5v2q-69 37 -110.5 100t-41.5 146q0 191 152.5 309.5t400.5 118.5q198 0 308 -90t110 -242q0 -239 -254 -342v-2q198 -87 198 -280q0 -143 -78.5 -245.5t-212 -153t-307.5 -50.5q-217 0 -350 91t-133 253zM268 346q0 -98 74 -150.5 t209 -52.5q173 0 271 73.5t98 203.5q0 96 -76 145t-209 49q-166 0 -266.5 -68.5t-100.5 -199.5zM428 954q0 -81 58.5 -126.5t177.5 -45.5q157 0 233 67t76 179q0 82 -57 129t-177 47q-153 0 -232 -70t-79 -180z" />
<glyph unicode="9" horiz-adv-x="1216" d="M68 176l151 125q96 -149 295 -149q362 0 442 464h-4q-58 -57 -159.5 -95t-212.5 -38q-200 0 -316.5 103.5t-116.5 271.5q0 104 39 196.5t111.5 165t186.5 114.5t255 42q232 0 344.5 -125.5t112.5 -353.5q0 -451 -182 -688.5t-522 -237.5q-88 0 -159 17t-121 48.5 t-82.5 64t-61.5 75.5zM358 881q0 -110 71.5 -166t180.5 -56q161 0 267 82t106 232q0 107 -70 167t-208 60q-167 0 -257 -90.5t-90 -228.5z" />
<glyph unicode=":" horiz-adv-x="380" d="M10 100l35 201h217l-35 -201h-217zM123 748l37 200h217l-37 -200h-217z" />
<glyph unicode=";" horiz-adv-x="448" d="M-18 -61l157 360h191l-172 -360h-176zM182 748l37 200h217l-37 -200h-217z" />
<glyph unicode="&#x3c;" horiz-adv-x="862" d="M70 444l36 209l760 351l-35 -203l-565 -250v-6l475 -258l-34 -199z" />
<glyph unicode="=" horiz-adv-x="831" d="M45 301l29 164h667l-28 -164h-668zM100 610l29 164h668l-29 -164h-668z" />
<glyph unicode="&#x3e;" horiz-adv-x="862" d="M8 88l35 199l565 258v6l-475 250l35 203l637 -351l-37 -209z" />
<glyph unicode="?" horiz-adv-x="948" d="M195 1202q71 75 185.5 122.5t246.5 47.5q146 0 243 -71t97 -205q0 -70 -19.5 -124t-52 -90t-72.5 -67.5t-83.5 -68t-82.5 -80t-72 -113.5t-50 -160l-11 -57h-200l10 57q17 93 49.5 170t71.5 127t82 91.5t82.5 73.5t71.5 63t51.5 68.5t19.5 82.5q0 60 -44 95.5t-122 35.5 q-95 0 -167 -31t-138 -94zM262 0l35 193h209l-35 -193h-209z" />
<glyph unicode="@" horiz-adv-x="1603" d="M89.5 214.5q-48.5 165.5 21.5 397.5q101 317 337 481t562 164q146 0 262 -40t190 -116.5t98 -187.5t-14 -254q-64 -233 -181.5 -356t-287.5 -123q-74 0 -119 34.5t-51 84.5q-112 -115 -260 -115q-154 0 -207 112t11 296q56 160 168.5 252.5t257.5 85.5q57 -3 93.5 -20.5 t51.5 -40t27 -58.5l47 72h127l-187 -459q-20 -54 0 -79.5t70 -25.5q102 0 166.5 85.5t118.5 267.5q62 214 -45.5 330t-372.5 116q-249 0 -433.5 -135.5t-263.5 -370.5q-35 -107 -42 -198t16.5 -167t78 -129t148 -82.5t221.5 -29.5q200 0 357 100l47 -122 q-192 -117 -443 -117q-221 0 -371 91t-198.5 256.5zM598.5 401.5q22.5 -65.5 106.5 -65.5q135 0 180 108l88 211q24 59 -8.5 95t-116.5 36q-149 0 -232 -219q-40 -100 -17.5 -165.5z" />
<glyph unicode="A" horiz-adv-x="1341" d="M-59 0l784 1348h186l310 -1348h-222l-69 336h-580l-188 -336h-221zM434 492h465l-127 589h-2z" />
<glyph unicode="B" horiz-adv-x="1331" d="M43 0l238 1348h628q169 0 266 -86.5t97 -235.5q0 -122 -70.5 -201t-173.5 -112v-4q88 -32 147.5 -101t59.5 -166q0 -209 -148 -325.5t-401 -116.5h-643zM283 176h428q151 0 232 64t81 192q0 91 -70.5 138.5t-191.5 47.5h-402zM389 778h369q139 0 221 62t82 178 q0 153 -217 153h-385z" />
<glyph unicode="C" horiz-adv-x="1433" d="M94 553q0 246 101.5 432.5t289 288.5t435.5 102q381 0 532 -252l-139 -137q-118 209 -426 209q-181 0 -313.5 -83.5t-198.5 -224t-66 -319.5q0 -197 101.5 -307t312.5 -110q296 0 479 208l98 -137q-224 -252 -608 -252q-282 0 -440 158t-158 424z" />
<glyph unicode="D" horiz-adv-x="1382" d="M43 0l238 1348h491q271 0 422.5 -146t151.5 -405q0 -177 -51 -322.5t-148.5 -251.5t-248 -164.5t-341.5 -58.5h-514zM289 180h301q139 0 245 48.5t169 134.5t94.5 194.5t31.5 237.5q0 182 -96.5 277t-290.5 95h-280z" />
<glyph unicode="E" horiz-adv-x="1239" d="M43 0l238 1348h985l-31 -177h-772l-68 -383h590l-31 -176h-589l-78 -436h780l-31 -176h-993z" />
<glyph unicode="F" horiz-adv-x="1208" d="M43 0l238 1348h983l-31 -177h-770l-72 -405h535l-31 -176h-535l-104 -590h-213z" />
<glyph unicode="G" horiz-adv-x="1456" d="M94 543q0 249 99 437t286.5 292t440.5 104q380 0 530 -235l-152 -140q-60 105 -158.5 150t-250.5 45q-142 0 -254.5 -51.5t-182.5 -141t-106.5 -205.5t-36.5 -249q0 -194 100 -295.5t300 -101.5q179 0 293.5 86.5t140.5 224.5l14 86h-436l33 184h649l-45 -252 q-42 -226 -226 -368t-454 -142q-282 0 -433 155t-151 417z" />
<glyph unicode="H" horiz-adv-x="1398" d="M43 0l238 1348h213l-103 -584h707l102 584h213l-237 -1348h-213l102 584h-707l-102 -584h-213z" />
<glyph unicode="I" horiz-adv-x="520" d="M63 0l238 1348h213l-238 -1348h-213z" />
<glyph unicode="J" horiz-adv-x="962" d="M-10 215l174 109q13 -34 23.5 -55.5t28.5 -46t39 -38t53.5 -23t74.5 -9.5q55 0 94.5 18.5t64.5 55t39 76t25 97.5l168 949h213l-168 -953q-17 -99 -50 -174t-88 -132.5t-137.5 -87.5t-189.5 -30q-133 0 -230.5 62.5t-133.5 181.5z" />
<glyph unicode="K" horiz-adv-x="1273" d="M43 0l238 1348h200l-112 -637l723 637h245l-614 -537q82 -81 128.5 -157t84.5 -179l166 -475h-223l-140 412q-34 101 -63 157t-92 123l-256 -215l-84 -477h-201z" />
<glyph unicode="L" horiz-adv-x="1110" d="M43 0l238 1348h213l-205 -1168h702l-33 -180h-915z" />
<glyph unicode="M" horiz-adv-x="1572" d="M43 0l238 1348h303l192 -887h4l504 887h303l-237 -1348h-197l193 1092h-5l-538 -916h-152l-215 916h-4l-192 -1092h-197z" />
<glyph unicode="N" horiz-adv-x="1396" d="M43 0l238 1348h233l508 -1065h4l188 1065h197l-237 -1348h-234l-508 1065h-4l-188 -1065h-197z" />
<glyph unicode="O" horiz-adv-x="1490" d="M94 559q0 242 95 426.5t275.5 287.5t422.5 103q177 0 307 -78t195 -211t65 -303q0 -242 -94.5 -425.5t-275 -285.5t-422.5 -102q-177 0 -307 76.5t-195.5 208.5t-65.5 303zM311 578q0 -426 371 -426q135 0 242 47.5t175.5 132t104 196t35.5 242.5q0 92 -21 167.5 t-64.5 134.5t-116.5 91.5t-171 32.5q-135 0 -242 -47.5t-174.5 -132t-103 -196t-35.5 -242.5z" />
<glyph unicode="P" horiz-adv-x="1282" d="M43 0l238 1348h606q185 0 293 -105t108 -276q0 -229 -156.5 -365.5t-400.5 -136.5h-393l-82 -465h-213zM367 645h358q169 0 260.5 79.5t91.5 231.5q0 107 -68.5 159t-191.5 52h-358z" />
<glyph unicode="Q" horiz-adv-x="1490" d="M94 559q0 242 95 426.5t275.5 287.5t422.5 103q266 0 416.5 -161t150.5 -422q0 -307 -161 -516t-451 -283l317 -154l-129 -178l-481 315q-222 49 -338.5 199t-116.5 383zM311 578q0 -91 22.5 -167.5t66.5 -134.5t116.5 -91t165.5 -33q135 0 242 47.5t175.5 132t104 196 t35.5 242.5q0 122 -39.5 216.5t-125 152t-208.5 57.5q-135 0 -242 -47.5t-174.5 -132t-103 -196t-35.5 -242.5z" />
<glyph unicode="R" horiz-adv-x="1314" d="M43 0l238 1348h591q115 0 209 -38.5t154.5 -122t60.5 -198.5q0 -86 -29.5 -157t-75 -116t-104.5 -77.5t-112 -47.5t-105 -20v-4q79 -32 125 -70.5t73 -104t32 -167.5l10 -225h-229l-9 225q-9 226 -272 301h-252l-92 -526h-213zM377 707h344q83 0 147 13.5t113.5 44 t75.5 84t26 128.5q0 190 -280 190h-344z" />
<glyph unicode="S" horiz-adv-x="1200" d="M14 127l115 170q183 -145 412 -145q159 0 248.5 55.5t89.5 165.5q0 21 -4 39t-15.5 34.5t-21.5 29t-34 26.5t-39 23t-51 24t-56.5 23t-67.5 26q-203 77 -297 164t-94 217q0 83 29.5 150.5t81 113t122.5 76t152 44t172 13.5q280 0 446 -119l-110 -159q-137 98 -357 98 q-146 0 -232.5 -51.5t-86.5 -153.5q0 -61 57 -102q45 -32 214 -100h1l1 -1h1h1l1 -1h1l1 -1h1h1l1 -1h1l1 -1h1h1l1 -1h1l1 -1h1h1l1 -1h1l1 -1h1h1l1 -1h1l2 -1q96 -36 163 -72.5t118 -83t75.5 -104.5t24.5 -131q0 -200 -153.5 -308t-432.5 -108q-155 0 -271.5 35.5 t-224.5 120.5z" />
<glyph unicode="T" horiz-adv-x="1216" d="M199 1167l30 181h1053l-31 -181h-420l-206 -1167h-213l206 1167h-419z" />
<glyph unicode="U" horiz-adv-x="1384" d="M125 522l145 826h213l-147 -836q-12 -62 -12 -114q0 -94 41 -154q63 -92 243 -92q187 0 298.5 93t142.5 267l147 836h213l-145 -826q-46 -259 -214.5 -405t-451.5 -146q-282 1 -400 147q-86 106 -85 270q0 63 12 134z" />
<glyph unicode="V" horiz-adv-x="1355" d="M209 1348h229l187 -1112h8l579 1112h230l-733 -1348h-242z" />
<glyph unicode="W" horiz-adv-x="1798" d="M209 1348h221l37 -1045h4l463 922h180l143 -922h5l401 1045h221l-280 -674q-60 -145 -131.5 -318t-109.5 -265t-38 -91h-209l-141 924h-4l-469 -924h-209q-3 96 -12 211l-29 463z" />
<glyph unicode="X" horiz-adv-x="1351" d="M-29 0l592 684l-344 664h244l258 -521l430 521h252l-563 -664l360 -684h-252l-268 543l-444 -543h-265z" />
<glyph unicode="Y" horiz-adv-x="1310" d="M199 1348h237l236 -727h4l493 727h238l-659 -916l-76 -432h-213l76 432z" />
<glyph unicode="Z" horiz-adv-x="1320" d="M12 0l33 188l1014 979h-811l31 181h1067l-33 -189l-1010 -979h858l-33 -180h-1116z" />
<glyph unicode="[" horiz-adv-x="634" d="M-10 -297l342 1939h440l-31 -180h-223l-278 -1579h223l-33 -180h-440z" />
<glyph unicode="\" horiz-adv-x="866" d="M229 1348h209l256 -1348h-207z" />
<glyph unicode="]" horiz-adv-x="634" d="M-82 -297l33 180h223l279 1579h-224l31 180h440l-342 -1939h-440z" />
<glyph unicode="^" horiz-adv-x="995" d="M125 752l426 596h188l217 -596h-198l-144 417l-290 -417h-199z" />
<glyph unicode="_" horiz-adv-x="935" d="M-119 -160l29 160h936l-29 -160h-936z" />
<glyph unicode="`" horiz-adv-x="1490" d="M778 1806h262l37 -340h-184z" />
<glyph unicode="a" horiz-adv-x="1112" d="M27 256q0 92 36 161.5t100.5 110.5t147 60.5t183.5 19.5q180 0 311 -71l18 106q6 37 6 67q0 68 -32 103q-47 51 -191 51q-181 0 -342 -92l-37 168q81 45 191.5 72.5t220.5 27.5q229 0 323 -95q68 -69 68 -196q0 -49 -10 -106l-113 -643h-151l2 131q-160 -160 -379 -160 q-169 0 -260.5 80t-91.5 205zM229 262q0 -131 187 -131q220 0 348 166l14 82q-76 37 -145 53.5t-166 16.5q-238 0 -238 -187z" />
<glyph unicode="b" horiz-adv-x="1228" d="M33 0l252 1434h204l-96 -547q63 67 163.5 110t203.5 43q197 0 302 -121t105 -319q0 -184 -65.5 -324t-200 -222.5t-323.5 -82.5q-117 0 -198 45t-126 119l-45 -135h-176zM299 381q10 -108 86.5 -171t189.5 -63q191 0 286 117t95 330q0 270 -260 270q-121 0 -216.5 -69 t-139.5 -181z" />
<glyph unicode="c" horiz-adv-x="1138" d="M59 420q0 284 181.5 452t470.5 168q138 0 249.5 -44t169.5 -128l-126 -137q-58 69 -127 101t-177 32q-199 0 -313.5 -118.5t-114.5 -309.5q0 -136 77 -212.5t226 -76.5q106 0 188 31t161 103l77 -138q-172 -172 -456 -172q-217 0 -351.5 123t-134.5 326z" />
<glyph unicode="d" horiz-adv-x="1232" d="M59 383q0 188 72.5 337t210.5 234.5t320 85.5q102 0 187 -43t122 -110l96 547h205l-252 -1434h-176l4 135q-51 -65 -156 -114.5t-229 -49.5q-202 0 -303 108.5t-101 303.5zM270 389q0 -130 61 -186t189 -56q111 0 214 60.5t157 173.5l41 233q-6 112 -79 181t-194 69 q-84 0 -150.5 -26t-110.5 -70.5t-73.5 -106t-42 -129t-12.5 -143.5z" />
<glyph unicode="e" horiz-adv-x="1173" d="M59 406q0 283 167.5 458.5t457.5 175.5q104 0 185.5 -29t133.5 -81q51 -52 81 -126q28 -70 28 -153v-9q-2 -88 -25 -187h-817q-9 -41 -9 -77q0 -89 53 -150q74 -85 237 -85q219 0 356 144l97 -119q-185 -197 -482 -197q-220 0 -341.5 117t-121.5 318zM305 610h617 q2 21 2 41q0 93 -54 147q-66 66 -206 66q-137 0 -231 -62t-128 -192z" />
<glyph unicode="f" horiz-adv-x="839" d="M115 0l133 760h-123l31 172h125l22 131q25 150 113 231.5t237 81.5q99 0 174.5 -36.5t118.5 -104.5l-119 -109q-59 86 -168 86q-127 0 -151 -141l-25 -139h254l-30 -172h-254l-134 -760h-204z" />
<glyph unicode="g" horiz-adv-x="1222" d="M59 424q0 177 69 315t206.5 219.5t324.5 81.5q116 0 197 -41.5t113 -101.5l41 115h178l-164 -926q-39 -233 -193.5 -355t-386.5 -122q-103 0 -193.5 23t-146.5 57l72 172q47 -25 77 -38t89.5 -25.5t132.5 -12.5q149 0 234.5 68t111.5 217l15 84q-57 -67 -153.5 -107.5 t-211.5 -40.5q-188 0 -300 110t-112 308zM272 449q0 -126 64.5 -198.5t195.5 -72.5q114 0 216 60.5t133 164.5l39 230v12q0 89 -68 154q-74 69 -199 69q-96 0 -171 -35.5t-120 -95.5t-67.5 -133t-22.5 -155z" />
<glyph unicode="h" horiz-adv-x="1210" d="M33 0l252 1434h196l-102 -582q72 87 180 137.5t215 50.5q214 0 296 -106q57 -73 57 -199q0 -56 -11 -123l-108 -612h-209l108 612q8 48 8 86q1 72 -29 110q-46 56 -177 56q-112 0 -212 -68t-153 -210l-102 -586h-209z" />
<glyph unicode="i" horiz-adv-x="475" d="M43 0l178 1012h209l-178 -1012h-209zM231 1130l31 177h230l-31 -177h-230z" />
<glyph unicode="j" horiz-adv-x="796" d="M-141 -295l94 156q51 -38 98.5 -56t112.5 -18q43 0 76.5 16.5t55.5 43t39 68t27 82t19 95.5l162 920h209l-162 -916q-16 -88 -36.5 -156.5t-55.5 -132t-81.5 -105t-114 -66.5t-152.5 -25q-182 0 -291 94zM553 1130l31 177h229l-31 -177h-229z" />
<glyph unicode="k" horiz-adv-x="1122" d="M33 0l241 1368h209l-145 -827l516 471h252l-488 -447l-2 -4q88 -29 141.5 -80t84.5 -135l129 -346h-230l-104 289q-24 61 -58.5 94t-99.5 53l-190 -164l-47 -272h-209z" />
<glyph unicode="l" horiz-adv-x="661" d="M74 222q0 72 18 167l172 979h209l-174 -985q-15 -84 -15 -135q0 -34 6 -52q16 -50 87 -49q69 0 141 33l39 -149q-105 -60 -256 -60q-83 0 -134.5 31t-72 89.5t-20.5 130.5z" />
<glyph unicode="m" horiz-adv-x="1708" d="M33 0l178 1012h178l-2 -129q123 157 332 157q103 0 161 -55.5t66 -132.5h2q53 78 151 133t208 55q181 0 261 -96q58 -70 59 -177q0 -40 -9 -85l-121 -682h-209l119 672q4 23 4 43q0 59 -30 97q-40 52 -138 52q-96 0 -166 -57.5t-100 -153.5l-115 -653h-192l121 680 q5 27 5 50q0 52 -26 86q-38 48 -129 48q-102 0 -175.5 -56t-109.5 -155l-114 -653h-209z" />
<glyph unicode="n" horiz-adv-x="1210" d="M33 0l178 1012h176l-8 -160q71 91 174 139.5t215 48.5q215 0 300 -106q59 -74 59 -202q0 -55 -11 -120l-108 -612h-209l108 612q8 47 8 84q-1 70 -29 108q-44 60 -177 60q-128 0 -220.5 -72.5t-142.5 -195.5l-104 -596h-209z" />
<glyph unicode="o" horiz-adv-x="1216" d="M59 420q0 286 173.5 453t459.5 167q212 0 337.5 -122t125.5 -326q0 -286 -173.5 -453.5t-457.5 -167.5q-213 0 -339 122t-126 327zM270 426q0 -133 68.5 -206t206.5 -73q191 0 295 121t104 318q0 133 -68 205.5t-206 72.5q-191 0 -295.5 -120.5t-104.5 -317.5z" />
<glyph unicode="p" horiz-adv-x="1226" d="M-31 -356l242 1368h178l-4 -135q68 74 167.5 118.5t207.5 44.5q101 0 179.5 -34.5t127 -95t73.5 -138.5t25 -170q0 -133 -37.5 -246.5t-109 -200t-183.5 -135.5t-253 -49q-108 0 -199 45t-125 105l-84 -477h-205zM299 385q6 -108 82 -173t188 -65q104 0 181 36.5 t120.5 100t63.5 140t20 166.5q0 129 -63 201.5t-193 72.5q-136 0 -226.5 -72t-131.5 -182z" />
<glyph unicode="q" horiz-adv-x="1230" d="M59 385q0 193 71.5 340.5t209 231t322.5 83.5q118 0 199 -45.5t112 -117.5l45 135h178l-242 -1368h-204l86 481q-65 -70 -163.5 -112t-217.5 -42q-193 0 -294.5 110.5t-101.5 303.5zM268 391q0 -124 59.5 -184t188.5 -60q118 0 219.5 65t151.5 169l43 250 q-11 113 -88 173t-187 60q-98 0 -173 -35.5t-121.5 -100t-69.5 -149.5t-23 -188z" />
<glyph unicode="r" horiz-adv-x="905" d="M33 0l178 1012h178l-10 -178q50 87 144 146.5t214 59.5q161 0 228 -82l-142 -157q-58 63 -161 63q-113 0 -188 -67.5t-126 -192.5l-106 -604h-209z" />
<glyph unicode="s" horiz-adv-x="1001" d="M2 115l109 153q135 -125 335 -125q109 0 173.5 35.5t64.5 104.5q0 45 -34.5 68t-119.5 50q-41 13 -61 19t-59 19.5t-59.5 23t-52.5 26t-49.5 31.5t-39.5 36t-32.5 43.5t-18.5 51t-8 60.5q0 69 24.5 124.5t66.5 93.5t100 63t122.5 36.5t136.5 11.5q112 0 212 -27.5 t161 -76.5l-103 -152q-51 38 -130.5 61t-170.5 23q-213 0 -213 -133q0 -26 14.5 -48t33 -36t55 -29.5t61 -23.5t69.5 -21q18 -5 27 -8q140 -45 207.5 -102.5t67.5 -157.5q0 -86 -40 -152.5t-108 -106t-150.5 -59.5t-174.5 -20q-133 0 -242.5 38.5t-173.5 105.5z" />
<glyph unicode="t" horiz-adv-x="784" d="M139 838l31 174h131l47 264h184l-47 -264h273l-31 -174h-272l-64 -359q-31 -165 -31 -221q0 -97 70 -108q16 -2 33 -3q25 0 53 6q46 9 74 27l39 -149q-45 -34 -126 -50q-54 -11 -99 -11q-22 0 -42 3q-41 5 -73 18t-54.5 28.5t-38 41.5t-24.5 49.5t-12 61t-3 66t5.5 75 t10 79t13.5 85.5l64 361h-111z" />
<glyph unicode="u" horiz-adv-x="1210" d="M92 391l109 621h209l-107 -600q-9 -48 -9 -88q0 -69 27 -111q42 -66 162 -66q276 0 379 269l105 596h209l-179 -1012h-176l8 158q-62 -85 -164 -136t-223 -51q-203 1 -294 111q-66 80 -66 205q0 49 10 104z" />
<glyph unicode="v" horiz-adv-x="1073" d="M139 1012h213l131 -797h4l410 797h213l-561 -1012h-205z" />
<glyph unicode="w" horiz-adv-x="1511" d="M139 1012h205l57 -772h5l323 690h201l84 -690h4l323 772h207l-471 -1012h-205l-86 688h-4l-51 -108l-110 -236l-164 -344h-205z" />
<glyph unicode="x" horiz-adv-x="1101" d="M-39 0l459 528l2 4l-262 480h233l176 -332h4l287 332h234l-426 -480l-2 -4l295 -528h-234l-203 391h-4l-325 -391h-234z" />
<glyph unicode="y" horiz-adv-x="1071" d="M-59 -334l92 150q46 -37 104 -37q69 0 121 65.5t82 153.5l-201 1014h217l123 -799h4l406 799h219l-555 -1012q-110 -200 -207 -296.5t-219 -96.5q-115 0 -186 59z" />
<glyph unicode="z" horiz-adv-x="1114" d="M2 0l31 172l774 668h-627l31 172h876l-30 -172l-778 -668h684l-31 -172h-930z" />
<glyph unicode="{" horiz-adv-x="782" d="M84 586l29 153q97 0 154 75.5t79 201.5l37 203q40 223 172.5 323t364.5 100l-27 -155q-142 0 -207 -60.5t-90 -207.5l-37 -203q-47 -269 -268 -350v-7q192 -81 145 -350l-37 -203q-27 -149 16 -208.5t187 -59.5l-27 -155q-233 0 -331 99.5t-58 323.5l37 203 q22 125 -10 201t-129 76z" />
<glyph unicode="|" horiz-adv-x="483" d="M-10 -297l342 1939h217l-342 -1939h-217z" />
<glyph unicode="}" horiz-adv-x="782" d="M-84 -317l27 155q142 0 207 60.5t90 207.5l36 203q47 269 269 350v7q-191 80 -144 350l35 203q25 146 -17.5 207t-185.5 61l27 155q234 0 331.5 -99.5t57.5 -323.5l-37 -203q-22 -125 10.5 -201t129.5 -76l-29 -153q-97 0 -154.5 -75.5t-79.5 -201.5l-36 -203 q-40 -225 -172.5 -324t-364.5 -99z" />
<glyph unicode="~" horiz-adv-x="1167" d="M86 537q59 83 151 135.5t207 52.5q63 0 118.5 -20.5t87.5 -45t72.5 -45t78.5 -20.5q62 0 114.5 34t106.5 99l80 -127q-70 -90 -151 -144.5t-191 -54.5q-52 0 -101.5 20.5t-83.5 45t-80.5 45t-91.5 20.5q-133 0 -233 -118z" />
<glyph unicode="&#xa1;" horiz-adv-x="466" d="M-18 -336l196 1012h168l-168 -1012h-196zM188 819l33 193h201l-33 -193h-201z" />
<glyph unicode="&#xa2;" horiz-adv-x="1159" d="M70 420q0 270 160.5 432.5t424.5 183.5l33 185h143l-32 -185q112 -11 202 -54t140 -114l-127 -137q-50 60 -106.5 92t-139.5 39l-127 -712q86 6 155 37t138 94l78 -138q-154 -154 -402 -170l-30 -182h-144l33 186q-183 25 -291 142.5t-108 300.5zM283 436 q0 -114 55 -186.5t162 -95.5l125 702q-162 -26 -252 -139t-90 -281z" />
<glyph unicode="&#xa3;" horiz-adv-x="1091" d="M-8 0l24 135q62 45 109 97t74 98t44 97t23 89.5t8 81.5h-178l29 160h141q-9 61 -11 110.5t2 107t23 112t52 102.5q126 191 387 194q114 2 208 -38t138 -111l-117 -121q-48 61 -103 86.5t-140 24.5q-64 -2 -119.5 -32.5t-89.5 -88.5q-39 -67 -39 -144t24 -202h355 l-29 -160h-320q-13 -287 -200 -434v-4h661l-28 -160h-928z" />
<glyph unicode="&#xa4;" horiz-adv-x="1191" d="M37 227l203 197q-58 83 -58 197q0 204 158 340l-143 202l163 123l146 -221q95 37 194 37q101 0 183 -37l223 221l119 -123l-213 -202q61 -82 61 -209q0 -108 -39.5 -184.5t-113.5 -143.5l137 -197l-160 -123l-141 211q-96 -41 -201 -41q-104 0 -188 41l-215 -211z M365 639q0 -100 58 -160.5t157 -60.5q131 0 221 89.5t90 227.5q0 103 -57.5 163t-157.5 60q-134 0 -222.5 -90t-88.5 -229z" />
<glyph unicode="&#xa5;" horiz-adv-x="1388" d="M229 1348h220l284 -619h4l502 619h215l-541 -646h215l-24 -143h-301l-23 -133h301l-26 -143h-301l-49 -283h-201l49 283h-303l26 143h304l22 133h-303l25 143h206z" />
<glyph unicode="&#xa6;" horiz-adv-x="483" d="M-10 -297l127 715h217l-127 -715h-217zM207 928l125 714h217l-125 -714h-217z" />
<glyph unicode="&#xa7;" horiz-adv-x="1021" d="M-25 -201l99 144q138 -97 317 -97q111 0 183.5 41t72.5 133q0 39 -21 70.5t-60 54t-75.5 37t-87.5 29.5q-43 14 -63.5 21t-57.5 21t-56 24.5t-46.5 27.5t-41.5 34.5t-29 40.5t-21 51t-6 61q0 93 56.5 170t154.5 120q-119 91 -119 232q0 118 68 199.5t175.5 118 t246.5 36.5q119 0 221 -29.5t168 -83.5l-99 -143q-133 96 -317 96q-111 0 -183.5 -41t-72.5 -133q0 -39 21 -70.5t60.5 -54t75.5 -36.5t87 -29q54 -17 83 -27.5t73.5 -29t68.5 -37.5t49 -46t36 -62.5t11 -78.5q0 -93 -58 -172.5t-157 -120.5q123 -94 123 -231 q0 -116 -67.5 -197t-175.5 -118t-246 -37q-256 0 -390 112zM281 541q0 -16 4 -29.5t13.5 -25.5t18.5 -21.5t26.5 -19t28 -15.5t33.5 -14.5t33.5 -12t36 -11.5t33.5 -11q5 -2 47 -17t63 -26q62 29 96 76.5t34 99.5q0 24 -9 44t-28 35.5t-38 27t-49.5 22t-50.5 16.5t-53 15 q-56 16 -110 41q-61 -24 -95 -72.5t-34 -101.5z" />
<glyph unicode="&#xa8;" horiz-adv-x="1490" d="M580 1499l36 209h222l-37 -209h-221zM1036 1499l37 209h221l-37 -209h-221z" />
<glyph unicode="&#xa9;" horiz-adv-x="1581" d="M96 561q0 178 64 330.5t176 258.5t268 166t336 60q281 0 441.5 -156t160.5 -421q0 -237 -109.5 -426.5t-303 -295.5t-435.5 -106q-278 0 -438 162t-160 428zM279 565q0 -201 113.5 -319.5t328.5 -118.5q152 0 274 50.5t201.5 139.5t121.5 208t42 257q0 199 -113 319 t-334 120q-201 0 -346 -86t-216.5 -232.5t-71.5 -337.5zM383 604q0 149 69 261.5t188 170.5t271 58q97 0 187 -35t137 -101l-105 -133q-46 59 -102.5 84t-136.5 25q-322 0 -322 -328q0 -203 230 -203q87 0 148.5 23.5t127.5 83.5l58 -131q-135 -135 -371 -135 q-173 0 -276 98t-103 262z" />
<glyph unicode="&#xaa;" horiz-adv-x="790" d="M141 829q0 246 324 246q54 0 104.5 -12.5t77.5 -30.5l10 53q14 75 -13.5 109.5t-115.5 34.5q-125 0 -217 -60l-49 115q122 76 289 76q163 0 223 -67.5t35 -209.5l-74 -415h-117l-8 80q-41 -41 -113 -68t-141 -27q-97 0 -156 44t-59 132zM297 844q0 -76 115 -76 q65 0 119.5 25t86.5 65l9 47q-66 39 -185 39q-74 0 -109.5 -23.5t-35.5 -76.5z" />
<glyph unicode="&#xab;" horiz-adv-x="1132" d="M82 516l29 156l643 483l-41 -233l-437 -326v-4l322 -326l-41 -233zM492 516l28 156l643 483l-41 -233l-436 -326v-4l322 -326l-41 -233z" />
<glyph unicode="&#xac;" horiz-adv-x="1185" d="M92 565l29 164h1022l-86 -483h-180l57 319h-842z" />
<glyph unicode="&#xad;" horiz-adv-x="829" d="M72 461l28 172h668l-29 -172h-667z" />
<glyph unicode="&#xae;" horiz-adv-x="1581" d="M96 561q0 178 64 330.5t176 258.5t268 166t336 60q281 0 441.5 -156t160.5 -421q0 -237 -109.5 -426.5t-303 -295.5t-435.5 -106q-278 0 -438 162t-160 428zM279 565q0 -201 113.5 -319.5t328.5 -118.5q152 0 274 50.5t201.5 139.5t121.5 208t42 257q0 199 -113 319 t-334 120q-201 0 -346 -86t-216.5 -232.5t-71.5 -337.5zM432 264l146 828h362q120 0 193 -50t73 -155q0 -53 -17 -96.5t-42.5 -71t-59.5 -47.5t-65 -29t-61 -12v-2q79 -30 99 -77t15 -144l-4 -144h-172l6 144q5 91 -16.5 130.5t-89.5 39.5h-148l-55 -314h-164zM672 717h192 q92 0 134 31.5t42 119.5q0 47 -31 65.5t-104 18.5h-192z" />
<glyph unicode="&#xb0;" horiz-adv-x="778" d="M225 1315q0 137 100 232t253 95q125 0 198.5 -67.5t73.5 -185.5q0 -135 -99.5 -231.5t-254.5 -96.5q-122 0 -196.5 71.5t-74.5 182.5zM371 1321q0 -62 35.5 -99.5t101.5 -37.5q91 0 144 56.5t53 141.5q0 63 -36 100.5t-102 37.5q-89 0 -142.5 -55.5t-53.5 -143.5z" />
<glyph unicode="&#xb1;" horiz-adv-x="831" d="M4 74l29 155h667l-28 -155h-668zM94 575l27 160h248l49 277h172l-49 -277h247l-26 -160h-248l-47 -260h-172l47 260h-248z" />
<glyph unicode="&#xb2;" horiz-adv-x="739" d="M100 612q20 106 53 173.5t86 115t148 98.5q30 16 71.5 36.5t62.5 31.5t43 26.5t31 32.5t9 39q0 60 -104 60q-118 0 -228 -86l-43 114q52 48 133 77.5t170 29.5q113 0 177.5 -44t64.5 -128q0 -28 -8.5 -55t-19.5 -47t-34 -42t-38.5 -34.5t-47.5 -32t-46 -27t-50.5 -25.5 t-44.5 -22q-46 -25 -60.5 -33t-45 -27t-41.5 -31.5t-23 -31.5t-16 -41h395l-22 -127h-572z" />
<glyph unicode="&#xb3;" horiz-adv-x="731" d="M115 700l78 115q66 -80 186 -80q160 0 160 109q0 50 -40.5 68t-115.5 18l20 114q168 0 168 111q0 70 -102 70q-115 0 -193 -72l-45 104q45 46 119.5 74.5t163.5 28.5q101 0 165 -45t64 -125q0 -81 -50 -132.5t-122 -64.5l-2 -2q59 -11 97.5 -50t38.5 -103 q0 -78 -49.5 -133.5t-123 -80t-161.5 -24.5q-81 0 -151 27t-105 73z" />
<glyph unicode="&#xb4;" horiz-adv-x="1490" d="M737 1466l160 340h262l-237 -340h-185z" />
<glyph unicode="&#xb5;" horiz-adv-x="1220" d="M-57 -512l268 1524h211l-109 -611q-22 -124 20.5 -189t170.5 -65q132 0 226 69.5t142 199.5l105 596h209l-178 -1012h-179l11 158q-56 -81 -160 -134t-219 -53q-69 0 -128.5 21t-86.5 65h-2l-101 -569h-200z" />
<glyph unicode="&#xb6;" horiz-adv-x="1359" d="M170 987q0 96 33 168.5t90 113t123 60t141 19.5h868l-30 -181h-142l-297 -1679h-213l297 1679h-163l-297 -1679h-213l219 1247h-137q-121 0 -200 62t-79 190z" />
<glyph unicode="&#xb7;" horiz-adv-x="380" d="M88 541l35 200h217l-35 -200h-217z" />
<glyph unicode="&#xb8;" horiz-adv-x="1490" d="M336 -500l53 140q44 -19 103 -19q70 0 107.5 31t37.5 90q0 38 -24 61t-78 33l73 164h164l-59 -127q104 -30 104 -131q0 -125 -93 -194.5t-243 -69.5q-96 0 -145 22z" />
<glyph unicode="&#xb9;" horiz-adv-x="532" d="M203 1194l229 154h166l-129 -736h-168l102 584l-157 -104z" />
<glyph unicode="&#xba;" horiz-adv-x="884" d="M162 950q0 188 117.5 299t312.5 111q146 0 225.5 -79t79.5 -216q0 -188 -118 -300t-312 -112q-146 0 -225.5 80t-79.5 217zM315 956q0 -81 42.5 -130.5t131.5 -49.5q66 0 117 24.5t80.5 65.5t44 90t14.5 103q0 82 -43.5 130t-130.5 48q-123 0 -189.5 -79t-66.5 -202z" />
<glyph unicode="&#xbb;" horiz-adv-x="1132" d="M-2 33l41 233l436 326v4l-321 326l41 233l475 -483l-29 -156zM408 33l41 233l436 326v4l-322 326l41 233l475 -483l-28 -156z" />
<glyph unicode="&#xbc;" horiz-adv-x="1435" d="M106 0l1092 1350h195l-1092 -1350h-195zM203 1194l229 154h166l-129 -736h-168l102 584l-157 -104zM682 166l18 106l439 463h157l-79 -452h96l-21 -117h-96l-29 -166h-143l29 166h-371zM874 287h201l45 264h-2z" />
<glyph unicode="&#xbd;" horiz-adv-x="1562" d="M111 0l1091 1350h195l-1092 -1350h-194zM203 1194l229 154h166l-129 -736h-168l102 584l-157 -104zM815 0q29 155 88.5 233.5t198.5 153.5q30 16 72.5 37t62.5 31.5t42.5 26t31 32.5t8.5 39q0 59 -102 59q-61 0 -122.5 -25t-107.5 -61l-43 115q56 49 135.5 78t167.5 29 q113 0 177.5 -44.5t64.5 -128.5q0 -28 -8.5 -54.5t-19.5 -47t-34 -42t-38.5 -34.5t-47 -31.5t-46.5 -26.5t-50 -25.5l-45 -22.5q-46 -25 -60.5 -33t-45 -27t-41.5 -31.5t-23 -31.5t-16 -41h395l-23 -127h-571z" />
<glyph unicode="&#xbe;" horiz-adv-x="1531" d="M119 719l78 115q66 -80 186 -80q160 0 160 108q0 50 -40.5 68t-115.5 18l21 115q167 0 167 111q0 69 -102 69q-114 0 -192 -72l-45 105q44 46 118.5 74t163.5 28q101 0 165.5 -45t64.5 -125q0 -81 -51.5 -132t-123.5 -64v-2q59 -11 97.5 -50.5t38.5 -103.5 q0 -78 -49.5 -133.5t-123.5 -80t-163 -24.5q-80 0 -149.5 27t-104.5 74zM201 0l1091 1350h195l-1092 -1350h-194zM778 166l19 106l438 463h158l-80 -452h96l-20 -117h-97l-28 -166h-144l29 166h-371zM971 287h200l46 264h-3z" />
<glyph unicode="&#xbf;" horiz-adv-x="948" d="M-20 -84q0 70 19.5 123.5t52 89.5t72.5 68t83.5 68t82.5 79.5t72 113.5t50 160l10 58h201l-11 -58q-17 -93 -49.5 -169.5t-71.5 -127t-82 -92t-82.5 -73t-71.5 -62.5t-51.5 -68.5t-19.5 -82.5q0 -60 44 -95.5t122 -35.5q94 0 165.5 31t141.5 94l97 -127 q-72 -75 -187.5 -122.5t-247.5 -47.5q-93 0 -168 29t-123 93t-48 154zM442 819l33 193h209l-33 -193h-209z" />
<glyph unicode="&#xc0;" horiz-adv-x="1341" d="M-59 0l784 1348h186l310 -1348h-222l-69 336h-580l-188 -336h-221zM434 492h465l-127 589h-2zM610 1774h262l37 -340h-184z" />
<glyph unicode="&#xc1;" horiz-adv-x="1341" d="M-59 0l784 1348h186l310 -1348h-222l-69 336h-580l-188 -336h-221zM434 492h465l-127 589h-2zM743 1433l160 340h262l-237 -340h-185z" />
<glyph unicode="&#xc2;" horiz-adv-x="1341" d="M-59 0l784 1348h186l310 -1348h-222l-69 336h-580l-188 -336h-221zM434 492h465l-127 589h-2zM516 1434l276 338h207l148 -338h-207l-68 192h-4l-143 -192h-209z" />
<glyph unicode="&#xc3;" horiz-adv-x="1341" d="M-59 0l784 1348h186l310 -1348h-222l-69 336h-580l-188 -336h-221zM434 492h465l-127 589h-2zM453 1546q51 71 129.5 120.5t165.5 49.5q55 0 99 -16.5t66.5 -36.5t51 -36.5t57.5 -16.5q51 0 81 22t75 78l80 -84q-42 -69 -110.5 -120.5t-157.5 -51.5q-45 0 -86 16.5 t-65.5 36.5t-57 36.5t-64.5 16.5q-54 0 -95.5 -22.5t-86.5 -73.5z" />
<glyph unicode="&#xc4;" horiz-adv-x="1341" d="M-59 0l784 1348h186l310 -1348h-222l-69 336h-580l-188 -336h-221zM434 492h465l-127 589h-2zM508 1433l36 209h222l-37 -209h-221zM964 1433l37 209h221l-37 -209h-221z" />
<glyph unicode="&#xc5;" horiz-adv-x="1341" d="M-59 0l741 1276q-74 56 -74 156q0 105 74.5 174t189.5 69q84 0 137.5 -57.5t53.5 -138.5q0 -71 -36 -127t-97 -86l291 -1266h-222l-69 336h-580l-188 -336h-221zM434 492h465l-127 589h-2zM737 1442q0 -36 22 -59t62 -23q47 0 80 32.5t33 77.5q0 36 -23 59t-59 23 q-49 0 -82 -32.5t-33 -77.5z" />
<glyph unicode="&#xc6;" horiz-adv-x="1888" d="M-59 0l931 1348h1043l-31 -177h-733l-68 -383h551l-30 -176h-551l-78 -436h754l-31 -176h-967l60 336h-400l-229 -336h-221zM481 492h336l121 675h-4z" />
<glyph unicode="&#xc7;" horiz-adv-x="1433" d="M94 553q0 246 101.5 432.5t289 288.5t435.5 102q381 0 532 -252l-139 -137q-118 209 -426 209q-181 0 -313.5 -83.5t-198.5 -224t-66 -319.5q0 -197 101.5 -307t312.5 -110q296 0 479 208l98 -137q-190 -216 -518 -248l-47 -102q105 -30 105 -131q0 -125 -93 -194.5 t-243 -69.5q-97 0 -146 22l54 140q44 -19 102 -19q70 0 107.5 31t37.5 90q0 38 -24 61t-78 33l61 139q-249 20 -386.5 174.5t-137.5 403.5z" />
<glyph unicode="&#xc8;" horiz-adv-x="1239" d="M43 0l238 1348h985l-31 -177h-772l-68 -383h590l-31 -176h-589l-78 -436h780l-31 -176h-993zM592 1773h262l37 -340h-184z" />
<glyph unicode="&#xc9;" horiz-adv-x="1239" d="M43 0l238 1348h985l-31 -177h-772l-68 -383h590l-31 -176h-589l-78 -436h780l-31 -176h-993zM686 1434l160 340h262l-238 -340h-184z" />
<glyph unicode="&#xca;" horiz-adv-x="1239" d="M43 0l238 1348h985l-31 -177h-772l-68 -383h590l-31 -176h-589l-78 -436h780l-31 -176h-993zM469 1434l276 338h207l148 -338h-207l-68 192h-4l-143 -192h-209z" />
<glyph unicode="&#xcb;" horiz-adv-x="1239" d="M43 0l238 1348h985l-31 -177h-772l-68 -383h590l-31 -176h-589l-78 -436h780l-31 -176h-993zM446 1454l37 209h222l-37 -209h-222zM903 1454l37 209h221l-37 -209h-221z" />
<glyph unicode="&#xcc;" horiz-adv-x="520" d="M63 0l238 1348h213l-238 -1348h-213zM203 1773h262l37 -340h-184z" />
<glyph unicode="&#xcd;" horiz-adv-x="520" d="M63 0l238 1348h213l-238 -1348h-213zM334 1434l160 340h262l-238 -340h-184z" />
<glyph unicode="&#xce;" horiz-adv-x="520" d="M63 0l238 1348h213l-238 -1348h-213zM105 1434l276 338h207l148 -338h-207l-68 192h-4l-143 -192h-209z" />
<glyph unicode="&#xcf;" horiz-adv-x="520" d="M63 0l238 1348h213l-238 -1348h-213zM115 1454l37 209h221l-37 -209h-221zM516 1454l37 209h221l-37 -209h-221z" />
<glyph unicode="&#xd0;" horiz-adv-x="1517" d="M96 590l31 176h186l103 582h491q271 0 422.5 -146t151.5 -405q0 -177 -51 -322.5t-148.5 -251.5t-248 -164.5t-341.5 -58.5h-514l105 590h-187zM424 180h301q112 0 203 32t153 88t104.5 134.5t61.5 168.5t19 192q0 182 -96.5 277t-290.5 95h-281l-72 -401h328l-31 -176 h-327z" />
<glyph unicode="&#xd1;" horiz-adv-x="1396" d="M43 0l238 1348h233l508 -1065h4l188 1065h197l-237 -1348h-234l-508 1065h-4l-188 -1065h-197zM471 1546q51 71 129.5 120.5t165.5 49.5q55 0 99 -16.5t66.5 -36.5t51 -36.5t57.5 -16.5q51 0 81 22t75 78l80 -84q-42 -69 -110.5 -120.5t-157.5 -51.5q-45 0 -86 16.5 t-65.5 36.5t-57 36.5t-64.5 16.5q-54 0 -95.5 -22.5t-86.5 -73.5z" />
<glyph unicode="&#xd2;" horiz-adv-x="1490" d="M94 559q0 242 95 426.5t275.5 287.5t422.5 103q177 0 307 -78t195 -211t65 -303q0 -242 -94.5 -425.5t-275 -285.5t-422.5 -102q-177 0 -307 76.5t-195.5 208.5t-65.5 303zM311 578q0 -426 371 -426q135 0 242 47.5t175.5 132t104 196t35.5 242.5q0 92 -21 167.5 t-64.5 134.5t-116.5 91.5t-171 32.5q-135 0 -242 -47.5t-174.5 -132t-103 -196t-35.5 -242.5zM688 1773h262l37 -340h-184z" />
<glyph unicode="&#xd3;" horiz-adv-x="1490" d="M94 559q0 242 95 426.5t275.5 287.5t422.5 103q177 0 307 -78t195 -211t65 -303q0 -242 -94.5 -425.5t-275 -285.5t-422.5 -102q-177 0 -307 76.5t-195.5 208.5t-65.5 303zM311 578q0 -426 371 -426q135 0 242 47.5t175.5 132t104 196t35.5 242.5q0 92 -21 167.5 t-64.5 134.5t-116.5 91.5t-171 32.5q-135 0 -242 -47.5t-174.5 -132t-103 -196t-35.5 -242.5zM823 1434l160 340h262l-237 -340h-185z" />
<glyph unicode="&#xd4;" horiz-adv-x="1490" d="M94 559q0 242 95 426.5t275.5 287.5t422.5 103q177 0 307 -78t195 -211t65 -303q0 -242 -94.5 -425.5t-275 -285.5t-422.5 -102q-177 0 -307 76.5t-195.5 208.5t-65.5 303zM311 578q0 -426 371 -426q135 0 242 47.5t175.5 132t104 196t35.5 242.5q0 92 -21 167.5 t-64.5 134.5t-116.5 91.5t-171 32.5q-135 0 -242 -47.5t-174.5 -132t-103 -196t-35.5 -242.5zM582 1434l276 338h207l148 -338h-207l-68 192h-4l-143 -192h-209z" />
<glyph unicode="&#xd5;" horiz-adv-x="1490" d="M94 559q0 242 95 426.5t275.5 287.5t422.5 103q177 0 307 -78t195 -211t65 -303q0 -242 -94.5 -425.5t-275 -285.5t-422.5 -102q-177 0 -307 76.5t-195.5 208.5t-65.5 303zM311 578q0 -426 371 -426q135 0 242 47.5t175.5 132t104 196t35.5 242.5q0 92 -21 167.5 t-64.5 134.5t-116.5 91.5t-171 32.5q-135 0 -242 -47.5t-174.5 -132t-103 -196t-35.5 -242.5zM516 1546q51 71 129.5 120.5t165.5 49.5q55 0 99 -16.5t66.5 -36.5t51 -36.5t57.5 -16.5q51 0 81 22t75 78l80 -84q-42 -69 -110.5 -120.5t-157.5 -51.5q-45 0 -86 16.5 t-65.5 36.5t-57 36.5t-64.5 16.5q-54 0 -95.5 -22.5t-86.5 -73.5z" />
<glyph unicode="&#xd6;" horiz-adv-x="1490" d="M94 559q0 242 95 426.5t275.5 287.5t422.5 103q177 0 307 -78t195 -211t65 -303q0 -242 -94.5 -425.5t-275 -285.5t-422.5 -102q-177 0 -307 76.5t-195.5 208.5t-65.5 303zM311 578q0 -426 371 -426q135 0 242 47.5t175.5 132t104 196t35.5 242.5q0 92 -21 167.5 t-64.5 134.5t-116.5 91.5t-171 32.5q-135 0 -242 -47.5t-174.5 -132t-103 -196t-35.5 -242.5zM563 1454l37 209h221l-37 -209h-221zM1020 1454l37 209h221l-37 -209h-221z" />
<glyph unicode="&#xd7;" horiz-adv-x="845" d="M47 309l260 221l-182 224l139 118l182 -223l263 223l98 -118l-262 -224l184 -221l-141 -119l-185 222l-260 -222z" />
<glyph unicode="&#xd8;" horiz-adv-x="1490" d="M94 559q0 242 95 426.5t275.5 287.5t422.5 103q97 0 190 -26l84 147h164l-117 -207q120 -77 183 -208t63 -298q0 -242 -94.5 -425.5t-275 -285.5t-422.5 -102q-89 0 -179 23l-82 -150h-163l114 205q-126 73 -192 205t-66 305zM311 578q0 -260 135 -361l539 965 q-68 14 -119 14q-135 0 -242 -47.5t-174.5 -132t-103 -196t-35.5 -242.5zM578 162q55 -10 104 -10q135 0 242 47.5t175.5 132t104 196t35.5 242.5q0 235 -129 344z" />
<glyph unicode="&#xd9;" horiz-adv-x="1384" d="M125 522l145 826h213l-147 -836q-34 -177 29 -268.5t243 -91.5q187 0 298.5 93t142.5 267l147 836h213l-145 -826q-46 -259 -214.5 -405t-451.5 -146q-281 0 -399.5 146.5t-73.5 404.5zM649 1773h262l37 -340h-184z" />
<glyph unicode="&#xda;" horiz-adv-x="1384" d="M125 522l145 826h213l-147 -836q-34 -177 29 -268.5t243 -91.5q187 0 298.5 93t142.5 267l147 836h213l-145 -826q-46 -259 -214.5 -405t-451.5 -146q-281 0 -399.5 146.5t-73.5 404.5zM750 1434l159 340h262l-237 -340h-184z" />
<glyph unicode="&#xdb;" horiz-adv-x="1384" d="M125 522l145 826h213l-147 -836q-34 -177 29 -268.5t243 -91.5q187 0 298.5 93t142.5 267l147 836h213l-145 -826q-46 -259 -214.5 -405t-451.5 -146q-281 0 -399.5 146.5t-73.5 404.5zM539 1434l276 338h207l148 -338h-207l-68 192h-4l-143 -192h-209z" />
<glyph unicode="&#xdc;" horiz-adv-x="1384" d="M125 522l145 826h213l-147 -836q-34 -177 29 -268.5t243 -91.5q187 0 298.5 93t142.5 267l147 836h213l-145 -826q-46 -259 -214.5 -405t-451.5 -146q-281 0 -399.5 146.5t-73.5 404.5zM528 1454l37 209h221l-36 -209h-222zM985 1454l37 209h221l-37 -209h-221z" />
<glyph unicode="&#xdd;" horiz-adv-x="1310" d="M199 1348h237l236 -727h4l493 727h238l-659 -916l-76 -432h-213l76 432zM708 1433l160 340h262l-237 -340h-185z" />
<glyph unicode="&#xde;" horiz-adv-x="1249" d="M43 0l238 1348h208l-32 -191h397q185 0 293 -106.5t108 -276.5q0 -153 -73 -267.5t-198.5 -173.5t-285.5 -59h-393l-49 -274h-213zM332 455h358q171 0 261.5 79t90.5 232q0 211 -260 211h-358z" />
<glyph unicode="&#xdf;" horiz-adv-x="1214" d="M33 0l155 881q19 114 57.5 200t101.5 150.5t157 97.5t217 33q191 0 301.5 -85.5t110.5 -229.5q0 -121 -73.5 -212.5t-178.5 -117.5l-2 -4q115 -31 179 -106.5t64 -190.5q0 -207 -152.5 -336t-416.5 -129l-4 180q173 0 268.5 75t95.5 200q0 101 -70 158t-190 75l25 141 q113 0 177.5 60.5t64.5 175.5q0 83 -55 124.5t-156 41.5q-141 0 -210.5 -74t-99.5 -238l-153 -870h-213z" />
<glyph unicode="&#xe0;" horiz-adv-x="1112" d="M27 256q0 92 36 161.5t100.5 110.5t147 60.5t183.5 19.5q180 0 311 -71l18 106q21 119 -26 170t-191 51q-181 0 -342 -92l-37 168q81 45 191.5 72.5t220.5 27.5q230 0 323.5 -95t57.5 -302l-113 -643h-151l2 131q-160 -160 -379 -160q-169 0 -260.5 80t-91.5 205z M229 262q0 -131 187 -131q220 0 348 166l14 82q-76 37 -145 53.5t-166 16.5q-238 0 -238 -187zM504 1470h262l37 -340h-184z" />
<glyph unicode="&#xe1;" horiz-adv-x="1112" d="M27 256q0 92 36 161.5t100.5 110.5t147 60.5t183.5 19.5q180 0 311 -71l18 106q21 119 -26 170t-191 51q-181 0 -342 -92l-37 168q81 45 191.5 72.5t220.5 27.5q230 0 323.5 -95t57.5 -302l-113 -643h-151l2 131q-160 -160 -379 -160q-169 0 -260.5 80t-91.5 205z M229 262q0 -131 187 -131q220 0 348 166l14 82q-76 37 -145 53.5t-166 16.5q-238 0 -238 -187zM563 1130l160 340h262l-237 -340h-185z" />
<glyph unicode="&#xe2;" horiz-adv-x="1112" d="M27 256q0 92 36 161.5t100.5 110.5t147 60.5t183.5 19.5q180 0 311 -71l18 106q21 119 -26 170t-191 51q-181 0 -342 -92l-37 168q81 45 191.5 72.5t220.5 27.5q230 0 323.5 -95t57.5 -302l-113 -643h-151l2 131q-160 -160 -379 -160q-169 0 -260.5 80t-91.5 205z M229 262q0 -131 187 -131q220 0 348 166l14 82q-76 37 -145 53.5t-166 16.5q-238 0 -238 -187zM369 1131l276 338h207l148 -338h-207l-68 192h-4l-143 -192h-209z" />
<glyph unicode="&#xe3;" horiz-adv-x="1112" d="M27 256q0 92 36 161.5t100.5 110.5t147 60.5t183.5 19.5q180 0 311 -71l18 106q21 119 -26 170t-191 51q-181 0 -342 -92l-37 168q81 45 191.5 72.5t220.5 27.5q230 0 323.5 -95t57.5 -302l-113 -643h-151l2 131q-160 -160 -379 -160q-169 0 -260.5 80t-91.5 205z M229 262q0 -131 187 -131q220 0 348 166l14 82q-76 37 -145 53.5t-166 16.5q-238 0 -238 -187zM293 1243q51 71 129.5 120.5t165.5 49.5q55 0 99 -16.5t66.5 -36.5t51 -36.5t57.5 -16.5q51 0 81 22t75 78l80 -84q-42 -69 -111 -120.5t-158 -51.5q-45 0 -85.5 16.5t-65 36.5 t-57 36.5t-64.5 16.5q-54 0 -95.5 -22.5t-86.5 -73.5z" />
<glyph unicode="&#xe4;" horiz-adv-x="1112" d="M27 256q0 92 36 161.5t100.5 110.5t147 60.5t183.5 19.5q180 0 311 -71l18 106q21 119 -26 170t-191 51q-181 0 -342 -92l-37 168q81 45 191.5 72.5t220.5 27.5q230 0 323.5 -95t57.5 -302l-113 -643h-151l2 131q-160 -160 -379 -160q-169 0 -260.5 80t-91.5 205z M229 262q0 -131 187 -131q220 0 348 166l14 82q-76 37 -145 53.5t-166 16.5q-238 0 -238 -187zM348 1151l37 209h221l-37 -209h-221zM805 1151l37 209h221l-37 -209h-221z" />
<glyph unicode="&#xe5;" horiz-adv-x="1112" d="M27 256q0 92 36 161.5t100.5 110.5t147 60.5t183.5 19.5q180 0 311 -71l18 106q21 119 -26 170t-191 51q-181 0 -342 -92l-37 168q81 45 191.5 72.5t220.5 27.5q230 0 323.5 -95t57.5 -302l-113 -643h-151l2 131q-160 -160 -379 -160q-169 0 -260.5 80t-91.5 205z M229 262q0 -131 187 -131q220 0 348 166l14 82q-76 37 -145 53.5t-166 16.5q-238 0 -238 -187zM492 1317q0 105 74.5 174.5t189.5 69.5q84 0 137 -58t53 -139q0 -104 -74.5 -173t-185.5 -69q-88 0 -141 56.5t-53 138.5zM621 1327q0 -36 22 -59t62 -23q47 0 79.5 33t32.5 78 q0 36 -23 59t-59 23q-49 0 -81.5 -33t-32.5 -78z" />
<glyph unicode="&#xe6;" horiz-adv-x="1882" d="M27 238q0 124 61.5 209t164 123t241.5 38q180 0 311 -71l18 106q21 119 -26 170t-191 51q-181 0 -342 -92l-37 168q83 45 193 72.5t219 27.5q279 0 356 -157h4q167 157 416 157q104 0 183.5 -29t128.5 -82t73.5 -126t22.5 -160.5t-29 -187.5h-786q-31 -142 36 -227 t224 -85q115 0 196.5 36.5t149.5 107.5l96 -119q-185 -197 -471 -197q-142 0 -239.5 52t-147.5 143h-4q-173 -195 -469 -195q-173 0 -262.5 71t-89.5 196zM229 262q0 -131 187 -131q220 0 348 166l14 82q-76 37 -145 53.5t-166 16.5q-238 0 -238 -187zM1042 610h586 q14 124 -48 189t-200 65q-272 0 -338 -254z" />
<glyph unicode="&#xe7;" horiz-adv-x="1138" d="M59 420q0 284 181.5 452t470.5 168q138 0 249.5 -44t169.5 -128l-126 -137q-58 69 -127 101t-177 32q-199 0 -313.5 -118.5t-114.5 -309.5q0 -136 77 -212.5t226 -76.5q106 0 188 31t161 103l77 -138q-146 -146 -370 -168l-47 -102q104 -30 104 -131q0 -125 -93 -194.5 t-243 -69.5q-96 0 -145 22l53 140q44 -19 102 -19q70 0 108 31t38 90q0 38 -24 61t-78 33l61 139q-185 20 -296.5 139.5t-111.5 305.5z" />
<glyph unicode="&#xe8;" horiz-adv-x="1173" d="M59 406q0 283 167.5 458.5t457.5 175.5q104 0 185.5 -29t133.5 -81.5t81.5 -126t28 -161t-25.5 -187.5h-817q-30 -142 44 -227t237 -85q219 0 356 144l97 -119q-185 -197 -482 -197q-220 0 -341.5 117t-121.5 318zM305 610h617q14 123 -52.5 188.5t-205.5 65.5 q-137 0 -231 -62t-128 -192zM471 1470h262l37 -340h-184z" />
<glyph unicode="&#xe9;" horiz-adv-x="1173" d="M59 406q0 283 167.5 458.5t457.5 175.5q104 0 185.5 -29t133.5 -81.5t81.5 -126t28 -161t-25.5 -187.5h-817q-30 -142 44 -227t237 -85q219 0 356 144l97 -119q-185 -197 -482 -197q-220 0 -341.5 117t-121.5 318zM305 610h617q14 123 -52.5 188.5t-205.5 65.5 q-137 0 -231 -62t-128 -192zM610 1130l160 340h262l-237 -340h-185z" />
<glyph unicode="&#xea;" horiz-adv-x="1173" d="M59 406q0 283 167.5 458.5t457.5 175.5q104 0 185.5 -29t133.5 -81.5t81.5 -126t28 -161t-25.5 -187.5h-817q-30 -142 44 -227t237 -85q219 0 356 144l97 -119q-185 -197 -482 -197q-220 0 -341.5 117t-121.5 318zM305 610h617q14 123 -52.5 188.5t-205.5 65.5 q-137 0 -231 -62t-128 -192zM375 1131l276 338h207l148 -338h-207l-68 192h-4l-143 -192h-209z" />
<glyph unicode="&#xeb;" horiz-adv-x="1173" d="M59 406q0 283 167.5 458.5t457.5 175.5q104 0 185.5 -29t133.5 -81.5t81.5 -126t28 -161t-25.5 -187.5h-817q-30 -142 44 -227t237 -85q219 0 356 144l97 -119q-185 -197 -482 -197q-220 0 -341.5 117t-121.5 318zM305 610h617q14 123 -52.5 188.5t-205.5 65.5 q-137 0 -231 -62t-128 -192zM342 1151l37 209h221l-37 -209h-221zM799 1151l37 209h221l-37 -209h-221z" />
<glyph unicode="&#xec;" horiz-adv-x="475" d="M43 0l178 1012h209l-178 -1012h-209zM125 1470h262l37 -340h-184z" />
<glyph unicode="&#xed;" horiz-adv-x="475" d="M43 0l178 1012h209l-178 -1012h-209zM256 1130l160 340h262l-238 -340h-184z" />
<glyph unicode="&#xee;" horiz-adv-x="475" d="M27 1130l276 338h207l147 -338h-206l-68 193h-4l-143 -193h-209zM43 0l178 1012h209l-178 -1012h-209z" />
<glyph unicode="&#xef;" horiz-adv-x="475" d="M41 1151l37 209h221l-37 -209h-221zM43 0l178 1012h209l-178 -1012h-209zM438 1151l37 209h221l-37 -209h-221z" />
<glyph unicode="&#xf0;" horiz-adv-x="1198" d="M72 369q0 128 46.5 230t127.5 166.5t186.5 98t226.5 33.5q103 0 176.5 -35t106.5 -90q62 335 -151 453l-263 -201l-98 115l186 143q-138 20 -333 -8l49 149q266 39 452 -12l148 113l100 -115l-90 -68q101 -66 155.5 -178t59 -252t-26.5 -307q-21 -105 -53.5 -194.5 t-86 -172t-123 -140t-167.5 -92t-215 -34.5q-104 0 -184.5 31.5t-129.5 86.5t-74 126t-25 154zM279 383q0 -63 20 -109.5t55 -72t75 -37.5t87 -12q40 0 80 7.5t84 27t80 50t66 81t44 114.5q28 137 -40.5 213t-200.5 76q-72 0 -134.5 -21t-111 -61.5t-76.5 -106.5t-28 -149z " />
<glyph unicode="&#xf1;" horiz-adv-x="1210" d="M33 0l178 1012h176l-8 -160q71 91 174 139.5t215 48.5q215 0 300 -106.5t48 -321.5l-108 -612h-209l108 612q24 133 -20.5 192.5t-177.5 59.5q-128 0 -220.5 -72.5t-142.5 -195.5l-104 -596h-209zM346 1243q51 71 129.5 120.5t165.5 49.5q55 0 99 -16.5t66.5 -36.5 t51 -36.5t57.5 -16.5q51 0 81 22t75 78l80 -84q-42 -69 -110.5 -120.5t-157.5 -51.5q-45 0 -86 16.5t-65.5 36.5t-57 36.5t-64.5 16.5q-54 0 -95.5 -22.5t-86.5 -73.5z" />
<glyph unicode="&#xf2;" horiz-adv-x="1216" d="M59 420q0 286 173.5 453t459.5 167q212 0 337.5 -122t125.5 -326q0 -286 -173.5 -453.5t-457.5 -167.5q-213 0 -339 122t-126 327zM270 426q0 -133 68.5 -206t206.5 -73q191 0 295 121t104 318q0 133 -68 205.5t-206 72.5q-191 0 -295.5 -120.5t-104.5 -317.5zM485 1470 h262l37 -340h-184z" />
<glyph unicode="&#xf3;" horiz-adv-x="1216" d="M59 420q0 286 173.5 453t459.5 167q212 0 337.5 -122t125.5 -326q0 -286 -173.5 -453.5t-457.5 -167.5q-213 0 -339 122t-126 327zM270 426q0 -133 68.5 -206t206.5 -73q191 0 295 121t104 318q0 133 -68 205.5t-206 72.5q-191 0 -295.5 -120.5t-104.5 -317.5zM618 1130 l160 340h262l-237 -340h-185z" />
<glyph unicode="&#xf4;" horiz-adv-x="1216" d="M59 420q0 286 173.5 453t459.5 167q212 0 337.5 -122t125.5 -326q0 -286 -173.5 -453.5t-457.5 -167.5q-213 0 -339 122t-126 327zM270 426q0 -133 68.5 -206t206.5 -73q191 0 295 121t104 318q0 133 -68 205.5t-206 72.5q-191 0 -295.5 -120.5t-104.5 -317.5zM414 1131 l276 338h207l148 -338h-207l-68 192h-4l-143 -192h-209z" />
<glyph unicode="&#xf5;" horiz-adv-x="1216" d="M59 420q0 286 173.5 453t459.5 167q212 0 337.5 -122t125.5 -326q0 -286 -173.5 -453.5t-457.5 -167.5q-213 0 -339 122t-126 327zM270 426q0 -133 68.5 -206t206.5 -73q191 0 295 121t104 318q0 133 -68 205.5t-206 72.5q-191 0 -295.5 -120.5t-104.5 -317.5zM338 1243 q51 71 129.5 120.5t165.5 49.5q55 0 99 -16.5t66.5 -36.5t51 -36.5t57.5 -16.5q51 0 81 22t75 78l80 -84q-42 -69 -111 -120.5t-158 -51.5q-45 0 -85.5 16.5t-65 36.5t-57 36.5t-64.5 16.5q-54 0 -95.5 -22.5t-86.5 -73.5z" />
<glyph unicode="&#xf6;" horiz-adv-x="1216" d="M59 420q0 286 173.5 453t459.5 167q212 0 337.5 -122t125.5 -326q0 -286 -173.5 -453.5t-457.5 -167.5q-213 0 -339 122t-126 327zM270 426q0 -133 68.5 -206t206.5 -73q191 0 295 121t104 318q0 133 -68 205.5t-206 72.5q-191 0 -295.5 -120.5t-104.5 -317.5zM383 1151 l36 209h222l-37 -209h-221zM839 1151l37 209h221l-37 -209h-221z" />
<glyph unicode="&#xf7;" horiz-adv-x="831" d="M72 457l30 176h668l-31 -176h-667zM244 129l35 193h208l-34 -193h-209zM354 760l35 192h209l-35 -192h-209z" />
<glyph unicode="&#xf8;" horiz-adv-x="1216" d="M59 420q0 286 173.5 453t459.5 167q64 0 119 -12l109 203h163l-137 -252q100 -56 154.5 -155.5t54.5 -231.5q0 -286 -173.5 -453.5t-457.5 -167.5q-44 0 -116 11l-111 -207h-164l137 256q-101 56 -156 156t-55 233zM270 426q0 -156 92 -227l357 661q-28 4 -49 4 q-191 0 -295.5 -120.5t-104.5 -317.5zM500 150q21 -3 45 -3q191 0 295 121t104 318q0 153 -90 223z" />
<glyph unicode="&#xf9;" horiz-adv-x="1210" d="M92 391l109 621h209l-107 -600q-24 -133 18 -199t162 -66q276 0 379 269l105 596h209l-179 -1012h-176l8 158q-62 -85 -164 -136t-223 -51q-203 0 -294 110.5t-56 309.5zM508 1470h262l37 -340h-184z" />
<glyph unicode="&#xfa;" horiz-adv-x="1210" d="M92 391l109 621h209l-107 -600q-24 -133 18 -199t162 -66q276 0 379 269l105 596h209l-179 -1012h-176l8 158q-62 -85 -164 -136t-223 -51q-203 0 -294 110.5t-56 309.5zM614 1130l160 340h262l-237 -340h-185z" />
<glyph unicode="&#xfb;" horiz-adv-x="1210" d="M92 391l109 621h209l-107 -600q-24 -133 18 -199t162 -66q276 0 379 269l105 596h209l-179 -1012h-176l8 158q-62 -85 -164 -136t-223 -51q-203 0 -294 110.5t-56 309.5zM391 1131l276 338h207l148 -338h-207l-68 192h-4l-143 -192h-209z" />
<glyph unicode="&#xfc;" horiz-adv-x="1210" d="M92 391l109 621h209l-107 -600q-24 -133 18 -199t162 -66q276 0 379 269l105 596h209l-179 -1012h-176l8 158q-62 -85 -164 -136t-223 -51q-203 0 -294 110.5t-56 309.5zM367 1151l36 209h222l-37 -209h-221zM823 1151l37 209h221l-37 -209h-221z" />
<glyph unicode="&#xfd;" horiz-adv-x="1071" d="M-59 -334l92 150q46 -37 104 -37q69 0 121 65.5t82 153.5l-201 1014h217l123 -799h4l406 799h219l-555 -1012q-110 -200 -207 -296.5t-219 -96.5q-115 0 -186 59zM536 1130l160 340h262l-237 -340h-185z" />
<glyph unicode="&#xfe;" horiz-adv-x="1226" d="M-31 -356l301 1704h207l-84 -471q59 77 158 120t211 43q197 0 300 -123.5t103 -314.5q0 -133 -37.5 -246.5t-108 -200t-182.5 -135.5t-253 -49q-108 0 -199 45t-125 105l-84 -477h-207zM301 385q6 -108 82 -173t188 -65q84 0 150.5 24.5t109.5 65.5t71 98.5t40 120 t12 134.5q0 129 -62 201.5t-192 72.5q-136 0 -226.5 -72t-131.5 -182z" />
<glyph unicode="&#xff;" horiz-adv-x="1071" d="M-59 -334l92 150q46 -37 104 -37q69 0 121 65.5t82 153.5l-201 1014h217l123 -799h4l406 799h219l-555 -1012q-110 -200 -207 -296.5t-219 -96.5q-115 0 -186 59zM305 1151l37 209h221l-37 -209h-221zM762 1151l37 209h221l-37 -209h-221z" />
<glyph unicode="&#x141;" horiz-adv-x="1202" d="M-8 348l31 180l225 115l125 705h213l-103 -586l346 176l-32 -180l-346 -176l-70 -402h702l-32 -180h-916l82 463z" />
<glyph unicode="&#x142;" horiz-adv-x="763" d="M10 389l31 180l195 111l120 688h209l-98 -557l297 168l-31 -180l-299 -170l-43 -246q-25 -137 -9 -186.5t87 -49.5q69 0 141 33l39 -149q-105 -60 -256 -60q-286 0 -217 375l27 152z" />
<glyph unicode="&#x152;" horiz-adv-x="1921" d="M94 559q0 241 92 426t265.5 288t404.5 103q121 0 207 -28h885l-31 -177h-694l-68 -383h510l-31 -176h-510l-77 -436h714l-30 -176h-900q-82 -29 -213 -29q-126 0 -226 44t-165 122.5t-99 186t-34 235.5zM311 578q0 -200 86.5 -313t264.5 -113q118 0 174 34l172 975 q-22 16 -70.5 25.5t-91.5 9.5q-127 0 -229.5 -48t-169 -131.5t-101.5 -195.5t-35 -243z" />
<glyph unicode="&#x153;" horiz-adv-x="2027" d="M59 412q0 283 176.5 455.5t460.5 172.5q285 0 394 -186q174 186 460 186q80 0 149.5 -19.5t130 -62.5t94 -111.5t42.5 -165.5t-24 -226h-816q-17 -59 -6 -115t40.5 -99.5t92.5 -70.5t150 -27q214 0 348 140l100 -119q-189 -193 -477 -193q-295 0 -407 191 q-179 -191 -459 -191q-209 0 -329 121t-120 320zM270 430q0 -128 67.5 -205.5t201.5 -77.5q97 0 174.5 36t125 98t72.5 139.5t25 165.5q0 132 -68 205t-204 73q-99 0 -175 -33.5t-123.5 -93t-71.5 -137.5t-24 -170zM1161 610h613q16 129 -55.5 191.5t-202.5 62.5 q-43 0 -83.5 -6.5t-84.5 -23.5t-79.5 -44.5t-64.5 -73.5t-43 -106z" />
<glyph unicode="&#x160;" horiz-adv-x="1200" d="M14 127l115 170q183 -145 412 -145q159 0 248.5 55.5t89.5 165.5q0 21 -4 39t-15.5 34.5t-21.5 29t-34 26.5t-39 23t-51 24t-56.5 23t-67.5 26q-203 77 -297 164t-94 217q0 83 29.5 150.5t81 113t122.5 76t152 44t172 13.5q280 0 446 -119l-110 -159q-137 98 -357 98 q-146 0 -232.5 -51.5t-86.5 -153.5q0 -61 57 -102q45 -32 214 -100h1l1 -1h1h1l1 -1h1l1 -1h1h1l1 -1h1l1 -1h1h1l1 -1h1l1 -1h1h1l1 -1h1l1 -1h1h1l1 -1h1l2 -1q96 -36 163 -72.5t118 -83t75.5 -104.5t24.5 -131q0 -200 -153.5 -308t-432.5 -108q-155 0 -271.5 35.5 t-224.5 120.5zM512 1772h207l67 -193h5l143 193h209l-277 -338h-207z" />
<glyph unicode="&#x161;" horiz-adv-x="1001" d="M2 115l109 153q135 -125 335 -125q109 0 173.5 35.5t64.5 104.5q0 45 -34.5 68t-119.5 50q-41 13 -61 19t-59 19.5t-59.5 23t-52.5 26t-49.5 31.5t-39.5 36t-32.5 43.5t-18.5 51t-8 60.5q0 69 24.5 124.5t66.5 93.5t100 63t122.5 36.5t136.5 11.5q112 0 212 -27.5 t161 -76.5l-103 -152q-51 38 -130.5 61t-170.5 23q-213 0 -213 -133q0 -26 14.5 -48t33 -36t55 -29.5t61 -23.5t69.5 -21q18 -5 27 -8q140 -45 207.5 -102.5t67.5 -157.5q0 -86 -40 -152.5t-108 -106t-150.5 -59.5t-174.5 -20q-133 0 -242.5 38.5t-173.5 105.5zM348 1468 h207l68 -192h4l143 192h209l-277 -338h-206z" />
<glyph unicode="&#x178;" horiz-adv-x="1310" d="M199 1348h237l236 -727h4l493 727h238l-659 -916l-76 -432h-213l76 432zM484 1433l36 209h222l-37 -209h-221zM940 1433l37 209h221l-37 -209h-221z" />
<glyph unicode="&#x17d;" horiz-adv-x="1320" d="M12 0l33 188l1014 979h-811l31 181h1067l-33 -189l-1010 -979h858l-33 -180h-1116zM557 1772h207l67 -193h5l143 193h209l-277 -338h-206z" />
<glyph unicode="&#x17e;" horiz-adv-x="1114" d="M2 0l31 172l774 668h-627l31 172h876l-30 -172l-778 -668h684l-31 -172h-930zM408 1468h206l68 -192h4l143 192h209l-276 -338h-207z" />
<glyph unicode="&#x192;" horiz-adv-x="1275" d="M-309 -315l143 108q25 -45 58 -65.5t92 -20.5q72 0 116.5 43.5t77.5 124.5l287 741h-164l68 172h163l97 248q65 166 169.5 253t268.5 87q95 0 159.5 -37t94.5 -104l-143 -109q-42 86 -148 86q-72 0 -115.5 -43t-76.5 -125l-101 -256h258l-67 -172h-258l-283 -733 q-64 -164 -170 -252t-272 -88q-95 0 -159.5 37.5t-94.5 104.5z" />
<glyph unicode="&#x2c6;" horiz-adv-x="1490" d="M592 1434l276 338h207l148 -338h-207l-68 192h-4l-143 -192h-209z" />
<glyph unicode="&#x2dc;" horiz-adv-x="1490" d="M516 1456q51 71 129.5 120.5t165.5 49.5q55 0 99 -16.5t66.5 -36.5t51 -36.5t57.5 -16.5q51 0 81 22t75 78l80 -84q-42 -69 -110.5 -120.5t-157.5 -51.5q-45 0 -86 16.5t-65.5 36.5t-57 36.5t-64.5 16.5q-54 0 -95.5 -22.5t-86.5 -73.5z" />
<glyph unicode="&#xe00;" horiz-adv-x="1024" />
<glyph unicode="&#xe01;" horiz-adv-x="1318" d="M70 0l63 354q24 128 74 207t151 133v4l-188 148l-8 119q110 110 273 183t329 73q264 0 381 -108.5t80 -321.5l-140 -791h-208l139 791q23 130 -42 191.5t-220 61.5q-216 0 -396 -129v-6l213 -166l-16 -96q-97 -41 -144.5 -107.5t-68.5 -185.5l-63 -354h-209z" />
<glyph unicode="&#xe02;" horiz-adv-x="1220" d="M76 334q0 89 28 168t70 133t91.5 104.5t91.5 86t70 73.5t28 70q0 23 -13 33.5t-29 12t-55 1.5h-131l33 176h146q136 0 198 -40.5t62 -133.5q0 -57 -21 -108.5t-54.5 -92t-74 -79.5t-80.5 -80.5t-73.5 -86.5t-54.5 -105t-21 -128q0 -191 248 -191q139 0 216 68t101 205 l135 772h209l-135 -772q-39 -219 -176 -334t-369 -115q-203 0 -321.5 98.5t-118.5 264.5z" />
<glyph unicode="&#xe03;" horiz-adv-x="1220" d="M76 334q0 79 24 150.5t63 124t86 99t95 83t89 67t69 60.5t33 55l-3 2q-57 -45 -147 -45q-107 0 -153.5 65.5t-22.5 175.5l4 21h176l-4 -21q-18 -102 72 -102t108 102l4 21h179l-29 -168q-11 -71 -41.5 -129t-69 -98t-83 -76t-86.5 -72.5t-76 -77.5t-55 -100.5t-21 -132.5 q0 -191 248 -191q139 0 216 68t101 205l135 772h209l-135 -772q-39 -219 -176 -334t-369 -115q-203 0 -321.5 98.5t-118.5 264.5z" />
<glyph unicode="&#xe04;" horiz-adv-x="1357" d="M53 0l125 707q43 245 193.5 379.5t419.5 134.5q270 0 385 -136.5t73 -377.5l-125 -707h-209l125 707q30 172 -28 254.5t-234 82.5q-178 0 -269.5 -83.5t-121.5 -253.5l-39 -226h2q56 85 152 138t209 53q57 0 127 -17l-84 -188q-62 12 -97 12q-130 0 -222 -69.5 t-136 -200.5l-37 -209h-209z" />
<glyph unicode="&#xe05;" horiz-adv-x="1363" d="M53 0l144 809q16 88 41.5 156t68 125t108 87.5t150.5 30.5q164 0 203 -139h8q38 64 104.5 101.5t151.5 37.5q317 0 244 -389l-146 -819h-208l151 858q21 88 1.5 131t-93.5 43q-123 0 -158 -147h-151q21 147 -101 147q-71 0 -106.5 -45t-50.5 -131l-68 -379h4 q57 86 153 140.5t208 54.5q57 0 127 -17l-84 -188q-62 12 -97 12q-131 0 -222.5 -68t-135.5 -198l-37 -213h-209z" />
<glyph unicode="&#xe06;" horiz-adv-x="1314" d="M43 0l72 406q16 92 66 173.5t111 137t120.5 101t103 85t49.5 70.5l-2 2q-57 -45 -147 -45q-107 0 -153.5 65.5t-22.5 175.5l4 21h176l-4 -21q-18 -102 71 -102q91 0 109 102l4 21h178l-28 -168q-12 -65 -39 -118t-62 -90.5t-75 -71t-80 -66.5t-74 -69.5t-60 -88 t-36 -114.5l-2 -15q39 -244 311 -244q77 0 134.5 24t94.5 70t59 104t35 136l125 711h209l-125 -711q-21 -119 -59.5 -209t-100 -159.5t-153.5 -105.5t-213 -36q-136 0 -233 59t-140 156h-4l-49 -186h-170z" />
<glyph unicode="&#xe07;" horiz-adv-x="1236" d="M119 842l192 84l238 -750h26q170 0 275.5 151.5t105.5 393.5q0 57 -10 107t-31.5 93.5t-60.5 69t-92 25.5q-86 0 -174 -47l-27 155q39 30 104 49t132 19q79 0 142.5 -25.5t105.5 -68.5t70 -103t40 -126t12 -140q0 -107 -22 -210t-70.5 -197.5t-117 -165.5t-169.5 -113.5 t-221 -42.5h-174z" />
<glyph unicode="&#xe08;" horiz-adv-x="1241" d="M150 1065q215 156 509 156q258 0 387.5 -130t129.5 -358q0 -108 -28 -214.5t-82.5 -199.5t-128.5 -164.5t-173.5 -113t-210.5 -41.5h-182l-58 416q-5 37 -18.5 51t-50.5 14q-46 0 -86 -18l-6 172q76 35 172 35q90 0 125.5 -33.5t48.5 -116.5l51 -344h18q116 0 207.5 75 t140 201.5t48.5 280.5q0 311 -318 311q-251 0 -426 -122z" />
<glyph unicode="&#xe09;" horiz-adv-x="1304" d="M100 457l2 159q30 18 80.5 30.5t96.5 12.5q92 0 124 -52.5t17 -139.5l-17 -100q-20 -123 17.5 -171.5t150.5 -48.5q145 0 227.5 68t139.5 213l49 281q29 171 -45 253t-260 82q-239 0 -430 -110l-70 145q219 142 514 142q107 0 192 -18.5t142.5 -52.5t97.5 -82t56.5 -107 t20 -127.5t-12.5 -143.5l-121 -690h-172l10 170q-138 -199 -395 -199q-188 0 -271 99.5t-53 275.5l13 72q5 26 -2.5 39.5t-34.5 13.5q-29 0 -66 -14z" />
<glyph unicode="&#xe0a;" horiz-adv-x="1226" d="M76 336q0 77 21 146t54.5 120t73.5 96.5t80.5 81.5t74 67.5t54.5 62.5t21 59q0 23 -13 33.5t-29 12t-55 1.5h-131l33 176h146q136 0 198 -40.5t62 -133.5q0 -57 -21 -108.5t-54.5 -92t-74 -79.5t-80.5 -80.5t-73.5 -86t-54.5 -104t-21 -127.5q0 -100 67 -146.5t199 -46.5 q174 0 260 98t86 269q0 79 -37 122.5t-108 43.5h-49l30 176h56q41 0 73.5 13t52 30.5t36 49t24.5 54.5t18 60l39 156h205l-39 -158q-56 -222 -246 -289v-4q67 -28 111.5 -97t44.5 -161q0 -115 -39.5 -213t-112.5 -170.5t-185.5 -114t-250.5 -41.5q-211 0 -328.5 96.5 t-117.5 268.5z" />
<glyph unicode="&#xe0b;" horiz-adv-x="1226" d="M76 336q0 91 32.5 172t81 136.5t106.5 106.5t108.5 86t87.5 71t43 65l-3 2q-57 -45 -147 -45q-107 0 -153.5 65.5t-22.5 175.5l4 21h176l-4 -21q-18 -102 72 -102t108 102l4 21h179l-29 -168q-11 -71 -41.5 -129t-69 -97.5t-83 -75.5t-86.5 -70.5t-76 -73.5t-55 -94.5 t-21 -123.5q0 -100 67 -156.5t195 -56.5q177 0 263.5 98t86.5 269q0 79 -37 122.5t-108 43.5h-49l30 176h56q41 0 73.5 13t52 30.5t36 49t24.5 54.5t18 60l39 156h205l-39 -158q-56 -222 -246 -289v-4q67 -28 111.5 -97t44.5 -161q0 -115 -39 -213t-112.5 -171t-187 -114 t-253.5 -41q-209 0 -325.5 98t-116.5 267z" />
<glyph unicode="&#xe0c;" horiz-adv-x="2076" d="M119 276l14 78q24 127 74.5 206.5t150.5 133.5v4l-188 148l-8 119q110 110 271.5 183t320.5 73q254 0 364.5 -110.5t73.5 -319.5l-53 -304q0 -158 76 -249t221 -91q59 0 103 16t72.5 41.5t49.5 71t33 91t24 114.5l125 711h209l-125 -711q-22 -123 -56.5 -212t-91 -158.5 t-141.5 -104.5t-200 -35q-135 0 -231.5 65.5t-133.5 164.5h-2l-51 -201h-172l139 791q23 126 -39.5 189.5t-214.5 63.5q-195 0 -375 -129v-6l213 -166l-16 -96q-96 -40 -142.5 -106.5t-70.5 -186.5l-16 -84q-24 -127 90 -127q62 0 112 35l52 -151q-92 -56 -211 -56 q-144 0 -209.5 83t-40.5 222z" />
<glyph unicode="&#xe0d;" horiz-adv-x="2076" d="M119 276l14 78q24 127 74.5 206.5t150.5 133.5v4l-188 148l-8 119q110 110 271.5 183t320.5 73q254 0 364.5 -110.5t73.5 -319.5l-21 -117q-29 -168 23 -255t213 -87q286 0 344 336l92 524h209l-94 -539q-16 -87 -49 -160.5t-68 -113.5q55 -61 55 -164q0 -188 -163 -301 t-416 -113q-273 0 -399 82l69 172q57 -35 155 -56.5t206 -21.5q194 0 281 56.5t87 175.5q0 37 -18 55q-134 -104 -322 -104q-91 0 -163.5 19.5t-120.5 55t-79.5 82.5t-45 105.5t-13.5 120.5t13 131l20 117q23 126 -39.5 189.5t-214.5 63.5q-195 0 -375 -129v-6l213 -166 l-16 -96q-96 -40 -142.5 -106.5t-70.5 -186.5l-16 -84q-24 -127 90 -127q62 0 112 35l52 -151q-92 -56 -211 -56q-144 0 -209.5 83t-40.5 222z" />
<glyph unicode="&#xe0e;" horiz-adv-x="1359" d="M-16 6l61 160q38 -19 80 -19q74 0 86 70l27 158q22 124 60 193.5t130 127.5v4l-221 146l-8 119q109 109 273.5 182.5t330.5 73.5q265 0 382.5 -108.5t80.5 -321.5l-230 -1303h-196q-153 139 -426 139q-187 0 -363 -90l-37 170q187 96 430 96q252 0 414 -139l199 1127 q23 129 -43 191t-221 62q-218 0 -398 -129v-6l246 -164l-16 -96q-92 -42 -124.5 -96t-54.5 -178l-28 -164q-44 -240 -260 -240q-109 0 -174 35z" />
<glyph unicode="&#xe0f;" horiz-adv-x="1359" d="M-16 6l61 160q38 -19 80 -19q74 0 86 70l27 158q22 124 60 193.5t130 127.5v4l-221 146l-8 119q109 109 273.5 182.5t330.5 73.5q265 0 382.5 -108.5t80.5 -321.5l-230 -1303h-282l-181 205q-101 -197 -305 -197q-140 0 -254 21l29 159q152 -20 231 -20q76 0 119 38 t82 120l199 28l178 -213l205 1162q23 129 -43 191t-221 62q-218 0 -398 -129v-6l246 -164l-16 -96q-92 -42 -124.5 -96t-54.5 -178l-28 -164q-44 -240 -260 -240q-109 0 -174 35z" />
<glyph unicode="&#xe10;" horiz-adv-x="1275" d="M-16 -430l28 164q160 -21 232 -21q53 0 89.5 19.5t58.5 49.5t48 85l193 29l153 -213l37 215h189l-62 -357h-274l-141 195q-50 -86 -131 -136.5t-189 -50.5q-117 0 -231 21zM150 1065q215 156 509 156q178 0 289 -54l330 123l33 -174l-242 -61q54 -52 79.5 -140t25.5 -188 q0 -105 -27.5 -209.5t-81.5 -197.5t-127.5 -164.5t-173.5 -113.5t-211 -42h-182l-58 416q-5 37 -18.5 51t-50.5 14q-46 0 -86 -18l-6 172q76 35 172 35q90 0 125.5 -33.5t48.5 -116.5l51 -344h18q116 0 207.5 75t140 201.5t48.5 280.5q0 311 -318 311q-251 0 -426 -122z" />
<glyph unicode="&#xe11;" horiz-adv-x="1464" d="M147 1171l5 21h176l-4 -21q-18 -102 71 -102q91 0 109 102l4 21h168l-33 -180q91 91 212.5 150t225.5 59t171.5 -32t96.5 -89.5t35 -137t-14 -174.5l-139 -788h-209l139 788q8 50 10.5 83t-2 69t-20 56.5t-46 34t-77.5 13.5q-86 0 -192 -71.5t-191.5 -176.5t-124.5 -208 l-104 -588h-209l98 559q36 139 150 283l24 129l-6 4q-57 -45 -147 -45q-107 0 -154 65.5t-23 175.5z" />
<glyph unicode="&#xe12;" horiz-adv-x="2154" d="M96 438q0 91 16.5 191.5t54.5 207t93.5 191t141.5 139t190 54.5q87 0 132 -43t52 -107h8q87 150 260 150q156 0 212.5 -97t25.5 -266l-65 -371q0 -158 76 -249t220 -91q59 0 103 16t72.5 41.5t50 71t33.5 91t24 114.5l125 711h209l-125 -711q-22 -123 -56.5 -212 t-91 -158.5t-141.5 -104.5t-200 -35q-135 0 -231.5 65.5t-133.5 164.5h-2l-51 -201h-172l149 848q11 58 10 101.5t-25.5 69t-74.5 25.5q-32 0 -58.5 -11.5t-42 -27.5t-28.5 -41t-19 -43.5t-12 -43.5h-157q7 82 -2 112q-18 55 -88 55t-132 -75t-101.5 -217.5t-39.5 -319.5 q0 -285 236 -285q92 0 178 50l47 -156q-110 -70 -283 -70q-188 0 -287.5 124.5t-99.5 342.5z" />
<glyph unicode="&#xe13;" horiz-adv-x="2076" d="M119 276l14 78q24 127 74.5 206.5t150.5 133.5v4l-188 148l-8 119q110 110 271.5 183t320.5 73q254 0 364.5 -110.5t73.5 -319.5l-59 -338q-29 -167 10 -236.5t166 -69.5q148 0 242 69t159 214l133 762h209l-209 -1192h-172l12 184h-2q-45 -64 -95.5 -108t-129.5 -74.5 t-176 -30.5q-436 0 -350 492l57 328q23 126 -39.5 189.5t-214.5 63.5q-195 0 -375 -129v-6l213 -166l-16 -96q-96 -40 -142.5 -106.5t-70.5 -186.5l-16 -84q-24 -127 90 -127q62 0 112 35l52 -151q-92 -56 -211 -56q-144 0 -209.5 83t-40.5 222z" />
<glyph unicode="&#xe14;" horiz-adv-x="1398" d="M98 444q0 168 50 311t141 246t226 161.5t298 58.5q118 0 208.5 -25t147.5 -70.5t91.5 -109.5t39 -142.5t-9.5 -168.5l-125 -705h-209l125 705q15 72 7 134t-36 107.5t-90.5 71.5t-156.5 26q-130 0 -228 -48.5t-156 -133.5t-86 -190.5t-28 -229.5q0 -295 242 -295 q92 0 178 50l47 -156q-110 -70 -282 -70q-188 0 -291 127t-103 346z" />
<glyph unicode="&#xe15;" horiz-adv-x="1398" d="M96 438q0 61 7.5 129t25.5 145t44.5 148.5t68 138t92 115.5t119.5 78t149 29q165 0 197 -150h8q40 69 109.5 109.5t158.5 40.5q81 0 136.5 -27t82 -75t33.5 -114.5t-10 -146.5l-152 -858h-209l150 848q11 58 9.5 101.5t-27 69t-76.5 25.5q-124 0 -164 -167h-158 q5 25 2.5 54t-9 54t-31.5 42t-66 17q-111 0 -196 -169t-85 -443q0 -285 236 -285q92 0 178 50l47 -156q-110 -70 -283 -70q-188 0 -287.5 124.5t-99.5 342.5z" />
<glyph unicode="&#xe16;" horiz-adv-x="1318" d="M119 276l14 78q21 126 72 206t153 134v4l-188 148l-8 119q110 110 273 183t329 73q264 0 381 -108.5t80 -321.5l-140 -791h-208l139 791q23 130 -42 191.5t-220 61.5q-216 0 -396 -129v-6l213 -166l-16 -96q-95 -40 -142 -107t-71 -186l-16 -84q-24 -127 90 -127 q62 0 112 35l52 -151q-92 -56 -211 -56q-144 0 -209.5 83t-40.5 222z" />
<glyph unicode="&#xe17;" horiz-adv-x="1337" d="M53 0l211 1192h193l-45 -254h2q79 124 208 203.5t285 79.5q212 0 291 -119t41 -334l-135 -768h-209l135 768q27 137 -11.5 206.5t-166.5 69.5q-163 0 -292.5 -119.5t-188.5 -308.5l-109 -616h-209z" />
<glyph unicode="&#xe18;" horiz-adv-x="1273" d="M104.5 224q-5.5 57 4.5 130l22 129h201l-23 -129q-23 -118 43.5 -164.5t237.5 -46.5q191 0 277.5 68t86.5 215q0 67 -40 100.5t-123 44.5l-596 86l-41 78q49 270 192 378t432 108q282 0 467 -103l-90 -164q-67 42 -179 68.5t-228 26.5q-66 0 -114 -5t-95.5 -19.5 t-79 -39.5t-55 -66.5t-33.5 -99.5l495 -71q293 -44 293 -297q0 -243 -148 -361.5t-421 -118.5q-86 0 -155 8t-129 26t-100 47.5t-68 72t-33.5 99.5z" />
<glyph unicode="&#xe19;" horiz-adv-x="1337" d="M135 463l129 729h209l-131 -739q-29 -160 21.5 -233t191.5 -73q159 0 265 90t159 242l125 713h209l-209 -1192h-172l14 193h-2q-66 -94 -175 -158t-255 -64q-231 0 -326.5 125t-52.5 367z" />
<glyph unicode="&#xe1a;" horiz-adv-x="1341" d="M129 354.5q-5 63.5 10 130.5l125 707h209l-125 -707q-30 -167 30.5 -252.5t227.5 -85.5q171 0 258.5 83t118.5 249l125 713h209l-125 -713q-13 -81 -41 -153t-76.5 -138t-113.5 -113.5t-158.5 -75.5t-206.5 -28q-94 0 -171.5 19.5t-130 54.5t-90.5 83t-54 105.5t-21 121z " />
<glyph unicode="&#xe1b;" horiz-adv-x="1345" d="M129 354.5q-5 63.5 10 130.5l125 707h209l-125 -707q-30 -167 30.5 -252.5t227.5 -85.5q171 0 260.5 83.5t120.5 248.5l187 1057h208l-186 -1057q-17 -103 -58.5 -190t-111.5 -160.5t-180 -115.5t-250 -42q-94 0 -171.5 19.5t-130 54.5t-90.5 83t-54 105.5t-21 121z" />
<glyph unicode="&#xe1c;" horiz-adv-x="1490" d="M113 342l100 563q25 142 96.5 214.5t196.5 72.5h186l-30 -168h-136q-57 0 -78 -22.5t-32 -83.5l-107 -607q-14 -87 12.5 -127.5t104.5 -40.5q96 0 143 68.5t70 200.5l63 354h193l-64 -354q-12 -78 -11 -138t32 -95.5t94 -35.5q75 0 111.5 39t54.5 129l156 881h200 l-151 -860q-31 -174 -119 -267.5t-252 -93.5q-119 0 -181.5 66.5t-62.5 175.5h-4q-38 -109 -122 -175.5t-201 -66.5q-161 0 -226.5 99t-35.5 272z" />
<glyph unicode="&#xe1d;" horiz-adv-x="1495" d="M113 342l100 563q25 142 96.5 214.5t196.5 72.5h186l-30 -168h-136q-57 0 -78 -22.5t-32 -83.5l-107 -607q-14 -87 13.5 -127.5t105.5 -40.5q96 0 143 68.5t70 200.5l64 354h192l-63 -354q-12 -78 -10.5 -138t33 -95.5t93.5 -35.5q75 0 111.5 39t54.5 129l213 1225h203 l-211 -1204q-31 -174 -119 -267.5t-252 -93.5q-119 0 -182 66.5t-63 175.5h-5q-38 -109 -122 -175.5t-201 -66.5q-162 0 -228 99.5t-36 271.5z" />
<glyph unicode="&#xe1e;" horiz-adv-x="1585" d="M203 1192h209l-13 -899h4l410 837h176l113 -837h4l309 899h209l-448 -1192h-201l-119 864h-4l-422 -864h-201z" />
<glyph unicode="&#xe1f;" horiz-adv-x="1581" d="M203 1192h200l-6 -916h4l416 854h168l117 -854h4l434 1260h201l-565 -1536h-197l-123 856h-4l-426 -856h-197z" />
<glyph unicode="&#xe20;" horiz-adv-x="1355" d="M-16 6l61 160q38 -19 80 -19q74 0 86 70l27 158q22 124 60 193.5t130 127.5v4l-221 146l-8 119q110 110 273 183t329 73q264 0 381 -108.5t80 -321.5l-140 -791h-209l140 791q23 130 -42 191.5t-220 61.5q-216 0 -396 -129v-6l246 -164l-16 -96q-92 -42 -124.5 -96 t-54.5 -178l-28 -164q-44 -240 -260 -240q-112 0 -174 35z" />
<glyph unicode="&#xe21;" horiz-adv-x="1337" d="M53 0l211 1192h209l-127 -713q5 -147 90 -239.5t238 -92.5q75 0 129 23.5t88.5 70.5t54.5 103.5t33 136.5l125 711h209l-125 -711q-22 -122 -57.5 -211.5t-94.5 -159t-148.5 -104.5t-209.5 -35q-143 0 -241 64.5t-154 165.5h-2l-52 -201h-176z" />
<glyph unicode="&#xe22;" horiz-adv-x="1312" d="M68 295q0 128 75.5 209t190.5 114l2 5q-76 19 -122 75.5t-46 139.5q0 167 117 266.5t319 99.5q97 0 170 -30l-69 -166q-56 20 -117 20q-97 0 -154 -47.5t-57 -142.5q0 -129 166 -129h145l-29 -164h-145q-111 0 -172 -59t-61 -160q0 -179 294 -179q164 0 254.5 71.5 t116.5 219.5l133 754h209l-133 -754q-38 -220 -186.5 -343.5t-401.5 -123.5q-143 0 -253.5 34t-178 108.5t-67.5 181.5z" />
<glyph unicode="&#xe23;" horiz-adv-x="1157" d="M31 135l127 152q148 -144 358 -144q311 0 311 193q0 24 -7 44.5t-16.5 35.5t-28.5 28.5t-34.5 22t-44 18.5t-46.5 15t-53 15t-54 15q-81 22 -140 48t-107 63t-72.5 88t-24.5 117q0 78 29 141.5t78.5 107t116.5 73t142.5 42.5t157.5 11q118 0 222.5 -31.5t160.5 -87.5 l-119 -150q-44 44 -122 70.5t-169 26.5q-59 0 -108 -8t-91.5 -27t-66.5 -53.5t-24 -83.5q0 -36 14.5 -62t44.5 -44t61 -30.5t79 -27.5q4 -1 6.5 -2t6.5 -2t7 -2q6 -2 18 -5q163 -50 235 -92q158 -93 158 -264q0 -96 -42 -169.5t-118 -117.5t-174 -66t-217 -22 q-151 0 -272 44.5t-182 119.5z" />
<glyph unicode="&#xe24;" horiz-adv-x="1323" d="M119 276l14 78q21 126 72 206t153 134v4l-188 148l-8 119q110 110 273 183t329 73q259 0 380 -109t85 -321l-230 -1303h-208l229 1303q23 129 -44 191t-222 62q-216 0 -396 -129v-6l213 -166l-16 -96q-95 -40 -142 -107t-71 -186l-16 -84q-24 -127 90 -127q62 0 112 35 l52 -151q-92 -56 -211 -56q-144 0 -209.5 83t-40.5 222z" />
<glyph unicode="&#xe25;" horiz-adv-x="1314" d="M66 276q0 213 155.5 334t403.5 121q198 0 360 -94l25 141q25 142 -39 204t-242 62q-220 0 -399 -112l-82 145q74 57 210.5 100.5t295.5 43.5q267 0 386 -107.5t81 -327.5l-140 -786h-209l82 461q-136 98 -360 98q-155 0 -238.5 -65t-83.5 -193q0 -73 42.5 -113.5 t123.5 -40.5q86 0 168 46l43 -152q-61 -38 -118 -54t-134 -16q-157 0 -244 81.5t-87 223.5z" />
<glyph unicode="&#xe26;" horiz-adv-x="1359" d="M-16 6l61 160q38 -19 80 -19q74 0 86 70l27 158q22 124 60 193.5t130 127.5v4l-221 146l-8 119q109 109 273.5 182.5t330.5 73.5q265 0 382.5 -108.5t80.5 -321.5l-230 -1303h-209l230 1303q23 129 -43 191t-221 62q-218 0 -398 -129v-6l246 -164l-16 -96 q-92 -42 -124.5 -96t-54.5 -178l-28 -164q-44 -240 -260 -240q-109 0 -174 35z" />
<glyph unicode="&#xe27;" horiz-adv-x="1187" d="M-2 121l135 141q61 -56 138 -85.5t192 -29.5q119 0 208.5 47.5t141 131t76 185.5t24.5 224q0 309 -295 309q-212 0 -368 -108l-84 141q111 73 228 108.5t261 35.5q122 0 213.5 -34.5t146.5 -98.5t82 -149t27 -191q0 -135 -25 -251t-79 -213.5t-134.5 -166.5t-196 -107.5 t-257.5 -38.5q-300 0 -434 150z" />
<glyph unicode="&#xe28;" horiz-adv-x="1357" d="M53 0l125 707q88 514 610 514q167 0 259 -43l313 112l33 -174l-213 -63q55 -59 70.5 -161.5t-5.5 -205.5l-121 -686h-209l125 707q30 172 -28 254.5t-234 82.5q-178 0 -269.5 -83.5t-121.5 -253.5l-39 -226h2q56 85 152 138t209 53q57 0 127 -17l-84 -188q-62 12 -97 12 q-130 0 -222 -69.5t-136 -200.5l-37 -209h-209z" />
<glyph unicode="&#xe29;" horiz-adv-x="1411" d="M129 354.5q-5 63.5 10 130.5l125 707h209l-125 -707q-30 -166 31.5 -252t228.5 -86q171 0 258.5 83t118.5 249l19 105h-263l31 176h262l78 432h209l-78 -432h150l-31 -176h-150l-18 -105q-13 -81 -41 -153t-76.5 -138t-113.5 -113.5t-158.5 -75.5t-206.5 -28 q-95 0 -172.5 19.5t-130.5 54.5t-91 83t-54 105.5t-21 121z" />
<glyph unicode="&#xe2a;" horiz-adv-x="1347" d="M66 276q0 213 155.5 334t403.5 121q198 0 360 -94l25 141q25 142 -39 204t-242 62q-220 0 -399 -112l-82 145q77 58 211 101t293 43q188 0 288 -43l320 112l33 -174l-224 -65q82 -104 45 -293l-133 -758h-209l82 461q-136 98 -360 98q-155 0 -238.5 -65t-83.5 -193 q0 -73 42.5 -113.5t123.5 -40.5q86 0 168 46l43 -152q-61 -38 -118 -54t-134 -16q-157 0 -244 81.5t-87 223.5z" />
<glyph unicode="&#xe2b;" horiz-adv-x="1314" d="M53 0l211 1192h209l-80 -451h191q240 0 346 79t143 288l14 84h203l-14 -84q-13 -73 -34 -133t-55.5 -117.5t-87.5 -103.5t-124 -78v-4q119 -63 164 -165t16 -259l-43 -248h-209l43 248q23 131 -9.5 210.5t-131.5 133.5q-77 -27 -250 -27h-193l-100 -565h-209z" />
<glyph unicode="&#xe2c;" horiz-adv-x="1574" d="M203 1192h209l-13 -916h4l396 773h176l127 -773h2l215 642q41 114 24.5 172.5t-114.5 93.5l20 119l387 258l78 -146l-264 -172l-2 -8q149 -93 63 -326l-335 -909h-201l-129 799h-4l-412 -799h-201z" />
<glyph unicode="&#xe2d;" horiz-adv-x="1333" d="M106 412l46 258h501l-32 -185h-297l-15 -82q-23 -130 48.5 -193t222.5 -63q127 0 221.5 43t149.5 121t81.5 176.5t26.5 219.5q0 163 -78 250t-256 87q-231 0 -426 -122l-76 151q107 70 246 109t291 39q135 0 235.5 -39t159.5 -110t87 -161.5t28 -201.5q0 -163 -46 -297.5 t-135 -233t-227.5 -153t-314.5 -54.5q-154 0 -263.5 60.5t-154.5 160.5t-23 220z" />
<glyph unicode="&#xe2e;" horiz-adv-x="1341" d="M106 412l46 258h501l-32 -185h-297l-15 -82q-23 -130 48.5 -193t222.5 -63q127 0 221.5 43t149.5 121t81.5 176.5t26.5 219.5q0 163 -78 250t-256 87q-231 0 -426 -122l-76 151q107 70 246 109t291 39q143 0 248 -45l346 114l32 -174l-235 -63q117 -112 117 -340 q0 -126 -28.5 -237t-87 -204t-143.5 -160t-203 -104t-259 -37q-154 0 -263.5 60.5t-154.5 160.5t-23 220z" />
<glyph unicode="&#xe2f;" horiz-adv-x="1046" d="M180 1012h201q-7 -43 -9.5 -73t1.5 -64.5t18 -55.5t44 -35t75 -14q111 0 192.5 75.5t100.5 166.5h188l-178 -1012h-209l98 555l58 195h-4q-123 -144 -295 -144q-166 0 -240 109t-41 297z" />
<glyph unicode="&#xe30;" horiz-adv-x="841" d="M70 324l22 129h201l-12 -68q-11 -47 -4 -62.5t53 -15.5h383l-29 -168h-453q-102 0 -140.5 41t-20.5 144zM170 899l23 129h202l-12 -67q-11 -47 -4 -62.5t53 -15.5h383l-29 -168h-452q-102 0 -142 41t-22 143z" />
<glyph unicode="&#xe31;" d="M-582 1604l23 129h201l-13 -72q-11 -47 -4 -62.5t53 -15.5h560l-29 -164h-629q-102 0 -141 41t-21 144z" />
<glyph unicode="&#xe32;" horiz-adv-x="1099" d="M164 1096q76 56 190 90.5t238 34.5q104 0 183 -22t128.5 -62t78.5 -96.5t32 -125.5t-10 -149l-136 -766h-209l136 766q26 140 -28 209t-208 69q-173 0 -315 -90z" />
<glyph unicode="&#xe33;" horiz-adv-x="1099" d="M-362 1546q0 116 83.5 195.5t206.5 79.5q97 0 157 -58t60 -147q0 -116 -83.5 -196.5t-204.5 -80.5q-97 0 -158 59.5t-61 147.5zM-217 1561q0 -38 24.5 -64.5t65.5 -26.5q56 0 91.5 37.5t35.5 89.5q0 42 -23.5 67.5t-66.5 25.5q-55 0 -91 -37t-36 -92zM164 1096 q76 56 190 90.5t238 34.5q104 0 183 -22t128.5 -62t78.5 -96.5t32 -125.5t-10 -149l-136 -766h-209l136 766q26 140 -28 209t-208 69q-173 0 -315 -90z" />
<glyph unicode="&#xe34;" d="M-915 1419l28 164h932l-29 -164h-931z" />
<glyph unicode="&#xe35;" d="M-915 1419l28 164h731l35 189h201l-64 -353h-931z" />
<glyph unicode="&#xe36;" d="M-926 1419l29 164h586v14q0 84 67.5 147.5t167.5 63.5q76 0 121 -46t45 -117q0 -94 -68.5 -160t-166.5 -66h-781zM-197 1602q0 -31 19 -51.5t53 -20.5q40 0 69 29t29 67q0 30 -19 51t-50 21q-41 0 -71 -29t-30 -67z" />
<glyph unicode="&#xe37;" d="M-926 1419l29 164h461l30 176h189l-31 -176h94l31 176h189l-60 -340h-932z" />
<glyph unicode="&#xe38;" d="M-625 -311l29 164h59q36 0 63.5 -1.5t54.5 -5.5t45.5 -12t35 -19.5t26 -28.5t15 -39.5t5 -52.5t-6.5 -67l-41 -237h-201l41 237q7 44 -5 53t-58 9h-62z" />
<glyph unicode="&#xe39;" d="M-993 -307l28 160h160q85 0 118 -33t21 -103l-20 -120q-8 -45 13.5 -71t70.5 -26t79 26t38 71l43 251h180l-43 -266q-19 -107 -96.5 -167t-204.5 -60q-131 0 -205 61t-57 166l6 43q6 44 -10 56t-62 12h-59z" />
<glyph unicode="&#xe3a;" d="M-518 -305q0 64 43 106.5t110 42.5q47 0 77 -29.5t30 -76.5q0 -62 -45 -105t-107 -43q-53 0 -80.5 28t-27.5 77z" />
<glyph unicode="&#xe3f;" horiz-adv-x="1320" d="M43 8l233 1331h435l37 205h143l-37 -205h43q173 0 269 -75.5t96 -221.5q0 -122 -72 -209.5t-172 -119.5v-4q89 -33 148 -100t59 -163q0 -138 -76.5 -239t-198.5 -150t-272 -49h-57l-37 -209h-144l37 209h-434zM258 168h246l82 457h-246zM365 772h245l74 408h-246z M647 168h55q147 0 238.5 71t91.5 197q0 89 -77 139t-197 50h-29zM754 772q135 0 223 62.5t88 175.5q0 84 -59.5 127t-165.5 43h-13z" />
<glyph unicode="&#xe40;" horiz-adv-x="612" d="M98 258l164 934h211l-164 -926q-5 -38 -6 -66.5t13.5 -44.5t48.5 -16q48 0 92 23l49 -135q-82 -56 -199 -56q-132 0 -183 71.5t-26 215.5z" />
<glyph unicode="&#xe41;" horiz-adv-x="1165" d="M98 258l164 934h211l-164 -926q-5 -38 -6 -66.5t13.5 -44.5t48.5 -16q48 0 92 23l49 -135q-82 -56 -199 -56q-132 0 -183 71.5t-26 215.5zM651 258l164 934h211l-164 -926q-5 -38 -6 -66.5t13.5 -44.5t48.5 -16q48 0 92 23l49 -135q-82 -56 -199 -56q-132 0 -183 71.5 t-26 215.5z" />
<glyph unicode="&#xe42;" horiz-adv-x="811" d="M242 1589l18 111q42 52 92.5 86t110.5 50t117 22t133 6h272l-27 -160h-274h-16q-53 0 -82 -1.5t-69.5 -12t-61.5 -31.5l-2 -8q119 -79 160.5 -198t9.5 -308l-156 -879q-5 -38 -6.5 -66.5t13 -44.5t48.5 -16q48 0 92 23l50 -135q-82 -56 -199 -56q-132 0 -183 71.5 t-26 215.5l156 887q14 82 17.5 132t-2 96t-28.5 79.5t-59 65.5t-98 71z" />
<glyph unicode="&#xe43;" horiz-adv-x="849" d="M256 1675q67 89 182 153t238 64q157 0 242.5 -66t85.5 -194q0 -70 -37 -141t-91.5 -130.5t-109.5 -115t-99 -115t-53 -110.5l-133 -754q-5 -38 -6 -66.5t13.5 -44.5t48.5 -16q48 0 92 23l49 -135q-82 -56 -199 -56q-132 0 -183 71.5t-26 215.5l136 762q11 61 56.5 128 t102 124.5t111.5 113.5t92 114t37 108q0 125 -158 125q-86 0 -162.5 -49.5t-134.5 -122.5z" />
<glyph unicode="&#xe44;" horiz-adv-x="815" d="M242 258l123 696q42 231 154.5 428.5t275.5 321.5h-492l27 160h712l-26 -162q-206 -174 -303.5 -341t-139.5 -407l-120 -688q-15 -57 -5 -92t60 -35q48 0 92 23l49 -135q-82 -56 -198 -56q-132 0 -183 71.5t-26 215.5z" />
<glyph unicode="&#xe45;" horiz-adv-x="1099" d="M164 1096q76 56 190 90.5t238 34.5q104 0 183 -22t128.5 -62t78.5 -96.5t32 -125.5t-10 -149l-226 -1278h-209l226 1278q26 140 -28 209t-208 69q-173 0 -315 -90z" />
<glyph unicode="&#xe46;" horiz-adv-x="1202" d="M139 711q0 165 94 279t254 114q81 0 124 -38.5t51 -102.5h4q29 59 88 100t145 41q263 0 205 -346l-203 -1153h-209l203 1153q6 34 8.5 54t1.5 45t-9 38.5t-25.5 23t-45.5 9.5q-103 0 -133 -137h-127q6 63 -13.5 100t-68.5 37q-66 0 -105.5 -57t-39.5 -156 q0 -71 43.5 -103t132.5 -32l-94 -160q-133 0 -207 79.5t-74 211.5z" />
<glyph unicode="&#xe47;" d="M-821 1630q0 151 106.5 228t292.5 77h496l-27 -151h-496q-194 0 -194 -144q0 -39 24 -63.5t72 -24.5q103 0 152 121h98q27 -121 121 -121q65 0 131 60l43 -125q-35 -41 -88 -63.5t-111 -22.5q-64 0 -111 28t-65 72h-2q-82 -100 -213 -100q-103 0 -166 62.5t-63 166.5z " />
<glyph unicode="&#xe48;" d="M-88 1913l55 315h193l-56 -315h-192z" />
<glyph unicode="&#xe49;" d="M-393 2120l26 143h156q75 0 110.5 -33.5t24.5 -93.5l-12 -72h403l-26 -151h-572l27 155q7 29 0.5 40.5t-41.5 11.5h-96z" />
<glyph unicode="&#xe4a;" d="M-455 1913q12 68 28.5 120.5t45.5 105.5t77 82.5t111 29.5q59 0 93 -36t32 -97h2q19 59 68 96t107 37q147 0 147 -174h119l-29 -164h-235q39 198 -35 198q-25 0 -44 -16.5t-31 -48.5t-18 -57t-14 -65q-1 -7 -2 -11h-139q39 198 -29 198q-17 0 -31.5 -7.5t-25 -25.5 t-17.5 -32t-14 -44t-9.5 -43t-8.5 -46h-148z" />
<glyph unicode="&#xe4b;" d="M-215 2034l22 131h156l23 125h168l-23 -125h156l-23 -131h-155l-21 -121h-168l21 121h-156z" />
<glyph unicode="&#xe4c;" d="M-395 1802l22 129q30 185 232 185h307l-29 -164h-241q-22 0 -30.5 -1t-19.5 -6t-15.5 -17t-8.5 -34l-17 -92h-200z" />
<glyph unicode="&#xe4d;" d="M-362 1546q0 116 83.5 195.5t206.5 79.5q97 0 157 -58t60 -147q0 -116 -83.5 -196.5t-204.5 -80.5q-97 0 -158 59.5t-61 147.5zM-217 1561q0 -38 24.5 -64.5t65.5 -26.5q56 0 91.5 37.5t35.5 89.5q0 42 -23.5 67.5t-66.5 25.5q-55 0 -91 -37t-36 -92z" />
<glyph unicode="&#xe4e;" d="M-594 1575q0 74 63 126t187 62v2q-76 27 -76 107q0 51 29 88.5t79 58t107.5 30t124.5 9.5q120 0 182 -33l-45 -102q-64 21 -147 21q-180 0 -180 -84q0 -68 155 -68l-35 -94h-16h-43t-44 -1t-46.5 -3.5t-42 -7t-39 -11.5t-29 -17t-21.5 -24t-7 -32q0 -68 137 -68 q101 0 176 37l10 -94q-94 -58 -227 -58q-119 0 -185.5 39t-66.5 117z" />
<glyph unicode="&#xe4f;" horiz-adv-x="1241" d="M100 528q0 121 48.5 231.5t132 192t200.5 130t248 48.5q205 0 326 -124.5t121 -315.5q0 -120 -49 -230.5t-133 -191.5t-201 -129.5t-246 -48.5q-204 0 -325.5 124.5t-121.5 313.5zM262 549q0 -136 82.5 -223.5t226.5 -87.5q123 0 225.5 59t160 158.5t57.5 214.5 q0 135 -83 224t-226 89q-187 0 -315 -129t-128 -305zM446 580q0 89 63.5 152t160.5 63q73 0 114 -43t41 -111q0 -89 -62.5 -154t-158.5 -65q-75 0 -116.5 44.5t-41.5 113.5z" />
<glyph unicode="&#xe50;" horiz-adv-x="1318" d="M82 428q0 181 87.5 322t240.5 217.5t344 76.5q222 0 352.5 -125.5t130.5 -330.5q0 -137 -53 -254t-144.5 -196t-214 -123t-260.5 -44q-216 0 -349.5 126.5t-133.5 330.5zM289 436q0 -139 81 -218t224 -79q191 0 312.5 120t121.5 316q0 142 -80 222t-225 80 q-190 0 -312 -122t-122 -319z" />
<glyph unicode="&#xe51;" horiz-adv-x="1267" d="M82 502q0 243 178.5 392.5t462.5 149.5q225 0 346 -113t121 -313q0 -138 -50.5 -260.5t-139 -211t-213 -140t-267.5 -51.5l27 151q216 17 326 153t110 343q0 138 -77.5 206.5t-213.5 68.5q-184 0 -293.5 -98.5t-109.5 -278.5q0 -135 112 -135q51 0 89 15t79 48l49 -135 q-52 -49 -118.5 -70.5t-126.5 -21.5q-138 0 -214.5 82t-76.5 219z" />
<glyph unicode="&#xe52;" horiz-adv-x="1439" d="M117 420l149 846h201l-150 -848q-8 -57 -4.5 -100.5t26.5 -75t53 -52t75.5 -33t93.5 -17.5t107 -5q198 0 302 60.5t130 203.5l53 299q6 34 8.5 53.5t2 45t-7 39t-22 23t-40.5 9.5q-88 0 -115 -120h-119q17 120 -74 120q-46 0 -78 -28.5t-45 -72t-17.5 -74t-4.5 -54.5 q0 -78 46 -101.5t149 -23.5l-56 -152q-166 0 -245.5 55t-79.5 191q0 76 20 149t58 135.5t103.5 101t147.5 38.5q70 0 112 -33t50 -88h4q69 121 215 121q246 0 185 -334l-54 -299q-79 -428 -634 -428q-105 0 -193.5 15t-162 49.5t-121 85.5t-66.5 127.5t-2 171.5z" />
<glyph unicode="&#xe53;" horiz-adv-x="1335" d="M82 365q0 50 6.5 106.5t22.5 122t39.5 127t61.5 118.5t85 99.5t113 68t143 25.5q158 0 186 -129h4q42 65 109.5 97t142.5 32q164 0 214 -104t14 -299l-111 -629h-205l111 629q7 37 10 61t5 54.5t-3.5 49.5t-16 36.5t-32 25.5t-51.5 8q-54 0 -96.5 -40t-59.5 -109h-135 q5 73 -17.5 111t-82.5 38q-107 0 -179.5 -139.5t-72.5 -359.5q0 -226 170 -226q77 0 151 41l39 -145q-94 -64 -223 -64q-171 0 -256.5 109.5t-85.5 284.5z" />
<glyph unicode="&#xe54;" horiz-adv-x="1310" d="M78 426q0 124 40 224t109.5 166.5t167 111.5t207.5 64.5t236 19.5q155 0 254.5 45.5t220.5 161.5l88 -138q-133 -125 -267.5 -181t-308.5 -56q-540 0 -540 -422q0 -258 348 -258h239v2q-73 41 -102 101t-12 132q10 49 43.5 94t81.5 74l174 -39q-76 -60 -99 -129 q-34 -101 26.5 -164t184.5 -71l-26 -152q-279 -12 -539 -12q-242 0 -384 115t-142 311z" />
<glyph unicode="&#xe55;" horiz-adv-x="1310" d="M78 424q0 448 528 563q-24 40 -24 98q0 109 81.5 186t198.5 77q91 0 145 -54t54 -141q0 -69 -39 -125q138 41 291 191l88 -138q-133 -125 -267.5 -181t-308.5 -56q-540 0 -540 -422q0 -258 348 -258h239v2q-73 41 -102 101t-12 132q10 49 43.5 94t81.5 74l174 -39 q-76 -60 -99 -129q-34 -101 26.5 -164t184.5 -71l-26 -152q-279 -12 -539 -12q-242 0 -384 113.5t-142 310.5zM719 1102q0 -38 23 -61t63 -23q53 0 85 34t32 85q0 38 -21 61t-61 23q-51 0 -86 -34t-35 -85z" />
<glyph unicode="&#xe56;" horiz-adv-x="1337" d="M119 1126l186 76l86 -348h4q69 86 180.5 138t227.5 52q219 0 334.5 -125t115.5 -329q0 -273 -172.5 -446t-457.5 -173q-216 0 -339.5 111.5t-123.5 302.5l194 53q4 -166 76.5 -232.5t220.5 -66.5q184 0 290 118.5t106 315.5q0 134 -68 219t-207 85q-243 0 -371 -181h-153 z" />
<glyph unicode="&#xe57;" horiz-adv-x="1671" d="M82 365q0 38 4 84.5t17 113t33.5 128.5t56.5 125.5t82.5 110t115.5 76t152 29.5q158 0 186 -129h4q86 129 244 129q84 0 137.5 -29.5t74.5 -83t23.5 -127.5t-14.5 -163l-82 -465q51 0 85.5 12t57 38.5t35 60t21.5 85.5l160 906h196l-160 -906q-30 -174 -136.5 -267 t-287.5 -93h-200l110 629q7 38 10.5 61.5t5.5 54.5t-3 49t-15 36t-30.5 26t-49.5 8q-54 0 -94 -40t-57 -109h-135q5 73 -18 111t-83 38q-106 0 -173.5 -138.5t-67.5 -360.5q0 -226 170 -226q77 0 151 41l39 -145q-94 -64 -223 -64q-171 0 -256.5 109.5t-85.5 284.5z" />
<glyph unicode="&#xe58;" horiz-adv-x="1398" d="M82 340q0 113 17.5 206.5t64 182.5t120.5 149.5t194 97t278 36.5h149q130 0 217 44.5t176 141.5l86 -133q-187 -221 -507 -221h-152q-201 0 -300 -88t-124 -295q-3 -33 -4.5 -49t-4 -47t-2 -46.5t1.5 -41t5 -39.5t9.5 -32.5t15 -28.5t21.5 -20t29 -14t38 -4q47 0 81 18 t55.5 53t33.5 73.5t22 91.5l21 110h176l-21 -110q-10 -60 -9.5 -112.5t30.5 -88t88 -35.5q75 0 113 62.5t63 185.5l24 135h197l-24 -135q-34 -190 -130.5 -303t-255.5 -113q-89 0 -150.5 47t-74.5 113h-4q-46 -80 -116 -120t-154 -40q-76 0 -133.5 28.5t-91.5 79.5 t-51 116.5t-17 144.5z" />
<glyph unicode="&#xe59;" horiz-adv-x="1517" d="M82 352q0 198 54 350.5t160.5 241t250.5 88.5q98 0 151 -42.5t74 -125.5h4q24 77 84 122.5t133 45.5q40 0 70.5 -11.5t49.5 -29t36 -50t27.5 -61t25.5 -76.5q7 -21 10 -32q1 -4 5.5 -18.5t6.5 -19.5t6.5 -16.5t8.5 -16.5t9.5 -11.5t12.5 -9t15 -2.5q65 0 117 317l45 250 h159l-45 -252q-13 -69 -24 -117.5t-28.5 -108t-39.5 -99.5t-52 -75.5t-70.5 -53t-90.5 -17.5q-40 0 -71.5 12.5t-52 31t-37.5 50.5t-26.5 59.5t-21.5 69.5q-24 79 -37 97q-17 22 -47 22q-49 0 -69 -54.5t-15 -119.5l31 -690h-196l-23 641q-6 112 -21 150q-28 73 -118 73 q-108 0 -181 -142t-73 -366q0 -225 133 -225q73 0 125 41l51 -135q-93 -66 -219 -66q-149 0 -223 104t-74 277z" />
<glyph unicode="&#xe5b;" horiz-adv-x="2580" d="M102 549q0 100 23.5 193t77 179.5t132 150t197 102t263.5 38.5q210 0 317.5 -111.5t75.5 -297.5l-6 -35h-185l7 35q23 124 -36 182.5t-202 58.5q-115 0 -204 -39.5t-143 -107.5t-81 -153.5t-27 -184.5q0 -161 99.5 -242t271.5 -81q285 0 452 166.5t228 517.5h174 q47 -34 75.5 -84t39.5 -99.5t10.5 -114t-7 -112.5t-18.5 -111q73 87 107.5 193.5t40.5 265.5h162q48 -40 75 -87.5t33.5 -105t3 -112t-17.5 -127.5q117 125 114 332h140q14 -80 42 -123t91 -43h76l-19 -105h-78q-142 0 -168 119l-4 -4l2 -33q-11 -62 -51.5 -125t-101.5 -110 h-187q32 183 33 247q1 103 -41 156q13 -108 -55.5 -258t-177.5 -225h-187q30 160 40 232t7 151.5t-30 142.5q-29 -157 -98.5 -287.5t-173.5 -225t-247.5 -147t-312.5 -52.5q-245 0 -398 128t-153 353z" />
<glyph unicode="&#x2000;" horiz-adv-x="1145" />
<glyph unicode="&#x2001;" horiz-adv-x="2290" />
<glyph unicode="&#x2002;" horiz-adv-x="1145" />
<glyph unicode="&#x2003;" horiz-adv-x="2290" />
<glyph unicode="&#x2004;" horiz-adv-x="763" />
<glyph unicode="&#x2005;" horiz-adv-x="572" />
<glyph unicode="&#x2006;" horiz-adv-x="381" />
<glyph unicode="&#x2007;" horiz-adv-x="381" />
<glyph unicode="&#x2008;" horiz-adv-x="286" />
<glyph unicode="&#x2009;" horiz-adv-x="458" />
<glyph unicode="&#x200a;" horiz-adv-x="127" />
<glyph unicode="&#x2010;" horiz-adv-x="829" d="M72 461l28 172h668l-29 -172h-667z" />
<glyph unicode="&#x2011;" horiz-adv-x="829" d="M72 461l28 172h668l-29 -172h-667z" />
<glyph unicode="&#x2012;" horiz-adv-x="829" d="M72 461l28 172h668l-29 -172h-667z" />
<glyph unicode="&#x2013;" horiz-adv-x="1294" d="M72 457l30 176h1131l-31 -176h-1130z" />
<glyph unicode="&#x2014;" horiz-adv-x="1470" d="M72 457l30 176h1307l-31 -176h-1306z" />
<glyph unicode="&#x2018;" horiz-adv-x="442" d="M166 991l168 357h174l-158 -357h-184z" />
<glyph unicode="&#x2019;" horiz-adv-x="442" d="M166 991l158 357h184l-168 -357h-174z" />
<glyph unicode="&#x201a;" horiz-adv-x="442" d="M-41 -186l158 356h184l-168 -356h-174z" />
<glyph unicode="&#x201c;" horiz-adv-x="690" d="M166 991l168 357h174l-158 -357h-184zM414 991l157 357h185l-168 -357h-174z" />
<glyph unicode="&#x201d;" horiz-adv-x="690" d="M166 991l168 357h174l-158 -357h-184zM414 991l157 357h185l-168 -357h-174z" />
<glyph unicode="&#x201e;" horiz-adv-x="690" d="M-41 -186l158 356h184l-168 -356h-174zM207 -186l158 356h184l-168 -356h-174z" />
<glyph unicode="&#x2020;" horiz-adv-x="851" d="M139 831l31 181h233l80 452h213l-80 -452h242l-31 -181h-241l-176 -995h-213l176 995h-234z" />
<glyph unicode="&#x2021;" horiz-adv-x="851" d="M43 287l31 180h237l66 367h-238l31 180h238l79 450h213l-79 -450h237l-31 -180h-237l-66 -367h238l-31 -180h-237l-80 -451h-213l80 451h-238z" />
<glyph unicode="&#x2022;" horiz-adv-x="598" d="M96 573q0 106 73.5 180t184.5 74q86 0 134.5 -50t48.5 -130q0 -106 -73.5 -180t-184.5 -74q-86 0 -134.5 50t-48.5 130z" />
<glyph unicode="&#x2026;" horiz-adv-x="1122" d="M-8 0l35 201h217l-35 -201h-217zM362 0l35 201h217l-34 -201h-218zM733 0l35 201h217l-35 -201h-217z" />
<glyph unicode="&#x202f;" horiz-adv-x="458" />
<glyph unicode="&#x2030;" horiz-adv-x="2033" d="M74 0l1091 1350h195l-1092 -1350h-194zM166 977q0 183 88 291t266 108q123 0 184.5 -72t61.5 -194q0 -181 -88.5 -290t-265.5 -109q-118 0 -182 73.5t-64 192.5zM319 993q0 -151 111 -151q95 0 139.5 63.5t44.5 188.5q0 151 -112 151q-183 0 -183 -252zM668 240 q0 183 88 291t266 108q123 0 184.5 -72t61.5 -194q0 -182 -89 -291t-266 -109q-118 0 -181.5 73.5t-63.5 193.5zM821 256q0 -73 28 -112.5t83 -39.5q95 0 139.5 63.5t44.5 188.5q0 152 -112 152q-183 0 -183 -252zM1325 240q0 183 88 291t266 108q123 0 184.5 -72t61.5 -194 q0 -182 -88.5 -291t-265.5 -109q-118 0 -182 73.5t-64 193.5zM1479 256q0 -152 110 -152q185 0 185 252q0 152 -113 152q-182 0 -182 -252z" />
<glyph unicode="&#x2039;" horiz-adv-x="722" d="M82 516l29 156l643 483l-41 -233l-437 -326v-4l322 -326l-41 -233z" />
<glyph unicode="&#x203a;" horiz-adv-x="722" d="M-2 33l41 233l436 326v4l-321 326l41 233l475 -483l-29 -156z" />
<glyph unicode="&#x2044;" horiz-adv-x="1212" d="M-8 0l1091 1350h195l-1092 -1350h-194z" />
<glyph unicode="&#x205f;" horiz-adv-x="572" />
<glyph unicode="&#x20ac;" horiz-adv-x="1476" d="M43 410l86 155h160q3 54 12 109q4 21 12 55t9 37h-203l84 156h178q106 209 297.5 331.5t437.5 122.5t387 -92l-129 -162q-63 39 -128.5 56.5t-160.5 17.5q-142 0 -270 -71t-205 -203h516l-86 -156h-495q-33 -82 -33 -178v-23h532l-88 -155h-430q20 -128 119 -193t266 -65 q216 0 346 96l62 -164q-161 -113 -438 -113q-247 0 -398.5 117t-187.5 322h-252z" />
<glyph unicode="&#x2122;" horiz-adv-x="1314" d="M209 1233l20 115h443l-21 -115h-147l-84 -455h-144l84 455h-151zM678 778l100 570h183l55 -359h2l184 359h178l-100 -570h-123l68 387h-2l-199 -387h-84l-70 387h-2l-67 -387h-123z" />
<glyph unicode="&#x2202;" horiz-adv-x="1198" d="M72 369q0 128 46.5 230t127.5 166.5t186.5 98t226.5 33.5q103 0 176.5 -35t106.5 -90q30 159 -4 270.5t-122.5 168t-224 74t-308.5 -10.5l49 149q153 24 274.5 16t214 -37.5t157.5 -85.5t105.5 -128t58 -165t14 -196.5t-25.5 -222.5q-21 -105 -53.5 -194.5t-86 -172 t-123 -140t-167.5 -92t-215 -34.5q-104 0 -184.5 31.5t-129.5 86.5t-74 126t-25 154zM279 383q0 -63 20 -109.5t55 -72t75 -37.5t87 -12q40 0 80 7.5t84 27t80 50t66 81t44 114.5q28 137 -40.5 213t-200.5 76q-72 0 -134.5 -21t-111 -61.5t-76.5 -106.5t-28 -149z" />
<glyph unicode="&#x2206;" horiz-adv-x="1370" d="M-8 0v4l780 1321h143l283 -1323v-2h-1206zM309 176h633l-160 836z" />
<glyph unicode="&#x220f;" horiz-adv-x="1366" d="M70 -254l262 1481h-123l31 180h1202l-31 -180h-123l-262 -1481h-217l262 1481h-522l-262 -1481h-217z" />
<glyph unicode="&#x2211;" horiz-adv-x="1566" d="M-72 -360l23 122l778 900l4 28l-434 864l18 103h1328l-33 -184h-1000l363 -740l-21 -112l-673 -797h1083l-33 -184h-1403z" />
<glyph unicode="&#x2212;" horiz-adv-x="833" d="M72 459l32 176h668l-33 -176h-667z" />
<glyph unicode="&#x221a;" horiz-adv-x="1564" d="M88 545l33 184h338l155 -532h4l678 1249h351l-31 -180h-191l-690 -1266h-266l-170 545h-211z" />
<glyph unicode="&#x221e;" horiz-adv-x="2162" d="M90 545q0 224 156 355.5t399 131.5q94 0 167 -25t130 -80t85.5 -93.5t75.5 -113.5q2 -2 2.5 -3.5t2 -3.5t2.5 -4q47 51 80 84t94 82.5t116.5 79t132.5 51.5t157 22q196 0 304.5 -98.5t108.5 -272.5q0 -218 -151.5 -354.5t-397.5 -136.5q-78 0 -146.5 19.5t-115 47.5 t-91 72.5t-69.5 79t-55 82.5q-60 -64 -113 -110.5t-125 -93.5t-157 -72t-178 -25q-186 0 -300 103.5t-114 275.5zM299 559q0 -108 70 -158.5t178 -50.5q60 0 113 12.5t90.5 29.5t82 52t71.5 61.5t75 76.5q-92 136 -117 166q-69 83 -153 104q-42 10 -95 10q-130 0 -222.5 -86 t-92.5 -217zM1200 582q22 -37 43 -66.5t54.5 -65t69 -59t85 -39.5t104.5 -16q155 0 246.5 87.5t91.5 207.5q0 104 -67 158.5t-185 54.5q-59 0 -114 -16.5t-95 -37.5t-87.5 -62t-74 -68.5t-71.5 -77.5z" />
<glyph unicode="&#x222b;" horiz-adv-x="1191" d="M-39 -172l121 109q30 -42 68.5 -62t97.5 -20q71 0 108.5 38.5t51.5 118.5l182 1030q26 152 117 243t239 91q199 0 291 -141l-119 -109q-58 82 -168 82q-65 0 -105 -41.5t-52 -115.5l-183 -1031q-26 -152 -116.5 -242.5t-241.5 -90.5q-202 0 -291 141z" />
<glyph unicode="&#x2248;" horiz-adv-x="1167" d="M49 328q59 82 151.5 135t207.5 53q63 0 118.5 -20.5t87.5 -45t72 -45t78 -20.5q62 0 114.5 34t106.5 99l80 -127q-69 -89 -150.5 -143.5t-191.5 -54.5q-52 0 -101.5 20.5t-83 45t-80 45t-91.5 20.5q-133 0 -234 -119zM115 700q59 83 152 136t208 53q52 0 97 -13.5 t76.5 -32.5t60 -38.5t59 -33t61.5 -13.5q62 0 115 34t107 99l79 -127q-70 -90 -151 -144.5t-191 -54.5q-52 0 -101.5 20.5t-83 45t-80 45t-91.5 20.5q-133 0 -233 -118z" />
<glyph unicode="&#x2260;" horiz-adv-x="872" d="M43 -35l182 336h-180l29 164h239l80 145h-293l29 164h352l185 338h184l-184 -338h172l-29 -164h-231l-80 -145h284l-28 -164h-346l-183 -336h-182z" />
<glyph unicode="&#x2264;" horiz-adv-x="751" d="M4 70l29 159h588l-29 -159h-588zM119 692l28 172l654 414l-41 -229l-447 -269v-4l353 -268l-41 -229z" />
<glyph unicode="&#x2265;" horiz-adv-x="751" d="M4 70l29 159h588l-29 -159h-588zM45 279l41 229l446 268v4l-352 269l41 229l506 -414l-29 -172z" />
<glyph unicode="&#x25ca;" horiz-adv-x="1363" d="M109 659l4 25l661 711h137l402 -711l-4 -25l-656 -710h-137zM322 666l292 -512h9l473 512l2 12l-293 512h-8l-473 -512z" />
<glyph unicode="&#x25fc;" horiz-adv-x="1013" d="M0 0v1014h1014v-1014h-1014z" />
<glyph unicode="&#xf700;" horiz-adv-x="1286" d="M150 1065q215 156 509 156q178 0 289 -54l330 123l33 -174l-242 -61q54 -52 79.5 -140t25.5 -188q0 -105 -27.5 -209.5t-81.5 -197.5t-127.5 -164.5t-173.5 -113.5t-211 -42h-182l-58 416q-5 37 -18.5 51t-50.5 14q-46 0 -86 -18l-6 172q76 35 172 35q90 0 125.5 -33.5 t48.5 -116.5l51 -344h18q116 0 207.5 75t140 201.5t48.5 280.5q0 311 -318 311q-251 0 -426 -122z" />
<glyph unicode="&#xf701;" d="M-1065 1419l29 164h768l-29 -164h-768z" />
<glyph unicode="&#xf702;" d="M-1065 1419l29 164h567l35 189h201l-64 -353h-768z" />
<glyph unicode="&#xf703;" d="M-1065 1419l29 164h409v14q0 84 68 147.5t168 63.5q76 0 121 -46t45 -117q0 -94 -69 -160t-167 -66h-604zM-512 1602q0 -31 19 -51.5t53 -20.5q40 0 69 29t29 67q0 30 -19.5 51t-50.5 21q-41 0 -70.5 -28.5t-29.5 -67.5z" />
<glyph unicode="&#xf704;" d="M-1065 1419l29 164h295l30 176h189l-31 -176h96l31 176h188l-59 -340h-768z" />
<glyph unicode="&#xf705;" d="M-639 1438l64 360h200l-63 -360h-201z" />
<glyph unicode="&#xf706;" d="M-926 1661l27 156h168q75 0 110.5 -33.5t24.5 -93.5l-18 -97h344l-27 -155h-520l29 151q7 47 -1 59q-9 13 -36 13h-101z" />
<glyph unicode="&#xf707;" d="M-1069 1438q10 53 22 96t33.5 90t49 78.5t69 52.5t92.5 21q60 0 93.5 -34.5t31.5 -94.5h2q19 60 64.5 94.5t105.5 34.5q149 0 146 -174h112l-28 -164h-230q40 202 -33 202q-68 0 -105 -189q-1 -4 -1.5 -7t-1.5 -6h-139q40 202 -29 202q-26 0 -45 -17.5t-32 -52t-19.5 -62 t-14.5 -70.5h-143z" />
<glyph unicode="&#xf708;" d="M-807 1575l25 139h159l23 137h168l-23 -137h160l-24 -139h-160l-25 -137h-168l25 137h-160z" />
<glyph unicode="&#xf709;" d="M-823 1438l22 129q30 184 228 184h282l-28 -156h-205q-21 0 -32 -1.5t-22.5 -7.5t-17.5 -19.5t-10 -36.5l-17 -92h-200z" />
<glyph unicode="&#xf70a;" d="M-190 1438l63 360h201l-64 -360h-200z" />
<glyph unicode="&#xf70b;" d="M-547 1661l27 156h168q75 0 110.5 -33.5t24.5 -93.5l-19 -97h416l-26 -155h-592l28 151q9 29 3.5 50.5t-39.5 21.5h-101z" />
<glyph unicode="&#xf70c;" d="M-864 1438q61 358 280 358q134 0 140 -131h4q25 64 75.5 96.5t108.5 32.5q160 0 160 -205h225l-27 -151h-376q5 26 8 44t6 44.5t1.5 44.5t-6 35.5t-16 26.5t-28.5 9q-23 0 -40.5 -16t-30.5 -53.5t-18 -57t-14 -68.5q-1 -6 -2 -9h-143q14 110 13 140q-5 63 -44 64 q-24 0 -42.5 -17t-30 -47.5t-18.5 -58t-14 -64.5q-1 -4 -1 -6t-1 -5t-1 -6h-168z" />
<glyph unicode="&#xf70d;" d="M-432 1575l24 139h160l23 137h168l-23 -137h160l-25 -139h-159l-25 -137h-168l25 137h-160z" />
<glyph unicode="&#xf70e;" d="M-516 1438l22 129q30 184 232 184h420l-29 -164h-354q-37 0 -54 -16t-24 -62l-12 -71h-201z" />
<glyph unicode="&#xf70f;" horiz-adv-x="2076" d="M119 276l14 78q24 127 74.5 206.5t150.5 133.5v4l-188 148l-8 119q110 110 271.5 183t320.5 73q254 0 364 -110.5t74 -319.5l-53 -306q-31 -171 19.5 -254.5t213.5 -83.5q160 0 237.5 82.5t108.5 249.5l125 713h209l-125 -713q-14 -83 -38.5 -153t-69 -137.5t-105 -114 t-151 -75t-201.5 -28.5q-82 0 -149 14.5t-115 40.5t-83 63.5t-55.5 81.5t-30 96t-8 106t12.5 112l53 306q23 126 -39.5 189.5t-214.5 63.5q-195 0 -375 -129v-6l213 -166l-16 -96q-96 -40 -142.5 -106.5t-70.5 -186.5l-16 -84q-24 -127 90 -127q62 0 112 35l52 -151 q-92 -56 -211 -56q-145 0 -210.5 81.5t-39.5 223.5z" />
<glyph unicode="&#xf710;" d="M-1032 1604l22 129h197l-12 -72q-11 -47 -4 -62.5t53 -15.5h477l-29 -164h-542q-102 0 -141 41t-21 144z" />
<glyph unicode="&#xf711;" d="M-778 1546q0 116 84 195.5t207 79.5q97 0 157 -58t60 -147q0 -116 -84 -196.5t-205 -80.5q-97 0 -158 59.5t-61 147.5zM-633 1561q0 -38 24.5 -64.5t65.5 -26.5q56 0 91.5 37.5t35.5 89.5q0 42 -23.5 67.5t-66.5 25.5q-55 0 -91 -37t-36 -92z" />
<glyph unicode="&#xf712;" d="M-1026 1618q0 155 101.5 236t277.5 81h454l-26 -147h-455q-85 0 -129.5 -39t-44.5 -109q0 -42 21.5 -65t62.5 -23q56 0 90.5 35.5t48.5 85.5h95q-2 -54 21 -87.5t75 -33.5q67 0 125 58l41 -123q-73 -86 -191 -86q-54 0 -96.5 26.5t-54.5 69.5h-2q-72 -96 -209 -96 q-93 0 -149 60t-56 157z" />
<glyph unicode="&#xf713;" d="M-401 1913l55 315h192l-55 -315h-192z" />
<glyph unicode="&#xf714;" d="M-690 2120l26 143h156q75 0 110.5 -33.5t24.5 -93.5l-12 -72h403l-26 -151h-572l27 155q7 29 0.5 40.5t-41.5 11.5h-96z" />
<glyph unicode="&#xf715;" d="M-717 1913q12 68 28 120t44.5 105.5t75.5 83t110 29.5q59 0 93 -36t32 -97h2q19 60 66 96.5t104 36.5q148 0 148 -174h112l-28 -164h-230q39 198 -35 198q-67 0 -100 -179q-1 -4 -1.5 -6.5t-1 -6t-1.5 -6.5h-139q39 198 -29 198q-12 0 -22.5 -3.5t-18.5 -12t-14.5 -16.5 t-12 -23t-9.5 -25t-8 -29t-6 -29t-6 -31t-5 -29h-148z" />
<glyph unicode="&#xf716;" d="M-528 2034l22 131h156l22 125h168l-22 -125h155l-22 -131h-156l-20 -121h-168l20 121h-155z" />
<glyph unicode="&#xf717;" d="M-618 1718l22 129q30 185 227 185h299l-28 -164h-234q-37 0 -54 -16t-24 -62l-12 -72h-196z" />
<glyph unicode="&#xf718;" d="M-672 -635l29 164h59q36 0 63.5 -1.5t54.5 -5.5t45.5 -11.5t35 -19.5t26 -28.5t15 -39.5t5 -52.5t-6.5 -66.5l-39 -217h-201l39 217q3 16 3.5 26.5t-3.5 17.5t-6.5 10.5t-14 5t-17.5 1.5h-25h-62z" />
<glyph unicode="&#xf719;" d="M-1047 -631l29 160h160q85 0 118 -32.5t21 -102.5l-18 -105q-8 -45 13.5 -70.5t70.5 -25.5t78.5 25.5t37.5 70.5l41 236h181l-41 -250q-19 -107 -96.5 -167t-204.5 -60q-132 0 -206 60.5t-57 166.5l5 27q6 44 -10 55.5t-62 11.5h-60z" />
<glyph unicode="&#xf71a;" d="M-565 -625q0 64 43 107t110 43q47 0 77 -30t30 -77q0 -62 -45 -104.5t-107 -42.5q-53 0 -80.5 28t-27.5 76z" />
<glyph unicode="&#xf71b;" horiz-adv-x="1359" d="M-16 47l61 160q38 -19 80 -19q81 0 92 70l21 117q22 124 60 193.5t130 127.5v4l-221 146l-8 119q109 109 273.5 182.5t330.5 73.5q265 0 382.5 -108.5t80.5 -321.5l-203 -1147h-197q-153 139 -426 139q-186 0 -362 -90l-37 170q187 96 430 96q252 0 414 -139l172 971 q23 129 -43 191t-221 62q-218 0 -398 -129v-6l246 -164l-16 -96q-92 -42 -124.5 -96t-54.5 -178l-22 -123q-45 -240 -266 -240q-109 0 -174 35z" />
<glyph unicode="&#xf71c;" horiz-adv-x="1359" d="M-16 47l61 160q38 -19 80 -19q81 0 92 70l21 117q22 124 60 193.5t130 127.5v4l-221 146l-8 119q109 109 273.5 182.5t330.5 73.5q265 0 382.5 -108.5t80.5 -321.5l-203 -1145h-283l-180 204q-101 -196 -305 -196q-145 0 -254 20l29 160q152 -20 231 -20q76 0 119 37.5 t82 119.5l198 29l179 -213l178 1004q23 129 -43 191t-221 62q-218 0 -398 -129v-6l246 -164l-16 -96q-92 -42 -124.5 -96t-54.5 -178l-22 -123q-45 -240 -266 -240q-109 0 -174 35z" />
<glyph unicode="&#xf71d;" horiz-adv-x="1564" d="M203 1192h209l-13 -916h4l390 732h176l133 -732h4l141 398q31 88 31 137t-29.5 78t-99.5 55l22 119l379 233l76 -145l-256 -147v-9q160 -86 60 -344l-254 -651h-201l-137 758h-4l-404 -758h-201z" />
<glyph unicode="&#xf883;" horiz-adv-x="1323" d="M119 276l14 78q21 126 72 206t153 134v4l-188 148l-8 119q110 110 273 183t329 73q259 0 380 -109t85 -321l-203 -1147h-209l203 1147q23 129 -44 191t-222 62q-216 0 -396 -129v-6l213 -166l-16 -96q-95 -40 -142 -107t-71 -186l-16 -84q-24 -127 90 -127q62 0 112 35 l52 -151q-92 -56 -211 -56q-144 0 -209.5 83t-40.5 222z" />
<glyph unicode="&#xf884;" horiz-adv-x="1359" d="M-16 6l61 160q38 -19 80 -19q74 0 86 70l27 158q22 124 60 193.5t130 127.5v4l-221 146l-8 119q109 109 273.5 182.5t330.5 73.5q265 0 382.5 -108.5t80.5 -321.5l-203 -1147h-209l203 1147q23 129 -43 191t-221 62q-218 0 -398 -129v-6l246 -164l-16 -96 q-92 -42 -124.5 -96t-54.5 -178l-28 -164q-44 -240 -260 -240q-109 0 -174 35z" />
<glyph d="M-852 1575q0 74 63 126t187 62v2q-76 27 -76 107q0 51 29 88.5t79 58t107.5 30t124.5 9.5q120 0 182 -33l-45 -102q-64 21 -147 21q-180 0 -180 -84q0 -68 155 -68l-35 -94h-16h-43t-44 -1t-46.5 -3.5t-42 -7t-39 -11.5t-29 -17t-21.5 -24t-7 -32q0 -68 137 -68 q101 0 176 37l10 -94q-94 -58 -227 -58q-119 0 -185.5 39t-66.5 117z" />
<glyph horiz-adv-x="1099" d="M-778 1546q0 116 84 195.5t207 79.5q97 0 157 -58t60 -147q0 -116 -84 -196.5t-205 -80.5q-97 0 -158 59.5t-61 147.5zM-633 1561q0 -38 24.5 -64.5t65.5 -26.5q56 0 91.5 37.5t35.5 89.5q0 42 -23.5 67.5t-66.5 25.5q-55 0 -91 -37t-36 -92zM164 1096q76 56 190 90.5 t238 34.5q104 0 183 -22t128.5 -62t78.5 -96.5t32 -125.5t-10 -149l-136 -766h-209l136 766q26 140 -28 209t-208 69q-173 0 -315 -90z" />
<glyph />
</font>
</defs>
</svg>
