<?xml version="1.0" standalone="no"?>
<!DOCTYPE svg PUBLIC "-//W3C//DTD SVG 1.1//EN" "http://www.w3.org/Graphics/SVG/1.1/DTD/svg11.dtd" >
<svg xmlns="http://www.w3.org/2000/svg" xmlns:xlink="http://www.w3.org/1999/xlink" version="1.1">
<metadata></metadata>
<defs>
<font id="psu_stidtibold_oblique" horiz-adv-x="0" >
<font-face units-per-em="2048" ascent="1536" descent="-512" />
<missing-glyph horiz-adv-x="610" />
<glyph unicode="&#xe2f;&#xe2f;" horiz-adv-x="1572" d="M154 1012h327q-11 -57 -10 -97.5t24.5 -63t71.5 -22.5q68 0 109 53t55 130h340l-178 -1012h-365l64 365q33 166 162 317l-9 8q-46 -49 -118.5 -82t-157.5 -33q-202 0 -278 107.5t-37 329.5zM1010 0l178 1012h360l-178 -1012h-360z" />
<glyph unicode="&#xe4f;&#x22;" horiz-adv-x="1327" d="M70 537q0 125 47 242t133.5 210.5t222.5 150t301 56.5q102 0 188 -27t146 -74t102 -110t62 -135t20 -150q0 -125 -48 -242.5t-136 -210.5t-225 -149.5t-301 -56.5q-127 0 -227.5 41t-161 111.5t-92 158t-31.5 185.5zM344 561q0 -124 73.5 -199t207.5 -75 q174 0 283.5 112.5t109.5 278.5q0 124 -72.5 198t-204.5 74q-176 0 -286.5 -111.5t-110.5 -277.5zM446 1288l80 449h279l-80 -449h-279zM455 578q0 110 71 186t193 76q92 0 139 -50.5t47 -130.5q0 -110 -70 -186t-194 -76q-93 0 -139.5 49.5t-46.5 131.5zM868 1288l80 449 h279l-80 -449h-279z" />
<glyph unicode="&#xe24;&#xe32;" horiz-adv-x="2138" d="M90 326l12 65q18 96 82 168.5t158 110.5v4l-184 143l-11 154q119 107 293 178.5t363 71.5q257 0 391 -101q175 101 381 101q585 0 498 -508l-215 -1225h-365l217 1229q20 116 -25.5 168.5t-164.5 52.5q-95 0 -195 -43q15 -80 -4 -195l-213 -1212h-365l213 1212 q21 127 -23 182.5t-175 55.5q-68 0 -142.5 -21.5t-123.5 -56.5l2 -4l170 -125l-21 -113q-89 -38 -123.5 -81t-54.5 -148l-8 -41q-19 -102 75 -102q63 0 115 37l70 -224q-63 -47 -134 -67.5t-169 -20.5q-183 0 -269.5 90.5t-54.5 264.5z" />
<glyph unicode="&#xe26;&#xe32;" horiz-adv-x="2160" d="M-47 27l82 243q37 -16 82 -16q39 0 58.5 21.5t25.5 62.5l10 57q34 195 180 275v4l-211 143l-10 154q119 107 292.5 178.5t362.5 71.5q258 0 392 -101q175 101 380 101q585 0 498 -508l-215 -1225h-364l217 1229q20 116 -26 168.5t-165 52.5q-94 0 -194 -43 q14 -77 -5 -195l-213 -1212h-364l213 1212q21 127 -23.5 182.5t-175.5 55.5q-68 0 -142.5 -21.5t-123.5 -56.5l2 -4l197 -125l-21 -113q-26 -12 -46 -27t-33.5 -34.5t-22.5 -35.5t-16 -42.5t-10 -41t-9 -44.5l-18 -117q-52 -305 -344 -305q-155 0 -240 56z" />
<glyph unicode="fi" horiz-adv-x="1349" d="M84 625l47 262h111l10 65q39 213 181.5 329t375.5 116q166 0 282.5 -67t168.5 -177l-244 -137q-33 56 -81 87.5t-126 31.5q-167 0 -203 -181l-12 -67h203l-47 -262h-187l-108 -625h-369l109 625h-111zM815 0l166 938h365l-166 -938h-365z" />
<glyph unicode="fl" horiz-adv-x="1566" d="M84 625l47 262h111l14 78q37 218 185 325t388 107q174 0 321 -47.5t228 -132.5l-135 -787q-9 -45 -12 -75.5t2 -56.5t23.5 -39t50.5 -13q71 0 127 33l59 -218q-126 -90 -332 -90q-102 0 -168 33t-94 94t-32.5 147t16.5 191l112 656q-77 47 -200 47q-158 0 -187 -174 l-14 -78h203l-47 -262h-187l-108 -625h-369l109 625h-111z" />
<glyph unicode="&#xd;" horiz-adv-x="610" />
<glyph unicode=" "  horiz-adv-x="610" />
<glyph unicode="&#x09;" horiz-adv-x="610" />
<glyph unicode="&#xa0;" horiz-adv-x="610" />
<glyph unicode="!" horiz-adv-x="589" d="M23 0l38 221h381l-39 -221h-380zM90 293l172 1055h377l-201 -1055h-348z" />
<glyph unicode="&#x22;" horiz-adv-x="849" d="M145 893l80 455h316l-80 -455h-316zM541 893l80 455h315l-80 -455h-315z" />
<glyph unicode="#" horiz-adv-x="1583" d="M23 258l112 242h182l107 225h-203l121 242h197l127 266h309l-127 -266h235l127 266h310l-127 -266h198l-123 -242h-188l-106 -225h208l-112 -242h-211l-123 -258h-309l123 258h-238l-123 -258h-309l123 258h-180zM627 500h237l107 225h-238z" />
<glyph unicode="$" horiz-adv-x="1314" d="M2 195l193 284q80 -75 205.5 -119.5t238.5 -44.5q211 0 211 86q0 16 -9 29t-23 21t-37 16t-44.5 13.5t-53.5 14.5t-56 17q-219 70 -333 163.5t-114 237.5q0 96 35.5 170.5t100.5 123.5t143.5 79t175.5 45l37 217h356l-39 -219q214 -40 344 -135l-188 -274 q-62 45 -181 79.5t-216 34.5q-185 0 -185 -71q0 -20 13 -35.5t40.5 -27.5t55 -21t70.5 -22.5t73 -25.5q102 -37 173 -73t129.5 -83t87 -106.5t28.5 -132.5q0 -179 -123 -283t-352 -137l-37 -217h-356l36 217q-264 44 -399 179z" />
<glyph unicode="%" horiz-adv-x="1488" d="M53 946q0 87 24.5 163t72.5 136t127 94.5t180 34.5q140 0 208 -83t68 -216q0 -88 -24 -164t-71.5 -135.5t-126.5 -94t-181 -34.5q-140 0 -208.5 83.5t-68.5 215.5zM61 0l1092 1350h332l-1092 -1350h-332zM303 954q0 -86 66 -86q114 0 114 199q0 86 -65 86 q-115 0 -115 -199zM813 270q0 87 24.5 163t72.5 136t127 94.5t180 34.5q140 0 208 -83t68 -216q0 -88 -24 -164t-71.5 -135.5t-126.5 -94t-181 -34.5q-140 0 -208.5 83.5t-68.5 215.5zM1063 279q0 -86 65 -86q115 0 115 198q0 86 -65 86q-115 0 -115 -198z" />
<glyph unicode="&#x26;" horiz-adv-x="1363" d="M25 319q0 84 29.5 156.5t82.5 127t108 92.5t124 73l37 20q-93 107 -93 230q0 91 38 162t101.5 112.5t139 62.5t158.5 21q91 0 160.5 -24.5t108.5 -65.5t58 -88t19 -100t-18 -102t-44.5 -85t-67.5 -72.5t-75 -59.5t-80 -50l88 -133q60 70 131 190l170 -204 q-54 -100 -158 -222l232 -360h-359l-81 123q-163 -150 -404 -150q-176 0 -290.5 90.5t-114.5 255.5zM387 371q0 -49 34 -76t91 -27q56 0 103 25.5t77 62.5l-139 215l-45 -30q-58 -40 -89.5 -78t-31.5 -92zM608 1018q0 -67 66 -113q51 22 86 61.5t35 84.5q0 31 -21 51t-57 20 q-48 0 -78.5 -28.5t-30.5 -75.5z" />
<glyph unicode="'" horiz-adv-x="458" d="M145 893l80 455h320l-80 -455h-320z" />
<glyph unicode="(" horiz-adv-x="710" d="M66 457q0 296 130.5 567t344.5 457l245 -105q-183 -224 -268.5 -463.5t-85.5 -470.5q0 -136 24 -276.5t74 -243.5l-280 -104q-87 106 -135.5 279t-48.5 360z" />
<glyph unicode=")" horiz-adv-x="692" d="M-45 -78q183 224 269.5 464t86.5 470q0 135 -24.5 274.5t-75.5 245.5l283 105q87 -106 135.5 -279t48.5 -360q0 -296 -131 -567t-348 -457z" />
<glyph unicode="*" horiz-adv-x="874" d="M145 936l215 92l-184 92l148 183l127 -84l18 159h260l-39 -159l156 84l82 -183l-213 -92l182 -92l-141 -191l-133 95l-17 -160h-260l37 160l-166 -95z" />
<glyph unicode="+" horiz-adv-x="989" d="M53 408l53 299h250l43 249h340l-43 -249h252l-53 -299h-250l-43 -246h-342l43 246h-250z" />
<glyph unicode="," horiz-adv-x="585" d="M-61 -248l186 430h340l-215 -430h-311z" />
<glyph unicode="-" horiz-adv-x="954" d="M51 385l60 332h802l-59 -332h-803z" />
<glyph unicode="." horiz-adv-x="505" d="M-29 0l58 324h360l-57 -324h-361z" />
<glyph unicode="/" horiz-adv-x="993" d="M-29 0l731 1348h377l-731 -1348h-377z" />
<glyph unicode="0" horiz-adv-x="1376" d="M70 541q0 137 27.5 259.5t87 228.5t146.5 182.5t212 120.5t276 44q132 0 236.5 -42.5t171.5 -119t102 -179.5t35 -226q0 -142 -28.5 -266.5t-88 -230t-147 -181t-211.5 -118t-275 -42.5q-132 0 -236.5 43t-171 119.5t-101.5 180t-35 227.5zM449 543q0 -269 198 -269 q153 0 245.5 136.5t92.5 394.5q0 268 -199 268q-153 0 -245 -134.5t-92 -395.5z" />
<glyph unicode="1" horiz-adv-x="933" d="M109 1024l503 324h326l-238 -1348h-381l168 952l-221 -151z" />
<glyph unicode="2" horiz-adv-x="1196" d="M-31 0q28 163 66 270t110 197t166.5 157.5t253.5 153.5q10 5 50.5 25.5t60 31t53.5 32t51 38t31 40t14 46.5q0 82 -129 82q-87 0 -179 -46t-173 -120l-168 234q113 110 262.5 172.5t302.5 62.5q221 0 343 -92t122 -264q0 -73 -24 -137t-53.5 -105t-88.5 -86t-93.5 -65 t-104.5 -58q-7 -4 -11 -6t-10.5 -5.5t-11.5 -6.5q-16 -8 -58 -30t-67.5 -35.5t-65.5 -35.5t-65.5 -39.5t-52 -37.5t-41 -38.5t-17.5 -35.5h631l-51 -299h-1053z" />
<glyph unicode="3" horiz-adv-x="1255" d="M-10 184l213 234q56 -69 140 -106.5t185 -37.5q125 0 200 38.5t75 121.5q0 41 -22.5 65.5t-73.5 34t-88 11.5t-111 2h-27l47 266q50 0 86 1.5t77.5 6.5t69.5 15.5t52.5 27t36.5 42t12 59.5q0 108 -186 108q-170 0 -311 -117l-156 220q97 95 242 147.5t301 52.5 q141 0 251.5 -37t178 -115t67.5 -188q0 -258 -288 -334v-8q103 -26 160 -94t57 -166q0 -115 -52 -205.5t-143 -145.5t-207.5 -83.5t-251.5 -28.5q-175 0 -313.5 52.5t-220.5 160.5z" />
<glyph unicode="4" horiz-adv-x="1288" d="M10 272l56 314l729 762h413l-137 -781h176l-53 -295h-168l-47 -272h-365l48 272h-652zM389 555h356l82 467h-4z" />
<glyph unicode="5" horiz-adv-x="1273" d="M0 127l199 248q81 -59 162.5 -86t193.5 -27q118 0 194 50.5t76 150.5q0 85 -73 117t-207 32q-183 0 -371 -37l135 773h959l-49 -279h-623l-33 -186q82 12 170 12q215 0 339 -113t124 -309q0 -122 -49.5 -218.5t-137.5 -158t-205.5 -93.5t-258.5 -32q-178 0 -319.5 39 t-225.5 117z" />
<glyph unicode="6" horiz-adv-x="1275" d="M59 461q0 95 9.5 183.5t33.5 182t61 172.5t95.5 149.5t134 120t180.5 78.5t230 29q171 0 297.5 -64t185.5 -163l-235 -188q-49 66 -113 95t-158 29q-136 0 -223.5 -76t-112.5 -216q59 42 138.5 65t156.5 23q215 0 338 -112.5t123 -285.5q0 -82 -23 -157t-72 -140 t-120.5 -112.5t-174 -75t-226.5 -27.5q-258 0 -391.5 131t-133.5 359zM426 399q0 -67 47 -106t129 -39q110 0 173 53.5t63 147.5q0 69 -49 106t-125 37q-104 0 -171 -52.5t-67 -146.5z" />
<glyph unicode="7" horiz-adv-x="1183" d="M57 0l727 1044h-583l53 304h1016l-45 -252l-750 -1096h-418z" />
<glyph unicode="8" horiz-adv-x="1280" d="M29 319q0 142 96.5 243.5t249.5 139.5l2 5q-74 27 -124 89.5t-50 153.5q0 131 77.5 228.5t208.5 147.5t295 50q213 0 341 -94t128 -258q0 -120 -81.5 -202.5t-192.5 -114.5l-2 -5q106 -36 168.5 -110t62.5 -172q0 -146 -87 -249t-229 -151.5t-323 -48.5q-113 0 -209 21 t-171 62.5t-117.5 109.5t-42.5 155zM414 375q0 -65 49 -99t133 -34q103 0 169 47t66 131q0 65 -53 98t-129 33q-58 0 -109.5 -17.5t-88.5 -59t-37 -99.5zM547 952q0 -57 43.5 -85.5t109.5 -28.5q83 0 143 39t60 112q0 54 -42.5 85.5t-112.5 31.5q-86 0 -143.5 -43 t-57.5 -111z" />
<glyph unicode="9" horiz-adv-x="1275" d="M47 172l217 195q104 -113 287 -113q86 0 147 19.5t99.5 60.5t60.5 94.5t35 130.5q-50 -46 -133 -73t-170 -27q-209 0 -332 114.5t-123 286.5q0 105 38 196t112 163.5t197 114.5t280 42q129 0 228.5 -37.5t161 -104.5t93 -156.5t31.5 -198.5q0 -85 -6 -162.5t-26 -172 t-52.5 -172.5t-89.5 -154.5t-132.5 -129t-187 -85t-247.5 -32.5q-164 0 -294 54.5t-194 146.5zM494 889q0 -69 50.5 -108.5t125.5 -39.5q105 0 172 56t67 147q0 69 -46.5 109.5t-129.5 40.5q-109 0 -174 -55.5t-65 -149.5z" />
<glyph unicode=":" horiz-adv-x="497" d="M-10 49l57 324h361l-58 -324h-360zM96 653l58 324h360l-57 -324h-361z" />
<glyph unicode=";" horiz-adv-x="571" d="M-39 -59l186 430h340l-215 -430h-311zM162 653l57 324h361l-58 -324h-360z" />
<glyph unicode="&#x3c;" horiz-adv-x="964" d="M49 489l49 279l891 406l-61 -347l-482 -200l-2 -9l412 -202l-61 -348z" />
<glyph unicode="=" horiz-adv-x="942" d="M25 150l53 303h770l-53 -303h-770zM104 600l54 303h770l-54 -303h-770z" />
<glyph unicode="&#x3e;" horiz-adv-x="966" d="M-12 68l61 348l481 202l2 9l-411 200l61 347l748 -406l-49 -279z" />
<glyph unicode="?" horiz-adv-x="1062" d="M174 1159q79 90 218 151.5t306 61.5q114 0 203.5 -32t145 -101.5t55.5 -167.5q0 -73 -19 -131.5t-50 -98.5t-69.5 -75.5t-80 -71t-78 -75t-66.5 -97.5t-43 -129l-18 -102h-381l18 102q13 79 42.5 148t66 117.5t77.5 90t79 73t69 59.5t49.5 56t18.5 56q0 37 -27.5 56.5 t-73.5 19.5q-144 0 -268 -131zM240 0l39 221h393l-39 -221h-393z" />
<glyph unicode="@" horiz-adv-x="1685" d="M74.5 183.5q-56.5 163.5 11.5 398.5q33 106 86 203.5t137 189.5t187 159.5t243.5 108.5t298.5 41q141 0 256.5 -32t195.5 -91t128 -142t53.5 -185.5t-26.5 -221.5q-63 -210 -207.5 -326t-302.5 -116q-64 0 -115 26t-70 70h-4q-88 -94 -246 -94q-95 0 -158.5 43t-84 130 t25.5 218q53 156 174.5 260.5t280.5 104.5q115 0 164 -70l24 33h191l-193 -445q-13 -35 -2 -54t43 -17q62 1 117.5 65t91.5 170q27 82 29 149.5t-18.5 114.5t-56.5 81t-89 54t-112.5 29t-129.5 9q-217 0 -384.5 -120.5t-243.5 -344.5q-37 -109 -40.5 -195.5t22.5 -145.5 t78 -98.5t122.5 -57t159.5 -17.5q80 0 154.5 17t111.5 46l65 -203q-143 -82 -374 -82q-227 0 -382 87t-211.5 250.5zM752 557q-60 -151 32 -151q69 0 93 53l75 164q14 30 -0.5 50.5t-50.5 20.5q-50 0 -88.5 -42t-60.5 -95z" />
<glyph unicode="A" horiz-adv-x="1449" d="M-80 0l766 1348h371l293 -1348h-406l-45 270h-430l-139 -270h-410zM586 537h284l-65 432h-4z" />
<glyph unicode="B" horiz-adv-x="1384" d="M23 0l237 1348h629q133 0 233.5 -33.5t162 -107.5t61.5 -181q0 -230 -265 -299l-2 -6q109 -31 167.5 -109t58.5 -174q0 -109 -45.5 -193.5t-126.5 -137.5t-187.5 -80t-232.5 -27h-690zM436 274h293q98 0 153.5 43.5t55.5 118.5q0 55 -43 86t-127 31h-283zM532 819h240 q90 0 145.5 37.5t55.5 112.5q0 104 -158 104h-240z" />
<glyph unicode="C" horiz-adv-x="1460" d="M74 567q0 173 61 323t169.5 257t265.5 168t341 61q223 0 366 -76.5t222 -230.5l-250 -217q-108 221 -340 221q-206 0 -330 -130t-124 -353q0 -154 81.5 -235t233.5 -81q131 0 229.5 58t188.5 168l172 -221q-84 -99 -168.5 -162.5t-211 -104.5t-284.5 -41 q-192 0 -334.5 79.5t-215 213.5t-72.5 303z" />
<glyph unicode="D" horiz-adv-x="1421" d="M23 0l237 1348h594q128 0 233 -46t174 -125.5t106.5 -185.5t37.5 -227q0 -225 -100.5 -399.5t-279.5 -269.5t-409 -95h-593zM449 299h213q71 0 132 27t103.5 73t73 106t45 126t14.5 133q0 127 -59 206t-178 79h-213z" />
<glyph unicode="E" horiz-adv-x="1302" d="M23 0l237 1348h1090l-52 -287h-708l-41 -238h536l-49 -278h-536l-45 -258h714l-51 -287h-1095z" />
<glyph unicode="F" horiz-adv-x="1271" d="M23 0l237 1348h1088l-54 -299h-706l-43 -250h489l-53 -299h-489l-89 -500h-380z" />
<glyph unicode="G" horiz-adv-x="1480" d="M74 569q0 370 226 588.5t607 218.5q413 0 588 -262l-260 -227q-61 90 -138.5 138t-201.5 48q-202 0 -322 -135t-120 -367q0 -297 295 -297q121 0 201.5 53t97.5 140l6 31h-316l49 278h676l-57 -317q-42 -127 -116 -222.5t-169.5 -152.5t-203.5 -85t-228 -28 q-279 0 -446.5 162t-167.5 436z" />
<glyph unicode="H" horiz-adv-x="1458" d="M23 0l237 1348h381l-92 -523h471l92 523h381l-238 -1348h-381l93 526h-471l-93 -526h-380z" />
<glyph unicode="I" horiz-adv-x="647" d="M43 0l238 1348h381l-238 -1348h-381z" />
<glyph unicode="J" horiz-adv-x="1093" d="M-31 246l295 186q61 -158 178 -158q75 0 107.5 40.5t46.5 117.5l162 916h381l-156 -883q-21 -117 -61 -205.5t-104 -154.5t-158 -100t-218 -34q-111 0 -202 27t-163.5 90t-107.5 158z" />
<glyph unicode="K" horiz-adv-x="1429" d="M23 0l237 1348h373l-101 -566l551 566h430l-581 -562q153 -110 219 -346l125 -440h-393l-88 326q-38 139 -127 209l-215 -211l-58 -324h-372z" />
<glyph unicode="L" horiz-adv-x="1181" d="M23 0l237 1348h381l-184 -1045h626l-53 -303h-1007z" />
<glyph unicode="M" horiz-adv-x="1626" d="M23 0l237 1348h389l187 -723l428 723h397l-238 -1348h-356l135 764l-338 -571h-207l-143 571l-135 -764h-356z" />
<glyph unicode="N" horiz-adv-x="1449" d="M23 0l237 1348h371l354 -795l139 795h361l-238 -1348h-362l-363 795l-139 -795h-360z" />
<glyph unicode="O" horiz-adv-x="1533" d="M74 561q0 173 54 320.5t156 258t259.5 173.5t353.5 63q153 0 273 -45.5t195 -126.5t114 -187.5t39 -232.5q0 -174 -55 -322t-158 -257.5t-260.5 -171.5t-352.5 -62q-153 0 -272.5 45t-194 125t-113 186.5t-38.5 233.5zM455 580q0 -141 68.5 -223.5t201.5 -82.5 q131 0 226 67.5t140.5 177t45.5 247.5q0 144 -68 225.5t-205 81.5q-130 0 -224 -67t-139.5 -177t-45.5 -249z" />
<glyph unicode="P" horiz-adv-x="1325" d="M23 0l237 1348h637q201 0 328 -115.5t127 -304.5q0 -127 -53 -228t-141.5 -163t-198 -94.5t-228.5 -32.5h-256l-72 -410h-380zM518 692h215q113 0 179.5 59t66.5 162q0 73 -47 112.5t-133 39.5h-215z" />
<glyph unicode="Q" horiz-adv-x="1533" d="M74 561q0 173 54 320.5t156 258t259.5 173.5t353.5 63q153 0 273 -45.5t195 -126.5t114 -187.5t39 -232.5q0 -284 -169.5 -487t-461.5 -252v-4l340 -139l-213 -283l-506 385q-210 60 -322 204.5t-112 352.5zM455 580q0 -141 68.5 -223.5t201.5 -82.5q131 0 226 67.5 t140.5 177t45.5 247.5q0 144 -68 225.5t-205 81.5q-130 0 -224 -67t-139.5 -177t-45.5 -249z" />
<glyph unicode="R" horiz-adv-x="1359" d="M23 0l237 1348h645q207 0 332 -98.5t125 -278.5q0 -90 -30 -161.5t-83.5 -118t-116 -75.5t-137.5 -45v-4q103 -35 151 -112q47 -74 46 -173v-8l-6 -274h-381l6 240q1 11 1 21q0 79 -34 134q-38 62 -123 62h-172l-80 -457h-380zM526 739h240q104 0 161.5 51t57.5 142 q0 65 -43 99t-119 34h-239z" />
<glyph unicode="S" horiz-adv-x="1312" d="M-6 166l201 285q84 -79 203.5 -128t232.5 -49q63 0 106.5 7t75 30.5t31.5 63.5q0 15 -5.5 28t-18.5 23.5t-25.5 19t-35.5 17.5t-40 15.5t-46.5 16.5t-47.5 17q-108 39 -184 78t-138 89t-92.5 112.5t-30.5 138.5q0 116 46.5 203t131 139.5t194 78t243.5 25.5 q332 0 540 -153l-192 -275q-69 57 -172 91t-207 34q-199 0 -199 -92q0 -20 12 -35t39 -27.5t53 -21.5t71 -23.5t75 -25.5q200 -73 307 -176.5t107 -251.5q0 -216 -168.5 -332.5t-462.5 -116.5q-177 0 -337.5 47t-266.5 148z" />
<glyph unicode="T" horiz-adv-x="1273" d="M178 1049l53 299h1129l-53 -299h-375l-184 -1049h-381l184 1049h-373z" />
<glyph unicode="U" horiz-adv-x="1443" d="M100 516l148 832h381l-148 -834q-6 -33 -5 -62q0 -70 34 -115q48 -63 172 -63q235 0 279 240l147 834h381l-148 -832q-45 -255 -220.5 -400t-461.5 -145q-192 0 -329 66.5t-198 190.5q-41 84 -41 186q0 49 9 102z" />
<glyph unicode="V" horiz-adv-x="1470" d="M188 1348h394l135 -906h8l457 906h395l-746 -1348h-374z" />
<glyph unicode="W" horiz-adv-x="1937" d="M188 1348h361l31 -906h4l354 783h319l91 -783h4l331 906h361l-578 -1348h-368l-90 719h-4l-338 -719h-373z" />
<glyph unicode="X" horiz-adv-x="1509" d="M-49 0l602 688l-352 660h426l190 -422l330 422h434l-575 -668l372 -680h-436l-207 422l-336 -422h-448z" />
<glyph unicode="Y" horiz-adv-x="1443" d="M178 1348h393l197 -623h8l387 623h398l-652 -920l-75 -428h-381l75 428z" />
<glyph unicode="Z" horiz-adv-x="1376" d="M-8 0l41 244l856 809h-678l51 295h1159l-45 -261l-837 -792h723l-52 -295h-1218z" />
<glyph unicode="[" horiz-adv-x="702" d="M-31 -297l342 1939h549l-51 -294h-197l-237 -1350h196l-53 -295h-549z" />
<glyph unicode="\" horiz-adv-x="993" d="M209 1348h377l256 -1348h-377z" />
<glyph unicode="]" horiz-adv-x="702" d="M-102 -297l53 295h192l238 1350h-193l52 294h548l-342 -1939h-548z" />
<glyph unicode="^" horiz-adv-x="1253" d="M104 584l547 764h305l279 -764h-381l-111 399h-4l-254 -399h-381z" />
<glyph unicode="_" horiz-adv-x="915" d="M-139 -274l49 274h936l-49 -274h-936z" />
<glyph unicode="`" horiz-adv-x="1585" d="M758 1786h393l41 -430h-287z" />
<glyph unicode="a" horiz-adv-x="1167" d="M6 244q0 79 25.5 142t69.5 104t106 68t130.5 38.5t147.5 11.5q142 0 242 -49l12 68q4 18 4 34q0 41 -25 69q-34 40 -132 40q-181 0 -348 -82l-58 246q96 51 219 78.5t248 27.5q117 0 205.5 -22.5t152 -70.5t87.5 -129q13 -44 13 -97q0 -44 -9 -94l-111 -627h-280l-17 78 q-135 -107 -330 -107q-172 0 -262 74t-90 199zM356 274q0 -38 27.5 -57.5t75.5 -19.5q68 0 129 21t98 61l10 61q-81 43 -204 43q-65 0 -100.5 -27.5t-35.5 -81.5z" />
<glyph unicode="b" horiz-adv-x="1263" d="M12 0l254 1436h348l-90 -504q48 48 127 78t162 30q104 0 184.5 -35.5t129 -98t72.5 -142t24 -174.5q0 -133 -37 -245.5t-107 -196t-180 -130.5t-248 -47q-99 0 -182 36.5t-137 105.5l-51 -113h-269zM438 397q2 -61 52 -104t126 -43q68 0 117.5 25t77.5 69.5t40.5 99.5 t12.5 123q0 91 -41 143t-125 52q-75 0 -133 -45t-88 -103z" />
<glyph unicode="c" horiz-adv-x="1181" d="M39 438q0 274 187.5 438t490.5 164q149 0 281.5 -55t195.5 -156l-186 -208q-50 70 -118 105.5t-173 35.5q-137 0 -227.5 -81.5t-90.5 -219.5q0 -101 62 -156t168 -55t184 35t156 106l114 -209q-98 -109 -236.5 -160t-289.5 -51q-240 0 -379 126t-139 341z" />
<glyph unicode="d" horiz-adv-x="1265" d="M39 406q0 129 38 242.5t109.5 201.5t185 139t255.5 51q79 0 154.5 -29t107.5 -73l88 498h348l-254 -1436h-268l-10 113q-61 -69 -151.5 -105.5t-186.5 -36.5q-196 0 -306 118.5t-110 316.5zM395 430q0 -180 166 -180q74 0 136 44.5t89 111.5l35 202q0 59 -45.5 106.5 t-124.5 47.5q-121 0 -188.5 -90t-67.5 -242z" />
<glyph unicode="e" horiz-adv-x="1183" d="M39 420q0 279 169 449.5t466 170.5q123 0 215 -33.5t146 -90.5q55 -58 81 -137q25 -73 24 -156v-13q-2 -90 -28 -190h-727q-5 -19 -5 -37q0 -17 4 -33q8 -34 28.5 -61t65.5 -43.5t110 -16.5q100 0 174.5 22.5t138.5 76.5l139 -164q-193 -193 -514 -193 q-234 0 -360.5 120.5t-126.5 328.5zM436 637h377q3 18 3 34q0 49 -32 83q-42 44 -127 45q-89 0 -148 -44.5t-73 -117.5z" />
<glyph unicode="f" horiz-adv-x="899" d="M94 0l111 625h-111l47 262h111l24 143q26 162 125 254t275 92q247 0 350 -188l-178 -168q-46 84 -123 84q-11 0 -23 -2q-34 -4 -51.5 -28t-25.5 -68l-21 -119h203l-47 -262h-187l-110 -625h-369z" />
<glyph unicode="g" horiz-adv-x="1255" d="M39 449q0 263 164 427t420 164q104 0 183 -33.5t120 -93.5l37 99h278l-158 -897q-88 -506 -645 -506q-108 0 -209.5 25t-162.5 65l96 235q132 -75 307 -75q143 0 215.5 54.5t93.5 164.5l15 76q-45 -55 -132.5 -90t-189.5 -35q-196 0 -314 112.5t-118 307.5zM401 475 q0 -84 41.5 -132t128.5 -48q81 0 135.5 40t75.5 99l35 199q0 59 -42 100t-116 41q-121 0 -189.5 -81.5t-68.5 -217.5z" />
<glyph unicode="h" horiz-adv-x="1265" d="M12 0l252 1434h322l-97 -547q61 69 155 111t196 42q212 0 300 -116q62 -83 63 -212q0 -53 -11 -114l-105 -598h-364l104 592q5 28 5 52q0 118 -121 118q-77 0 -143 -57.5t-93 -143.5l-98 -561h-365z" />
<glyph unicode="i" horiz-adv-x="610" d="M23 0l178 1012h364l-178 -1012h-364zM209 1081l47 267h373l-47 -267h-373z" />
<glyph unicode="j" horiz-adv-x="876" d="M-162 -281l142 244q101 -77 195 -77q9 0 18 1q58 4 82 46t44 141l166 938h365l-158 -895q-18 -99 -40 -171.5t-59 -139t-88 -108t-126.5 -65.5t-173.5 -24q-117 0 -216.5 32t-150.5 78zM494 1081l47 267h372l-47 -267h-372z" />
<glyph unicode="k" horiz-adv-x="1216" d="M12 0l242 1368h344l-127 -719h4l363 363h383l-463 -439q74 -41 119.5 -100.5t87.5 -167.5l114 -305h-358l-96 252q-27 79 -97 104l-122 -112l-44 -244h-350z" />
<glyph unicode="l" horiz-adv-x="765" d="M56 245q-2 20 -2 42q0 69 16 149l163 932h365l-166 -938q-5 -37 -7 -52.5t-4 -42.5t2 -38.5t12 -26t23 -19.5t38 -5q71 0 127 33l59 -218q-126 -90 -317 -90q-103 0 -171.5 33t-100 94t-37.5 147z" />
<glyph unicode="m" horiz-adv-x="1775" d="M12 0l178 1012h259l-5 -135q55 73 137.5 118t182.5 45q101 0 169.5 -52t80.5 -130h4q62 82 156.5 132t201.5 50q184 0 272 -110q66 -82 65 -197q0 -39 -7 -82l-115 -651h-352l111 637q3 18 3 33q0 34 -16 58q-24 34 -82 34q-64 0 -112 -44.5t-68 -113.5l-106 -604h-324 l111 637q3 17 3 32q0 35 -17 59q-25 34 -83 34q-62 0 -115 -45t-73 -113l-106 -604h-353z" />
<glyph unicode="n" horiz-adv-x="1265" d="M12 0l178 1012h279l2 -135q68 78 162.5 120.5t202.5 42.5q212 0 302 -117q64 -83 64 -213q0 -52 -10 -112l-105 -598h-364l104 592q5 28 5 52q0 118 -121 118q-77 0 -143 -57.5t-93 -143.5l-98 -561h-365z" />
<glyph unicode="o" horiz-adv-x="1236" d="M39 420q0 284 175 452t478 168q229 0 366.5 -122t137.5 -326q0 -136 -42.5 -249t-123.5 -196t-205 -129.5t-280 -46.5q-236 0 -371 124.5t-135 324.5zM403 442q0 -87 41 -137.5t129 -50.5q71 0 123.5 27.5t80.5 74.5t41 99.5t13 111.5q0 191 -169 191q-65 0 -116 -26 t-81.5 -70.5t-46 -100t-15.5 -119.5z" />
<glyph unicode="p" horiz-adv-x="1261" d="M-51 -358l241 1370h259l6 -123q138 151 350 151q196 0 306 -128.5t110 -323.5q0 -124 -37.5 -235t-106.5 -196.5t-176.5 -135.5t-238.5 -50q-94 0 -173.5 31.5t-113.5 75.5l-78 -436h-348zM440 410q0 -65 50 -112.5t133 -47.5q122 0 182.5 90t60.5 229q0 86 -36.5 137.5 t-131.5 51.5q-77 0 -136.5 -44t-86.5 -106z" />
<glyph unicode="q" horiz-adv-x="1263" d="M39 406q0 132 39 247t111 201t182.5 136t244.5 50q240 0 330 -151l45 123h258l-241 -1368h-349l76 430q-46 -45 -122.5 -74t-168.5 -29q-199 0 -302 119.5t-103 315.5zM395 424q0 -174 156 -174q84 0 148 49t87 111l35 196q-8 64 -53 110t-125 46q-63 0 -112 -29t-78 -78 t-43.5 -108t-14.5 -123z" />
<glyph unicode="r" horiz-adv-x="991" d="M12 0l178 1012h279v-178q59 95 151.5 150.5t204.5 55.5q87 0 150 -31.5t96 -82.5l-203 -226q-54 54 -145 54q-83 0 -150 -56t-98 -139l-98 -559h-365z" />
<glyph unicode="s" horiz-adv-x="1073" d="M-18 121l155 225q56 -47 149 -82t181 -35q158 0 158 74q0 7 -2 13t-7.5 11.5t-10.5 10t-14.5 9t-16.5 7.5t-20.5 7.5t-21.5 7t-24.5 7t-24.5 7.5q-41 13 -70 23t-68.5 26.5t-67 33t-57 40.5t-48 50.5t-30 61t-11.5 74.5q0 90 42.5 159t115 109t160 60t186.5 20 q130 0 244.5 -30.5t185.5 -85.5l-162 -228q-125 86 -287 86q-47 0 -81.5 -14.5t-34.5 -44.5q0 -15 11 -27.5t33.5 -22.5t41 -16t49.5 -15q12 -3 18 -5q58 -18 97.5 -32.5t89.5 -41.5t80 -56.5t51.5 -75t21.5 -99.5q0 -175 -146.5 -268t-393.5 -93q-155 0 -276 39t-195 111z " />
<glyph unicode="t" horiz-adv-x="888" d="M119 723l51 283h149l48 270h344l-47 -270h219l-52 -283h-219l-51 -293q-7 -46 -9 -73t2.5 -54.5t21.5 -40t47 -12.5q72 0 131 33l55 -222q-53 -42 -136 -66t-171 -24q-194 1 -272 105q-53 70 -52 190q0 58 12 129l58 328h-129z" />
<glyph unicode="u" horiz-adv-x="1265" d="M72 414l104 598h365l-105 -598q-5 -27 -4 -49q0 -45 18 -73q28 -42 111 -42q87 0 145 54t80 136l101 572h364l-178 -1012h-274l-6 127q-52 -67 -147.5 -111.5t-196.5 -44.5q-220 -1 -317 115q-70 84 -70 218q0 51 10 110z" />
<glyph unicode="v" horiz-adv-x="1183" d="M119 1012h362l82 -660h4l305 660h369l-555 -1012h-369z" />
<glyph unicode="w" horiz-adv-x="1585" d="M119 1012h330l30 -570h4l230 488h305l61 -488h4l234 570h325l-471 -1012h-297l-79 545h-4l-261 -545h-301z" />
<glyph unicode="x" horiz-adv-x="1218" d="M-59 0l434 526l2 4l-248 482h377l123 -271h4l219 271h379l-418 -482l-2 -4l276 -526h-380l-146 311h-4l-238 -311h-378z" />
<glyph unicode="y" horiz-adv-x="1159" d="M-80 -297l133 209q32 -25 59.5 -36t67.5 -11q28 0 51 14.5t40.5 42t29 52t23.5 59.5l-211 979h376l66 -635h4l291 635h367l-533 -977q-44 -80 -76.5 -134t-80 -114.5t-92 -96t-104 -59.5t-124.5 -24q-180 0 -287 96z" />
<glyph unicode="z" horiz-adv-x="1126" d="M-18 0l38 215l605 526h-482l50 271h927l-39 -215l-602 -527h531l-49 -270h-979z" />
<glyph unicode="{" horiz-adv-x="774" d="M63 530l46 263q23 0 42 2t35 9t28 12.5t23 19.5t18.5 22.5t15 29t11.5 32.5t10 39.5t9 42t9 47.5q2 11 3 16l25 147q37 221 181 325.5t413 104.5l-47 -274q-107 0 -152.5 -36t-62.5 -144l-21 -125q-11 -65 -23 -113.5t-32.5 -97t-47 -82.5t-67 -61t-92.5 -41l-2 -13 q57 -18 90 -52.5t42 -89.5t6 -111t-17 -140l-21 -125q-20 -109 11 -144.5t139 -35.5l-47 -274q-267 0 -373 104.5t-68 335.5l23 137q23 138 19 179q-6 69 -67 85q-24 6 -59 6z" />
<glyph unicode="|" horiz-adv-x="606" d="M-31 -297l342 1939h381l-342 -1939h-381z" />
<glyph unicode="}" horiz-adv-x="774" d="M-104 -317l47 274q108 0 151.5 35.5t63.5 144.5l22 125q11 66 22.5 113.5t31.5 96t46.5 82t66 60.5t91.5 41l2 13q-46 14 -76 41.5t-44 60.5t-16 83t2.5 96.5t15.5 113.5l20 125q17 110 -12 145t-137 35l47 274q267 0 373 -104t69 -326l-25 -147q-7 -36 -10.5 -56 t-7.5 -49t-4 -44t1.5 -36t7.5 -32t15.5 -23.5t24 -18t34.5 -9.5t46 -4l-45 -263q-33 0 -59 -6.5t-44.5 -16t-33.5 -29t-24 -37.5t-18 -51t-14 -59t-12 -71l-22 -137q-38 -230 -182 -335t-414 -105z" />
<glyph unicode="~" horiz-adv-x="1257" d="M66 555q64 101 178.5 171.5t247.5 70.5q58 0 105.5 -14t79 -34.5t60.5 -41t63.5 -34.5t73.5 -14q46 0 86.5 19.5t65.5 44.5t59 68l127 -213q-171 -238 -399 -238q-64 0 -120.5 21.5t-91 47t-80.5 47t-91 21.5q-72 0 -126.5 -31t-115.5 -94z" />
<glyph unicode="&#xa1;" horiz-adv-x="602" d="M-39 -336l201 1055h348l-172 -1055h-377zM158 791l39 221h381l-39 -221h-381z" />
<glyph unicode="&#xa2;" horiz-adv-x="1202" d="M49 418q0 232 136.5 389.5t359.5 208.5l37 209h364l-35 -201q199 -44 293 -195l-190 -213q-51 71 -117.5 106.5t-169.5 35.5q-137 0 -227 -79.5t-90 -217.5q0 -101 61 -154t168 -53q106 0 183 34.5t155 106.5l117 -213q-137 -152 -365 -194l-33 -191h-364l35 201 q-150 42 -234 150t-84 270z" />
<glyph unicode="&#xa3;" horiz-adv-x="1181" d="M-29 0l43 244q201 119 230 280h-181l50 283h141q-20 264 120 420.5t382 156.5q291 0 420 -194l-228 -238q-37 58 -87.5 92.5t-98 38t-90.5 -15.5q-106 -52 -64 -252h338l-51 -291h-291q-9 -58 -36 -121.5t-70 -99.5v-4h542l-53 -299h-1016z" />
<glyph unicode="&#xa4;" horiz-adv-x="1314" d="M16 264l211 193q-24 81 -24 157q0 146 102 285l-145 205l305 231l162 -237q59 20 139 20q79 0 135 -20l244 237l223 -231l-219 -205q27 -73 27 -156q0 -80 -27 -147t-78 -139l146 -193l-306 -235l-155 223q-74 -23 -146 -23q-80 0 -137 23l-237 -223zM526 647 q0 -61 35.5 -98t97.5 -37q82 0 137.5 55.5t55.5 137.5q0 62 -36 98.5t-97 36.5q-81 0 -137 -54t-56 -139z" />
<glyph unicode="&#xa5;" horiz-adv-x="1548" d="M209 188l41 234h330l20 108h-330l41 234h187l-287 584h414l217 -533l395 533h397l-477 -584h191l-41 -234h-326l-20 -108h325l-41 -234h-325l-33 -188h-381l33 188h-330z" />
<glyph unicode="&#xa6;" horiz-adv-x="606" d="M-31 -297l133 756h381l-133 -756h-381zM178 887l133 755h381l-133 -755h-381z" />
<glyph unicode="&#xa7;" horiz-adv-x="1091" d="M-45 -158l168 283q60 -60 150.5 -96.5t183.5 -36.5q112 0 112 71q0 17 -13.5 30t-43.5 23.5t-48.5 15t-57.5 13.5q-60 16 -108 34t-93.5 45t-76 59t-49 77t-18.5 99q0 101 56 174.5t141 114.5l2 4q-52 31 -80 90t-28 125q0 98 43.5 175.5t119 125.5t173 73t210.5 25 q120 0 239.5 -38t205.5 -120l-166 -282q-60 60 -151.5 96.5t-184.5 36.5q-54 0 -83.5 -19.5t-29.5 -54.5q0 -11 4.5 -21t15.5 -18.5t20.5 -14.5t28.5 -13t29 -10.5t33 -11t31 -9.5q154 -52 203 -77q119 -61 140 -163q5 -25 5 -53q0 -52 -18 -99.5t-48.5 -83.5t-62.5 -62 t-69 -46v-4q108 -72 108 -209q0 -100 -43.5 -179t-119.5 -127.5t-173.5 -73.5t-210.5 -25q-121 0 -241.5 38t-204.5 119zM401 524q0 -21 14 -36.5t39.5 -25.5t54 -17.5t64.5 -14.5q7 -1 11.5 -2t9.5 -2l18 -6q82 40 82 108q0 23 -15 40t-44 28.5t-58 18.5t-71 14l-23 4 q-82 -43 -82 -109z" />
<glyph unicode="&#xa8;" horiz-adv-x="1744" d="M559 1317l55 311h353l-56 -311h-352zM1161 1317l56 311h352l-56 -311h-352z" />
<glyph unicode="&#xa9;" horiz-adv-x="1587" d="M76 582q0 142 43 267.5t121.5 221t185.5 164.5t239 105t279 36q141 0 258.5 -45.5t198 -126t124.5 -192.5t44 -244q0 -172 -65 -320.5t-178 -253t-273 -164t-344 -59.5q-192 0 -336.5 79.5t-220.5 217.5t-76 314zM324 582q0 -182 107 -292t304 -110q266 0 425 161.5 t159 422.5q0 186 -108.5 294.5t-301.5 108.5q-261 0 -423 -159t-162 -426zM412 616q0 204 128.5 330.5t346.5 126.5q137 0 214 -46.5t118 -129.5l-172 -139q-33 50 -71 74t-97 24q-96 0 -148.5 -60t-52.5 -165q0 -139 135 -139q64 0 108 23t97 77l123 -141 q-72 -86 -163.5 -131.5t-223.5 -45.5q-164 0 -253 96.5t-89 245.5z" />
<glyph unicode="&#xaa;" horiz-adv-x="800" d="M121 872q0 67 25.5 114.5t72 74t102 38t123.5 11.5q91 0 162 -33l6 39q7 43 -15.5 69.5t-88.5 26.5q-120 0 -232 -55l-38 164q135 72 290 72q78 0 139.5 -15.5t105.5 -48t62.5 -86.5t6.5 -127l-74 -420h-178l-12 52q-90 -72 -222 -72q-112 0 -173.5 56t-61.5 140z M356 885q0 -54 72 -54q89 0 147 58l7 37q-68 28 -133 28q-43 0 -68 -17.5t-25 -51.5z" />
<glyph unicode="&#xab;" horiz-adv-x="1468" d="M61 489l37 205l807 621l-71 -414l-422 -307v-4l311 -316l-72 -401zM676 489l37 205l807 621l-72 -414l-422 -307v-4l311 -316l-71 -401z" />
<glyph unicode="&#xac;" horiz-adv-x="1247" d="M72 492l53 299h1100l-105 -598h-360l51 299h-739z" />
<glyph unicode="&#xad;" horiz-adv-x="954" d="M51 385l60 332h802l-59 -332h-803z" />
<glyph unicode="&#xae;" horiz-adv-x="1587" d="M76 582q0 142 43 267.5t121.5 221t185.5 164.5t239 105t279 36q141 0 258.5 -45.5t198 -126t124.5 -192.5t44 -244q0 -172 -65 -320.5t-178 -253t-273 -164t-344 -59.5q-192 0 -336.5 79.5t-220.5 217.5t-76 314zM324 582q0 -182 107 -292t304 -110q266 0 425 161.5 t159 422.5q0 186 -108.5 294.5t-301.5 108.5q-261 0 -423 -159t-162 -426zM473 328l125 700h336q107 0 172 -52.5t65 -148.5q0 -90 -55 -140t-131 -64l-2 -2q98 -30 98 -150v-143h-217v125q0 104 -69 104h-68l-41 -229h-213zM756 725h98q40 0 68 22t28 64q0 28 -19 42.5 t-50 14.5h-99z" />
<glyph unicode="&#xb0;" horiz-adv-x="849" d="M205 1272q0 159 124 272t306 113q141 0 224 -88t83 -215q0 -157 -124.5 -272t-305.5 -115q-141 0 -224 88.5t-83 216.5zM434 1288q0 -53 30 -85t85 -32q73 0 118.5 48t45.5 118q0 52 -29.5 83.5t-85.5 31.5q-72 0 -118 -47.5t-46 -116.5z" />
<glyph unicode="&#xb1;" horiz-adv-x="978" d="M-16 51l53 299h782l-53 -299h-782zM84 688l53 299h238l43 244h340l-43 -244h241l-53 -299h-239l-41 -229h-342l41 229h-238z" />
<glyph unicode="&#xb2;" horiz-adv-x="686" d="M80 649q16 82 32 132t48 96t79 80.5t126 76.5q7 4 29.5 14.5t36.5 18.5t31.5 20t26.5 25t9 27q0 30 -52 30q-87 0 -176 -82l-94 150q58 58 140 93.5t176 35.5q109 0 179 -50t70 -136q0 -83 -44 -135t-140 -107q-14 -8 -65 -31.5t-84.5 -42.5t-36.5 -30h313l-33 -185h-571 z" />
<glyph unicode="&#xb3;" horiz-adv-x="716" d="M94 750l123 135q58 -70 160 -70t102 64q0 19 -10 30t-33.5 15.5t-39 5t-50.5 0.5h-18l26 149q32 0 51.5 1t42 4.5t34.5 10t20 19.5t8 31q0 43 -68 43q-80 0 -145 -53l-90 125q104 104 287 104q110 0 183 -46.5t73 -133.5q0 -127 -142 -166l-2 -4q47 -11 77 -48.5 t30 -86.5q0 -118 -93 -179t-243 -61q-201 0 -283 111z" />
<glyph unicode="&#xb4;" horiz-adv-x="1613" d="M717 1356l192 430h394l-299 -430h-287z" />
<glyph unicode="&#xb5;" horiz-adv-x="1265" d="M-78 -426l254 1438h365l-105 -598q-27 -160 127 -160q79 0 138 49.5t85 136.5l101 572h364l-178 -1012h-274l-4 123q-52 -68 -120.5 -105.5t-170.5 -37.5q-48 0 -91.5 14.5t-62.5 42.5h-2l-82 -463h-344z" />
<glyph unicode="&#xb6;" horiz-adv-x="1523" d="M150 930q0 89 26 160.5t70 118.5t103.5 79t124.5 46t136 14h1000l-60 -332h-151l-269 -1528h-348l269 1528h-140l-268 -1528h-348l203 1151h-13q-149 0 -242 70.5t-93 220.5z" />
<glyph unicode="&#xb7;" horiz-adv-x="505" d="M68 487l57 324h360l-57 -324h-360z" />
<glyph unicode="&#xb8;" horiz-adv-x="1587" d="M315 -494l78 183q63 -29 137 -29q78 0 111 26t33 81q0 70 -115 88l64 145h254l-48 -100q105 -46 105 -150q0 -137 -109 -212t-290 -75q-144 0 -220 43z" />
<glyph unicode="&#xb9;" horiz-adv-x="591" d="M182 1151l264 197h232l-121 -689h-246l78 449l-113 -88z" />
<glyph unicode="&#xba;" horiz-adv-x="872" d="M141 993q0 186 120.5 293t320.5 107q149 0 236 -88t87 -226q0 -182 -117.5 -290.5t-322.5 -108.5q-154 0 -239 88.5t-85 224.5zM385 997q0 -116 111 -116q85 0 124 53t39 139q0 119 -108 119q-83 0 -124.5 -52.5t-41.5 -142.5z" />
<glyph unicode="&#xbb;" horiz-adv-x="1468" d="M-23 -127l72 401l422 316v4l-311 307l71 414l590 -621l-37 -205zM592 -127l72 401l421 316v4l-311 307l72 414l590 -621l-37 -205z" />
<glyph unicode="&#xbc;" horiz-adv-x="1542" d="M86 0l1090 1348h331l-1089 -1348h-332zM123 1151l264 197h231l-120 -689h-246l78 449l-113 -88zM848 121l35 190l334 383h286l-69 -393h86l-33 -180h-86l-21 -121h-229l20 121h-323zM1085 289h156l43 227z" />
<glyph unicode="&#xbd;" horiz-adv-x="1632" d="M90 0l1090 1348h331l-1089 -1348h-332zM127 1151l264 197h232l-121 -689h-246l78 449l-113 -88zM918 0q30 159 82 232t202 153q8 4 30 14.5t36.5 18.5t31.5 19.5t26 24.5t9 27q0 31 -51 31q-87 0 -176 -82l-94 150q58 58 139.5 93.5t175.5 35.5q109 0 179.5 -50.5 t70.5 -136.5q0 -83 -43.5 -134.5t-140.5 -106.5q-14 -8 -65.5 -32t-85 -43t-36.5 -30h314l-33 -184h-571z" />
<glyph unicode="&#xbe;" horiz-adv-x="1665" d="M98 750l123 135q58 -70 160 -70t102 64q0 19 -10 30t-33.5 15.5t-39 5t-50.5 0.5h-18l26 149q32 0 51.5 1t42 4.5t34.5 10t20 19.5t8 31q0 43 -68 43q-80 0 -145 -53l-90 125q104 104 287 104q110 0 183 -46.5t73 -133.5q0 -127 -142 -166l-2 -4q47 -11 77 -48.5 t30 -86.5q0 -118 -93 -179t-243 -61q-201 0 -283 111zM213 0l1090 1348h331l-1089 -1348h-332zM969 121l35 190l333 383h287l-70 -393h86l-32 -180h-86l-21 -121h-229l20 121h-323zM1206 289h156l43 227z" />
<glyph unicode="&#xbf;" horiz-adv-x="1060" d="M-41 -59q0 73 19 131t50 98.5t69.5 75.5t80 71t78 75t66.5 97t43 129l18 103h381l-19 -103q-21 -107 -70 -196t-104 -143.5t-107 -99.5t-86 -84.5t-34 -76.5t27 -56t73 -19q145 0 269 131l174 -221q-79 -90 -218 -151.5t-307 -61.5q-176 0 -289.5 77.5t-113.5 223.5z M389 791l39 221h393l-39 -221h-393z" />
<glyph unicode="&#xc0;" horiz-adv-x="1449" d="M-80 0l766 1348h371l293 -1348h-406l-45 270h-430l-139 -270h-410zM578 1856h393l41 -430h-287zM586 537h284l-65 432h-4z" />
<glyph unicode="&#xc1;" horiz-adv-x="1449" d="M-80 0l766 1348h371l293 -1348h-406l-45 270h-430l-139 -270h-410zM586 537h284l-65 432h-4zM743 1425l193 430h393l-299 -430h-287z" />
<glyph unicode="&#xc2;" horiz-adv-x="1449" d="M-80 0l766 1348h371l293 -1348h-406l-45 270h-430l-139 -270h-410zM450 1426l381 434h252l217 -434h-319l-68 182h-2l-139 -182h-322zM586 537h284l-65 432h-4z" />
<glyph unicode="&#xc3;" horiz-adv-x="1449" d="M-80 0l766 1348h371l293 -1348h-406l-45 270h-430l-139 -270h-410zM408 1612q65 97 164.5 155t211.5 58q59 0 106 -19t72 -41.5t59.5 -41.5t72.5 -19q53 0 91.5 26.5t78.5 81.5l96 -170q-62 -90 -138.5 -143t-179.5 -53q-58 0 -106 19t-74.5 41t-61 41t-69.5 19 q-112 0 -205 -100zM586 537h284l-65 432h-4z" />
<glyph unicode="&#xc4;" horiz-adv-x="1449" d="M-80 0l766 1348h371l293 -1348h-406l-45 270h-430l-139 -270h-410zM410 1446l55 311h352l-55 -311h-352zM586 537h284l-65 432h-4zM1012 1446l55 311h352l-55 -311h-352z" />
<glyph unicode="&#xc5;" horiz-adv-x="1449" d="M-80 0l733 1290q-59 65 -59 160q0 135 97.5 223t246.5 88q116 0 188 -70.5t72 -172.5q0 -160 -125 -246l277 -1272h-406l-45 270h-430l-139 -270h-410zM586 537h284l-65 432h-4zM809 1470q0 -31 19 -52t55 -21q45 0 72.5 31t27.5 71q0 31 -18 52.5t-52 21.5 q-47 0 -75.5 -31.5t-28.5 -71.5z" />
<glyph unicode="&#xc6;" horiz-adv-x="1900" d="M-80 0l914 1348h1114l-52 -287h-612l-41 -238h455l-49 -278h-455l-45 -258h618l-51 -287h-962l51 291h-322l-192 -291h-371zM643 565h219l84 484h-2z" />
<glyph unicode="&#xc7;" horiz-adv-x="1460" d="M74 567q0 173 61 323t169.5 257t265.5 168t341 61q223 0 366 -76.5t222 -230.5l-250 -217q-108 221 -340 221q-206 0 -330 -130t-124 -353q0 -154 81.5 -235t233.5 -81q131 0 229.5 58t188.5 168l172 -221q-102 -123 -221 -197.5t-281 -97.5l-39 -84q105 -46 105 -150 q0 -137 -109.5 -212t-290.5 -75q-143 0 -219 43l78 183q63 -29 137 -29q78 0 111 26t33 81q0 70 -115 88l53 122q-246 29 -387 191t-141 399z" />
<glyph unicode="&#xc8;" horiz-adv-x="1302" d="M23 0l237 1348h1090l-52 -287h-708l-41 -238h536l-49 -278h-536l-45 -258h714l-51 -287h-1095zM518 1855h393l41 -430h-286z" />
<glyph unicode="&#xc9;" horiz-adv-x="1302" d="M23 0l237 1348h1090l-52 -287h-708l-41 -238h536l-49 -278h-536l-45 -258h714l-51 -287h-1095zM655 1425l193 430h393l-299 -430h-287z" />
<glyph unicode="&#xca;" horiz-adv-x="1302" d="M23 0l237 1348h1090l-52 -287h-708l-41 -238h536l-49 -278h-536l-45 -258h714l-51 -287h-1095zM397 1425l381 435h252l217 -435h-319l-68 183h-2l-139 -183h-322z" />
<glyph unicode="&#xcb;" horiz-adv-x="1302" d="M23 0l237 1348h1090l-52 -287h-708l-41 -238h536l-49 -278h-536l-45 -258h714l-51 -287h-1095zM342 1446l55 311h353l-56 -311h-352zM944 1446l56 311h352l-56 -311h-352z" />
<glyph unicode="&#xcc;" horiz-adv-x="647" d="M43 0l238 1348h381l-238 -1348h-381zM184 1855h394l40 -430h-286z" />
<glyph unicode="&#xcd;" horiz-adv-x="647" d="M43 0l238 1348h381l-238 -1348h-381zM342 1425l193 430h393l-299 -430h-287z" />
<glyph unicode="&#xce;" horiz-adv-x="647" d="M43 0l238 1348h381l-238 -1348h-381zM63 1446l381 434h252l217 -434h-319l-68 182h-2l-139 -182h-322z" />
<glyph unicode="&#xcf;" horiz-adv-x="647" d="M31 1446l55 311h352l-55 -311h-352zM43 0l238 1348h381l-238 -1348h-381zM592 1446l55 311h352l-55 -311h-352z" />
<glyph unicode="&#xd0;" horiz-adv-x="1597" d="M76 518l53 307h215l92 523h594q128 0 233 -46t174 -125.5t106.5 -185.5t37.5 -227q0 -225 -100 -399.5t-279 -269.5t-409 -95h-594l92 518h-215zM625 299h213q71 0 132 27t103.5 73t73 106t45 126t14.5 133q0 127 -59 206t-178 79h-213l-39 -224h246l-54 -307h-245z" />
<glyph unicode="&#xd1;" horiz-adv-x="1449" d="M23 0l237 1348h371l354 -795l139 795h361l-238 -1348h-362l-363 795l-139 -795h-360zM418 1612q65 97 164.5 155t212.5 58q59 0 106 -19t71.5 -41.5t59 -41.5t72.5 -19q53 0 91.5 26.5t78.5 81.5l96 -170q-40 -58 -81 -98t-103 -69t-133 -29q-58 0 -106 19t-75 41.5 t-61.5 41.5t-69.5 19q-110 0 -204 -101z" />
<glyph unicode="&#xd2;" horiz-adv-x="1533" d="M74 561q0 173 54 320.5t156 258t259.5 173.5t353.5 63q153 0 273 -45.5t195 -126.5t114 -187.5t39 -232.5q0 -174 -55 -322t-158 -257.5t-260.5 -171.5t-352.5 -62q-153 0 -272.5 45t-194 125t-113 186.5t-38.5 233.5zM455 580q0 -141 68.5 -223.5t201.5 -82.5 q131 0 226 67.5t140.5 177t45.5 247.5q0 144 -68 225.5t-205 81.5q-130 0 -224 -67t-139.5 -177t-45.5 -249zM590 1856h393l41 -430h-287z" />
<glyph unicode="&#xd3;" horiz-adv-x="1533" d="M74 561q0 173 54 320.5t156 258t259.5 173.5t353.5 63q153 0 273 -45.5t195 -126.5t114 -187.5t39 -232.5q0 -174 -55 -322t-158 -257.5t-260.5 -171.5t-352.5 -62q-153 0 -272.5 45t-194 125t-113 186.5t-38.5 233.5zM455 580q0 -141 68.5 -223.5t201.5 -82.5 q131 0 226 67.5t140.5 177t45.5 247.5q0 144 -68 225.5t-205 81.5q-130 0 -224 -67t-139.5 -177t-45.5 -249zM758 1425l192 430h393l-299 -430h-286z" />
<glyph unicode="&#xd4;" horiz-adv-x="1533" d="M74 561q0 173 54 320.5t156 258t259.5 173.5t353.5 63q153 0 273 -45.5t195 -126.5t114 -187.5t39 -232.5q0 -174 -55 -322t-158 -257.5t-260.5 -171.5t-352.5 -62q-153 0 -272.5 45t-194 125t-113 186.5t-38.5 233.5zM455 580q0 -141 68.5 -223.5t201.5 -82.5 q131 0 226 67.5t140.5 177t45.5 247.5q0 144 -68 225.5t-205 81.5q-130 0 -224 -67t-139.5 -177t-45.5 -249zM510 1426l381 434h252l217 -434h-319l-68 182h-2l-139 -182h-322z" />
<glyph unicode="&#xd5;" horiz-adv-x="1533" d="M74 561q0 173 54 320.5t156 258t259.5 173.5t353.5 63q153 0 273 -45.5t195 -126.5t114 -187.5t39 -232.5q0 -174 -55 -322t-158 -257.5t-260.5 -171.5t-352.5 -62q-153 0 -272.5 45t-194 125t-113 186.5t-38.5 233.5zM455 580q0 -141 68.5 -223.5t201.5 -82.5 q131 0 226 67.5t140.5 177t45.5 247.5q0 144 -68 225.5t-205 81.5q-130 0 -224 -67t-139.5 -177t-45.5 -249zM463 1612q65 97 164.5 155t212.5 58q59 0 106 -19t71.5 -41.5t59 -41.5t72.5 -19q53 0 91.5 26.5t78.5 81.5l96 -170q-40 -58 -81 -98t-103 -69t-133 -29 q-58 0 -106 19t-75 41.5t-61.5 41.5t-69.5 19q-110 0 -204 -101z" />
<glyph unicode="&#xd6;" horiz-adv-x="1533" d="M74 561q0 173 54 320.5t156 258t259.5 173.5t353.5 63q153 0 273 -45.5t195 -126.5t114 -187.5t39 -232.5q0 -174 -55 -322t-158 -257.5t-260.5 -171.5t-352.5 -62q-153 0 -272.5 45t-194 125t-113 186.5t-38.5 233.5zM442 1446l55 311h353l-56 -311h-352zM455 580 q0 -141 68.5 -223.5t201.5 -82.5q131 0 226 67.5t140.5 177t45.5 247.5q0 144 -68 225.5t-205 81.5q-130 0 -224 -67t-139.5 -177t-45.5 -249zM1044 1446l56 311h352l-56 -311h-352z" />
<glyph unicode="&#xd7;" horiz-adv-x="964" d="M27 346l237 203l-166 205l258 217l168 -201l242 201l180 -219l-241 -203l165 -205l-254 -215l-170 201l-237 -203z" />
<glyph unicode="&#xd8;" horiz-adv-x="1533" d="M74 561q0 173 54 320.5t156 258t259.5 173.5t353.5 63q68 0 150 -14l92 160h303l-150 -256q113 -78 169.5 -202t56.5 -280q0 -174 -55 -322t-158 -257.5t-260.5 -171.5t-352.5 -62q-76 0 -149 13l-99 -168h-303l154 264q-110 78 -165.5 201.5t-55.5 279.5zM455 580 q0 -107 32 -170l390 663h-13q-130 0 -224 -67t-139.5 -177t-45.5 -249zM713 274h12q131 0 226 67.5t140.5 177t45.5 247.5q0 96 -35 174z" />
<glyph unicode="&#xd9;" horiz-adv-x="1443" d="M100 516l148 832h381l-148 -834q-20 -114 28.5 -177t172.5 -63q235 0 279 240l147 834h381l-148 -832q-45 -255 -220.5 -400t-461.5 -145q-192 0 -329 66.5t-198 190.5t-32 288zM584 1855h393l41 -430h-287z" />
<glyph unicode="&#xda;" horiz-adv-x="1443" d="M100 516l148 832h381l-148 -834q-20 -114 28.5 -177t172.5 -63q235 0 279 240l147 834h381l-148 -832q-45 -255 -220.5 -400t-461.5 -145q-192 0 -329 66.5t-198 190.5t-32 288zM729 1425l193 430h393l-299 -430h-287z" />
<glyph unicode="&#xdb;" horiz-adv-x="1443" d="M100 516l148 832h381l-148 -834q-20 -114 28.5 -177t172.5 -63q235 0 279 240l147 834h381l-148 -832q-45 -255 -220.5 -400t-461.5 -145q-192 0 -329 66.5t-198 190.5t-32 288zM446 1426l381 434h252l217 -434h-319l-68 182h-2l-139 -182h-322z" />
<glyph unicode="&#xdc;" horiz-adv-x="1443" d="M100 516l148 832h381l-148 -834q-20 -114 28.5 -177t172.5 -63q235 0 279 240l147 834h381l-148 -832q-45 -255 -220.5 -400t-461.5 -145q-192 0 -329 66.5t-198 190.5t-32 288zM403 1446l56 311h352l-55 -311h-353zM1006 1446l55 311h352l-55 -311h-352z" />
<glyph unicode="&#xdd;" horiz-adv-x="1443" d="M178 1348h393l197 -623h8l387 623h398l-652 -920l-75 -428h-381l75 428zM727 1426l192 430h394l-299 -430h-287z" />
<glyph unicode="&#xde;" horiz-adv-x="1292" d="M23 0l237 1348h383l-33 -185h254q205 0 330 -102.5t125 -288.5q0 -103 -34.5 -192t-94.5 -153t-139 -110.5t-169 -69t-184 -22.5h-256l-39 -225h-380zM485 508h215q113 0 179.5 59t66.5 162q0 73 -47 112.5t-133 39.5h-215z" />
<glyph unicode="&#xdf;" horiz-adv-x="1257" d="M12 0l152 856q20 122 63 212.5t114 158t178 101.5t249 34q201 0 314.5 -92.5t113.5 -253.5q0 -117 -60.5 -200t-170.5 -118v-4q100 -31 155.5 -102t55.5 -174q0 -223 -160 -341t-473 -118l-2 303q142 0 202 46.5t60 142.5q0 56 -39 97t-121 52l33 184q75 4 113 50t38 116 q0 51 -28 80t-84 29q-75 0 -112 -46.5t-56 -140.5l-154 -872h-381z" />
<glyph unicode="&#xe0;" horiz-adv-x="1167" d="M6 244q0 79 25.5 142t69.5 104t106 68t130.5 38.5t147.5 11.5q142 0 242 -49l12 68q13 64 -21 103.5t-132 39.5q-181 0 -348 -82l-58 246q96 51 219 78.5t248 27.5q117 0 205.5 -22.5t152 -70.5t87.5 -129t4 -191l-111 -627h-280l-17 78q-135 -107 -330 -107 q-172 0 -262 74t-90 199zM356 274q0 -38 27.5 -57.5t75.5 -19.5q68 0 129 21t98 61l10 61q-81 43 -204 43q-65 0 -100.5 -27.5t-35.5 -81.5zM396 1581h393l41 -430h-287z" />
<glyph unicode="&#xe1;" horiz-adv-x="1167" d="M6 244q0 79 25.5 142t69.5 104t106 68t130.5 38.5t147.5 11.5q142 0 242 -49l12 68q13 64 -21 103.5t-132 39.5q-181 0 -348 -82l-58 246q96 51 219 78.5t248 27.5q117 0 205.5 -22.5t152 -70.5t87.5 -129t4 -191l-111 -627h-280l-17 78q-135 -107 -330 -107 q-172 0 -262 74t-90 199zM356 274q0 -38 27.5 -57.5t75.5 -19.5q68 0 129 21t98 61l10 61q-81 43 -204 43q-65 0 -100.5 -27.5t-35.5 -81.5zM504 1151l192 430h394l-299 -430h-287z" />
<glyph unicode="&#xe2;" horiz-adv-x="1167" d="M6 244q0 79 25.5 142t69.5 104t106 68t130.5 38.5t147.5 11.5q142 0 242 -49l12 68q13 64 -21 103.5t-132 39.5q-181 0 -348 -82l-58 246q96 51 219 78.5t248 27.5q117 0 205.5 -22.5t152 -70.5t87.5 -129t4 -191l-111 -627h-280l-17 78q-135 -107 -330 -107 q-172 0 -262 74t-90 199zM233 1151l381 434h252l217 -434h-319l-68 182h-2l-139 -182h-322zM356 274q0 -38 27.5 -57.5t75.5 -19.5q68 0 129 21t98 61l10 61q-81 43 -204 43q-65 0 -100.5 -27.5t-35.5 -81.5z" />
<glyph unicode="&#xe3;" horiz-adv-x="1167" d="M6 244q0 79 25.5 142t69.5 104t106 68t130.5 38.5t147.5 11.5q142 0 242 -49l12 68q13 64 -21 103.5t-132 39.5q-181 0 -348 -82l-58 246q96 51 219 78.5t248 27.5q117 0 205.5 -22.5t152 -70.5t87.5 -129t4 -191l-111 -627h-280l-17 78q-135 -107 -330 -107 q-172 0 -262 74t-90 199zM205 1338q65 97 164.5 155t211.5 58q59 0 106 -19t72 -41.5t59.5 -41.5t72.5 -19q53 0 91.5 26.5t78.5 81.5l96 -170q-62 -90 -138.5 -143t-179.5 -53q-58 0 -106 19t-74.5 41t-61 41t-69.5 19q-112 0 -205 -100zM356 274q0 -38 27.5 -57.5 t75.5 -19.5q68 0 129 21t98 61l10 61q-81 43 -204 43q-65 0 -100.5 -27.5t-35.5 -81.5z" />
<glyph unicode="&#xe4;" horiz-adv-x="1167" d="M6 244q0 79 25.5 142t69.5 104t106 68t130.5 38.5t147.5 11.5q142 0 242 -49l12 68q13 64 -21 103.5t-132 39.5q-181 0 -348 -82l-58 246q96 51 219 78.5t248 27.5q117 0 205.5 -22.5t152 -70.5t87.5 -129t4 -191l-111 -627h-280l-17 78q-135 -107 -330 -107 q-172 0 -262 74t-90 199zM193 1171l55 312h352l-55 -312h-352zM356 274q0 -38 27.5 -57.5t75.5 -19.5q68 0 129 21t98 61l10 61q-81 43 -204 43q-65 0 -100.5 -27.5t-35.5 -81.5zM795 1171l55 312h352l-55 -312h-352z" />
<glyph unicode="&#xe5;" horiz-adv-x="1167" d="M6 244q0 79 25.5 142t69.5 104t106 68t130.5 38.5t147.5 11.5q142 0 242 -49l12 68q13 64 -21 103.5t-132 39.5q-181 0 -348 -82l-58 246q96 51 219 78.5t248 27.5q117 0 205.5 -22.5t152 -70.5t87.5 -129t4 -191l-111 -627h-280l-17 78q-135 -107 -330 -107 q-172 0 -262 74t-90 199zM356 274q0 -38 27.5 -57.5t75.5 -19.5q68 0 129 21t98 61l10 61q-81 43 -204 43q-65 0 -100.5 -27.5t-35.5 -81.5zM434 1372q0 135 97.5 223t246.5 88q116 0 188 -70.5t72 -172.5q0 -135 -94.5 -222.5t-245.5 -87.5q-119 0 -191.5 68.5t-72.5 173.5 zM649 1393q0 -32 19 -53t55 -21q45 0 72.5 31t27.5 71q0 31 -18 52.5t-51 21.5q-47 0 -76 -31t-29 -71z" />
<glyph unicode="&#xe6;" horiz-adv-x="1902" d="M6 244q0 79 25.5 142t69.5 104t106 68t130.5 38.5t147.5 11.5q142 0 242 -49l12 68q13 67 -20.5 107t-132.5 40q-183 0 -350 -82l-56 242q201 106 465 106q294 0 363 -163h6q69 76 175 119.5t222 43.5q122 0 212.5 -33.5t141.5 -90.5t74.5 -137t20 -169t-30.5 -190h-727 q-9 -36 -0.5 -70.5t28 -61t65 -43t110.5 -16.5q100 0 174.5 22.5t138.5 76.5l139 -164q-193 -193 -514 -193q-126 0 -222 47t-144 127h-5q-102 -90 -217.5 -132t-275.5 -42q-174 0 -273.5 75t-99.5 198zM356 274q0 -38 27.5 -59.5t75.5 -21.5q67 0 128 23.5t99 64.5l10 61 q-92 45 -204 45q-64 0 -100 -29t-36 -84zM1153 637h377q14 73 -28.5 117.5t-127.5 44.5q-89 0 -148 -44.5t-73 -117.5z" />
<glyph unicode="&#xe7;" horiz-adv-x="1181" d="M39 438q0 274 187.5 438t490.5 164q149 0 281.5 -55t195.5 -156l-186 -208q-50 70 -118 105.5t-173 35.5q-137 0 -227.5 -81.5t-90.5 -219.5q0 -101 62 -156t168 -55t184 35t156 106l114 -209q-161 -175 -421 -205l-37 -77q104 -46 104 -150q0 -137 -109 -212t-290 -75 q-143 0 -219 43l77 183q63 -29 138 -29q78 0 110.5 26t32.5 81q0 70 -115 88l58 131q-178 35 -275.5 153.5t-97.5 298.5z" />
<glyph unicode="&#xe8;" horiz-adv-x="1183" d="M39 420q0 279 169 449.5t466 170.5q123 0 215 -33.5t146 -91t80.5 -136.5t24.5 -169t-28 -190h-727q-9 -36 -0.5 -70.5t28.5 -61t65 -43t110 -16.5q100 0 174.5 22.5t138.5 76.5l139 -164q-193 -193 -514 -193q-234 0 -360.5 120.5t-126.5 328.5zM369 1581h393l41 -430 h-287zM436 637h377q14 73 -28.5 117.5t-127.5 44.5q-89 0 -148 -44.5t-73 -117.5z" />
<glyph unicode="&#xe9;" horiz-adv-x="1183" d="M39 420q0 279 169 449.5t466 170.5q123 0 215 -33.5t146 -91t80.5 -136.5t24.5 -169t-28 -190h-727q-9 -36 -0.5 -70.5t28.5 -61t65 -43t110 -16.5q100 0 174.5 22.5t138.5 76.5l139 -164q-193 -193 -514 -193q-234 0 -360.5 120.5t-126.5 328.5zM436 637h377 q14 73 -28.5 117.5t-127.5 44.5q-89 0 -148 -44.5t-73 -117.5zM526 1151l193 430h393l-299 -430h-287z" />
<glyph unicode="&#xea;" horiz-adv-x="1183" d="M39 420q0 279 169 449.5t466 170.5q123 0 215 -33.5t146 -91t80.5 -136.5t24.5 -169t-28 -190h-727q-9 -36 -0.5 -70.5t28.5 -61t65 -43t110 -16.5q100 0 174.5 22.5t138.5 76.5l139 -164q-193 -193 -514 -193q-234 0 -360.5 120.5t-126.5 328.5zM254 1151l381 434h252 l217 -434h-319l-68 182h-2l-139 -182h-322zM436 637h377q14 73 -28.5 117.5t-127.5 44.5q-89 0 -148 -44.5t-73 -117.5z" />
<glyph unicode="&#xeb;" horiz-adv-x="1183" d="M39 420q0 279 169 449.5t466 170.5q123 0 215 -33.5t146 -91t80.5 -136.5t24.5 -169t-28 -190h-727q-9 -36 -0.5 -70.5t28.5 -61t65 -43t110 -16.5q100 0 174.5 22.5t138.5 76.5l139 -164q-193 -193 -514 -193q-234 0 -360.5 120.5t-126.5 328.5zM213 1171l55 312h353 l-56 -312h-352zM436 637h377q14 73 -28.5 117.5t-127.5 44.5q-89 0 -148 -44.5t-73 -117.5zM815 1171l55 312h353l-56 -312h-352z" />
<glyph unicode="&#xec;" horiz-adv-x="610" d="M23 0l178 1012h364l-178 -1012h-364zM92 1581h393l41 -430h-286z" />
<glyph unicode="&#xed;" horiz-adv-x="610" d="M23 0l178 1012h364l-178 -1012h-364zM260 1151l193 430h393l-299 -430h-287z" />
<glyph unicode="&#xee;" horiz-adv-x="610" d="M-25 1151l381 434h252l217 -434h-319l-68 182h-2l-139 -182h-322zM23 0l178 1012h364l-178 -1012h-364z" />
<glyph unicode="&#xef;" horiz-adv-x="610" d="M-53 1171l55 312h352l-55 -312h-352zM23 0l178 1012h364l-178 -1012h-364zM508 1171l55 312h352l-55 -312h-352z" />
<glyph unicode="&#xf0;" horiz-adv-x="1228" d="M51 389q0 130 47 232.5t129 165.5t187.5 95.5t228.5 32.5q60 0 129.5 -20.5t97.5 -48.5h4q18 94 -6.5 171.5t-89.5 117.5l-221 -172l-127 151l139 105q-135 15 -333 -17l69 219q276 51 506 -4l164 123l143 -160l-94 -69q186 -155 186 -508q0 -137 -26 -259.5t-82 -228 t-137.5 -181.5t-197.5 -119.5t-257 -43.5q-113 0 -201.5 33t-144 90.5t-84.5 132.5t-29 162zM430 408q0 -69 38 -103.5t103 -34.5q89 0 144 53t55 154q0 64 -35.5 101.5t-103.5 37.5q-94 0 -147.5 -58.5t-53.5 -149.5z" />
<glyph unicode="&#xf1;" horiz-adv-x="1265" d="M12 0l178 1012h279l2 -135q68 78 162.5 120.5t202.5 42.5q213 0 302.5 -117t53.5 -325l-105 -598h-364l104 592q29 170 -116 170q-77 0 -143 -57.5t-93 -143.5l-98 -561h-365zM297 1338q65 97 164.5 155t211.5 58q59 0 106 -19t72 -41.5t59.5 -41.5t72.5 -19 q53 0 91.5 26.5t78.5 81.5l96 -170q-62 -90 -138.5 -143t-179.5 -53q-58 0 -106 19t-74.5 41t-61 41t-69.5 19q-112 0 -205 -100z" />
<glyph unicode="&#xf2;" horiz-adv-x="1236" d="M39 420q0 284 175 452t478 168q229 0 366.5 -122t137.5 -326q0 -136 -42.5 -249t-123.5 -196t-205 -129.5t-280 -46.5q-236 0 -371 124.5t-135 324.5zM403 442q0 -87 41 -137.5t129 -50.5q71 0 123.5 27.5t80.5 74.5t41 99.5t13 111.5q0 191 -169 191q-65 0 -116 -26 t-81.5 -70.5t-46 -100t-15.5 -119.5zM404 1581h393l41 -430h-287z" />
<glyph unicode="&#xf3;" horiz-adv-x="1236" d="M39 420q0 284 175 452t478 168q229 0 366.5 -122t137.5 -326q0 -136 -42.5 -249t-123.5 -196t-205 -129.5t-280 -46.5q-236 0 -371 124.5t-135 324.5zM403 442q0 -87 41 -137.5t129 -50.5q71 0 123.5 27.5t80.5 74.5t41 99.5t13 111.5q0 191 -169 191q-65 0 -116 -26 t-81.5 -70.5t-46 -100t-15.5 -119.5zM600 1151l193 430h393l-299 -430h-287z" />
<glyph unicode="&#xf4;" horiz-adv-x="1236" d="M39 420q0 284 175 452t478 168q229 0 366.5 -122t137.5 -326q0 -136 -42.5 -249t-123.5 -196t-205 -129.5t-280 -46.5q-236 0 -371 124.5t-135 324.5zM309 1151l381 434h252l217 -434h-319l-68 182h-2l-139 -182h-322zM403 442q0 -87 41 -137.5t129 -50.5 q71 0 123.5 27.5t80.5 74.5t41 99.5t13 111.5q0 191 -169 191q-65 0 -116 -26t-81.5 -70.5t-46 -100t-15.5 -119.5z" />
<glyph unicode="&#xf5;" horiz-adv-x="1236" d="M39 420q0 284 175 452t478 168q229 0 366.5 -122t137.5 -326q0 -136 -42.5 -249t-123.5 -196t-205 -129.5t-280 -46.5q-236 0 -371 124.5t-135 324.5zM252 1337q65 97 164.5 155t212.5 58q59 0 106 -19t71.5 -41t59 -41t72.5 -19q53 0 91.5 26.5t78.5 81.5l96 -170 q-63 -91 -138.5 -144t-178.5 -53q-58 0 -106 19t-75 41.5t-61.5 41.5t-69.5 19q-111 0 -204 -100zM403 442q0 -87 41 -137.5t129 -50.5q71 0 123.5 27.5t80.5 74.5t41 99.5t13 111.5q0 191 -169 191q-65 0 -116 -26t-81.5 -70.5t-46 -100t-15.5 -119.5z" />
<glyph unicode="&#xf6;" horiz-adv-x="1236" d="M39 420q0 284 175 452t478 168q229 0 366.5 -122t137.5 -326q0 -136 -42.5 -249t-123.5 -196t-205 -129.5t-280 -46.5q-236 0 -371 124.5t-135 324.5zM240 1172l55 311h353l-56 -311h-352zM403 442q0 -87 41 -137.5t129 -50.5q71 0 123.5 27.5t80.5 74.5t41 99.5 t13 111.5q0 191 -169 191q-65 0 -116 -26t-81.5 -70.5t-46 -100t-15.5 -119.5zM842 1172l56 311h352l-56 -311h-352z" />
<glyph unicode="&#xf7;" horiz-adv-x="960" d="M51 406l53 307h816l-54 -307h-815zM207 57l45 254h377l-45 -254h-377zM338 807l45 254h377l-45 -254h-377z" />
<glyph unicode="&#xf8;" horiz-adv-x="1236" d="M39 420q0 284 175 452t478 168q62 0 109 -8l131 223h242l-173 -294q93 -58 144 -152.5t51 -216.5q0 -136 -42.5 -249t-123.5 -196t-205 -129.5t-280 -46.5q-47 0 -119 11l-131 -228h-242l174 299q-92 60 -140 154t-48 213zM403 442q0 -45 9 -75l227 389q-116 -7 -176 -97 t-60 -217zM586 254q67 2 117 30.5t76.5 74.5t39 98t12.5 110q0 47 -12 84z" />
<glyph unicode="&#xf9;" horiz-adv-x="1265" d="M72 414l104 598h365l-105 -598q-14 -81 14.5 -122.5t110.5 -41.5q87 0 145 54t80 136l101 572h364l-178 -1012h-274l-6 127q-52 -67 -147.5 -111.5t-196.5 -44.5q-220 0 -317 115.5t-60 327.5zM424 1581h393l41 -430h-287z" />
<glyph unicode="&#xfa;" horiz-adv-x="1265" d="M72 414l104 598h365l-105 -598q-14 -81 14.5 -122.5t110.5 -41.5q87 0 145 54t80 136l101 572h364l-178 -1012h-274l-6 127q-52 -67 -147.5 -111.5t-196.5 -44.5q-220 0 -317 115.5t-60 327.5zM588 1151l192 430h394l-300 -430h-286z" />
<glyph unicode="&#xfb;" horiz-adv-x="1265" d="M72 414l104 598h365l-105 -598q-14 -81 14.5 -122.5t110.5 -41.5q87 0 145 54t80 136l101 572h364l-178 -1012h-274l-6 127q-52 -67 -147.5 -111.5t-196.5 -44.5q-220 0 -317 115.5t-60 327.5zM295 1151l381 434h252l217 -434h-319l-68 182h-2l-139 -182h-322z" />
<glyph unicode="&#xfc;" horiz-adv-x="1265" d="M72 414l104 598h365l-105 -598q-14 -81 14.5 -122.5t110.5 -41.5q87 0 145 54t80 136l101 572h364l-178 -1012h-274l-6 127q-52 -67 -147.5 -111.5t-196.5 -44.5q-220 0 -317 115.5t-60 327.5zM258 1171l55 312h353l-56 -312h-352zM860 1171l55 312h353l-56 -312h-352z " />
<glyph unicode="&#xfd;" horiz-adv-x="1159" d="M-80 -297l133 209q32 -25 59.5 -36t67.5 -11q28 0 51 14.5t40.5 42t29 52t23.5 59.5l-211 979h376l66 -635h4l291 635h367l-533 -977q-44 -80 -76.5 -134t-80 -114.5t-92 -96t-104 -59.5t-124.5 -24q-180 0 -287 96zM531 1151l192 430h394l-299 -430h-287z" />
<glyph unicode="&#xfe;" horiz-adv-x="1261" d="M-51 -358l301 1706h348l-70 -398q50 41 124.5 65.5t152.5 24.5q198 0 307 -120t109 -312q0 -124 -39 -238t-110.5 -203.5t-182.5 -142.5t-246 -53q-92 0 -162.5 31t-105.5 76l-78 -436h-348zM432 410q0 -61 49 -108.5t131 -47.5q109 0 165 64t81 190q22 111 -17 180.5 t-143 69.5q-77 0 -140 -44t-91 -106z" />
<glyph unicode="&#xff;" horiz-adv-x="1159" d="M-80 -297l133 209q32 -25 59.5 -36t67.5 -11q28 0 51 14.5t40.5 42t29 52t23.5 59.5l-211 979h376l66 -635h4l291 635h367l-533 -977q-44 -80 -76.5 -134t-80 -114.5t-92 -96t-104 -59.5t-124.5 -24q-180 0 -287 96zM207 1171l55 312h352l-55 -312h-352zM809 1171l55 312 h353l-56 -312h-352z" />
<glyph unicode="&#x141;" horiz-adv-x="1243" d="M-39 311l53 303l193 86l115 648h380l-81 -461l305 137l-54 -303l-305 -137l-49 -281h627l-53 -303h-1008l70 397z" />
<glyph unicode="&#x142;" horiz-adv-x="831" d="M-20 332l53 303l155 76l115 657h365l-82 -461l276 137l-53 -303l-277 -137l-30 -174q-5 -31 -7 -50.5t-3 -43t3 -37t12.5 -26t23 -18t36.5 -5.5q69 0 125 33l60 -222q-126 -90 -330 -90q-98 0 -164 31t-96.5 88.5t-37.5 138t11 179.5z" />
<glyph unicode="&#x152;" horiz-adv-x="1968" d="M74 584q0 172 55.5 316.5t160.5 250.5t266 165.5t362 59.5q110 0 229 -28h868l-51 -287h-606l-41 -238h455l-50 -278h-454l-45 -258h618l-51 -287h-881q-134 -29 -237 -29q-118 0 -216.5 32t-168.5 88t-118.5 133.5t-71.5 168t-23 191.5zM451 580q0 -145 69.5 -227.5 t202.5 -82.5q97 0 162 33l131 739q-65 35 -150 35q-130 0 -225.5 -67t-142.5 -178.5t-47 -251.5z" />
<glyph unicode="&#x153;" horiz-adv-x="2011" d="M39 442q0 183 84.5 320t229.5 207.5t329 70.5q140 0 248 -45t162 -125q156 170 430 170q122 0 212 -33.5t141 -90.5t74.5 -137t20 -169t-30.5 -190h-727q-9 -36 -0.5 -70.5t28 -61t65 -43t110.5 -16.5q100 0 175 22.5t139 76.5l139 -164q-193 -193 -514 -193 q-283 0 -391 170q-74 -80 -187.5 -125t-251.5 -45q-118 0 -211.5 37t-152.5 101.5t-90 149t-31 183.5zM403 442q0 -87 41 -137.5t129 -50.5q71 0 123.5 27.5t80.5 74.5t41 99.5t13 111.5q0 191 -169 191q-65 0 -116 -26t-81.5 -70.5t-46 -100t-15.5 -119.5zM1264 637h376 q14 73 -28 117.5t-127 44.5q-89 0 -148 -44.5t-73 -117.5z" />
<glyph unicode="&#x160;" horiz-adv-x="1312" d="M-6 166l201 285q84 -79 203.5 -128t232.5 -49q63 0 106.5 7t75 30.5t31.5 63.5q0 15 -5.5 28t-18.5 23.5t-25.5 19t-35.5 17.5t-40 15.5t-46.5 16.5t-47.5 17q-108 39 -184 78t-138 89t-92.5 112.5t-30.5 138.5q0 116 46.5 203t131 139.5t194 78t243.5 25.5 q332 0 540 -153l-192 -275q-69 57 -172 91t-207 34q-199 0 -199 -92q0 -20 12 -35t39 -27.5t53 -21.5t71 -23.5t75 -25.5q200 -73 307 -176.5t107 -251.5q0 -216 -168.5 -332.5t-462.5 -116.5q-177 0 -337.5 47t-266.5 148zM459 1860h319l68 -183h2l139 183h322l-381 -435 h-252z" />
<glyph unicode="&#x161;" horiz-adv-x="1073" d="M-18 121l155 225q56 -47 149 -82t181 -35q158 0 158 74q0 7 -2 13t-7.5 11.5t-10.5 10t-14.5 9t-16.5 7.5t-20.5 7.5t-21.5 7t-24.5 7t-24.5 7.5q-41 13 -70 23t-68.5 26.5t-67 33t-57 40.5t-48 50.5t-30 61t-11.5 74.5q0 90 42.5 159t115 109t160 60t186.5 20 q130 0 244.5 -30.5t185.5 -85.5l-162 -228q-125 86 -287 86q-47 0 -81.5 -14.5t-34.5 -44.5q0 -15 11 -27.5t33.5 -22.5t41 -16t49.5 -15q12 -3 18 -5q58 -18 97.5 -32.5t89.5 -41.5t80 -56.5t51.5 -75t21.5 -99.5q0 -175 -146.5 -268t-393.5 -93q-155 0 -276 39t-195 111z M260 1585h320l67 -182h2l139 182h322l-381 -434h-252z" />
<glyph unicode="&#x178;" horiz-adv-x="1443" d="M178 1348h393l197 -623h8l387 623h398l-652 -920l-75 -428h-381l75 428zM403 1446l55 311h353l-56 -311h-352zM1005 1446l56 311h352l-56 -311h-352z" />
<glyph unicode="&#x17d;" horiz-adv-x="1376" d="M-8 0l41 244l856 809h-678l51 295h1159l-45 -261l-837 -792h723l-52 -295h-1218zM492 1860h319l68 -183h2l139 183h321l-380 -435h-252z" />
<glyph unicode="&#x17e;" horiz-adv-x="1126" d="M-18 0l38 215l605 526h-482l50 271h927l-39 -215l-602 -527h531l-49 -270h-979zM315 1585h320l67 -182h3l139 182h321l-381 -434h-252z" />
<glyph unicode="&#x192;" horiz-adv-x="1222" d="M-330 -268l183 172q47 -82 122 -82q44 0 66.5 22.5t42.5 69.5l238 608h-146l98 266h150l94 242q140 346 457 346q128 0 201 -49t112 -139l-182 -172q-43 82 -125 82q-81 0 -119 -92l-88 -218h236l-99 -266h-225l-246 -633q-29 -74 -67.5 -133.5t-93 -108.5t-129 -76.5 t-162.5 -27.5q-233 0 -318 189z" />
<glyph unicode="&#x2c6;" horiz-adv-x="1669" d="M571 1317l381 434h252l217 -434h-319l-68 182h-2l-139 -182h-322z" />
<glyph unicode="&#x2dc;" horiz-adv-x="1597" d="M496 1432q65 97 164.5 155t211.5 58q59 0 106 -19t72 -41.5t59.5 -41.5t72.5 -19q53 0 91.5 26.5t78.5 81.5l96 -170q-62 -90 -138.5 -143t-179.5 -53q-58 0 -106 19t-74.5 41t-61 41t-69.5 19q-112 0 -205 -100z" />
<glyph unicode="&#xe00;" horiz-adv-x="1024" />
<glyph unicode="&#xe01;" horiz-adv-x="1388" d="M39 0l63 358q38 205 246 312v4l-184 143l-10 154q121 108 292.5 179t360.5 71q304 0 432 -135t84 -386l-123 -700h-364l122 700q21 127 -22 182.5t-174 55.5q-68 0 -141.5 -21.5t-122.5 -56.5l2 -4l170 -125l-21 -113q-80 -39 -121 -96.5t-61 -165.5l-64 -356h-364z" />
<glyph unicode="&#xe02;" horiz-adv-x="1302" d="M55 373q0 85 33 161.5t79.5 129t93 94t79.5 73.5t33 52q0 14 -7.5 20t-29.5 6h-178l51 283h221q54 0 93.5 -3.5t78 -15t62.5 -31.5t38.5 -54.5t14.5 -81.5q0 -67 -16.5 -123.5t-42.5 -96t-57 -75t-62.5 -67.5t-57.5 -66t-42.5 -79t-16.5 -98q0 -68 43 -107.5t123 -39.5 q188 0 223 186l133 752h365l-133 -752q-39 -224 -192.5 -346.5t-412.5 -122.5q-231 0 -373.5 109t-142.5 293z" />
<glyph unicode="&#xe03;" horiz-adv-x="1294" d="M45 354q0 94 33.5 170t88 128.5t110 92t115 82t87.5 76.5l-2 4q-59 -35 -153 -35q-102 0 -149 57.5t-25 176.5l14 86h237l-4 -27q-16 -88 60 -88q41 0 61.5 22t28.5 66l4 27h237l-28 -166q-15 -80 -48 -147.5t-70 -111t-77.5 -88t-72.5 -80.5t-53 -86t-21 -107 q0 -74 43 -113t119 -39q186 0 223 186l133 752h364l-133 -752q-39 -223 -196.5 -346t-417.5 -123q-146 0 -259 42.5t-181 130.5t-68 210z" />
<glyph unicode="&#xe04;" horiz-adv-x="1419" d="M23 0l120 682q46 257 215 398t463 141q141 0 250.5 -41.5t175 -113.5t91.5 -171t5 -213l-120 -682h-361l123 700q41 238 -194 238q-118 0 -191.5 -61t-93.5 -177l-35 -198h6q103 133 273 133q33 0 70 -7.5t50 -17.5l-120 -276q-37 14 -88 14q-82 0 -148.5 -42t-97.5 -124 l-33 -182h-360z" />
<glyph unicode="&#xe05;" horiz-adv-x="1419" d="M23 0l137 774q76 434 409 434q102 0 163 -39.5t81 -97.5h8q38 58 101.5 97.5t152.5 39.5q81 0 140 -20.5t93 -58t51 -91.5t16 -121t-13 -145l-135 -772h-361l133 760q4 21 5.5 32t4 34.5t0.5 38t-6.5 30t-16.5 23.5t-30 8q-38 0 -62 -33t-32 -82h-186q19 115 -51 115 q-21 0 -38.5 -12.5t-28 -28.5t-20 -43t-13.5 -42t-9 -40l-45 -258h6q103 133 273 133q34 0 71.5 -7.5t50.5 -17.5l-122 -276q-37 14 -88 14q-82 0 -148.5 -42t-97.5 -124l-33 -182h-360z" />
<glyph unicode="&#xe06;" horiz-adv-x="1386" d="M12 0l72 408q15 84 56 155t94 119.5t104.5 86t101.5 73t72 61.5l-2 4q-59 -35 -154 -35q-102 0 -149 57.5t-25 176.5l15 86h237l-4 -27q-8 -44 5 -66t54 -22t62 22t29 66l4 27h237l-30 -170q-13 -73 -37 -133t-52 -101t-59.5 -76t-61.5 -64.5t-56 -58t-46 -65.5t-28 -80 l-2 -10q12 -86 71.5 -133t157.5 -47q181 0 219 203l129 735h367l-127 -721q-43 -237 -176 -368.5t-367 -131.5q-116 0 -214 47t-140 121h-2l-45 -139h-310z" />
<glyph unicode="&#xe07;" horiz-adv-x="1318" d="M88 819l315 133l213 -669h15q133 0 208.5 119t75.5 307q0 59 -12.5 107.5t-47.5 85t-89 36.5q-77 0 -150 -33l-47 260q115 56 277 56q93 0 168.5 -30t124 -80t81 -117.5t46.5 -138.5t14 -148q0 -103 -25.5 -203.5t-79.5 -191.5t-129.5 -160.5t-183.5 -110.5t-233 -41 h-275z" />
<glyph unicode="&#xe08;" horiz-adv-x="1282" d="M119 1053q229 168 567 168q283 0 422 -139.5t139 -387.5q0 -187 -89 -347t-242.5 -253.5t-333.5 -93.5h-279l-37 324q-5 33 -13.5 45t-35.5 12q-36 0 -86 -16l-8 280q83 39 207 39q113 0 164.5 -42.5t64.5 -152.5l25 -206h24q84 0 148.5 65t94.5 155.5t30 184.5 q0 250 -250 250q-226 0 -400 -113z" />
<glyph unicode="&#xe09;" horiz-adv-x="1370" d="M70 604q43 24 115.5 39.5t136.5 15.5q139 0 185.5 -58.5t24.5 -170.5l-6 -31q-17 -79 12 -112t119 -33q98 0 152.5 57t81.5 164l37 213q23 125 -42.5 187.5t-199.5 62.5q-246 0 -428 -133l-119 229q250 187 598 187q138 0 243 -27t170 -76.5t104 -118t44.5 -151 t-8.5 -176.5l-119 -672h-317l4 139q-123 -168 -350 -168q-186 0 -273.5 89.5t-58.5 252.5l2 13q6 47 -33 47q-25 0 -71 -17z" />
<glyph unicode="&#xe0a;" horiz-adv-x="1306" d="M55 373q0 85 33 161.5t79.5 129t93 94t79.5 73.5t33 52q0 14 -7.5 20t-29.5 6h-178l51 283h221q54 0 93.5 -3.5t78 -15t62.5 -31.5t38.5 -54.5t14.5 -81.5q0 -67 -16.5 -123.5t-42.5 -96t-57 -75t-62.5 -67.5t-57.5 -66t-42.5 -79t-16.5 -98q0 -70 48.5 -108.5 t129.5 -38.5q262 0 262 313q0 105 -80 105h-28l49 278h28q65 0 91 32.5t41 111.5l24 125h356l-32 -146q-23 -93 -71 -156t-126 -104l-2 -8q50 -32 79.5 -98t29.5 -142q0 -124 -39 -230t-116 -188t-203.5 -129t-289.5 -47q-238 0 -378 104.5t-140 297.5z" />
<glyph unicode="&#xe0b;" horiz-adv-x="1312" d="M45 354q0 94 33.5 170t88 128.5t110 92t115 82t87.5 76.5l-2 4q-59 -35 -153 -35q-102 0 -149 57.5t-25 176.5l14 86h237l-4 -27q-16 -88 60 -88q41 0 61.5 22t28.5 66l4 27h237l-28 -166q-15 -80 -48 -147.5t-70 -111t-77.5 -88t-72.5 -80.5t-53 -86t-21 -107 q0 -152 176 -152q262 0 262 313q0 105 -80 105h-28l49 278h28q65 0 90.5 32.5t40.5 111.5l25 125h356l-32 -146q-23 -93 -71 -156t-126 -104l-2 -8q50 -32 79 -98t29 -142q0 -124 -39 -230t-115.5 -188t-203 -129t-289.5 -47q-148 0 -264 41t-187 129t-71 213z" />
<glyph unicode="&#xe0c;" horiz-adv-x="2150" d="M90 326l12 65q18 96 82 168.5t158 110.5v4l-184 143l-11 154q121 108 293 179t361 71q302 0 426 -134.5t80 -386.5l-33 -194q-5 -113 41 -182.5t147 -69.5q95 0 139 49t62 154l129 735h365l-127 -721q-22 -118 -58 -206t-94.5 -156t-147.5 -103t-208 -35 q-116 0 -211.5 47t-134.5 121h-2l-46 -139h-301l123 700q21 127 -22 182.5t-174 55.5q-68 0 -142 -21.5t-123 -56.5l3 -4l170 -125l-21 -113q-87 -38 -121.5 -81t-54.5 -148l-8 -41q-19 -102 75 -102q63 0 115 37l70 -224q-63 -47 -134 -67.5t-169 -20.5q-183 0 -269.5 90.5 t-54.5 264.5z" />
<glyph unicode="&#xe0d;" horiz-adv-x="2150" d="M90 326l12 65q18 96 82 168.5t158 110.5v4l-184 143l-11 154q121 108 293 179t361 71q299 0 419 -132.5t87 -388.5l-4 -30q-18 -118 15 -175t144 -57q112 0 169 58t77 174l92 522h357l-93 -522q-37 -198 -143 -291q61 -82 61 -193q0 -110 -45 -194t-127.5 -135.5 t-191.5 -77t-244 -25.5q-131 0 -267 26t-224 75l98 247q169 -94 397 -94q173 0 269 41t96 125q0 38 -12 59q-99 -77 -297 -77q-263 0 -393.5 128.5t-94.5 385.5l4 30q18 129 -23.5 183.5t-172.5 54.5q-68 0 -142 -21.5t-123 -56.5l3 -4l170 -125l-21 -113 q-87 -38 -121.5 -81t-54.5 -148l-8 -41q-19 -102 75 -102q63 0 115 37l70 -224q-63 -47 -134 -67.5t-169 -20.5q-183 0 -269.5 90.5t-54.5 264.5z" />
<glyph unicode="&#xe0e;" horiz-adv-x="1409" d="M-47 27l82 243q37 -16 82 -16q39 0 58.5 21.5t25.5 62.5l10 57q34 195 180 275v4l-211 143l-10 154q119 107 292.5 178.5t362.5 71.5q304 0 433 -135t85 -386l-213 -1212h-348q-171 117 -426 117q-181 0 -325 -80l-68 237q187 97 438 97q128 0 237.5 -39.5t168.5 -98.5 l172 979q21 127 -23.5 182.5t-175.5 55.5q-68 0 -142.5 -21.5t-123.5 -56.5l2 -4l197 -125l-21 -113q-26 -12 -46 -27t-33.5 -34.5t-22.5 -35.5t-16 -42.5t-10 -41t-9 -44.5l-18 -117q-52 -305 -344 -305q-155 0 -240 56z" />
<glyph unicode="&#xe0f;" horiz-adv-x="1425" d="M-47 -492l45 254q152 -20 215 -20q78 0 120 29.5t77 95.5l245 35l166 -183h2l172 981q21 127 -23 182.5t-175 55.5q-68 0 -143 -21.5t-124 -56.5l2 -4l197 -125l-20 -113q-31 -14 -54 -34.5t-36 -39.5t-23.5 -49t-14.5 -48.5t-10 -53.5l-18 -117q-52 -305 -344 -305 q-155 0 -240 56l82 243q37 -16 82 -16q39 0 58.5 21.5t25.5 62.5l10 57q34 195 181 275v4l-211 143l-11 154q119 107 293 178.5t363 71.5q304 0 433 -135t85 -386l-213 -1212h-442l-162 180h-4q-48 -83 -146 -131.5t-225 -48.5q-106 0 -215 20z" />
<glyph unicode="&#xe10;" horiz-adv-x="1288" d="M-47 -459l45 260q113 -22 199 -22q74 0 108 21.5t64 82.5l249 35l121 -207h4l37 207h262l-69 -397h-416l-98 147h-4q-46 -80 -117 -113.5t-186 -33.5q-93 0 -199 20zM94 1053q229 168 568 168q176 0 303 -52l325 125l53 -276l-196 -53q35 -44 55.5 -118.5t20.5 -150.5 q0 -140 -53 -269t-142 -222.5t-212.5 -149t-258.5 -55.5h-278l-37 324q-5 33 -13.5 45t-35.5 12q-37 0 -87 -16l-8 280q83 39 207 39q113 0 165 -42.5t65 -152.5l24 -206h25q64 0 117 37.5t86 97.5t51 130.5t18 139.5q0 250 -250 250q-225 0 -399 -113z" />
<glyph unicode="&#xe11;" horiz-adv-x="1560" d="M125 1106l14 86h238l-4 -27q-6 -44 6 -66t53 -22t60.5 22t25.5 66l4 27h240l-29 -154q72 72 190 127.5t224 55.5q145 0 235 -66t117 -173.5t2 -246.5l-129 -735h-364l127 719q10 60 11.5 108.5t-25 79.5t-81.5 31q-95 0 -207 -115t-167 -262l-99 -561h-364l90 514 q21 69 61 143.5t90 133.5l19 108l-2 4q-60 -31 -131 -31q-244 0 -205 234z" />
<glyph unicode="&#xe12;" horiz-adv-x="2203" d="M66 459q0 81 13.5 166t39.5 171.5t70.5 162t101.5 134.5t137 93.5t172 34.5q172 0 221 -138h8q102 138 263 138q73 0 127.5 -18t87.5 -52t52 -78t23 -102.5t-0.5 -117.5t-17.5 -130l-37 -217q-5 -113 41.5 -182.5t147.5 -69.5q95 0 138.5 49t61.5 154l129 735h365 l-127 -721q-22 -118 -58 -206t-94.5 -156t-147.5 -103t-208 -35q-116 0 -211.5 47t-134.5 121h-2l-45 -139h-301l127 725q19 119 14 157q-9 55 -55 56q-47 0 -73 -45t-36 -105h-176q2 34 4 67t-12.5 58t-46.5 25q-57 0 -106.5 -89t-74 -198t-24.5 -192q0 -205 164 -205 q102 0 170 49l59 -231q-57 -48 -142 -74.5t-181 -26.5q-202 0 -314 131.5t-112 356.5z" />
<glyph unicode="&#xe13;" horiz-adv-x="2152" d="M90 326l12 65q18 96 82 168.5t158 110.5v4l-184 143l-11 154q121 108 293 179t361 71q302 0 425 -134.5t81 -386.5l-41 -239q-18 -104 10 -153.5t119 -49.5q116 0 180 67t100 193l119 674h365l-211 -1192h-310l2 139q-143 -164 -350 -164q-467 0 -379 500l39 225 q21 127 -22 182.5t-174 55.5q-68 0 -142 -21.5t-123 -56.5l3 -4l170 -125l-21 -113q-87 -38 -121.5 -81t-54.5 -148l-8 -41q-19 -102 75 -102q63 0 115 37l70 -224q-63 -47 -134 -67.5t-169 -20.5q-183 0 -269.5 90.5t-54.5 264.5z" />
<glyph unicode="&#xe14;" horiz-adv-x="1447" d="M68 467q0 222 95.5 394t267 266t390.5 94q161 0 278.5 -41.5t181.5 -114.5t87 -168t4 -207l-121 -690h-364l121 690q21 115 -29.5 181.5t-175.5 66.5q-173 0 -273 -134t-100 -339q0 -211 154 -211q102 0 170 49l59 -231q-57 -48 -142.5 -74.5t-181.5 -26.5 q-198 0 -309.5 139t-111.5 357z" />
<glyph unicode="&#xe15;" horiz-adv-x="1433" d="M66 459q0 81 13.5 166t40 171.5t70.5 162t101.5 134.5t137.5 93.5t173 34.5q172 0 221 -138h8q102 138 263 138q87 0 148.5 -26.5t94.5 -71t46.5 -110t11 -135.5t-18.5 -155l-127 -723h-364l127 725q20 123 12 163q-10 50 -55 50q-47 0 -73 -45t-36 -105h-176q2 34 4 67 t-12.5 58t-46.5 25q-57 0 -106 -89t-73 -198t-24 -192q0 -205 160 -205q102 0 170 49l59 -231q-57 -48 -142 -74.5t-181 -26.5q-202 0 -314 131.5t-112 356.5z" />
<glyph unicode="&#xe16;" horiz-adv-x="1382" d="M90 326l12 65q18 96 82 168.5t158 110.5v4l-184 143l-11 154q121 108 293 179t361 71q304 0 432 -135t84 -386l-123 -700h-365l123 700q21 127 -22 182.5t-174 55.5q-68 0 -141.5 -21.5t-122.5 -56.5l2 -4l170 -125l-21 -113q-89 -38 -123.5 -81t-54.5 -148l-8 -41 q-19 -102 75 -102q63 0 115 37l70 -224q-63 -47 -134 -67.5t-169 -20.5q-183 0 -269.5 90.5t-54.5 264.5z" />
<glyph unicode="&#xe17;" horiz-adv-x="1386" d="M23 0l208 1190h324l-33 -193h2q73 96 187.5 160t251.5 64q91 0 160.5 -23t113 -66t68.5 -103t27 -134t-11 -160l-129 -735h-365l127 715q19 104 -7.5 163.5t-119.5 59.5q-107 0 -206 -103.5t-129 -236.5l-105 -598h-364z" />
<glyph unicode="&#xe18;" horiz-adv-x="1345" d="M71 262q-8 57 7 127l18 103h348l-18 -103q-16 -85 37 -116t174 -31q133 0 196.5 42t63.5 152q0 42 -17 63t-59 27l-669 92l-39 72q26 152 80.5 255t142.5 163.5t200.5 86.5t268.5 26q159 0 304.5 -33.5t238.5 -93.5l-144 -230q-140 82 -426 82q-56 0 -95.5 -3t-83 -12.5 t-68.5 -32t-31 -56.5l434 -64q166 -26 240.5 -96.5t74.5 -218.5q0 -156 -80 -268.5t-219 -168t-323 -55.5q-80 0 -147.5 6t-130 19.5t-109 35.5t-85 54t-57.5 75.5t-27 100.5z" />
<glyph unicode="&#xe19;" horiz-adv-x="1390" d="M102 475l125 717h365l-127 -731q-35 -203 145 -203q230 0 303 260l119 674h365l-211 -1192h-309l2 139q-63 -72 -162.5 -118t-210.5 -46q-245 0 -345.5 130.5t-58.5 369.5z" />
<glyph unicode="&#xe1a;" horiz-adv-x="1398" d="M109 485l124 707h365l-125 -707q-19 -114 23 -172.5t157 -58.5t178 57t84 174l125 707h365l-125 -707q-43 -249 -206.5 -381.5t-430.5 -132.5q-181 0 -310.5 58.5t-191 176t-32.5 279.5z" />
<glyph unicode="&#xe1b;" horiz-adv-x="1400" d="M109 485l124 707h365l-125 -707q-19 -114 24 -172.5t158 -58.5q116 0 180.5 57t84.5 174l184 1051h364l-184 -1051q-43 -248 -208 -381t-433 -133q-181 0 -310.5 58.5t-191 176t-32.5 279.5z" />
<glyph unicode="&#xe1c;" horiz-adv-x="1546" d="M82 367l72 415q17 103 45 174.5t78 127t128.5 82t190.5 26.5h190l-51 -287h-137q-53 0 -68 -17.5t-26 -75.5q-1 -9 -2 -13l-76 -430q-11 -61 3 -88t60 -27q57 0 83 41t38 117l56 313h290l-55 -313q-7 -42 -9 -77.5t15 -58t54 -22.5q51 0 71.5 27t32.5 88l145 823h344 l-145 -825q-36 -200 -134.5 -298t-279.5 -98q-110 0 -184.5 53.5t-91.5 145.5h-8q-95 -199 -305 -199q-184 0 -271.5 102.5t-52.5 293.5z" />
<glyph unicode="&#xe1d;" horiz-adv-x="1552" d="M82 367l72 415q17 103 45 174.5t78 127t128.5 82t190.5 26.5h190l-51 -287h-137q-53 0 -68 -17.5t-26 -75.5q-1 -9 -2 -13l-76 -430q-11 -61 4 -88t62 -27q56 0 82 40.5t38 117.5l56 313h290l-55 -313q-7 -42 -9 -77.5t15.5 -58t55.5 -22.5q52 0 74 27.5t34 87.5 l207 1167h340l-207 -1169q-36 -200 -134.5 -298t-279.5 -98q-111 0 -186 53.5t-92 145.5h-8q-95 -199 -305 -199q-184 0 -271 103t-55 293z" />
<glyph unicode="&#xe1e;" horiz-adv-x="1656" d="M172 1192h340l-27 -748h9l301 686h284l68 -690h8l227 752h344l-452 -1192h-342l-74 678h-4l-305 -678h-344z" />
<glyph unicode="&#xe1f;" horiz-adv-x="1656" d="M172 1192h340l-27 -748h9l301 686h284l68 -690h8l356 1096h328l-565 -1536h-342l-74 678h-4l-305 -678h-344z" />
<glyph unicode="&#xe20;" horiz-adv-x="1404" d="M-47 27l82 243q37 -16 82 -16q39 0 58.5 21.5t25.5 62.5l10 57q34 195 180 275v4l-211 143l-10 154q121 108 292.5 179t360.5 71q304 0 432 -135t84 -386l-122 -700h-365l123 700q21 127 -22.5 182.5t-174.5 55.5q-68 0 -141.5 -21.5t-122.5 -56.5l2 -4l197 -125 l-21 -113q-26 -12 -46 -27t-33.5 -34.5t-22.5 -35.5t-16 -42.5t-10 -41t-9 -44.5l-18 -117q-52 -305 -344 -305q-155 0 -240 56z" />
<glyph unicode="&#xe21;" horiz-adv-x="1394" d="M23 0l210 1192h365l-123 -686q-5 -110 51.5 -181t163.5 -71q97 0 148 50.5t69 152.5l129 735h365l-127 -721q-21 -117 -60 -206t-100.5 -156.5t-153 -102.5t-210.5 -35q-118 0 -226.5 48t-144.5 120h-2l-45 -139h-309z" />
<glyph unicode="&#xe22;" horiz-adv-x="1366" d="M37 299q0 123 81.5 207t194.5 117v4q-74 26 -121 79.5t-47 137.5q0 166 131 271.5t338 105.5q164 0 267 -56l-117 -260q-62 33 -141 33q-125 0 -125 -133q0 -34 19 -50t67 -16h153l-41 -229h-131q-68 0 -112.5 -37.5t-44.5 -103.5q0 -64 53 -89.5t155 -25.5q129 0 187 53 t78 168l127 715h364l-127 -715q-92 -504 -678 -504q-115 0 -208.5 18t-167 55.5t-114 102.5t-40.5 152z" />
<glyph unicode="&#xe23;" horiz-adv-x="1267" d="M10 162l199 244q61 -67 162 -109.5t209 -42.5q211 0 211 96q0 20 -10.5 33.5t-35 23.5t-48.5 16t-66.5 16.5t-73.5 19.5q-179 48 -280 134.5t-101 225.5q0 102 41.5 180t116.5 126t174 72t219 24q162 0 300.5 -41t219.5 -115l-196 -234q-149 107 -342 107q-42 0 -76.5 -7 t-62 -28t-27.5 -55q0 -21 14.5 -37.5t45 -28.5t55.5 -19t69.5 -17t63.5 -15q63 -17 113.5 -37t99 -49.5t81 -65t52.5 -85.5t20 -109q0 -206 -154.5 -311t-441.5 -103q-189 1 -331 50.5t-220 140.5z" />
<glyph unicode="&#xe24;" horiz-adv-x="1386" d="M90 326l12 65q18 96 82 168.5t158 110.5v4l-184 143l-11 154q119 107 293 178.5t363 71.5q304 0 433 -135t85 -386l-213 -1212h-365l213 1212q21 127 -23 182.5t-175 55.5q-68 0 -142.5 -21.5t-123.5 -56.5l2 -4l170 -125l-21 -113q-89 -38 -123.5 -81t-54.5 -148l-8 -41 q-19 -102 75 -102q63 0 115 37l70 -224q-63 -47 -134 -67.5t-169 -20.5q-183 0 -269.5 90.5t-54.5 264.5z" />
<glyph unicode="&#xe25;" horiz-adv-x="1376" d="M35 311q0 113 44.5 199t123 137.5t177.5 77t216 25.5q90 0 193 -24.5t149 -53.5l14 82q17 98 -41.5 143t-195.5 45q-94 0 -195.5 -29.5t-185.5 -83.5l-125 226q249 166 588 166q134 0 236.5 -27t173 -82t98.5 -144.5t8 -207.5l-133 -760h-361l70 395q-49 36 -130 60 t-179 24q-82 0 -135.5 -33t-53.5 -102q0 -44 29.5 -69t77.5 -25q76 0 135 35l61 -224q-117 -77 -299 -77q-165 0 -262.5 89.5t-97.5 237.5z" />
<glyph unicode="&#xe26;" horiz-adv-x="1409" d="M-47 27l82 243q37 -16 82 -16q39 0 58.5 21.5t25.5 62.5l10 57q34 195 180 275v4l-211 143l-10 154q119 107 292.5 178.5t362.5 71.5q304 0 433 -135t85 -386l-213 -1212h-364l213 1212q21 127 -23.5 182.5t-175.5 55.5q-68 0 -142.5 -21.5t-123.5 -56.5l2 -4l197 -125 l-21 -113q-26 -12 -46 -27t-33.5 -34.5t-22.5 -35.5t-16 -42.5t-10 -41t-9 -44.5l-18 -117q-52 -305 -344 -305q-155 0 -240 56z" />
<glyph unicode="&#xe27;" horiz-adv-x="1247" d="M-18 162l211 217q64 -64 132 -94.5t169 -30.5q178 0 267 113t89 327q0 244 -229 244q-191 0 -353 -125l-133 217q100 85 236.5 138t292.5 53q144 0 251 -36.5t171.5 -104t96 -156.5t31.5 -199q0 -128 -22 -235.5t-76 -205.5t-138 -165.5t-214 -107.5t-297 -40 q-170 0 -298.5 55t-186.5 136z" />
<glyph unicode="&#xe28;" horiz-adv-x="1452" d="M23 0l120 682q46 257 215 398t463 141q169 0 293 -52l330 125l53 -276l-203 -57q33 -43 45.5 -101t9.5 -111t-16 -122l-110 -627h-361l123 700q41 238 -194 238q-118 0 -191.5 -61t-93.5 -177l-35 -198h6q103 133 273 133q33 0 70 -7.5t50 -17.5l-120 -276q-37 14 -88 14 q-82 0 -148.5 -42t-97.5 -124l-33 -182h-360z" />
<glyph unicode="&#xe29;" horiz-adv-x="1468" d="M109 485l124 707h365l-125 -707q-21 -114 22 -172.5t158 -58.5q229 0 269 231l8 45h-242l49 283h242l68 379h356l-68 -379h125l-49 -283h-125l-8 -45q-45 -249 -206.5 -381.5t-428.5 -132.5q-181 0 -310.5 58.5t-191 176t-32.5 279.5z" />
<glyph unicode="&#xe2a;" horiz-adv-x="1417" d="M35 311q0 113 44.5 199t123 137.5t177.5 77t216 25.5q90 0 193 -24.5t149 -53.5l14 82q17 98 -41.5 143t-195.5 45q-94 0 -195.5 -29.5t-185.5 -83.5l-125 226q249 166 588 166q179 0 309 -54l334 127l53 -276l-225 -64q62 -88 30 -284l-118 -670h-361l70 395 q-49 36 -130 60t-179 24q-82 0 -135.5 -33t-53.5 -102q0 -44 29.5 -69t77.5 -25q76 0 135 35l61 -224q-117 -77 -299 -77q-165 0 -262.5 89.5t-97.5 237.5z" />
<glyph unicode="&#xe2b;" horiz-adv-x="1398" d="M23 0l208 1190h365l-72 -412h144q91 0 153 17t102 55t63 89t38 130l20 121h361l-21 -121q-57 -309 -292 -410v-4q119 -64 160 -166t16 -245l-43 -244h-365l43 244q23 102 11 172.5t-74 109.5q-97 -30 -238 -30h-127l-88 -496h-364z" />
<glyph unicode="&#xe2c;" horiz-adv-x="1613" d="M172 1192h340l-27 -748h9l288 609h285l78 -613h8l152 459q36 98 16.5 144.5t-115.5 66.5l39 225l424 230l115 -217l-254 -117v-8q86 -38 106 -127.5t-30 -218.5l-332 -877h-342l-74 678h-4l-305 -678h-344z" />
<glyph unicode="&#xe2d;" horiz-adv-x="1386" d="M76 426l49 279h598l-47 -267h-254l-6 -32q-16 -80 44 -116t177 -36q352 0 352 418q0 266 -266 266q-229 0 -420 -117l-117 234q252 166 588 166q287 0 433.5 -148.5t146.5 -400.5q0 -328 -195 -514.5t-541 -186.5q-169 0 -299.5 53t-198.5 158t-44 244z" />
<glyph unicode="&#xe2e;" horiz-adv-x="1449" d="M76 426l49 279h598l-47 -267h-254l-6 -32q-16 -80 44 -116t177 -36q352 0 352 418q0 266 -266 266q-229 0 -420 -117l-117 234q252 166 588 166q195 0 322 -62l356 135l53 -276l-235 -64q40 -46 62 -123.5t22 -158.5q0 -328 -195 -514.5t-541 -186.5q-169 0 -299.5 53 t-198.5 158t-44 244z" />
<glyph unicode="&#xe2f;" horiz-adv-x="1095" d="M154 1012h327q-11 -57 -10 -97.5t24.5 -63t71.5 -22.5q68 0 109 53t55 130h340l-178 -1012h-365l64 365q33 166 162 317l-9 8q-46 -49 -118.5 -82t-157.5 -33q-202 0 -278 107.5t-37 329.5z" />
<glyph unicode="&#xe30;" horiz-adv-x="886" d="M41 305l31 178h348l-19 -108q-5 -29 1.5 -40t35.5 -11h346l-49 -271h-463q-143 0 -199 57t-32 195zM147 907l31 178h348l-18 -108q-5 -29 1.5 -40t35.5 -11h346l-49 -271h-463q-144 0 -200 57t-32 195z" />
<glyph unicode="&#xe31;" d="M-647 1585l33 182h340l-21 -116q-7 -26 -1 -41t34 -15h536l-47 -258h-641q-144 0 -200.5 55.5t-32.5 192.5z" />
<glyph unicode="&#xe32;" horiz-adv-x="1171" d="M133 1055q87 76 215 121t260 45q585 0 498 -508l-125 -713h-365l127 717q20 116 -25.5 168.5t-164.5 52.5q-155 0 -295 -100z" />
<glyph unicode="&#xe33;" horiz-adv-x="1171" d="M-451 1532q0 129 100 216t255 87q123 0 189.5 -67t66.5 -171q0 -136 -104 -219.5t-251 -83.5q-111 0 -183.5 63t-72.5 175zM-242 1548q0 -35 21 -54t59 -19q51 0 82 29.5t31 76.5q0 74 -82 74q-53 0 -82 -29.5t-29 -77.5zM133 1055q87 76 215 121t260 45q585 0 498 -508 l-125 -713h-365l127 717q20 116 -25.5 168.5t-164.5 52.5q-155 0 -295 -100z" />
<glyph unicode="&#xe34;" d="M-995 1337l47 258h1028l-47 -258h-1028z" />
<glyph unicode="&#xe35;" d="M-995 1337l47 258h700l37 209h328l-84 -467h-1028z" />
<glyph unicode="&#xe36;" d="M-995 1337l47 258h540q18 108 96.5 176t198.5 68q109 0 174.5 -60.5t65.5 -162.5q0 -119 -90.5 -199t-226.5 -80h-805zM-229 1569q0 -68 67 -68q46 0 72.5 29.5t26.5 75.5q0 69 -68 69q-51 0 -74.5 -29.5t-23.5 -76.5z" />
<glyph unicode="&#xe37;" d="M-995 1337l47 258h332l36 209h295l-39 -217h107l39 217h295l-84 -467h-1028z" />
<glyph unicode="&#xe38;" d="M-766 -412l45 262h117q58 0 101.5 -3.5t82 -12.5t64.5 -24.5t45.5 -38.5t28 -55t8.5 -73.5t-9 -95.5l-43 -247h-331l43 247q9 41 -33 41h-119z" />
<glyph unicode="&#xe39;" d="M-1085 -412l47 262h168q60 0 97.5 -6t68 -24t39.5 -54t-1 -92l-20 -120q-13 -70 49 -70q61 0 74 70l53 296h281l-58 -325q-23 -119 -116 -182.5t-246 -63.5q-102 0 -179 28t-117.5 84.5t-27.5 133.5l4 26q4 24 -2 30.5t-28 6.5h-86z" />
<glyph unicode="&#xe3a;" d="M-635 -379q0 98 68 170t180 72q87 0 131.5 -48t44.5 -122q0 -101 -70 -172.5t-178 -71.5q-87 0 -131.5 48t-44.5 124z" />
<glyph unicode="&#xe3f;" horiz-adv-x="1357" d="M12 8l234 1331h366l37 209h357l-37 -213q165 -18 262.5 -96t97.5 -215q0 -117 -67 -191t-177 -102l-2 -6q92 -29 148.5 -109t56.5 -178q0 -105 -42 -186.5t-117.5 -133t-174.5 -79t-219 -31.5l-37 -209h-356l37 209h-367zM416 279h327q75 0 129 43.5t54 115.5 q0 54 -39 84.5t-105 30.5h-317zM510 815h272q75 0 125.5 39.5t50.5 108.5q0 50 -35 78t-96 28h-272z" />
<glyph unicode="&#xe40;" horiz-adv-x="753" d="M70 371l145 821h365l-146 -823q-14 -61 -3.5 -92t56.5 -31q47 0 99 30l71 -217q-115 -88 -288 -88q-183 0 -258.5 110t-40.5 290z" />
<glyph unicode="&#xe41;" horiz-adv-x="1421" d="M70 371l145 821h365l-146 -823q-14 -61 -3.5 -92t56.5 -31q47 0 99 30l71 -217q-115 -88 -288 -88q-183 0 -258.5 110t-40.5 290zM737 371l146 821h364l-145 -823q-14 -61 -3.5 -92t56.5 -31t98 30l72 -217q-115 -88 -289 -88q-183 0 -258.5 110t-40.5 290z" />
<glyph unicode="&#xe42;" horiz-adv-x="931" d="M211 1534l31 172q92 98 220 136t300 38h375l-47 -266h-349q-121 0 -161 -35v-8q224 -165 163 -516l-120 -686q-14 -61 -3.5 -92t56.5 -31t98 30l72 -217q-115 -88 -289 -88q-183 0 -258.5 110t-40.5 290l121 686q19 112 22.5 178.5t-15.5 122.5t-59 93.5t-116 82.5z" />
<glyph unicode="&#xe43;" horiz-adv-x="931" d="M215 1665q194 248 496 248q179 0 287 -87.5t108 -236.5q0 -59 -20 -112.5t-52.5 -96t-72.5 -83t-81.5 -80t-77 -79t-62.5 -89t-35 -101.5l-103 -579q-14 -61 -3.5 -92t56.5 -31q47 0 99 30l71 -217q-115 -88 -288 -88q-183 0 -258.5 110t-40.5 290l102 577 q14 83 62.5 161t106.5 135.5t114.5 110t94.5 105t38 99.5q0 83 -101 83q-124 0 -252 -157z" />
<glyph unicode="&#xe44;" horiz-adv-x="942" d="M233 371l107 602q35 190 148 357t264 280v4h-482l47 266h863l-47 -266q-195 -150 -294 -292t-134 -347l-107 -606q-14 -61 -3.5 -92t56.5 -31q47 0 99 30l71 -217q-115 -88 -289 -88q-183 0 -258.5 110t-40.5 290z" />
<glyph unicode="&#xe45;" horiz-adv-x="1171" d="M133 1055q87 76 215 121t260 45q585 0 498 -508l-215 -1225h-365l217 1229q20 116 -25.5 168.5t-164.5 52.5q-155 0 -295 -100z" />
<glyph unicode="&#xe46;" horiz-adv-x="1335" d="M109 618q0 130 47 239.5t142.5 179t221.5 69.5q164 0 217 -129h8q37 61 100 95t144 34q80 0 137.5 -24t90 -65t48 -100t14.5 -123t-15 -139l-207 -1167h-361l209 1180q8 40 10 61.5t-0.5 46.5t-17.5 36t-43 11q-41 0 -65.5 -35t-30.5 -75h-131q15 110 -52 110 q-57 0 -88.5 -50t-31.5 -152q0 -73 48.5 -96t164.5 -23l-125 -250q-217 0 -325.5 97t-108.5 269z" />
<glyph unicode="&#xe47;" d="M-928 1602q0 78 23 138.5t64 100t101.5 65t130.5 36t156 10.5h545l-39 -217h-536q-82 0 -125 -22.5t-43 -84.5q0 -76 88 -76q54 0 88 31t49 74h127q3 -22 8 -38t16.5 -32.5t33.5 -25.5t53 -9q69 0 129 54l71 -170q-35 -38 -95.5 -67.5t-131.5 -29.5q-65 0 -113 31t-67 76 h-8q-35 -45 -100.5 -76t-147.5 -31q-131 0 -204 72t-73 191z" />
<glyph unicode="&#xe48;" d="M-188 1894l65 373h320l-66 -373h-319z" />
<glyph unicode="&#xe49;" d="M-475 2107l39 226h252q106 0 136 -52.5t11 -148.5h367l-43 -238h-641l26 152q4 25 4.5 34.5t-6.5 18t-26 8.5h-119z" />
<glyph unicode="&#xe4a;" d="M-567 1894q16 97 39 170t61 137t98 98t140 34q73 0 108 -40t37 -100h4q30 63 77.5 101.5t129.5 38.5q44 0 76.5 -17t49.5 -46t23.5 -61.5t4.5 -68.5h102l-43 -246h-266q5 28 8 47t6.5 46t3 45t-3 35.5t-10.5 26.5t-21 9q-19 0 -34.5 -17.5t-25 -45.5t-16.5 -60.5 t-13 -66.5q-2 -13 -3 -19h-203q5 29 8 47t6.5 46t3.5 45.5t-2.5 35.5t-10.5 26.5t-21 8.5q-19 0 -33.5 -18t-24 -48t-17 -62.5t-13.5 -67.5q0 -4 -0.5 -7t-1.5 -6h-223z" />
<glyph unicode="&#xe4b;" d="M-307 2011l37 205h149l21 117h290l-20 -117h149l-36 -205h-150l-20 -117h-291l20 117h-149z" />
<glyph unicode="&#xe4c;" d="M-459 1749l27 158q24 137 99.5 192t219.5 55h328l-45 -258h-233q-15 0 -23.5 -2.5t-13.5 -11t-6.5 -14t-4.5 -23.5l-16 -96h-332z" />
<glyph unicode="&#xe4d;" d="M-451 1532q0 129 100 216t255 87q123 0 189.5 -67t66.5 -171q0 -136 -104 -219.5t-251 -83.5q-111 0 -183.5 63t-72.5 175zM-242 1548q0 -35 21 -54t59 -19q51 0 82 29.5t31 76.5q0 74 -82 74q-53 0 -82 -29.5t-29 -77.5z" />
<glyph unicode="&#xe4e;" d="M-666 1577q0 91 69 148t183 69l2 4q-29 14 -47 43t-18 64q0 59 31 102.5t85.5 68t119.5 35.5t143 11q152 0 227 -37l-80 -174q-62 26 -158 26q-24 0 -46.5 -4t-42 -16.5t-19.5 -32.5q0 -22 31.5 -35.5t74.5 -13.5l-55 -139q-225 12 -225 -58q0 -49 112 -49q81 0 134 21 l-5 -178q-81 -43 -235 -39q-281 8 -281 184z" />
<glyph unicode="&#xe4f;" horiz-adv-x="1327" d="M70 537q0 125 47 242t133.5 210.5t222.5 150t301 56.5q102 0 188 -27t146 -74t102 -110t62 -135t20 -150q0 -125 -48 -242.5t-136 -210.5t-225 -149.5t-301 -56.5q-127 0 -227.5 41t-161 111.5t-92 158t-31.5 185.5zM344 561q0 -124 73.5 -199t207.5 -75 q174 0 283.5 112.5t109.5 278.5q0 124 -72.5 198t-204.5 74q-176 0 -286.5 -111.5t-110.5 -277.5zM455 578q0 110 71 186t193 76q92 0 139 -50.5t47 -130.5q0 -110 -70 -186t-194 -76q-93 0 -139.5 49.5t-46.5 131.5z" />
<glyph unicode="&#xe50;" horiz-adv-x="1314" d="M51 438q0 145 55 260.5t150 188t219.5 110t267.5 37.5q230 0 375.5 -124.5t145.5 -336.5q0 -142 -53 -257.5t-145.5 -190t-216 -114.5t-265.5 -40q-242 0 -387.5 127t-145.5 340zM389 451q0 -104 59.5 -161t159.5 -57q141 0 229.5 86t88.5 240q0 106 -59 159.5t-165 53.5 q-136 0 -224.5 -85t-88.5 -236z" />
<glyph unicode="&#xe51;" horiz-adv-x="1296" d="M51 539q0 155 89 269t237 170t336 56q236 0 386 -123t150 -327q0 -303 -220.5 -488.5t-598.5 -185.5l43 246q104 7 182 31.5t125.5 60t76.5 87t39.5 104.5t10.5 120q0 102 -55.5 157.5t-163.5 55.5q-58 0 -109.5 -12t-95.5 -36t-70 -67t-26 -100q0 -43 22.5 -69.5 t65.5 -26.5q42 0 69.5 11t55.5 36l84 -189q-108 -108 -295 -108q-161 0 -249.5 93t-88.5 235z" />
<glyph unicode="&#xe52;" horiz-adv-x="1492" d="M86 446l143 818h328l-141 -809q-23 -121 53 -173.5t233 -52.5q179 0 266.5 46t110.5 165l37 213q32 152 -22 152q-29 0 -47 -35t-23 -80h-119q9 38 6 76.5t-32 38.5q-55 0 -72 -117q-11 -64 11 -87t106 -23l-70 -213q-181 0 -261.5 83t-51.5 248q29 161 108.5 247.5 t200.5 86.5q135 0 166 -102h4q27 46 76.5 74t109.5 28q297 0 226 -405l-33 -183q-82 -471 -699 -471q-147 0 -267 29t-206.5 86t-124.5 149.5t-16 210.5z" />
<glyph unicode="&#xe53;" horiz-adv-x="1357" d="M51 369q0 43 4.5 92t18 115.5t34.5 127.5t58.5 122.5t85 106.5t118.5 73t156 28q89 0 146.5 -38.5t70.5 -112.5h5q42 74 112 112.5t156 38.5q97 0 160 -34.5t87.5 -94.5t28.5 -141t-16 -174l-105 -590h-335l104 590q5 25 8 40.5t6 40t1.5 39.5t-6 31t-16 23.5t-28.5 7.5 q-43 0 -65 -39.5t-35 -105.5h-217q4 24 5 34.5t2.5 31.5t-1 32t-7.5 23.5t-16.5 18t-27.5 5.5q-44 0 -80 -52.5t-56 -141.5t-20 -195q0 -154 119 -154q82 0 143 37l60 -217q-111 -78 -297 -78q-178 0 -269.5 110.5t-91.5 287.5z" />
<glyph unicode="&#xe54;" horiz-adv-x="1300" d="M47 451q0 141 58 254t158 184.5t231 109t282 37.5q83 0 139.5 6t100.5 16t88 36.5t80.5 55t99.5 83.5l137 -215q-153 -141 -301 -190.5t-368 -49.5q-160 0 -262.5 -86t-102.5 -237q0 -201 252 -201h219v4q-59 20 -96 60.5t-37 97.5q0 55 34.5 105t96.5 79l274 -51 q-100 -72 -100 -164q0 -63 49.5 -93t139.5 -38l-43 -244q-321 -14 -582 -14q-242 0 -394.5 120t-152.5 335z" />
<glyph unicode="&#xe55;" horiz-adv-x="1300" d="M47 451q0 117 35 206.5t103 151t149 101t192 71.5q-30 52 -30 121q0 125 94 211t237 86q113 0 177.5 -61.5t64.5 -161.5q0 -80 -43 -129q101 29 264 176l131 -205q-152 -140 -299.5 -188t-369.5 -48q-159 0 -262 -88.5t-103 -238.5q0 -201 252 -201h219v4 q-59 20 -96 60.5t-37 97.5q0 55 34.5 105t96.5 79l274 -51q-100 -72 -100 -164q0 -63 49.5 -93t139.5 -38l-43 -244q-321 -14 -582 -14q-242 0 -394.5 120t-152.5 335zM702 1118q0 -63 66 -63q42 0 67 27t25 69q0 30 -16.5 49t-46.5 19q-45 0 -70 -29t-25 -72z" />
<glyph unicode="&#xe56;" horiz-adv-x="1363" d="M88 1124l281 97l57 -332h8q66 80 176.5 128t227.5 48q222 0 347.5 -131.5t125.5 -339.5q0 -130 -36 -235t-98 -176.5t-148 -120t-183 -70t-205 -21.5q-69 0 -134.5 10.5t-136 39t-122 73.5t-84.5 120.5t-31 172.5l301 84q-8 -238 228 -238q72 0 127 19.5t89.5 51.5t57 78 t31 94.5t8.5 105.5q0 103 -51.5 162t-161.5 59q-188 0 -293 -160h-268z" />
<glyph unicode="&#xe57;" horiz-adv-x="1705" d="M51 379q0 64 9.5 132t29.5 144t56.5 142t86 120t123 85.5t162.5 31.5t146.5 -38.5t70.5 -112.5h4q38 66 104 108.5t148 42.5q79 0 134 -23t83.5 -61t39.5 -97t7.5 -121t-18.5 -142l-66 -369q55 0 82 34.5t39 96.5l162 914h283l-162 -916q-35 -186 -149 -268t-322 -82 h-287l105 590q1 9 5 33t5 36.5t2.5 33.5t-1 32t-7 23.5t-15.5 18t-26 5.5q-79 0 -99 -145h-217q4 24 5 34.5l3 31.5t-0.5 32t-7.5 23.5t-16 18t-27 5.5q-64 0 -104.5 -111.5t-40.5 -269.5q0 -162 125 -162q82 0 143 37l60 -217q-111 -78 -297 -78q-120 0 -203 56t-120.5 146 t-37.5 206z" />
<glyph unicode="&#xe58;" horiz-adv-x="1411" d="M51 360q0 332 180.5 492t522.5 160h137q79 0 138 12t106 41t76.5 56t74.5 77l141 -219q-110 -133 -246 -183.5t-337 -50.5h-139q-84 0 -141.5 -17.5t-99 -60.5t-60.5 -116.5t-19 -183.5q0 -58 17 -97t55 -39q32 0 54.5 13t36.5 39.5t21.5 53t14.5 66.5l14 80h246l-15 -82 q-30 -170 62 -170q49 0 75 39.5t44 130.5l26 150h307l-26 -150q-77 -432 -408 -432q-90 0 -160 49t-87 123h-5q-50 -86 -116 -129t-166 -43q-151 0 -237.5 109.5t-86.5 281.5z" />
<glyph unicode="&#xe59;" horiz-adv-x="1576" d="M51 377q0 101 19.5 195.5t61.5 178.5t102 147t146.5 99.5t188.5 36.5q85 0 146 -36.5t86 -100.5h4q29 65 84.5 101t122.5 36q97 0 155.5 -41t89.5 -133q4 -10 14.5 -56.5t23.5 -75t32 -28.5q30 0 55 94.5t54 272.5l14 86h238l-15 -86q-26 -152 -56.5 -261t-64 -180.5 t-76.5 -113t-88.5 -58t-105.5 -16.5q-91 0 -140.5 48t-84.5 147q-5 15 -11.5 33t-10 28t-8 22t-7 18t-6 13t-6.5 10t-7.5 6t-9 4t-10.5 1q-29 0 -35.5 -34.5t-1.5 -108.5l35 -625h-301l-31 600q-2 35 -4 53.5t-7.5 44.5t-14 38.5t-23.5 22t-37 9.5q-52 0 -90.5 -43 t-58 -108.5t-28.5 -126t-9 -111.5q0 -158 78 -158q43 0 88 29l71 -193q-98 -86 -254 -86q-69 0 -123 24.5t-88 64t-56 93.5t-31 109t-9 115z" />
<glyph unicode="&#xe5b;" horiz-adv-x="2770" d="M72 569q0 107 24.5 203.5t78 183t132 149.5t194.5 99.5t257 36.5q121 0 208.5 -33t134 -92t62 -134.5t0.5 -166.5l-12 -72h-291l12 72q13 78 -16 119t-125 41q-145 0 -219 -101t-74 -294q0 -122 67 -194.5t210 -72.5q174 0 291 61.5t196 205t123 385.5h291 q61 -74 95 -193t18 -246h4q85 174 88 381h225q58 -68 92 -153.5t27 -210.5h4q34 60 49.5 139.5t7.5 148.5h240q23 -204 172 -204h86l-29 -160h-76q-242 0 -262 201h-4q-24 -199 -160 -332h-235q54 198 14 317h-4q-24 -123 -88.5 -230.5t-136.5 -162.5h-258q67 281 10 447 q-38 -173 -117 -303t-188 -208t-236.5 -115.5t-275.5 -37.5q-286 0 -446 142.5t-160 383.5z" />
<glyph unicode="&#x2000;" horiz-adv-x="1166" />
<glyph unicode="&#x2001;" horiz-adv-x="2333" />
<glyph unicode="&#x2002;" horiz-adv-x="1166" />
<glyph unicode="&#x2003;" horiz-adv-x="2333" />
<glyph unicode="&#x2004;" horiz-adv-x="777" />
<glyph unicode="&#x2005;" horiz-adv-x="583" />
<glyph unicode="&#x2006;" horiz-adv-x="388" />
<glyph unicode="&#x2007;" horiz-adv-x="388" />
<glyph unicode="&#x2008;" horiz-adv-x="291" />
<glyph unicode="&#x2009;" horiz-adv-x="466" />
<glyph unicode="&#x200a;" horiz-adv-x="129" />
<glyph unicode="&#x2010;" horiz-adv-x="954" d="M51 385l60 332h802l-59 -332h-803z" />
<glyph unicode="&#x2011;" horiz-adv-x="954" d="M51 385l60 332h802l-59 -332h-803z" />
<glyph unicode="&#x2012;" horiz-adv-x="954" d="M51 385l60 332h802l-59 -332h-803z" />
<glyph unicode="&#x2013;" horiz-adv-x="1372" d="M51 420l55 307h1225l-55 -307h-1225z" />
<glyph unicode="&#x2014;" horiz-adv-x="1546" d="M51 420l55 307h1399l-55 -307h-1399z" />
<glyph unicode="&#x2018;" horiz-adv-x="565" d="M145 918l203 430h303l-188 -430h-318z" />
<glyph unicode="&#x2019;" horiz-adv-x="565" d="M145 918l189 430h317l-202 -430h-304z" />
<glyph unicode="&#x201a;" horiz-adv-x="565" d="M-61 -248l188 430h317l-202 -430h-303z" />
<glyph unicode="&#x201c;" horiz-adv-x="978" d="M145 918l203 430h303l-188 -430h-318zM559 918l189 430h317l-203 -430h-303z" />
<glyph unicode="&#x201d;" horiz-adv-x="978" d="M145 918l203 430h303l-188 -430h-318zM559 918l189 430h317l-203 -430h-303z" />
<glyph unicode="&#x201e;" horiz-adv-x="1058" d="M-61 -248l184 430h340l-213 -430h-311zM397 -248l201 430h340l-229 -430h-312z" />
<glyph unicode="&#x2020;" horiz-adv-x="1011" d="M119 748l53 299h246l74 417h372l-73 -417h247l-53 -299h-244l-159 -912h-381l159 912h-241z" />
<glyph unicode="&#x2021;" horiz-adv-x="1009" d="M23 233l55 308h241l39 221h-241l53 307h242l69 395h381l-69 -395h243l-53 -307h-244l-39 -221h244l-55 -308h-244l-70 -397h-380l69 397h-241z" />
<glyph unicode="&#x2022;" horiz-adv-x="747" d="M76 569q0 142 104 245.5t264 103.5q125 0 194 -71t69 -181q0 -143 -103.5 -245t-263.5 -102q-125 0 -194.5 70t-69.5 180z" />
<glyph unicode="&#x2026;" horiz-adv-x="1570" d="M-29 0l58 324h360l-57 -324h-361zM502 0l57 324h361l-58 -324h-360zM1036 0l58 324h360l-57 -324h-361z" />
<glyph unicode="&#x202f;" horiz-adv-x="466" />
<glyph unicode="&#x2030;" horiz-adv-x="2295" d="M53 946q0 87 24.5 163t72.5 136t127 94.5t180 34.5q140 0 208 -83t68 -216q0 -88 -24 -164t-71.5 -135.5t-126.5 -94t-181 -34.5q-140 0 -208.5 83.5t-68.5 215.5zM61 0l1092 1350h332l-1092 -1350h-332zM303 954q0 -86 66 -86q114 0 114 199q0 86 -65 86 q-115 0 -115 -199zM813 270q0 87 24.5 163t72.5 136t127 94.5t180 34.5q140 0 208 -83t68 -216q0 -88 -24 -164t-71.5 -135.5t-126.5 -94t-181 -34.5q-140 0 -208.5 83.5t-68.5 215.5zM1063 279q0 -86 65 -86q115 0 115 198q0 86 -65 86q-115 0 -115 -198zM1528 270 q0 87 24.5 163t72 136t126.5 94.5t180 34.5q140 0 208.5 -83.5t68.5 -215.5q0 -88 -24 -164t-72 -135.5t-127 -94t-181 -34.5q-140 0 -208 83t-68 216zM1778 279q0 -86 65 -86q115 0 115 198q0 86 -66 86q-114 0 -114 -198z" />
<glyph unicode="&#x2039;" horiz-adv-x="854" d="M61 489l37 205l807 621l-71 -414l-422 -307v-4l311 -316l-72 -401z" />
<glyph unicode="&#x203a;" horiz-adv-x="854" d="M-23 -127l72 401l422 316v4l-311 307l71 414l590 -621l-37 -205z" />
<glyph unicode="&#x2044;" horiz-adv-x="1286" d="M-39 0l1090 1348h331l-1089 -1348h-332z" />
<glyph unicode="&#x205f;" horiz-adv-x="583" />
<glyph unicode="&#x20ac;" horiz-adv-x="1558" d="M23 385l108 229h150q0 7 16 105h-178l108 229h156q113 202 301.5 315t443.5 113q147 0 281.5 -50t196.5 -138l-170 -223q-109 129 -306 129q-118 0 -208 -39t-146 -107h443l-111 -229h-436q-19 -64 -19 -105h469l-110 -229h-330q44 -131 281 -131q220 0 372 129l90 -223 q-96 -91 -240.5 -140t-291.5 -49q-255 0 -411.5 110t-192.5 304h-266z" />
<glyph unicode="&#x2122;" horiz-adv-x="1345" d="M188 1188l29 160h471l-29 -160h-124l-72 -410h-221l71 410h-125zM674 778l100 570h225l52 -289h2l155 289h224l-101 -570h-168l58 320h-2l-166 -320h-99l-53 320h-2l-57 -320h-168z" />
<glyph unicode="&#x2202;" horiz-adv-x="1208" d="M41 389q0 130 47 232.5t129 165.5t187.5 95.5t228.5 32.5q62 0 127 -20t94 -49h4q16 91 -14 158.5t-92 105.5t-151 56.5t-187 17t-203 -18.5l86 258q452 68 677.5 -94.5t225.5 -529.5q0 -135 -26 -256.5t-82 -226.5t-137.5 -181.5t-197.5 -120t-257 -43.5 q-113 0 -201.5 33t-144 90.5t-84.5 132.5t-29 162zM420 408q0 -69 38 -103.5t103 -34.5q89 0 144 53t55 154q0 64 -35.5 101.5t-103.5 37.5q-94 0 -147.5 -58.5t-53.5 -149.5z" />
<glyph unicode="&#x2206;" horiz-adv-x="1443" d="M-39 0l782 1325h275l285 -1325h-1342zM492 299h397l-101 528h-4z" />
<glyph unicode="&#x220f;" horiz-adv-x="1404" d="M39 -254l240 1358h-119l53 303h1298l-53 -303h-119l-239 -1358h-377l240 1358h-308l-239 -1358h-377z" />
<glyph unicode="&#x2211;" horiz-adv-x="1581" d="M-102 -360l39 217l702 809l4 20l-397 770l37 201h1407l-56 -299h-897l322 -610l-25 -144l-581 -665h968l-51 -299h-1472z" />
<glyph unicode="&#x2212;" horiz-adv-x="907" d="M41 406l53 307h783l-54 -307h-782z" />
<glyph unicode="&#x221a;" horiz-adv-x="1574" d="M57 451l64 360h430l106 -403l539 1038h492l-54 -307h-262l-598 -1139h-325l-142 451h-250z" />
<glyph unicode="&#x221e;" horiz-adv-x="2109" d="M59 561q0 160 78 277.5t212.5 176t307.5 58.5q80 0 153.5 -21.5t129.5 -58.5t97.5 -77.5t72.5 -86.5q99 99 236 168.5t282 69.5q212 0 332.5 -109t120.5 -296q0 -233 -164 -376t-430 -143q-145 0 -273.5 71.5t-189.5 160.5q-99 -99 -227.5 -163.5t-274.5 -64.5 q-207 0 -335 114t-128 300zM438 590q0 -59 41 -93t111 -34q82 0 162 39t137 96l2 4q-105 164 -260 164q-86 0 -139.5 -49t-53.5 -127zM1237 590q37 -54 109 -96.5t153 -42.5q100 0 151.5 49t51.5 125q0 61 -40 94t-110 33q-80 0 -169 -46.5t-146 -111.5v-4z" />
<glyph unicode="&#x222b;" horiz-adv-x="1216" d="M-70 -125l183 172q53 -96 143 -82q67 10 82 92l166 940q35 193 141 286t291 93q129 0 223 -50.5t133 -137.5l-182 -172q-54 97 -141 82q-67 -10 -82 -92l-166 -940q-66 -379 -434 -379q-129 0 -222 50t-135 138z" />
<glyph unicode="&#x2248;" horiz-adv-x="1200" d="M18 303q64 101 178.5 171.5t247.5 70.5q68 0 125 -21t89 -45.5t77 -45.5t92 -21q67 0 114 32t97 95l107 -177q-29 -43 -64 -80t-84 -75t-113.5 -60t-135.5 -22q-64 0 -120.5 21.5t-91 47t-80.5 47t-91 21.5q-73 0 -129.5 -32t-112.5 -93zM72 750q64 101 177.5 171 t246.5 70q70 0 128 -21t89.5 -45.5t76 -45.5t91.5 -21q67 0 114 32t97 95l102 -176q-171 -238 -399 -238q-60 0 -116 21.5t-92 47.5t-83 47.5t-92 21.5q-72 0 -126.5 -31t-115.5 -94z" />
<glyph unicode="&#x2260;" horiz-adv-x="1028" d="M12 -143l168 315h-135l49 283h236l76 143h-287l51 283h387l172 323h307l-172 -323h133l-51 -283h-233l-76 -143h285l-50 -283h-385l-168 -315h-307z" />
<glyph unicode="&#x2264;" horiz-adv-x="950" d="M-27 0l43 246h820l-43 -246h-820zM98 711l43 239l889 398l-57 -322l-484 -201l414 -202l-57 -324z" />
<glyph unicode="&#x2265;" horiz-adv-x="954" d="M-27 0l43 246h820l-43 -246h-820zM27 299l57 324l483 202l-413 201l57 322l750 -398l-43 -239z" />
<glyph unicode="&#x25ca;" horiz-adv-x="1374" d="M78 637l12 70l635 682h236l393 -682l-13 -70l-630 -682h-244zM453 670l196 -342h10l320 342v4l-199 342h-14l-313 -342v-4z" />
<glyph unicode="&#x25fc;" horiz-adv-x="1013" d="M0 0v1014h1014v-1014h-1014z" />
<glyph unicode="&#xf700;" horiz-adv-x="1312" d="M119 1053q229 168 567 168q176 0 303 -52l326 125l53 -276l-197 -53q35 -44 55.5 -118.5t20.5 -150.5q0 -188 -89 -348t-242.5 -254t-333.5 -94h-279l-37 324q-5 33 -13.5 45t-35.5 12q-36 0 -86 -16l-8 280q83 39 207 39q113 0 164.5 -42.5t64.5 -152.5l25 -206h24 q84 0 148.5 65t94.5 155.5t30 184.5q0 250 -250 250q-226 0 -400 -113z" />
<glyph unicode="&#xf701;" d="M-1210 1337l47 258h790l-47 -258h-790z" />
<glyph unicode="&#xf702;" d="M-1210 1337l47 258h463l36 207h328l-84 -465h-790z" />
<glyph unicode="&#xf703;" d="M-1210 1337l47 258h299q18 108 96.5 176t198.5 68q109 0 174 -60.5t65 -162.5q0 -119 -90.5 -199t-226.5 -80h-563zM-686 1569q0 -68 68 -68q46 0 72 29.5t26 75.5q0 69 -68 69q-51 0 -74.5 -29.5t-23.5 -76.5z" />
<glyph unicode="&#xf704;" d="M-1210 1337l47 258h180l37 205h258l-39 -213h90l39 213h262l-84 -463h-790z" />
<glyph unicode="&#xf705;" d="M-776 1360l80 450h319l-80 -450h-319z" />
<glyph unicode="&#xf706;" d="M-1141 1565l43 245h250q108 0 138.5 -52t11.5 -152h313l-43 -246h-598l25 143q7 29 2.5 45.5t-31.5 16.5h-111z" />
<glyph unicode="&#xf707;" d="M-1198 1360q12 72 27 131t40 120.5t56.5 103.5t77 68.5t100.5 26.5q61 0 92.5 -32.5t42.5 -100.5h4q65 133 168 133q54 0 88 -29t45 -68.5t11 -90.5h116l-47 -262h-260q42 229 -4 229q-16 0 -30.5 -21t-24 -54t-17.5 -69.5t-14 -71.5q-1 -9 -2 -13h-172q42 229 -4 229 q-17 0 -31.5 -21t-26.5 -63.5t-17.5 -69t-14.5 -75.5h-203z" />
<glyph unicode="&#xf708;" d="M-1042 1475l36 213h162l23 122h299l-23 -122h166l-37 -213h-166l-20 -115h-299l20 115h-161z" />
<glyph unicode="&#xf709;" d="M-999 1360l28 174q24 137 100 192.5t220 55.5h297l-43 -258h-209q-28 0 -37 -10.5t-14 -40.5l-19 -113h-323z" />
<glyph unicode="&#xf70a;" d="M-311 1360l80 450h348l-80 -450h-348z" />
<glyph unicode="&#xf70b;" d="M-682 1561l47 262h246q109 0 152.5 -58.5t25.5 -154.5h393l-45 -250h-678l23 131q9 31 5.5 50.5t-34.5 19.5h-135z" />
<glyph unicode="&#xf70c;" d="M-958 1360q14 83 32 149t47.5 125.5t67.5 99t92 62.5t121 23q142 0 162 -144h6q28 61 81 102.5t136 41.5q86 0 128 -57.5t42 -135.5h168l-49 -266h-332q5 29 8 47.5t7 48t3.5 48.5t-3.5 38.5t-12 29t-23 9.5q-15 0 -27.5 -9.5t-22.5 -29.5t-17 -38t-14.5 -48.5 t-10.5 -47.5t-9 -48h-229q5 28 8 47.5t6.5 48t3.5 48.5t-3 39t-11.5 28.5t-22.5 9.5q-21 0 -37 -19.5t-27 -52.5t-18 -66.5t-14 -69.5q0 -3 -0.5 -4.5t-1 -4t-0.5 -4.5h-235z" />
<glyph unicode="&#xf70d;" d="M-569 1477l39 221h172l22 121h299l-22 -121h172l-39 -221h-172l-21 -117h-299l21 117h-172z" />
<glyph unicode="&#xf70e;" d="M-604 1360l31 174q24 137 99.5 192.5t219.5 55.5h406l-46 -258h-305q-28 0 -37 -10.5t-14 -40.5l-18 -113h-336z" />
<glyph unicode="&#xf70f;" horiz-adv-x="2152" d="M90 326l12 65q18 96 82 168.5t158 110.5v4l-184 143l-11 154q121 108 293 179t361 71q302 0 426 -134.5t80 -386.5l-37 -215q-20 -117 15 -174t147 -57q111 0 168 58t77 173l125 707h357l-125 -707q-45 -255 -197.5 -384.5t-423.5 -129.5q-278 0 -410 133t-90 381l37 215 q21 127 -22 182.5t-174 55.5q-68 0 -142 -21.5t-123 -56.5l3 -4l170 -125l-21 -113q-87 -38 -121.5 -81t-54.5 -148l-8 -41q-19 -102 75 -102q63 0 115 37l70 -224q-63 -47 -134 -67.5t-169 -20.5q-183 0 -269.5 90.5t-54.5 264.5z" />
<glyph unicode="&#xf710;" d="M-1139 1585l33 182h336l-21 -116q-7 -26 -2 -41t33 -15h383l-47 -258h-481q-144 0 -201 55.5t-33 192.5z" />
<glyph unicode="&#xf711;" d="M-967 1532q0 129 100 216t255 87q123 0 189.5 -67t66.5 -171q0 -136 -104 -219.5t-251 -83.5q-111 0 -183.5 63t-72.5 175zM-758 1548q0 -35 21 -54t59 -19q51 0 82 29.5t31 76.5q0 74 -82 74q-53 0 -82 -29.5t-29 -77.5z" />
<glyph unicode="&#xf712;" d="M-1184 1604q0 348 447 348h444l-39 -217h-444q-73 0 -112.5 -23.5t-39.5 -85.5q0 -32 18.5 -53t57.5 -21q43 0 71 29t40 72h118q0 -38 22 -69.5t58 -31.5q23 0 44.5 10.5t32 20t32.5 31.5l57 -178q-26 -28 -45.5 -45.5t-58.5 -34.5t-84 -17q-52 0 -87 29t-48 74h-5 q-32 -45 -87 -74t-123 -29q-123 0 -196 71t-73 194z" />
<glyph unicode="&#xf713;" d="M-641 1894l66 373h319l-66 -373h-319z" />
<glyph unicode="&#xf714;" d="M-891 2107l39 226h252q106 0 136 -52.5t11 -148.5h367l-43 -238h-641l27 152q7 29 2.5 45t-31.5 16h-119z" />
<glyph unicode="&#xf715;" d="M-967 1894q16 97 39 170t61 137t98 98t140 34q73 0 108.5 -40t37.5 -100h4q30 63 77.5 101.5t129.5 38.5q58 0 95 -30.5t49 -72t9 -90.5h103l-43 -246h-267q5 29 8 47t6.5 46t3.5 45.5t-2.5 35.5t-10.5 26.5t-21 8.5q-19 0 -34.5 -17.5t-25 -45.5t-16.5 -60.5t-13 -66.5 q-2 -13 -3 -19h-203q5 29 8 47t6.5 46t3.5 45.5t-2.5 35.5t-10.5 26.5t-21 8.5q-19 0 -33.5 -18t-24 -48t-17 -62.5t-13.5 -67.5q0 -4 -0.5 -7t-1.5 -6h-224z" />
<glyph unicode="&#xf716;" d="M-760 2011l37 205h150l20 117h291l-21 -117h150l-37 -205h-149l-21 -117h-291l21 117h-150z" />
<glyph unicode="&#xf717;" d="M-782 1708l30 178q24 137 100 192.5t220 55.5h315l-45 -258h-219q-28 0 -36 -10t-13 -41l-21 -117h-331z" />
<glyph unicode="&#xf718;" d="M-811 -774l47 262h117q58 0 101.5 -3.5t82 -12.5t64.5 -24.5t45.5 -38.5t28 -55t8.5 -73.5t-9 -95.5l-34 -195h-332l35 195q6 41 -35 41h-119z" />
<glyph unicode="&#xf719;" d="M-1128 -725l36 213h168q60 0 98 -6t68 -24t39.5 -54t-0.5 -92l-10 -64q-13 -69 49 -69q34 0 51 17.5t23 51.5l43 240h280l-47 -268q-23 -119 -116.5 -182.5t-245.5 -63.5q-157 0 -245.5 65t-76.5 181l2 18q4 24 -2 30.5t-28 6.5h-86z" />
<glyph unicode="&#xf71a;" d="M-700 -754q0 97 68.5 169.5t180.5 72.5q88 0 132.5 -48t44.5 -122q0 -100 -71 -172t-179 -72q-84 0 -130 48.5t-46 123.5z" />
<glyph unicode="&#xf71b;" horiz-adv-x="1400" d="M-47 68l82 243q37 -16 82 -16q39 0 58.5 21.5t25.5 62.5l2 16q34 195 180 275v4l-211 143l-10 154q119 107 292.5 178.5t362.5 71.5q304 0 433 -135t85 -386l-196 -1110h-348q-171 117 -426 117q-182 0 -326 -80l-68 238q185 96 439 96q128 0 237 -39t168 -98l156 876 q21 127 -23.5 182.5t-175.5 55.5q-68 0 -142.5 -21.5t-123.5 -56.5l2 -4l197 -125l-21 -113q-26 -12 -46 -27t-33.5 -34.5t-22.5 -35.5t-16 -42.5t-10 -41t-9 -44.5l-10 -76q-52 -305 -344 -305q-155 0 -240 56z" />
<glyph unicode="&#xf71c;" horiz-adv-x="1409" d="M-47 -389l45 254q160 -21 215 -21q78 0 120 29.5t77 95.5l245 35l166 -182h2l156 878q21 127 -23.5 182.5t-175.5 55.5q-68 0 -142.5 -21.5t-123.5 -56.5l2 -4l197 -125l-21 -113q-26 -12 -46 -27t-33.5 -34.5t-22.5 -35.5t-16 -42.5t-10 -41t-9 -44.5l-10 -76 q-52 -305 -344 -305q-155 0 -240 56l82 243q37 -16 82 -16q39 0 58.5 21.5t25.5 62.5l2 16q34 195 180 275v4l-211 143l-10 154q119 107 292.5 178.5t362.5 71.5q304 0 433 -135t85 -386l-196 -1110h-442l-162 181h-4q-48 -83 -146 -132t-225 -49q-101 0 -215 21z" />
<glyph unicode="&#xf71d;" horiz-adv-x="1599" d="M172 1192h340l-27 -748h9l288 609h265l102 -654h10l76 228q39 99 25.5 145.5t-107.5 65.5l41 225l383 229l115 -217l-232 -117l-2 -8q86 -38 100 -118.5t-42 -221.5l-242 -610h-342l-74 678h-4l-305 -678h-344z" />
<glyph unicode="&#xf883;" horiz-adv-x="1386" d="M90 326l12 65q18 96 82 168.5t158 110.5v4l-184 143l-11 154q119 107 293 178.5t363 71.5q304 0 433 -135t85 -386l-195 -1110h-364l194 1110q21 127 -23 182.5t-175 55.5q-68 0 -142.5 -21.5t-123.5 -56.5l2 -4l170 -125l-21 -113q-89 -38 -123.5 -81t-54.5 -148l-8 -41 q-19 -102 75 -102q63 0 115 37l70 -224q-63 -47 -134 -67.5t-169 -20.5q-183 0 -269.5 90.5t-54.5 264.5z" />
<glyph unicode="&#xf884;" horiz-adv-x="1409" d="M-47 27l82 243q37 -16 82 -16q39 0 58.5 21.5t25.5 62.5l10 57q34 195 180 275v4l-211 143l-10 154q119 107 292.5 178.5t362.5 71.5q304 0 433 -135t85 -386l-194 -1110h-365l195 1110q21 127 -23.5 182.5t-175.5 55.5q-68 0 -142.5 -21.5t-123.5 -56.5l2 -4l197 -125 l-21 -113q-26 -12 -46 -27t-33.5 -34.5t-22.5 -35.5t-16 -42.5t-10 -41t-9 -44.5l-18 -117q-52 -305 -344 -305q-155 0 -240 56z" />
<glyph d="M-1081 1577q0 91 69 148t183 69l2 4q-66 28 -66 107q0 59 31 102.5t85.5 68t119.5 35.5t143 11q152 0 227 -37l-80 -174q-62 26 -157 26q-24 0 -47 -4t-42.5 -16.5t-19.5 -32.5q0 -22 31.5 -35.5t75.5 -13.5l-56 -139q-225 12 -225 -58q0 -49 113 -49q80 0 133 21 l-4 -178q-81 -43 -236 -39q-280 8 -280 184z" />
<glyph horiz-adv-x="1171" d="M-967 1532q0 129 100 216t255 87q123 0 189.5 -67t66.5 -171q0 -136 -104 -219.5t-251 -83.5q-111 0 -183.5 63t-72.5 175zM-758 1548q0 -35 21 -54t59 -19q51 0 82 29.5t31 76.5q0 74 -82 74q-53 0 -82 -29.5t-29 -77.5zM133 1055q87 76 215 121t260 45q585 0 498 -508 l-125 -713h-365l127 717q20 116 -25.5 168.5t-164.5 52.5q-155 0 -295 -100z" />
<glyph />
</font>
</defs>
</svg>
