<?xml version="1.0" standalone="no"?>
<!DOCTYPE svg PUBLIC "-//W3C//DTD SVG 1.1//EN" "http://www.w3.org/Graphics/SVG/1.1/DTD/svg11.dtd" >
<svg xmlns="http://www.w3.org/2000/svg" xmlns:xlink="http://www.w3.org/1999/xlink" version="1.1">
<metadata></metadata>
<defs>
<font id="psu_stidtilight" horiz-adv-x="0" >
<font-face units-per-em="2048" ascent="1536" descent="-512" />
<missing-glyph horiz-adv-x="442" />
<glyph unicode="&#xe2f;&#xe2f;" horiz-adv-x="1230" d="M123 1012h94q0 -53 10.5 -99t35 -87t71 -65t110.5 -24q127 0 207 80.5t99 194.5h88v-1012h-95v657l9 170q-102 -168 -308 -168q-301 0 -321 353zM963 0v1012h94v-1012h-94z" />
<glyph unicode="&#xe4f;&#x22;" horiz-adv-x="1263" d="M123 565q0 218 143 364t367 146q223 0 365.5 -146t142.5 -364t-142.5 -364t-365.5 -146q-224 0 -367 146t-143 364zM201 565q0 -191 114.5 -313.5t317.5 -122.5q201 0 315.5 122.5t114.5 313.5q0 188 -114.5 312t-315.5 124q-202 0 -317 -123.5t-115 -312.5zM455 1206 v295h90v-295h-90zM477 565q0 68 43 113t113 45q73 0 116.5 -45t43.5 -113t-43.5 -112.5t-116.5 -44.5q-71 0 -113.5 44.5t-42.5 112.5zM725 1206v295h88v-295h-88z" />
<glyph unicode="&#xe24;&#xe32;" horiz-adv-x="2025" d="M113 965q100 113 245.5 184.5t315.5 71.5q240 0 366 -99q148 99 344 99q233 0 350 -116t117 -312v-1305h-94v1305q0 165 -91.5 257.5t-281.5 92.5q-160 0 -286 -78q76 -107 76 -274v-1303h-95v1303q0 187 -100.5 269.5t-304.5 82.5q-134 0 -258.5 -56.5t-214.5 -152.5 l4 -19l289 -172v-69q-98 -36 -153.5 -110.5t-55.5 -211.5v-82q0 -113 45.5 -167t152.5 -54q87 0 150 45l35 -67q-67 -56 -195 -56q-143 0 -213 79.5t-70 225.5v76q0 141 50.5 223.5t152.5 135.5v4l-256 147z" />
<glyph unicode="&#xe26;&#xe32;" horiz-adv-x="2056" d="M92 16l17 76q55 -31 104 -31q26 0 43 8t25.5 17t12.5 33t4.5 38.5t0.5 51.5v153q0 129 34 209.5t124 139.5v4l-289 147l-25 103q100 113 246 184.5t316 71.5q240 0 366 -99q148 99 344 99q233 0 350 -116t117 -312v-1305h-94v1305q0 165 -91.5 257.5t-281.5 92.5 q-161 0 -287 -78q76 -107 76 -274v-1303h-94v1303q0 187 -100.5 269.5t-304.5 82.5q-134 0 -259 -56.5t-215 -152.5l5 -19l321 -172v-69q-95 -43 -129.5 -113.5t-34.5 -198.5v-153q0 -54 -6.5 -91t-24 -69.5t-53 -48.5t-88.5 -16q-83 0 -129 32z" />
<glyph unicode="fi" horiz-adv-x="1101" d="M113 815v78h112v145q0 158 84.5 248t247.5 90q259 0 363 -213l-64 -35q-88 175 -291 175q-128 0 -189 -65.5t-61 -199.5v-145h238v-78h-238v-815h-90v815h-112zM854 0v1012h94v-1012h-94z" />
<glyph unicode="fl" horiz-adv-x="1351" d="M113 815v78h112v145q0 155 90.5 246.5t247.5 91.5q132 0 232.5 -50.5t162.5 -139.5v-815q0 -60 1.5 -98t7 -78.5t16.5 -64t29.5 -44t46 -29t65.5 -8.5q92 0 148 39l28 -68q-78 -49 -194 -49q-62 0 -106.5 21.5t-69.5 55.5t-39.5 89t-18.5 108t-4 128v796 q-98 138 -305 138q-120 0 -184 -71.5t-64 -197.5v-145h238v-78h-238v-815h-90v815h-112z" />
<glyph />
<glyph />
<glyph unicode="&#xd;" horiz-adv-x="442" />
<glyph unicode=" "  horiz-adv-x="442" />
<glyph unicode="&#x09;" horiz-adv-x="442" />
<glyph unicode="&#xa0;" horiz-adv-x="442" />
<glyph unicode="!" horiz-adv-x="430" d="M164 0v96h102v-96h-102zM168 1348h94l-8 -1102h-78z" />
<glyph unicode="&#x22;" horiz-adv-x="514" d="M113 1012v336h94v-336h-94zM307 1012v336h94v-336h-94z" />
<glyph unicode="#" horiz-adv-x="1421" d="M113 332l20 69h223l129 402h-276l20 69h279l110 342h87l-111 -342h379l110 342h86l-110 -342h250l-23 -69h-250l-129 -402h305l-20 -69h-307l-107 -332h-86l107 332h-379l-107 -332h-86l107 332h-221zM442 401h379l129 402h-379z" />
<glyph unicode="$" horiz-adv-x="1214" d="M113 156l41 73q161 -136 417 -149v575q-90 30 -148.5 53t-116 55t-90 67t-52 83.5t-19.5 108.5q0 307 426 324v200h91v-200q207 -9 366 -93l-37 -71q-153 78 -329 86v-549q179 -59 246 -93q152 -77 184 -202q10 -38 10 -80q0 -163 -120 -248.5t-320 -93.5v-203h-91v201 q-277 9 -458 156zM236 1022q0 -56 21 -97.5t68 -74t102.5 -55.5t143.5 -50v523q-335 -10 -335 -246zM662 80q158 5 254 69.5t96 194.5q0 36 -9.5 66t-23 53t-41 44t-51 35.5t-66.5 31.5t-73.5 27.5t-85.5 27.5v-549z" />
<glyph unicode="%" horiz-adv-x="1384" d="M113 1044q0 149 72.5 240.5t209.5 91.5q142 0 212.5 -91t70.5 -241q0 -146 -73 -238.5t-210 -92.5t-209.5 92.5t-72.5 238.5zM195 1044q0 -262 200 -262q201 0 201 262q0 126 -49.5 194.5t-151.5 68.5q-200 0 -200 -263zM219 0l852 1348h98l-852 -1348h-98zM707 301 q0 149 72.5 240.5t209.5 91.5q142 0 212.5 -91t70.5 -241q0 -146 -73 -239t-210 -93t-209.5 92.5t-72.5 239.5zM788 301q0 -262 201 -262t201 262t-201 262t-201 -262z" />
<glyph unicode="&#x26;" horiz-adv-x="1378" d="M113 336q0 70 22 126.5t65.5 100.5t84 72.5t102.5 62.5l107 60q-46 41 -76 71.5t-66 76t-54.5 94.5t-18.5 100q0 130 86 204t219 74q82 0 145 -24t99.5 -64.5t54.5 -89t18 -102.5q0 -202 -274 -355l389 -405q58 85 96 223l66 -53q-42 -135 -107 -234l256 -274h-115 l-190 207q-197 -236 -471 -236q-124 0 -222.5 43t-157 126.5t-58.5 195.5zM203 334q0 -93 51.5 -159.5t128.5 -96t168 -29.5q248 0 414 217l-410 432l-88 -49q-5 -3 -16 -9l-55.5 -31.5t-49.5 -31t-47.5 -36t-38 -39.5t-32 -47.5t-18 -54.5t-7.5 -66zM365 1100q0 -43 16 -84 t49 -80t58 -63.5t67 -61.5q11 -9 16 -14q122 65 183 137.5t61 161.5q0 93 -57.5 153t-173.5 60q-110 0 -164.5 -60t-54.5 -149z" />
<glyph unicode="'" horiz-adv-x="319" d="M113 1012v336h94v-336h-94z" />
<glyph unicode="(" horiz-adv-x="559" d="M113 645q0 143 22.5 270t64.5 228t87.5 177t103.5 148l55 -34q-56 -81 -94.5 -151t-75 -166t-55 -214t-18.5 -258q0 -139 18.5 -257t55 -214t75.5 -167.5t94 -149.5l-55 -35q-278 335 -278 823z" />
<glyph unicode=")" horiz-adv-x="559" d="M113 -143q55 78 94 149.5t75.5 167.5t55 214t18.5 257q0 140 -18.5 258t-55 214t-75 166t-94.5 151l55 34q58 -72 103.5 -148t87.5 -177t64.5 -228t22.5 -270q0 -488 -278 -823z" />
<glyph unicode="*" horiz-adv-x="696" d="M113 977l186 100l-186 107l51 76l145 -107l-6 195h90l-6 -195l145 104l52 -73l-187 -107l187 -100l-49 -72l-148 99l6 -179h-90l6 179l-147 -99z" />
<glyph unicode="+" horiz-adv-x="897" d="M113 508v78h290v313h91v-313h290v-78h-290v-297h-91v297h-290z" />
<glyph unicode="," horiz-adv-x="423" d="M113 -186l100 356h98l-110 -356h-88z" />
<glyph unicode="-" horiz-adv-x="876" d="M113 494v77h651v-77h-651z" />
<glyph unicode="." horiz-adv-x="356" d="M113 0v123h131v-123h-131z" />
<glyph unicode="/" horiz-adv-x="819" d="M113 0l495 1348h99l-496 -1348h-98z" />
<glyph unicode="0" horiz-adv-x="1329" d="M113 672q0 156 32.5 282.5t98 222t172.5 147.5t248 52q142 0 249 -52t173 -147.5t98.5 -222t32.5 -282.5q0 -120 -19.5 -224t-62.5 -192.5t-106.5 -151t-156.5 -98t-208 -35.5q-141 0 -248.5 53.5t-172.5 150t-97.5 221.5t-32.5 276zM207 672q0 -137 24.5 -244t66 -176.5 t100.5 -115t124.5 -64.5t141.5 -19q75 0 140 19t124.5 64.5t101.5 115t67 176.5t25 244q0 140 -25.5 249t-67.5 178t-102 114t-124.5 63t-138.5 18q-75 0 -139.5 -18t-124 -63t-101.5 -114t-67 -178t-25 -249z" />
<glyph unicode="1" horiz-adv-x="696" d="M61 1079l318 269h123v-1348h-94v1266l-291 -248z" />
<glyph unicode="2" horiz-adv-x="1138" d="M113 0q0 125 20 211.5t74 163.5t130.5 139.5t209.5 147.5q16 10 59.5 37.5t64.5 41t60 41t59.5 45.5t48 46.5t41.5 53t24.5 54.5t10.5 61q0 134 -88.5 193t-257.5 59q-225 0 -366 -153l-56 61q72 85 183.5 129.5t238.5 44.5q207 0 324 -80.5t117 -251.5 q0 -42 -11.5 -81.5t-29 -71t-48 -64.5t-58 -57t-69.5 -54t-72 -48.5t-76.5 -48t-72.5 -46.5q-69 -45 -116 -79.5t-96.5 -81.5t-79 -93.5t-48 -107t-18.5 -129.5h811v-82h-913z" />
<glyph unicode="3" horiz-adv-x="1193" d="M102 129l48 66q156 -142 423 -142q83 0 154 16t131 50.5t94.5 96t34.5 144.5q0 69 -23.5 122t-63.5 87t-97 56t-118.5 30.5t-133.5 8.5v81q393 0 393 281q0 268 -371 268q-134 0 -219.5 -32t-148.5 -88l-51 57q145 145 419 145q101 0 183.5 -20t146.5 -61.5t99.5 -110 t35.5 -158.5q0 -126 -71.5 -208t-196.5 -109v-2q146 -31 228.5 -117.5t82.5 -229.5q0 -189 -139 -289t-369 -100q-310 0 -471 158z" />
<glyph unicode="4" horiz-adv-x="1200" d="M82 365v81l674 902h141v-902h211v-81h-209v-365h-94v365h-723zM186 446h621v824h-2z" />
<glyph unicode="5" horiz-adv-x="1208" d="M113 143l45 68q181 -158 438 -158q203 0 304 90t101 258q0 181 -104 270t-322 89q-182 0 -374 -64v652h823v-82h-729v-461q156 37 280 37q117 0 210 -25t163.5 -77t109 -138t38.5 -201q0 -198 -133.5 -314t-366.5 -116q-91 0 -169.5 15t-137 42.5t-98 54t-78.5 60.5z" />
<glyph unicode="6" horiz-adv-x="1230" d="M113 594q0 88 3.5 157t16.5 153.5t35 148t62 127.5t94 104.5t135 66t182 25.5q249 0 406 -174l-52 -59q-71 75 -153.5 113t-200.5 38q-77 0 -139.5 -18.5t-108 -51t-79 -82.5t-54.5 -107t-34 -130.5t-18 -147.5t-5 -163q56 115 176 173t268 58q221 0 346 -117t125 -309 q0 -87 -31.5 -163.5t-90.5 -136t-152.5 -94t-208.5 -34.5q-138 0 -240 44.5t-163 128.5t-90 195.5t-29 254.5zM236 406q0 -163 110 -260t293 -97q178 0 283.5 98t105.5 252q0 170 -106.5 259.5t-274.5 89.5q-113 0 -205 -38.5t-149 -117.5t-57 -186z" />
<glyph unicode="7" horiz-adv-x="1093" d="M113 1266v82h868v-80l-625 -1268h-102l631 1266h-772z" />
<glyph unicode="8" horiz-adv-x="1255" d="M113 358q0 135 82.5 225.5t222.5 123.5q-105 37 -169.5 120.5t-64.5 188.5q0 163 125 261.5t316 98.5q125 0 225.5 -43.5t159.5 -126t59 -190.5q0 -106 -66 -190.5t-172 -118.5q136 -35 224 -125t88 -224q0 -179 -144.5 -283t-373.5 -104q-230 0 -371 103.5t-141 283.5z M203 362q0 -81 34.5 -142.5t94 -98t133.5 -54.5t160 -18q87 0 163 18.5t136 55.5t94.5 98.5t34.5 140.5q0 77 -37.5 136.5t-99.5 94.5t-136 53t-155 18t-154 -18t-134 -53t-97.5 -94.5t-36.5 -136.5zM274 1016q0 -131 101 -205t250 -74q96 0 175 31t129 95.5t50 152.5 q0 128 -97.5 205t-256.5 77q-160 0 -255.5 -76.5t-95.5 -205.5z" />
<glyph unicode="9" horiz-adv-x="1230" d="M113 948q0 186 129.5 307t359.5 121q516 0 516 -602q0 -72 -2 -130t-9 -127t-18 -123.5t-31.5 -113t-48 -102.5t-67.5 -84.5t-90 -66t-116.5 -41t-145.5 -15.5q-259 0 -416 174l51 60q145 -152 365 -152q67 0 122.5 13t97 33.5t74.5 56.5t55 71.5t38.5 90.5t26 100.5 t15.5 114.5t8.5 120.5t4.5 128.5q-36 -121 -159.5 -190.5t-286.5 -69.5q-220 0 -346.5 116.5t-126.5 309.5zM203 948q0 -168 105.5 -258t277.5 -90q182 0 294.5 90.5t112.5 251.5q0 168 -100.5 262t-294.5 94q-182 0 -288.5 -95.5t-106.5 -254.5z" />
<glyph unicode=":" horiz-adv-x="356" d="M113 147v123h131v-123h-131zM113 782v123h131v-123h-131z" />
<glyph unicode=";" horiz-adv-x="425" d="M113 -61l100 356h98l-110 -356h-88zM182 782v123h131v-123h-131z" />
<glyph unicode="&#x3c;" horiz-adv-x="915" d="M113 500v98l690 365v-95l-613 -317v-2l613 -326v-94z" />
<glyph unicode="=" horiz-adv-x="876" d="M113 393v78h651v-78h-651zM113 610v78h651v-78h-651z" />
<glyph unicode="&#x3e;" horiz-adv-x="915" d="M113 129v94l612 326v2l-612 317v95l690 -365v-98z" />
<glyph unicode="?" horiz-adv-x="927" d="M102 1227q53 63 144.5 106t206.5 43q170 0 266 -72t96 -229q0 -56 -18.5 -102.5t-48 -81t-65 -68.5t-71 -74t-65 -86.5t-48 -116.5t-18.5 -155v-90h-94v90q0 90 18.5 164.5t48 125t65 93t71 76.5t65 66.5t48 72.5t18.5 86q0 113 -62.5 168t-205.5 55q-181 0 -299 -131z M381 0v96h106v-96h-106z" />
<glyph unicode="@" horiz-adv-x="1667" d="M123 612q17 130 68 237t126 182t172 126.5t205.5 75.5t227.5 24q143 0 261.5 -37.5t205.5 -110.5t130 -188.5t31 -261.5q-12 -132 -55 -237.5t-120.5 -171.5t-178.5 -66q-76 0 -127 41t-53 97q-34 -66 -103 -102t-153 -36q-167 0 -243.5 114t-43.5 290q12 66 38 125 t69 110t111 80t153 27q189 -7 235 -150l27 68h63l-92 -402q-23 -98 12.5 -143t108.5 -45q111 0 177.5 109.5t84.5 294.5q24 257 -124.5 387.5t-436.5 130.5q-273 0 -463.5 -152.5t-222.5 -417.5q-19 -145 6 -263.5t94.5 -209.5t198 -141.5t307.5 -50.5q102 0 202 27t171 79 l35 -67q-175 -117 -432 -117q-180 0 -319 56t-223 155.5t-118 236t-12 297.5zM554.5 456.5q6.5 -56.5 28.5 -101t71.5 -71t119.5 -26.5q174 0 211 156l55 239q18 82 -36.5 144.5t-151.5 62.5q-120 0 -191.5 -76t-97.5 -211q-15 -60 -8.5 -116.5z" />
<glyph unicode="A" horiz-adv-x="1341" d="M61 0l543 1348h119l557 -1348h-102l-142 350h-733l-141 -350h-101zM336 432h668l-336 825h-9z" />
<glyph unicode="B" horiz-adv-x="1351" d="M164 0v1348h592q197 0 304 -90.5t107 -251.5q0 -114 -66.5 -193.5t-172.5 -103.5q142 -23 226.5 -114.5t84.5 -225.5q0 -188 -121 -278.5t-364 -90.5h-590zM254 82h491q209 0 306.5 66t97.5 221q0 138 -105 215.5t-301 77.5h-489v-580zM254 739h442q183 0 282 67t99 200 q0 260 -342 260h-481v-527z" />
<glyph unicode="C" horiz-adv-x="1454" d="M113 672q0 206 82.5 364t241 247t370.5 89q197 0 318 -55t214 -158l-49 -57q-42 44 -81.5 74t-96.5 58t-133 42t-172 14q-127 0 -235 -38.5t-191 -113t-130.5 -194.5t-47.5 -272t47.5 -272t131.5 -195t193 -113.5t236 -38.5q101 0 179.5 14.5t135 44t92 58.5t76.5 72 l47 -56q-169 -215 -530 -215q-215 0 -374 89.5t-241.5 247.5t-82.5 364z" />
<glyph unicode="D" horiz-adv-x="1406" d="M164 0v1348h524q153 0 271 -51.5t190 -143.5t108.5 -212.5t36.5 -266.5q0 -113 -22.5 -212.5t-70.5 -185t-118 -146.5t-170.5 -95.5t-222.5 -34.5h-526zM258 82h432q105 0 191 31t144.5 84.5t98.5 129t58 162t18 185.5q0 125 -28.5 229t-87.5 187t-159.5 129.5 t-234.5 46.5h-432v-1184z" />
<glyph unicode="E" horiz-adv-x="1245" d="M164 0v1348h934v-82h-840v-523h655v-81h-655v-580h844v-82h-938z" />
<glyph unicode="F" horiz-adv-x="1218" d="M164 0v1348h932v-82h-838v-547h602v-82h-602v-637h-94z" />
<glyph unicode="G" horiz-adv-x="1499" d="M113 670q0 211 74.5 368.5t228.5 247.5t372 90q348 0 531 -196l-53 -58q-95 94 -209 133t-269 39q-130 0 -234.5 -37.5t-183 -112t-121 -195.5t-42.5 -279q0 -125 30 -228t82.5 -174.5t125.5 -120.5t157.5 -71.5t179.5 -22.5q100 0 186.5 22t155.5 66t108.5 116t39.5 165 v188h-494v82h588v-258q0 -214 -162 -338.5t-424 -124.5q-303 0 -485 186t-182 513z" />
<glyph unicode="H" horiz-adv-x="1421" d="M164 0v1348h94v-629h905v629h94v-1348h-94v637h-905v-637h-94z" />
<glyph unicode="I" horiz-adv-x="462" d="M184 0v1348h95v-1348h-95z" />
<glyph unicode="J" horiz-adv-x="944" d="M72 207l67 51q43 -101 112 -153t175 -52q152 0 211 78t59 238v979h95v-986q0 -391 -359 -391q-128 0 -220 62.5t-140 173.5z" />
<glyph unicode="K" horiz-adv-x="1226" d="M164 0v1348h94v-766l735 766h121l-522 -541q99 -73 158 -142t116 -180l248 -485h-110l-230 455q-51 98 -103 161.5t-143 124.5l-270 -278v-463h-94z" />
<glyph unicode="L" horiz-adv-x="1114" d="M164 0v1348h94v-1266h764v-82h-858z" />
<glyph unicode="M" horiz-adv-x="1560" d="M164 0v1348h117l501 -1018l494 1018h121v-1348h-90v1217l-492 -1008h-61l-500 1008v-1217h-90z" />
<glyph unicode="N" horiz-adv-x="1427" d="M164 0v1348h106l899 -1219v1219h95v-1348h-107l-899 1221v-1221h-94z" />
<glyph unicode="O" horiz-adv-x="1529" d="M113 672q0 148 41.5 274.5t121 223t205 151.5t283.5 55q157 0 282.5 -55t205.5 -151.5t122.5 -223.5t42.5 -274q0 -146 -42.5 -272t-122.5 -222.5t-205.5 -151.5t-282.5 -55q-127 0 -233.5 36t-183 100t-129.5 152t-79 192.5t-26 220.5zM207 672q0 -283 148.5 -451 t408.5 -168t409.5 168.5t149.5 450.5q0 185 -66 325.5t-193.5 218.5t-299.5 78q-259 0 -408 -170t-149 -452z" />
<glyph unicode="P" horiz-adv-x="1298" d="M164 0v1348h577q93 0 173 -23.5t144 -70.5t101 -126.5t37 -183.5q0 -102 -36.5 -181t-99.5 -126.5t-143 -71.5t-172 -24h-487v-541h-94zM254 623h446q406 0 406 321q0 322 -410 322h-442v-643z" />
<glyph unicode="Q" horiz-adv-x="1529" d="M113 672q0 148 41.5 274.5t121 223t205 151.5t283.5 55q157 0 282.5 -55t205.5 -151.5t122.5 -223.5t42.5 -274q0 -284 -149 -473.5t-414 -218.5l397 -207l-49 -90l-495 292q-144 8 -258 66t-187 153t-111 216.5t-38 261.5zM207 672q0 -283 148.5 -451t408.5 -168 t409.5 168.5t149.5 450.5q0 185 -66 325.5t-193.5 218.5t-299.5 78q-259 0 -408 -170t-149 -452z" />
<glyph unicode="R" horiz-adv-x="1331" d="M164 0v1348h577q100 0 183 -24t144.5 -71t95.5 -121.5t34 -170.5q0 -94 -32 -166t-86.5 -115t-119 -65.5t-137.5 -26.5q116 -29 190.5 -116.5t104.5 -219.5l56 -252h-103l-57 252q-33 146 -138.5 227.5t-273.5 81.5h-344v-561h-94zM254 643h444q187 0 298.5 77.5 t111.5 237.5q0 308 -410 308h-444v-623z" />
<glyph unicode="S" horiz-adv-x="1224" d="M113 125l41 74q85 -69 205.5 -108.5t250.5 -39.5q84 0 153.5 16t125.5 48.5t87.5 89t31.5 131.5q0 39 -10 71.5t-25 57t-44.5 47t-55 37t-71.5 32t-78.5 28.5t-90.5 28q-85 26 -143 46t-118.5 47t-98 55t-69 64t-45.5 81t-14 100q0 169 126 258.5t337 89.5q245 0 420 -94 l-37 -72q-157 84 -383 84q-174 0 -271 -65.5t-97 -200.5q0 -50 20.5 -90t41.5 -64t86 -54t99 -42t135 -45q32 -11 48 -16q168 -55 213 -75q144 -64 191 -166q28 -61 28 -142q0 -175 -135.5 -271t-356.5 -96q-304 0 -497 156z" />
<glyph unicode="T" horiz-adv-x="1230" d="M113 1266v82h1005v-82h-456v-1266h-95v1266h-454z" />
<glyph unicode="U" horiz-adv-x="1406" d="M154 498v850h94v-873q0 -194 113 -309t341 -115q116 0 205 32.5t143.5 90.5t81.5 134t27 167v873h94v-850q0 -241 -141 -385t-410 -144t-408.5 144t-139.5 385z" />
<glyph unicode="V" horiz-adv-x="1351" d="M92 1348h96l494 -1237h4l477 1237h97l-531 -1348h-94z" />
<glyph unicode="W" horiz-adv-x="1832" d="M92 1348h96l304 -1242l362 1121h121l354 -1118l316 1239h96l-348 -1348h-121l-359 1133l-360 -1133h-129z" />
<glyph unicode="X" horiz-adv-x="1296" d="M92 0l477 684l-467 664h111l422 -605l418 605h114l-467 -664l504 -684h-110l-459 623l-428 -623h-115z" />
<glyph unicode="Y" horiz-adv-x="1277" d="M82 1348h102l453 -793l453 793h106l-514 -887v-461h-94v461z" />
<glyph unicode="Z" horiz-adv-x="1345" d="M133 0v84l948 1182h-915v82h1024v-82l-946 -1184h968v-82h-1079z" />
<glyph unicode="[" horiz-adv-x="505" d="M164 -297v1939h250v-81h-156v-1776h156v-82h-250z" />
<glyph unicode="\" horiz-adv-x="819" d="M113 1348h98l496 -1348h-99z" />
<glyph unicode="]" horiz-adv-x="505" d="M92 -215h156v1776h-156v81h250v-1939h-250v82z" />
<glyph unicode="^" horiz-adv-x="968" d="M113 752l315 596h115l313 -596h-90l-281 536l-282 -536h-90z" />
<glyph unicode="_" horiz-adv-x="935" d="M0 0h936v-78h-936v78z" />
<glyph unicode="`" horiz-adv-x="1529" d="M664 1806h106l98 -338h-73z" />
<glyph unicode="a" horiz-adv-x="1134" d="M102 281q0 149 110.5 224t291.5 75q106 0 213 -27.5t184 -63.5v154q0 169 -79.5 244.5t-274.5 75.5q-176 0 -311 -93l-41 72q151 98 352 98q229 0 336.5 -94.5t107.5 -302.5v-643h-76l-8 152q-59 -78 -164.5 -129.5t-238.5 -51.5q-194 0 -298 83t-104 227zM188 281 q0 -120 83.5 -178t236.5 -58q134 0 243 59t154 150v158q-76 42 -186 68t-215 26q-66 0 -120 -11.5t-99.5 -36t-71 -70t-25.5 -107.5z" />
<glyph unicode="b" horiz-adv-x="1259" d="M154 0v1434h90v-615q59 102 168.5 163.5t246.5 61.5q227 0 362.5 -148.5t135.5 -391.5q0 -156 -53 -275t-166.5 -190.5t-275.5 -71.5q-147 0 -255.5 66.5t-168.5 173.5l-5 -207h-79zM236 375q43 -158 154.5 -244t271.5 -86q200 0 302.5 122.5t102.5 336.5q0 97 -24.5 179 t-73.5 146.5t-130 101t-186 36.5q-160 0 -282.5 -107t-134.5 -248v-237z" />
<glyph unicode="c" horiz-adv-x="1163" d="M102 506q0 245 150.5 391.5t390.5 146.5q263 0 408 -133l-43 -57q-70 61 -157 87t-208 26q-198 0 -324 -128.5t-126 -332.5q0 -206 120.5 -333.5t341.5 -127.5q128 0 211 25.5t154 89.5l41 -56q-137 -137 -406 -137q-248 0 -400.5 141.5t-152.5 397.5z" />
<glyph unicode="d" horiz-adv-x="1259" d="M102 504q0 252 135 396t365 144q275 0 414 -217v607h90v-1434h-80l-4 211q-61 -112 -174 -178t-277 -66q-232 0 -350.5 144.5t-118.5 392.5zM193 504q0 -459 393 -459q159 0 278.5 86t159.5 244v246q-18 143 -134.5 244.5t-281.5 101.5q-107 0 -188.5 -36t-130 -100.5 t-72.5 -146.5t-24 -180z" />
<glyph unicode="e" horiz-adv-x="1208" d="M102 500q0 255 133.5 397.5t387.5 142.5q239 0 363 -146q119 -141 118 -394v-21h-911v-13q0 -78 23 -148q25 -76 76.5 -137t139.5 -96.5t203 -35.5q258 0 373 135l49 -53q-138 -160 -422 -160q-253 0 -393 140.5t-140 388.5zM193 553h821q-16 410 -396 410 q-390 0 -425 -410z" />
<glyph unicode="f" horiz-adv-x="790" d="M113 815v78h112v192q0 146 68.5 218.5t198.5 72.5q155 0 247 -116l-41 -48q-87 91 -198 91q-98 0 -139.5 -51t-41.5 -173v-186h254v-78h-254v-815h-94v815h-112z" />
<glyph unicode="g" horiz-adv-x="1259" d="M102 526q0 228 138.5 371t369.5 143q287 0 410 -194l14 166h72v-953q0 -248 -122 -361.5t-363 -113.5q-174 0 -320 64l18 73q141 -59 302 -59q203 0 301 88.5t98 290.5v168q-23 -35 -54 -65.5t-81.5 -64t-126.5 -53.5t-166 -20q-78 0 -148 17.5t-133 57.5t-109 99.5 t-73 148t-27 197.5zM193 526q0 -206 103.5 -324t311.5 -118q97 0 184.5 33.5t151 103.5t76.5 164v291q-22 126 -133.5 206.5t-272.5 80.5q-202 0 -311.5 -123t-109.5 -314z" />
<glyph unicode="h" horiz-adv-x="1243" d="M154 0v1436h82v-666q49 120 169.5 197t292.5 77q402 0 402 -419v-625h-94v625q0 179 -77 260.5t-249 81.5q-149 0 -271 -93t-161 -264v-610h-94z" />
<glyph unicode="i" horiz-adv-x="442" d="M168 1157v94h106v-94h-106zM174 0v1012h94v-1012h-94z" />
<glyph unicode="j" horiz-adv-x="776" d="M10 -311l29 73q106 -79 223 -79q53 0 93.5 12.5t68 31.5t46.5 54.5t29 67t15.5 85.5t6.5 94.5t1 106.5v877h94v-875q0 -107 -7 -181.5t-29 -145.5t-60.5 -113t-102 -67t-153.5 -25q-150 0 -254 84zM516 1157v94h107v-94h-107z" />
<glyph unicode="k" horiz-adv-x="1079" d="M154 0v1401h90v-985l583 596h119l-422 -430q94 -33 160.5 -87.5t112.5 -140.5l190 -354h-102l-166 311q-44 82 -100.5 130t-153.5 79l-221 -227v-293h-90z" />
<glyph unicode="l" horiz-adv-x="630" d="M143 373v1028h95v-1030q0 -73 2.5 -116t11.5 -87.5t26.5 -67t48 -37t76.5 -14.5q92 0 148 39l29 -68q-78 -49 -195 -49q-63 0 -108 21.5t-70.5 55.5t-40 89t-19 108.5t-4.5 127.5z" />
<glyph unicode="m" horiz-adv-x="1714" d="M154 0v1012h82l10 -168q44 82 128 139t210 57q119 0 198.5 -63.5t104.5 -161.5q40 103 129.5 164t218.5 61q166 0 251 -98t85 -260v-682h-90v672q0 142 -63.5 216.5t-209.5 74.5q-123 0 -203.5 -88t-93.5 -218v-657h-86v680q0 129 -64 206t-192 77q-77 0 -140 -30.5 t-101.5 -78.5t-60 -102.5t-23.5 -108.5v-643h-90z" />
<glyph unicode="n" horiz-adv-x="1243" d="M154 0v1012h82l8 -221q58 113 173.5 183t280.5 70q402 0 402 -419v-625h-94v625q0 179 -77 260.5t-249 81.5q-69 0 -134.5 -20.5t-126 -61.5t-106 -112t-65.5 -163v-610h-94z" />
<glyph unicode="o" horiz-adv-x="1261" d="M102 506q0 255 140 396.5t387 141.5q246 0 388 -143t142 -395t-142 -395.5t-388 -143.5q-247 0 -387 142t-140 397zM193 506q0 -213 113 -337t323 -124q212 0 326 124t114 337t-114 337t-326 124q-210 0 -323 -124t-113 -337z" />
<glyph unicode="p" horiz-adv-x="1259" d="M154 -397v1409h77l11 -183q65 107 175.5 159t227.5 52q123 0 221 -40.5t161.5 -112.5t96.5 -168.5t33 -210.5q0 -116 -30.5 -213t-89.5 -169.5t-153 -113.5t-214 -41q-283 0 -426 213v-581h-90zM236 379q21 -138 135 -234t286 -96q90 0 161 25t117 67.5t76.5 102.5 t43 125t12.5 139q0 91 -25 171t-74.5 144.5t-133 102t-191.5 37.5q-166 0 -275.5 -97t-131.5 -235v-252z" />
<glyph unicode="q" horiz-adv-x="1259" d="M102 508q0 158 55.5 277t171 189t279.5 70q136 0 244 -56.5t166 -168.5l10 193h78v-1409h-90v583q-63 -102 -173 -158.5t-255 -56.5q-233 0 -359.5 147.5t-126.5 389.5zM193 508q0 -97 22 -177.5t67 -145t122.5 -100.5t181.5 -36q185 0 298.5 92t139.5 238v252 q-24 139 -133 237.5t-281 98.5q-107 0 -188.5 -35.5t-130.5 -98.5t-73.5 -145t-24.5 -180z" />
<glyph unicode="r" horiz-adv-x="894" d="M154 0v1012h73l13 -219q44 121 137.5 184t224.5 63q151 0 242 -82l-49 -71q-77 71 -213 71q-142 0 -229 -104.5t-105 -271.5v-582h-94z" />
<glyph unicode="s" horiz-adv-x="1013" d="M102 109l37 69q64 -59 159 -94t208 -35q315 0 315 193q0 40 -13 70t-31.5 49.5t-56 37.5t-67.5 28t-86 26q-23 7 -69 20t-75 21.5t-72 24.5t-71 31t-59.5 38t-50 48.5t-31 61t-12.5 76.5q0 71 31 124t86 84.5t123.5 46.5t150.5 15q199 0 336 -92l-37 -69q-130 84 -299 84 q-63 0 -114.5 -9.5t-95 -30.5t-67.5 -60t-24 -93q0 -99 111 -155q60 -30 235 -77q15 -4 25 -7q65 -19 107.5 -34.5t87 -40t70 -53t42 -70.5t16.5 -95q0 -133 -109.5 -202t-295.5 -69q-130 0 -235.5 37.5t-168.5 100.5z" />
<glyph unicode="t" horiz-adv-x="765" d="M113 911v78h131v318h78v-318h258v-78h-258v-479q0 -175 6 -222q15 -118 86 -148q30 -13 73 -13q92 0 148 39l29 -68q-78 -49 -195 -49q-51 0 -90 15t-64.5 34.5t-42.5 61.5t-26 73t-13.5 92t-5 96.5t-0.5 107.5v8.5v7v8.5v436h-114z" />
<glyph unicode="u" horiz-adv-x="1243" d="M143 399v613h95v-611q0 -185 74.5 -270.5t244.5 -85.5q171 0 285 89t153 245v633h95v-1012h-82l-4 215q-136 -248 -453 -248q-408 0 -408 432z" />
<glyph unicode="v" horiz-adv-x="1054" d="M82 1012h98l359 -922h4l336 922h94l-381 -1012h-107z" />
<glyph unicode="w" horiz-adv-x="1523" d="M82 1012h90l268 -934h4l267 852h114l262 -852h5l262 934h88l-291 -1012h-123l-260 840h-4l-258 -840h-129z" />
<glyph unicode="x" horiz-adv-x="1040" d="M82 0l369 524l-345 488h107l297 -426l299 426h102l-342 -484l389 -528h-106l-338 471l-326 -471h-106z" />
<glyph unicode="y" horiz-adv-x="1069" d="M82 1012h98l355 -920h2l352 920h98l-391 -994q-17 -42 -37 -96t-32.5 -89t-30 -76.5t-32 -67.5t-35 -52.5t-43 -41.5t-52.5 -24t-66 -9q-41 0 -84 11t-65 24l24 69q61 -26 115 -26q51 0 86.5 35.5t54.5 80.5t59 165q17 51 27 79z" />
<glyph unicode="z" horiz-adv-x="1142" d="M123 0v78l770 860h-727v74h838v-78l-775 -860h791v-74h-897z" />
<glyph unicode="{" horiz-adv-x="843" d="M102 618v91q43 0 75.5 11.5t52.5 35.5t32.5 49t18 65t7 71t1.5 77v203q0 222 115.5 323t347.5 101v-78q-195 0 -282 -79t-87 -267v-203q0 -72 -6 -123.5t-23.5 -101t-52.5 -81.5t-88 -46v-4q53 -16 88 -47.5t52.5 -80.5t23.5 -100.5t6 -124.5v-203q0 -188 87 -267 t282 -79v-77q-234 0 -348.5 99t-114.5 324v203q0 46 -1.5 77t-7 71t-18 65t-32.5 49t-52.5 35.5t-75.5 11.5z" />
<glyph unicode="|" horiz-adv-x="421" d="M164 -297v1939h94v-1939h-94z" />
<glyph unicode="}" horiz-adv-x="843" d="M92 -240q195 0 282 79t87 267v203q0 73 6 124.5t23.5 100.5t52.5 80.5t88 47.5v4q-53 14 -88 46t-52.5 81.5t-23.5 101t-6 123.5v203q0 188 -87 267t-282 79v78q232 0 347.5 -101t115.5 -323v-203q0 -40 1 -66.5t5 -61.5t11 -58.5t21 -49t33.5 -40t48.5 -24t66 -9.5v-91 q-37 0 -66 -9.5t-48.5 -24t-33.5 -40t-21 -49t-11 -58.5t-5 -61.5t-1 -66.5v-203q0 -225 -114.5 -324t-348.5 -99v77z" />
<glyph unicode="~" horiz-adv-x="1171" d="M113 532q111 160 317 160q52 0 100.5 -15.5t85 -38t70 -44.5t68 -37.5t65.5 -15.5q65 0 108 36.5t89 108.5l43 -53q-46 -82 -104 -126t-144 -44q-42 0 -83 15.5t-75 37.5t-68.5 44.5t-76.5 38t-86 15.5q-155 0 -262 -139z" />
<glyph unicode="&#xa1;" horiz-adv-x="430" d="M164 915v97h102v-97h-102zM168 -336l8 1102h78l8 -1102h-94z" />
<glyph unicode="&#xa2;" horiz-adv-x="1183" d="M113 506q0 231 137.5 377.5t359.5 158.5v181h78v-179q233 -9 373 -133l-43 -57q-65 58 -143 83t-187 30v-922q117 1 193.5 27t148.5 88l41 -56q-69 -71 -162.5 -101.5t-220.5 -35.5v-176h-78v178q-225 18 -361 157.5t-136 379.5zM203 506q0 -193 106 -317.5t301 -141.5 v918q-182 -12 -294.5 -139t-112.5 -320z" />
<glyph unicode="&#xa3;" horiz-adv-x="1095" d="M113 0v90q108 100 157 185t52.5 172.5t-21.5 195.5h-188v74h172q-6 23 -23.5 91.5t-23 92t-14.5 76t-7.5 82t8.5 69.5t23 76q41 97 134 138.5t206 41.5q180 0 305 -122l-41 -58q-64 54 -123 78.5t-141 24.5q-103 0 -165.5 -30.5t-96.5 -111.5q-16 -38 -19 -84.5 t7.5 -107.5t24.5 -115.5t40 -140.5h389v-74h-373q42 -179 3.5 -307.5t-175.5 -253.5h760v-82h-870z" />
<glyph unicode="&#xa4;" horiz-adv-x="1163" d="M113 184l178 213q-113 121 -113 289t113 289l-178 213l59 53l182 -219q96 61 228 61q131 0 227 -61l182 219l60 -53l-179 -213q113 -121 113 -289t-113 -289l179 -213l-60 -53l-182 219q-96 -61 -227 -61q-132 0 -228 61l-182 -219zM268 686q0 -140 79 -229.5t235 -89.5 q79 0 140 25t98 69.5t56 101t19 123.5q0 90 -32 160.5t-104.5 115t-176.5 44.5q-156 0 -235 -90t-79 -230z" />
<glyph unicode="&#xa5;" horiz-adv-x="1339" d="M113 1348h102l453 -711l452 711h107l-467 -717h274v-74h-319v-184h319v-74h-319v-299h-94v299h-324v74h324v184h-324v74h278z" />
<glyph unicode="&#xa6;" horiz-adv-x="421" d="M164 -297v715h94v-715h-94zM164 928v714h94v-714h-94z" />
<glyph unicode="&#xa7;" horiz-adv-x="1021" d="M113 573q0 84 47.5 142t132.5 88q-180 95 -180 274q0 98 54.5 165t142.5 96.5t202 29.5q96 0 197 -21.5t170 -60.5l-31 -72q-146 76 -334 76q-307 0 -307 -213q0 -57 24 -100.5t64.5 -71.5t93.5 -50t111 -39l116 -34t111 -40.5t93.5 -54t64.5 -78t24 -109.5 q0 -84 -47.5 -142t-132.5 -88q180 -95 180 -274q0 -98 -54.5 -165t-142.5 -96.5t-202 -29.5q-96 0 -197 21.5t-170 60.5l31 72q146 -76 334 -76q307 0 307 213q0 57 -24 101t-64.5 72t-93.5 49t-111 37.5t-116 33.5t-111 40t-93.5 53.5t-64.5 79t-24 111.5zM203 582 q0 -29 7 -53t16.5 -41.5t29.5 -33.5t35.5 -26t46 -22.5t49.5 -19t57 -18.5q20 -7 31 -10q25 -7 81.5 -25t90.5 -28q83 23 127.5 73t44.5 114q0 39 -13.5 70t-32.5 50.5t-56 38.5t-65.5 29t-79.5 27q-17 5 -25 8q-25 7 -81.5 25t-90.5 28q-83 -23 -127.5 -72.5t-44.5 -113.5z " />
<glyph unicode="&#xa8;" horiz-adv-x="1529" d="M535 1509v115h118v-115h-118zM877 1509v115h118v-115h-118z" />
<glyph unicode="&#xa9;" horiz-adv-x="1640" d="M113 674q0 144 49 271.5t137.5 223t223 151.5t296.5 56t297 -56t224.5 -151.5t138.5 -223t49 -271.5t-49 -271.5t-138.5 -223.5t-224.5 -152t-297 -56t-296.5 56t-223 152t-137.5 223.5t-49 271.5zM195 674q0 -191 82 -335.5t223 -219t319 -74.5q180 0 321.5 75 t223.5 219t82 335t-82 335t-223.5 219t-321.5 75q-178 0 -319 -74.5t-223 -219t-82 -335.5zM401 668q0 197 113 310.5t311 113.5q209 0 328 -113l-39 -59q-56 50 -125 72t-164 22q-157 0 -245 -94t-88 -252q0 -160 84.5 -252t259.5 -92q101 0 163 21.5t123 76.5l39 -60 q-116 -116 -325 -116q-122 0 -218.5 45.5t-156.5 142.5t-60 234z" />
<glyph unicode="&#xaa;" horiz-adv-x="827" d="M113 887q0 101 76 152t206 51q71 0 138 -19t104 -41v84q0 109 -48 159t-177 50q-136 0 -224 -63l-32 53q99 76 256 76q159 0 231 -65t72 -212v-416h-62l-10 97q-100 -111 -289 -111q-104 0 -172.5 50.5t-68.5 154.5zM182 887q0 -144 195 -144q174 0 264 131v91 q-103 63 -244 63q-215 0 -215 -141z" />
<glyph unicode="&#xab;" horiz-adv-x="1153" d="M113 557v74l559 483v-100l-482 -418v-4l482 -418v-100zM481 557v74l559 483v-100l-481 -418v-4l481 -418v-100z" />
<glyph unicode="&#xac;" horiz-adv-x="1198" d="M113 610v82h972v-426h-94v344h-878z" />
<glyph unicode="&#xad;" horiz-adv-x="876" d="M113 494v77h651v-77h-651z" />
<glyph unicode="&#xae;" horiz-adv-x="1640" d="M113 674q0 144 49 271.5t137.5 223t223 151.5t296.5 56t297 -56t224.5 -151.5t138.5 -223t49 -271.5t-49 -271.5t-138.5 -223.5t-224.5 -152t-297 -56t-296.5 56t-223 152t-137.5 223.5t-49 271.5zM195 674q0 -191 82 -335.5t223 -219t319 -74.5q180 0 321.5 75 t223.5 219t82 335t-82 335t-223.5 219t-321.5 75q-178 0 -319 -74.5t-223 -219t-82 -335.5zM516 264v823h365q134 0 212 -59t78 -174q0 -99 -59 -153t-149 -62q81 -31 116.5 -80t48.5 -135l23 -160h-96l-23 160q-12 88 -68 138t-141 50h-213v-348h-94zM606 688h230 q58 0 99 6.5t76 24t52.5 51.5t17.5 84q0 40 -12 69t-31.5 46t-52 27t-67 13t-82.5 3h-230v-324z" />
<glyph unicode="&#xb0;" horiz-adv-x="835" d="M113 1352q0 133 84.5 211.5t220.5 78.5t220.5 -78.5t84.5 -211.5q0 -131 -86.5 -211t-218.5 -80q-135 0 -220 79t-85 212zM190 1352q0 -104 61.5 -163t166.5 -59t166 59t61 163q0 105 -61 163t-166 58t-166.5 -58t-61.5 -163z" />
<glyph unicode="&#xb1;" horiz-adv-x="897" d="M113 598v78h290v313h91v-313h290v-78h-290v-297h-91v297h-290zM123 119v78h651v-78h-651z" />
<glyph unicode="&#xb2;" horiz-adv-x="753" d="M113 612q0 68 10.5 118t37.5 99t78.5 89.5t129.5 76.5q98 47 138 81.5t40 90.5q0 67 -44 94t-124 27q-123 0 -217 -94l-31 59q42 49 108.5 77t139.5 28q250 0 250 -191q0 -23 -4 -43t-14.5 -38t-19.5 -32t-27.5 -28.5t-30 -24t-35.5 -23t-35.5 -19.5t-39 -19t-36.5 -18 q-188 -92 -188 -240h442v-70h-528z" />
<glyph unicode="&#xb3;" horiz-adv-x="765" d="M113 692l28 62q96 -80 230 -80q200 0 200 143q0 29 -9 51.5t-21.5 37t-35.5 24.5t-41 15t-48 7.5t-46 3t-46 0.5v70q37 0 60.5 1.5t58 9t55 21.5t36 42t15.5 67q0 66 -44.5 93.5t-127.5 27.5q-118 0 -199 -74l-37 54q41 42 104 66t132 24q114 0 184 -46t70 -145 q0 -77 -48 -122.5t-96 -51.5v-2q166 -35 166 -174q0 -103 -75.5 -158t-206.5 -55q-160 0 -258 88z" />
<glyph unicode="&#xb4;" horiz-adv-x="1529" d="M662 1468l98 338h106l-131 -338h-73z" />
<glyph unicode="&#xb5;" horiz-adv-x="1253" d="M154 -512v1524h94v-611q0 -174 80.5 -265t238.5 -91q171 0 285.5 89t153.5 245v633h94v-1012h-82l-4 215q-136 -248 -453 -248q-110 0 -196 44t-123 126v-649h-88z" />
<glyph unicode="&#xb6;" horiz-adv-x="1263" d="M113 1108q0 64 24 112t65.5 75t91 40t107.5 13h750v-82h-154v-1823h-94v1823h-254v-1821h-94v1413h-154q-58 0 -107.5 13.5t-91 41.5t-65.5 78t-24 117z" />
<glyph unicode="&#xb7;" horiz-adv-x="356" d="M113 578v122h131v-122h-131z" />
<glyph unicode="&#xb8;" horiz-adv-x="1529" d="M569 -489l17 73q65 -33 141 -33q71 0 110.5 38.5t39.5 105.5q0 63 -35.5 95.5t-106.5 45.5l45 164h86l-39 -133q68 -26 102 -65.5t34 -112.5q0 -94 -63.5 -152.5t-182.5 -58.5q-84 0 -148 33z" />
<glyph unicode="&#xb9;" horiz-adv-x="512" d="M113 1194l206 154h80v-736h-82v648l-170 -123z" />
<glyph unicode="&#xba;" horiz-adv-x="933" d="M113 1034q0 156 96 254t258 98t258 -98t96 -254q0 -157 -95 -255.5t-259 -98.5t-259 98.5t-95 255.5zM190 1034q0 -133 72 -211t205 -78t204.5 78t71.5 211q0 136 -72.5 211.5t-203.5 75.5t-204 -75.5t-73 -211.5z" />
<glyph unicode="&#xbb;" horiz-adv-x="1153" d="M113 74v100l481 418v4l-481 418v100l559 -483v-74zM481 74v100l482 418v4l-482 418v100l559 -483v-74z" />
<glyph unicode="&#xbc;" horiz-adv-x="1345" d="M113 1194l206 154h80v-736h-82v648l-170 -123zM195 0l852 1348h98l-852 -1348h-98zM653 178v76l383 481h97v-491h100v-66h-100v-178h-78v178h-402zM731 244h328v413z" />
<glyph unicode="&#xbd;" horiz-adv-x="1488" d="M113 1194l206 154h80v-736h-82v648l-170 -123zM195 0l852 1348h98l-852 -1348h-98zM848 0q0 68 10.5 118t37.5 99t78.5 89.5t129.5 76.5q98 47 138 81.5t40 90.5q0 67 -44 94t-124 27q-123 0 -217 -94l-31 59q42 49 108.5 76.5t139.5 27.5q250 0 250 -190q0 -23 -4 -43 t-14.5 -38t-19.5 -32t-28 -29t-29.5 -24t-35.5 -23t-35.5 -19.5t-39 -19.5t-36.5 -18q-188 -92 -188 -239h442v-70h-528z" />
<glyph unicode="&#xbe;" horiz-adv-x="1484" d="M113 692l28 62q96 -80 230 -80q200 0 200 143q0 29 -9 51.5t-21.5 37t-35.5 24.5t-41 15t-48 7.5t-46 3t-46 0.5v70q37 0 60.5 1.5t58 9t55 21.5t36 42t15.5 67q0 66 -44.5 93.5t-127.5 27.5q-118 0 -199 -74l-37 54q41 42 104 66t132 24q114 0 184 -46t70 -145 q0 -77 -48 -122.5t-96 -51.5v-2q166 -35 166 -174q0 -103 -75.5 -158t-206.5 -55q-160 0 -258 88zM338 0l852 1348h98l-852 -1348h-98zM793 178v76l383 481h96v-491h100v-66h-100v-178h-78v178h-401zM870 244h328v413z" />
<glyph unicode="&#xbf;" horiz-adv-x="927" d="M113 -63q0 56 18.5 103t47.5 81.5t65 68.5t71.5 73t64.5 86t47.5 116.5t18.5 155.5v90h95v-90q0 -90 -18.5 -164.5t-48 -125t-65 -93t-71 -76.5t-65 -66.5t-48 -72.5t-18.5 -86q0 -113 62.5 -168.5t205.5 -55.5q181 0 299 131l51 -59q-54 -63 -144.5 -106.5t-205.5 -43.5 q-169 0 -265.5 72.5t-96.5 229.5zM440 915v97h107v-97h-107z" />
<glyph unicode="&#xc0;" horiz-adv-x="1341" d="M61 0l543 1348h119l557 -1348h-102l-142 350h-733l-141 -350h-101zM336 432h668l-336 825h-9zM492 1779h106l98 -338h-73z" />
<glyph unicode="&#xc1;" horiz-adv-x="1341" d="M61 0l543 1348h119l557 -1348h-102l-142 350h-733l-141 -350h-101zM336 432h668l-336 825h-9zM631 1442l98 338h107l-131 -338h-74z" />
<glyph unicode="&#xc2;" horiz-adv-x="1341" d="M61 0l543 1348h119l557 -1348h-102l-142 350h-733l-141 -350h-101zM336 432h668l-336 825h-9zM385 1442l231 342h103l223 -342h-98l-174 276h-4l-183 -276h-98z" />
<glyph unicode="&#xc3;" horiz-adv-x="1341" d="M61 0l543 1348h119l557 -1348h-102l-142 350h-733l-141 -350h-101zM293 1528q34 66 98.5 107.5t147.5 41.5q48 0 92 -20t71 -43.5t62 -43.5t68 -20q38 0 68.5 18t47 38.5t42.5 60.5l47 -43q-29 -64 -81.5 -108t-127.5 -44q-45 0 -86 20t-66.5 43.5t-63.5 43.5t-77 20 q-69 0 -112.5 -28t-82.5 -84zM336 432h668l-336 825h-9z" />
<glyph unicode="&#xc4;" horiz-adv-x="1341" d="M61 0l543 1348h119l557 -1348h-102l-142 350h-733l-141 -350h-101zM336 432h668l-336 825h-9zM432 1473v114h119v-114h-119zM774 1473v114h119v-114h-119z" />
<glyph unicode="&#xc5;" horiz-adv-x="1341" d="M61 0l527 1305q-53 20 -82 65t-29 103q0 77 51.5 128.5t135.5 51.5q85 0 135.5 -50.5t50.5 -129.5q0 -60 -28.5 -104t-82.5 -64l541 -1305h-102l-142 350h-733l-141 -350h-101zM336 432h668l-336 825h-9zM547 1473q0 -55 32 -85t85 -30q51 0 83.5 30t32.5 85t-32 84.5 t-84 29.5q-53 0 -85 -29.5t-32 -84.5z" />
<glyph unicode="&#xc6;" horiz-adv-x="1882" d="M61 0l732 1348h942v-82h-799v-523h614v-81h-614v-580h803v-82h-897v350h-484l-190 -350h-107zM399 432h443v825z" />
<glyph unicode="&#xc7;" horiz-adv-x="1454" d="M113 672q0 206 82.5 364t241 247t370.5 89q197 0 318 -55t214 -158l-49 -57q-42 44 -81.5 74t-96.5 58t-133 42t-172 14q-127 0 -235 -38.5t-191 -113t-130.5 -194.5t-47.5 -272t47.5 -272t131.5 -195t193 -113.5t236 -38.5q101 0 179.5 14.5t135 44t92 58.5t76.5 72 l47 -56q-157 -201 -485 -213l-31 -106q68 -26 102 -65.5t34 -112.5q0 -94 -63.5 -152.5t-182.5 -58.5q-84 0 -148 33l17 73q65 -33 141 -33q71 0 110 38.5t39 105.5q0 63 -35 95.5t-106 45.5l37 137q-308 12 -482.5 203t-174.5 496z" />
<glyph unicode="&#xc8;" horiz-adv-x="1245" d="M164 0v1348h934v-82h-840v-523h655v-81h-655v-580h844v-82h-938zM479 1780h107l98 -338h-74z" />
<glyph unicode="&#xc9;" horiz-adv-x="1245" d="M164 0v1348h934v-82h-840v-523h655v-81h-655v-580h844v-82h-938zM596 1442l98 338h107l-131 -338h-74z" />
<glyph unicode="&#xca;" horiz-adv-x="1245" d="M164 0v1348h934v-82h-840v-523h655v-81h-655v-580h844v-82h-938zM354 1442l232 342h102l223 -342h-98l-174 276h-4l-182 -276h-99z" />
<glyph unicode="&#xcb;" horiz-adv-x="1245" d="M164 0v1348h934v-82h-840v-523h655v-81h-655v-580h844v-82h-938zM403 1473v114h119v-114h-119zM745 1473v114h119v-114h-119z" />
<glyph unicode="&#xcc;" horiz-adv-x="462" d="M61 1780h107l98 -338h-73zM184 0v1348h95v-1348h-95z" />
<glyph unicode="&#xcd;" horiz-adv-x="462" d="M184 0v1348h95v-1348h-95zM197 1442l98 338h106l-131 -338h-73z" />
<glyph unicode="&#xce;" horiz-adv-x="462" d="M-47 1442l231 342h103l223 -342h-98l-174 276h-5l-182 -276h-98zM184 0v1348h95v-1348h-95z" />
<glyph unicode="&#xcf;" horiz-adv-x="462" d="M2 1473v114h119v-114h-119zM184 0v1348h95v-1348h-95zM344 1473v114h119v-114h-119z" />
<glyph unicode="&#xd0;" horiz-adv-x="1591" d="M113 629v82h235v637h524q153 0 271 -51.5t190.5 -143.5t109 -212.5t36.5 -266.5q0 -113 -22.5 -212.5t-71 -184.5t-118.5 -146.5t-170.5 -96t-222.5 -34.5h-526v629h-235zM442 82h432q105 0 191 31t144.5 84.5t98.5 129t58 162t18 185.5q0 125 -28.5 229t-87.5 187 t-159.5 129.5t-234.5 46.5h-432v-555h371v-82h-371v-547z" />
<glyph unicode="&#xd1;" horiz-adv-x="1427" d="M164 0v1348h106l899 -1219v1219h95v-1348h-107l-899 1221v-1221h-94zM338 1528q34 66 98.5 107.5t147.5 41.5q48 0 92 -20t71 -43.5t62 -43.5t68 -20q29 0 51.5 8.5t42.5 27.5t31.5 35t31.5 46l47 -43q-29 -63 -81.5 -107t-127.5 -44q-45 0 -85.5 19.5t-66.5 43.5 t-63 43.5t-77 19.5q-69 0 -112.5 -28t-82.5 -84z" />
<glyph unicode="&#xd2;" horiz-adv-x="1529" d="M113 672q0 148 41.5 274.5t121 223t205 151.5t283.5 55q157 0 282.5 -55t205.5 -151.5t122.5 -223.5t42.5 -274q0 -146 -42.5 -272t-122.5 -222.5t-205.5 -151.5t-282.5 -55q-127 0 -233.5 36t-183 100t-129.5 152t-79 192.5t-26 220.5zM207 672q0 -283 148.5 -451 t408.5 -168t409.5 168.5t149.5 450.5q0 185 -66 325.5t-193.5 218.5t-299.5 78q-259 0 -408 -170t-149 -452zM600 1780h107l98 -338h-74z" />
<glyph unicode="&#xd3;" horiz-adv-x="1529" d="M113 672q0 148 41.5 274.5t121 223t205 151.5t283.5 55q157 0 282.5 -55t205.5 -151.5t122.5 -223.5t42.5 -274q0 -146 -42.5 -272t-122.5 -222.5t-205.5 -151.5t-282.5 -55q-127 0 -233.5 36t-183 100t-129.5 152t-79 192.5t-26 220.5zM207 672q0 -283 148.5 -451 t408.5 -168t409.5 168.5t149.5 450.5q0 185 -66 325.5t-193.5 218.5t-299.5 78q-259 0 -408 -170t-149 -452zM723 1442l98 338h107l-131 -338h-74z" />
<glyph unicode="&#xd4;" horiz-adv-x="1529" d="M113 672q0 148 41.5 274.5t121 223t205 151.5t283.5 55q157 0 282.5 -55t205.5 -151.5t122.5 -223.5t42.5 -274q0 -146 -42.5 -272t-122.5 -222.5t-205.5 -151.5t-282.5 -55q-127 0 -233.5 36t-183 100t-129.5 152t-79 192.5t-26 220.5zM207 672q0 -283 148.5 -451 t408.5 -168t409.5 168.5t149.5 450.5q0 185 -66 325.5t-193.5 218.5t-299.5 78q-259 0 -408 -170t-149 -452zM485 1442l232 342h102l223 -342h-98l-174 276h-4l-182 -276h-99z" />
<glyph unicode="&#xd5;" horiz-adv-x="1529" d="M113 672q0 148 41.5 274.5t121 223t205 151.5t283.5 55q157 0 282.5 -55t205.5 -151.5t122.5 -223.5t42.5 -274q0 -146 -42.5 -272t-122.5 -222.5t-205.5 -151.5t-282.5 -55q-127 0 -233.5 36t-183 100t-129.5 152t-79 192.5t-26 220.5zM207 672q0 -283 148.5 -451 t408.5 -168t409.5 168.5t149.5 450.5q0 185 -66 325.5t-193.5 218.5t-299.5 78q-259 0 -408 -170t-149 -452zM393 1528q34 66 98.5 107.5t147.5 41.5q48 0 92 -20t71 -43.5t62 -43.5t68 -20q38 0 68.5 18t47 38.5t42.5 60.5l47 -43q-29 -63 -81.5 -107t-127.5 -44 q-37 0 -70 13t-58 31.5t-49 37t-53.5 31.5t-62.5 13q-69 0 -112.5 -28t-82.5 -84z" />
<glyph unicode="&#xd6;" horiz-adv-x="1529" d="M113 672q0 148 41.5 274.5t121 223t205 151.5t283.5 55q157 0 282.5 -55t205.5 -151.5t122.5 -223.5t42.5 -274q0 -146 -42.5 -272t-122.5 -222.5t-205.5 -151.5t-282.5 -55q-127 0 -233.5 36t-183 100t-129.5 152t-79 192.5t-26 220.5zM207 672q0 -283 148.5 -451 t408.5 -168t409.5 168.5t149.5 450.5q0 185 -66 325.5t-193.5 218.5t-299.5 78q-259 0 -408 -170t-149 -452zM535 1472v115h118v-115h-118zM877 1472v115h118v-115h-118z" />
<glyph unicode="&#xd7;" horiz-adv-x="833" d="M113 760l57 55l246 -248l248 248l57 -55l-250 -248l248 -248l-55 -53l-248 246l-246 -246l-55 53l245 248z" />
<glyph unicode="&#xd8;" horiz-adv-x="1529" d="M113 672q0 155 41.5 283t121.5 222.5t204.5 146.5t283.5 52q101 0 203 -26l53 147h94l-65 -174q181 -77 274.5 -247t93.5 -404q0 -207 -72.5 -363t-221.5 -247t-359 -91q-108 0 -203 25l-55 -152h-94l65 181q-180 77 -272 245.5t-92 401.5zM207 672q0 -214 77 -358 t224 -210l430 1168q-86 22 -174 22q-264 0 -410.5 -163.5t-146.5 -458.5zM590 74q76 -21 174 -21q265 0 412 162t147 457q0 213 -77.5 359t-225.5 212z" />
<glyph unicode="&#xd9;" horiz-adv-x="1406" d="M154 498v850h94v-873q0 -194 113 -309t341 -115q116 0 205 32.5t143.5 90.5t81.5 134t27 167v873h94v-850q0 -241 -141 -385t-410 -144t-408.5 144t-139.5 385zM549 1779h106l98 -338h-73z" />
<glyph unicode="&#xda;" horiz-adv-x="1406" d="M154 498v850h94v-873q0 -194 113 -309t341 -115q116 0 205 32.5t143.5 90.5t81.5 134t27 167v873h94v-850q0 -241 -141 -385t-410 -144t-408.5 144t-139.5 385zM664 1442l98 338h106l-131 -338h-73z" />
<glyph unicode="&#xdb;" horiz-adv-x="1406" d="M154 498v850h94v-873q0 -194 113 -309t341 -115q116 0 205 32.5t143.5 90.5t81.5 134t27 167v873h94v-850q0 -241 -141 -385t-410 -144t-408.5 144t-139.5 385zM424 1442l231 342h103l223 -342h-98l-174 276h-4l-183 -276h-98z" />
<glyph unicode="&#xdc;" horiz-adv-x="1406" d="M154 498v850h94v-873q0 -194 113 -309t341 -115q116 0 205 32.5t143.5 90.5t81.5 134t27 167v873h94v-850q0 -241 -141 -385t-410 -144t-408.5 144t-139.5 385zM473 1473v114h119v-114h-119zM815 1473v114h119v-114h-119z" />
<glyph unicode="&#xdd;" horiz-adv-x="1277" d="M82 1348h102l453 -793l453 793h106l-514 -887v-461h-94v461zM596 1442l98 338h107l-131 -338h-74z" />
<glyph unicode="&#xde;" horiz-adv-x="1308" d="M164 0v1348h94v-232h483q93 0 173 -24t144 -71t101 -126t37 -182q0 -104 -36 -183.5t-99.5 -126.5t-143 -70.5t-172.5 -23.5h-487v-309h-94zM254 391h446q201 0 303.5 76.5t102.5 245.5q0 321 -410 321h-442v-643z" />
<glyph unicode="&#xdf;" horiz-adv-x="1253" d="M154 0v872q0 114 23.5 200.5t75 152t139 99.5t210.5 34q212 0 324 -100.5t112 -270.5q0 -112 -62.5 -182.5t-168.5 -89.5v-2q41 -8 80.5 -21.5t89.5 -42.5t86.5 -68t62 -102t25.5 -141q0 -178 -113.5 -281.5t-306.5 -103.5l-20 82q170 0 258 80t88 223q0 150 -99 232.5 t-280 103.5v78q266 24 266 235q0 77 -26.5 134.5t-74 90.5t-107.5 48.5t-134 15.5q-183 0 -268.5 -97t-85.5 -307v-872h-94z" />
<glyph unicode="&#xe0;" horiz-adv-x="1134" d="M102 281q0 149 110.5 224t291.5 75q106 0 213 -27.5t184 -63.5v154q0 169 -79.5 244.5t-274.5 75.5q-176 0 -311 -93l-41 72q151 98 352 98q229 0 336.5 -94.5t107.5 -302.5v-643h-76l-8 152q-59 -78 -164.5 -129.5t-238.5 -51.5q-194 0 -298 83t-104 227zM188 281 q0 -120 83.5 -178t236.5 -58q134 0 243 59t154 150v158q-76 42 -186 68t-215 26q-66 0 -120 -11.5t-99.5 -36t-71 -70t-25.5 -107.5zM430 1479h107l98 -338h-74z" />
<glyph unicode="&#xe1;" horiz-adv-x="1134" d="M102 281q0 149 110.5 224t291.5 75q106 0 213 -27.5t184 -63.5v154q0 169 -79.5 244.5t-274.5 75.5q-176 0 -311 -93l-41 72q151 98 352 98q229 0 336.5 -94.5t107.5 -302.5v-643h-76l-8 152q-59 -78 -164.5 -129.5t-238.5 -51.5q-194 0 -298 83t-104 227zM188 281 q0 -120 83.5 -178t236.5 -58q134 0 243 59t154 150v158q-76 42 -186 68t-215 26q-66 0 -120 -11.5t-99.5 -36t-71 -70t-25.5 -107.5zM537 1141l98 338h106l-131 -338h-73z" />
<glyph unicode="&#xe2;" horiz-adv-x="1134" d="M102 281q0 149 110.5 224t291.5 75q106 0 213 -27.5t184 -63.5v154q0 169 -79.5 244.5t-274.5 75.5q-176 0 -311 -93l-41 72q151 98 352 98q229 0 336.5 -94.5t107.5 -302.5v-643h-76l-8 152q-59 -78 -164.5 -129.5t-238.5 -51.5q-194 0 -298 83t-104 227zM188 281 q0 -120 83.5 -178t236.5 -58q134 0 243 59t154 150v158q-76 42 -186 68t-215 26q-66 0 -120 -11.5t-99.5 -36t-71 -70t-25.5 -107.5zM286 1141l232 342h102l223 -342h-98l-174 276h-4l-182 -276h-99z" />
<glyph unicode="&#xe3;" horiz-adv-x="1134" d="M102 281q0 149 110.5 224t291.5 75q106 0 213 -27.5t184 -63.5v154q0 169 -79.5 244.5t-274.5 75.5q-176 0 -311 -93l-41 72q151 98 352 98q229 0 336.5 -94.5t107.5 -302.5v-643h-76l-8 152q-59 -78 -164.5 -129.5t-238.5 -51.5q-194 0 -298 83t-104 227zM188 281 q0 -120 83.5 -178t236.5 -58q134 0 243 59t154 150v158q-76 42 -186 68t-215 26q-66 0 -120 -11.5t-99.5 -36t-71 -70t-25.5 -107.5zM194 1227q34 66 98.5 107.5t147.5 41.5q48 0 92 -20t71 -43.5t62 -43.5t68 -20q38 0 68.5 18t47 38.5t42.5 60.5l47 -43 q-29 -64 -81.5 -108t-127.5 -44q-45 0 -86 20t-66.5 43.5t-63.5 43.5t-77 20q-69 0 -112.5 -28t-82.5 -84z" />
<glyph unicode="&#xe4;" horiz-adv-x="1134" d="M102 281q0 149 110.5 224t291.5 75q106 0 213 -27.5t184 -63.5v154q0 169 -79.5 244.5t-274.5 75.5q-176 0 -311 -93l-41 72q151 98 352 98q229 0 336.5 -94.5t107.5 -302.5v-643h-76l-8 152q-59 -78 -164.5 -129.5t-238.5 -51.5q-194 0 -298 83t-104 227zM188 281 q0 -120 83.5 -178t236.5 -58q134 0 243 59t154 150v158q-76 42 -186 68t-215 26q-66 0 -120 -11.5t-99.5 -36t-71 -70t-25.5 -107.5zM340 1171v115h119v-115h-119zM682 1171v115h119v-115h-119z" />
<glyph unicode="&#xe5;" horiz-adv-x="1134" d="M102 281q0 149 110.5 224t291.5 75q106 0 213 -27.5t184 -63.5v154q0 169 -79.5 244.5t-274.5 75.5q-176 0 -311 -93l-41 72q151 98 352 98q229 0 336.5 -94.5t107.5 -302.5v-643h-76l-8 152q-59 -78 -164.5 -129.5t-238.5 -51.5q-194 0 -298 83t-104 227zM188 281 q0 -120 83.5 -178t236.5 -58q134 0 243 59t154 150v158q-76 42 -186 68t-215 26q-66 0 -120 -11.5t-99.5 -36t-71 -70t-25.5 -107.5zM393 1311q0 77 51.5 128.5t135.5 51.5q85 0 135.5 -50.5t50.5 -129.5t-50.5 -130t-135.5 -51q-84 0 -135.5 52t-51.5 129zM463 1311 q0 -55 32 -85t85 -30q51 0 83.5 30t32.5 85t-32 84.5t-84 29.5q-53 0 -85 -29.5t-32 -84.5z" />
<glyph unicode="&#xe6;" horiz-adv-x="1937" d="M102 281q0 148 111.5 223.5t290.5 75.5q196 0 381 -95v158q0 86 -15.5 143t-53.5 98.5t-104 60t-165 18.5q-176 0 -311 -93l-41 72q151 98 352 98q345 0 403 -231q54 110 160.5 170.5t247.5 60.5q239 0 360 -146t115 -415h-858q0 -89 22 -164.5t67.5 -136t123.5 -95 t182 -34.5q252 0 367 135l49 -53q-138 -160 -416 -160q-153 0 -262.5 64.5t-163.5 183.5q-47 -109 -160.5 -178.5t-273.5 -69.5q-195 0 -301.5 79t-106.5 231zM188 281q0 -119 84.5 -177.5t235.5 -58.5q149 0 249.5 70t131.5 178v115q-192 98 -381 98q-66 0 -120.5 -11.5 t-101 -36t-72.5 -70t-26 -107.5zM975 553h768q-13 203 -103.5 306.5t-285.5 103.5q-344 0 -379 -410z" />
<glyph unicode="&#xe7;" horiz-adv-x="1163" d="M102 506q0 245 150.5 391.5t390.5 146.5q263 0 408 -133l-43 -57q-70 61 -157 87t-208 26q-198 0 -324 -128.5t-126 -332.5q0 -206 120.5 -333.5t341.5 -127.5q128 0 211 25.5t154 89.5l41 -56q-125 -125 -369 -135l-28 -102q68 -26 101.5 -65.5t33.5 -112.5 q0 -94 -63.5 -152.5t-182.5 -58.5q-83 0 -147 33l16 73q65 -33 141 -33q71 0 110.5 38.5t39.5 105.5q0 63 -35.5 95.5t-106.5 45.5l35 133q-227 12 -365.5 153.5t-138.5 383.5z" />
<glyph unicode="&#xe8;" horiz-adv-x="1208" d="M102 500q0 255 133.5 397.5t387.5 142.5q239 0 362.5 -146.5t118.5 -414.5h-911q-2 -86 23 -161.5t76.5 -136.5t139.5 -96.5t203 -35.5q258 0 373 135l49 -53q-138 -160 -422 -160q-253 0 -393 140.5t-140 388.5zM193 553h821q-16 410 -396 410q-390 0 -425 -410z M449 1479h106l98 -338h-73z" />
<glyph unicode="&#xe9;" horiz-adv-x="1208" d="M102 500q0 255 133.5 397.5t387.5 142.5q239 0 362.5 -146.5t118.5 -414.5h-911q-2 -86 23 -161.5t76.5 -136.5t139.5 -96.5t203 -35.5q258 0 373 135l49 -53q-138 -160 -422 -160q-253 0 -393 140.5t-140 388.5zM193 553h821q-16 410 -396 410q-390 0 -425 -410z M573 1141l99 338h106l-131 -338h-74z" />
<glyph unicode="&#xea;" horiz-adv-x="1208" d="M102 500q0 255 133.5 397.5t387.5 142.5q239 0 362.5 -146.5t118.5 -414.5h-911q-2 -86 23 -161.5t76.5 -136.5t139.5 -96.5t203 -35.5q258 0 373 135l49 -53q-138 -160 -422 -160q-253 0 -393 140.5t-140 388.5zM193 553h821q-16 410 -396 410q-390 0 -425 -410z M327 1141l232 342h102l223 -342h-98l-174 276h-4l-182 -276h-99z" />
<glyph unicode="&#xeb;" horiz-adv-x="1208" d="M102 500q0 255 133.5 397.5t387.5 142.5q239 0 362.5 -146.5t118.5 -414.5h-911q-2 -86 23 -161.5t76.5 -136.5t139.5 -96.5t203 -35.5q258 0 373 135l49 -53q-138 -160 -422 -160q-253 0 -393 140.5t-140 388.5zM193 553h821q-16 410 -396 410q-390 0 -425 -410z M377 1171v115h119v-115h-119zM719 1171v115h119v-115h-119z" />
<glyph unicode="&#xec;" horiz-adv-x="442" d="M51 1479h107l98 -338h-74zM174 0v1012h94v-1012h-94z" />
<glyph unicode="&#xed;" horiz-adv-x="442" d="M174 0v1012h94v-1012h-94zM186 1141l99 338h106l-131 -338h-74z" />
<glyph unicode="&#xee;" horiz-adv-x="442" d="M-57 1141l231 342h102l224 -342h-99l-174 276h-4l-182 -276h-98zM174 0v1012h94v-1012h-94z" />
<glyph unicode="&#xef;" horiz-adv-x="442" d="M-8 1171v115h119v-115h-119zM174 0v1012h94v-1012h-94zM334 1171v115h119v-115h-119z" />
<glyph unicode="&#xf0;" horiz-adv-x="1228" d="M125 424q0 150 65.5 256t173 155.5t246.5 49.5q164 0 274.5 -76t149.5 -193q0 530 -336 687l-221 -201l-55 55l192 176q-181 53 -430 19l13 69q281 42 481 -30l119 108l59 -55l-96 -88q356 -184 356 -740q0 -326 -127.5 -485.5t-392.5 -159.5q-219 0 -345 129.5 t-126 323.5zM215 422q0 -170 109 -271.5t272 -101.5q184 0 292.5 97t108.5 276q0 178 -107.5 281.5t-281.5 103.5q-175 0 -284 -99t-109 -286z" />
<glyph unicode="&#xf1;" horiz-adv-x="1243" d="M154 0v1012h82l8 -221q58 113 173.5 183t280.5 70q402 0 402 -419v-625h-94v625q0 179 -77 260.5t-249 81.5q-69 0 -134.5 -20.5t-126 -61.5t-106 -112t-65.5 -163v-610h-94zM262 1227q34 66 98.5 107.5t147.5 41.5q48 0 92 -20t71 -43.5t62 -43.5t68 -20q38 0 68.5 18 t47 38.5t42.5 60.5l47 -43q-29 -64 -81.5 -108t-127.5 -44q-45 0 -86 20t-66.5 43.5t-63 43.5t-77.5 20q-69 0 -112.5 -28t-82.5 -84z" />
<glyph unicode="&#xf2;" horiz-adv-x="1261" d="M102 506q0 255 140 396.5t387 141.5q246 0 388 -143t142 -395t-142 -395.5t-388 -143.5q-247 0 -387 142t-140 397zM193 506q0 -213 113 -337t323 -124q212 0 326 124t114 337t-114 337t-326 124q-210 0 -323 -124t-113 -337zM469 1479h106l99 -338h-74z" />
<glyph unicode="&#xf3;" horiz-adv-x="1261" d="M102 506q0 255 140 396.5t387 141.5q246 0 388 -143t142 -395t-142 -395.5t-388 -143.5q-247 0 -387 142t-140 397zM193 506q0 -213 113 -337t323 -124q212 0 326 124t114 337t-114 337t-326 124q-210 0 -323 -124t-113 -337zM608 1141l99 338h106l-131 -338h-74z" />
<glyph unicode="&#xf4;" horiz-adv-x="1261" d="M102 506q0 255 140 396.5t387 141.5q246 0 388 -143t142 -395t-142 -395.5t-388 -143.5q-247 0 -387 142t-140 397zM193 506q0 -213 113 -337t323 -124q212 0 326 124t114 337t-114 337t-326 124q-210 0 -323 -124t-113 -337zM352 1141l232 342h102l223 -342h-98 l-174 276h-4l-182 -276h-99z" />
<glyph unicode="&#xf5;" horiz-adv-x="1261" d="M102 506q0 255 140 396.5t387 141.5q246 0 388 -143t142 -395t-142 -395.5t-388 -143.5q-247 0 -387 142t-140 397zM193 506q0 -213 113 -337t323 -124q212 0 326 124t114 337t-114 337t-326 124q-210 0 -323 -124t-113 -337zM256 1227q34 66 98.5 107.5t147.5 41.5 q48 0 92 -20t71 -43.5t62 -43.5t68 -20q29 0 51.5 8.5t42.5 27.5t31.5 35t31.5 46l47 -43q-29 -64 -81 -108t-127 -44q-45 0 -86 20t-66.5 43.5t-63 43.5t-77.5 20q-69 0 -112.5 -28t-82.5 -84z" />
<glyph unicode="&#xf6;" horiz-adv-x="1261" d="M102 506q0 255 140 396.5t387 141.5q246 0 388 -143t142 -395t-142 -395.5t-388 -143.5q-247 0 -387 142t-140 397zM193 506q0 -213 113 -337t323 -124q212 0 326 124t114 337t-114 337t-326 124q-210 0 -323 -124t-113 -337zM402 1171v115h118v-115h-118zM744 1171v115 h118v-115h-118z" />
<glyph unicode="&#xf7;" horiz-adv-x="876" d="M113 494v77h651v-77h-651zM381 209v110h115v-110h-115zM381 745v111h115v-111h-115z" />
<glyph unicode="&#xf8;" horiz-adv-x="1261" d="M102 506q0 255 140 396.5t387 141.5q70 0 145 -16l74 203h90l-84 -225q147 -56 226 -184t79 -316q0 -252 -142 -395.5t-388 -143.5q-70 0 -150 17l-76 -209h-90l86 233q-143 56 -220 183.5t-77 314.5zM193 506q0 -320 233 -422l319 870q-85 13 -116 13q-210 0 -323 -124 t-113 -337zM508 57q56 -12 121 -12q212 0 326 124t114 337q0 154 -62 263.5t-180 160.5z" />
<glyph unicode="&#xf9;" horiz-adv-x="1243" d="M143 399v613h95v-611q0 -185 74.5 -270.5t244.5 -85.5q171 0 285 89t153 245v633h95v-1012h-82l-4 215q-136 -248 -453 -248q-408 0 -408 432zM463 1478h106l98 -338h-73z" />
<glyph unicode="&#xfa;" horiz-adv-x="1243" d="M143 399v613h95v-611q0 -185 74.5 -270.5t244.5 -85.5q171 0 285 89t153 245v633h95v-1012h-82l-4 215q-136 -248 -453 -248q-408 0 -408 432zM573 1141l99 338h106l-131 -338h-74z" />
<glyph unicode="&#xfb;" horiz-adv-x="1243" d="M143 399v613h95v-611q0 -185 74.5 -270.5t244.5 -85.5q171 0 285 89t153 245v633h95v-1012h-82l-4 215q-136 -248 -453 -248q-408 0 -408 432zM348 1141l232 342h102l223 -342h-98l-174 276h-4l-182 -276h-99z" />
<glyph unicode="&#xfc;" horiz-adv-x="1243" d="M143 399v613h95v-611q0 -185 74.5 -270.5t244.5 -85.5q171 0 285 89t153 245v633h95v-1012h-82l-4 215q-136 -248 -453 -248q-408 0 -408 432zM401 1171v115h119v-115h-119zM743 1171v115h119v-115h-119z" />
<glyph unicode="&#xfd;" horiz-adv-x="1069" d="M82 1012h98l355 -920h2l352 920h98l-391 -994q-17 -42 -37 -96t-32.5 -89t-30 -76.5t-32 -67.5t-35 -52.5t-43 -41.5t-52.5 -24t-66 -9q-41 0 -84 11t-65 24l24 69q61 -26 115 -26q51 0 86.5 35.5t54.5 80.5t59 165q17 51 27 79zM500 1140l98 338h106l-131 -338h-73z" />
<glyph unicode="&#xfe;" horiz-adv-x="1255" d="M154 -397v1745h88v-519q65 107 175.5 159t227.5 52q123 0 221 -40.5t161.5 -112.5t96.5 -168.5t33 -210.5q0 -116 -30.5 -213t-89.5 -169.5t-153 -113.5t-214 -41q-283 0 -426 213v-581h-90zM236 379q21 -138 135 -234t286 -96q90 0 161 25t117 67.5t76.5 102.5t43 125 t12.5 139q0 91 -25 171t-74.5 144.5t-133 102t-191.5 37.5q-166 0 -275.5 -97t-131.5 -235v-252z" />
<glyph unicode="&#xff;" horiz-adv-x="1069" d="M82 1012h98l355 -920h2l352 920h98l-391 -994q-17 -42 -37 -96t-32.5 -89t-30 -76.5t-32 -67.5t-35 -52.5t-43 -41.5t-52.5 -24t-66 -9q-41 0 -84 11t-65 24l24 69q61 -26 115 -26q51 0 86.5 35.5t54.5 80.5t59 165q17 51 27 79zM306 1171v115h118v-115h-118zM648 1171 v115h118v-115h-118z" />
<glyph unicode="&#x141;" horiz-adv-x="1132" d="M31 399v82l751 369v-82zM182 0v1348h94v-1266h764v-82h-858z" />
<glyph unicode="&#x142;" horiz-adv-x="669" d="M41 506v82l547 307v-82zM162 373v1028h94v-1030q0 -60 1.5 -98t7 -78.5t16.5 -64t29.5 -44t46 -29t65.5 -8.5q91 0 147 39l29 -68q-78 -49 -195 -49q-63 0 -107.5 21.5t-70 55.5t-40 89t-19 108t-4.5 128z" />
<glyph unicode="&#x152;" horiz-adv-x="1990" d="M113 672q0 155 41.5 283t121.5 222.5t204.5 146.5t283.5 52q112 0 215 -28h866v-82h-801v-523h615v-81h-615v-580h803v-82h-872q-114 -29 -211 -29q-211 0 -359.5 91t-220 247t-71.5 363zM207 672q0 -296 146 -457.5t411 -161.5q104 0 186 23v1192q-93 26 -186 26 q-264 0 -410.5 -163.5t-146.5 -458.5z" />
<glyph unicode="&#x153;" horiz-adv-x="2172" d="M102 506q0 252 142 395t385 143q173 0 298 -76.5t185 -217.5q56 139 177 214.5t298 75.5q236 0 363.5 -147t117.5 -414h-909q-2 -87 22.5 -163t76 -137.5t139.5 -97.5t202 -36q258 0 373 135l49 -49q-138 -160 -422 -160q-182 0 -306.5 75t-182.5 212 q-61 -138 -183.5 -214.5t-297.5 -76.5q-243 0 -385 148.5t-142 390.5zM197 506q0 -98 26 -180.5t78 -146t136 -99t192 -35.5q111 0 195.5 35t136.5 98t78 145.5t26 182.5q0 214 -112 337.5t-324 123.5t-322 -123t-110 -338zM1159 553h819q-23 414 -395 414q-389 0 -424 -414 z" />
<glyph unicode="&#x160;" horiz-adv-x="1224" d="M113 125l41 74q85 -69 205.5 -108.5t250.5 -39.5q84 0 153.5 16t125.5 48.5t87.5 89t31.5 131.5q0 39 -10 71.5t-25 57t-44.5 47t-55 37t-71.5 32t-78.5 28.5t-90.5 28q-85 26 -143 46t-118.5 47t-98 55t-69 64t-45.5 81t-14 100q0 169 126 258.5t337 89.5q245 0 420 -94 l-37 -72q-157 84 -383 84q-174 0 -271 -65.5t-97 -200.5q0 -50 20.5 -90t41.5 -64t86 -54t99 -42t135 -45q32 -11 48 -16q168 -55 213 -75q144 -64 191 -166q28 -61 28 -142q0 -175 -135.5 -271t-356.5 -96q-304 0 -497 156zM332 1784h98l182 -277h4l175 277h98l-223 -342 h-103z" />
<glyph unicode="&#x161;" horiz-adv-x="1013" d="M102 109l37 69q64 -59 159 -94t208 -35q315 0 315 193q0 40 -13 70t-31.5 49.5t-56 37.5t-67.5 28t-86 26q-23 7 -69 20t-75 21.5t-72 24.5t-71 31t-59.5 38t-50 48.5t-31 61t-12.5 76.5q0 71 31 124t86 84.5t123.5 46.5t150.5 15q199 0 336 -92l-37 -69q-130 84 -299 84 q-63 0 -114.5 -9.5t-95 -30.5t-67.5 -60t-24 -93q0 -99 111 -155q60 -30 235 -77q15 -4 25 -7q65 -19 107.5 -34.5t87 -40t70 -53t42 -70.5t16.5 -95q0 -133 -109.5 -202t-295.5 -69q-130 0 -235.5 37.5t-168.5 100.5zM217 1483h98l183 -277h4l174 277h98l-223 -342h-102z " />
<glyph unicode="&#x178;" horiz-adv-x="1277" d="M82 1348h102l453 -793l453 793h106l-514 -887v-461h-94v461zM408 1473v114h118v-114h-118zM750 1473v114h118v-114h-118z" />
<glyph unicode="&#x17d;" horiz-adv-x="1345" d="M133 0v84l948 1182h-915v82h1024v-82l-946 -1184h968v-82h-1079zM403 1784h99l182 -277h4l174 277h99l-224 -342h-102z" />
<glyph unicode="&#x17e;" horiz-adv-x="1142" d="M123 0v78l770 860h-727v74h838v-78l-775 -860h791v-74h-897zM299 1483h98l183 -277h4l174 277h98l-223 -342h-103z" />
<glyph unicode="&#x192;" horiz-adv-x="1245" d="M-133 -299l47 49q37 -47 81.5 -68.5t113.5 -21.5q96 0 144.5 55.5t70.5 161.5l168 782h-132l17 78h131l76 348q64 291 311 291q159 0 238 -114l-48 -43q-36 45 -79 64.5t-111 19.5q-92 0 -143 -58t-76 -166l-74 -342h219l-16 -78h-219l-168 -782q-31 -142 -104.5 -216.5 t-204.5 -74.5q-163 0 -242 115z" />
<glyph unicode="&#x2c6;" horiz-adv-x="1529" d="M485 1438l232 342h102l223 -342h-98l-174 276h-4l-182 -276h-99z" />
<glyph unicode="&#x2dc;" horiz-adv-x="1529" d="M393 1479q34 66 98.5 107.5t147.5 41.5q48 0 92 -20t71 -43.5t62 -43.5t68 -20q38 0 68.5 18t47 38.5t42.5 60.5l47 -43q-29 -64 -81.5 -108t-127.5 -44q-45 0 -86 20t-66.5 43.5t-63.5 43.5t-77 20q-69 0 -112.5 -28t-82.5 -84z" />
<glyph unicode="&#xe00;" horiz-adv-x="1024" />
<glyph unicode="&#xe01;" horiz-adv-x="1343" d="M113 965q100 113 245 184.5t314 71.5q257 0 377 -110t120 -320v-791h-94v791q0 187 -101 269.5t-302 82.5q-133 0 -257 -56.5t-214 -152.5l4 -19l289 -172v-69q-98 -36 -153.5 -110.5t-55.5 -211.5v-352h-95v352q0 141 50.5 223.5t152.5 135.5v4l-256 147z" />
<glyph unicode="&#xe02;" horiz-adv-x="1226" d="M133 406q0 92 31 169t74.5 128.5t87.5 96t75 92.5t31 97q0 71 -32 98t-124 27h-102v78h102q132 0 189 -44t57 -157q0 -63 -30.5 -119t-73.5 -101.5t-86.5 -94t-74 -118t-30.5 -152.5q0 -172 94 -264.5t277 -92.5q103 0 174.5 26t111.5 77t57 115.5t17 150.5v774h95v-774 q0 -210 -109 -328.5t-344 -118.5q-220 0 -343.5 114.5t-123.5 320.5z" />
<glyph unicode="&#xe03;" horiz-adv-x="1224" d="M123 1174v18h94v-18q0 -119 148 -119q70 0 110.5 31t40.5 94v12h82v-119q0 -58 -20.5 -112t-53.5 -96.5t-72.5 -84t-79.5 -84t-73 -87t-53.5 -101t-20.5 -119.5q0 -159 97.5 -249.5t273.5 -90.5q103 0 174.5 26t111.5 77t57 115.5t17 150.5v774h95v-774 q0 -210 -109 -328.5t-344 -118.5q-212 0 -339.5 111.5t-127.5 306.5q0 67 21 129.5t54.5 111.5t74.5 95t81.5 86t74 77.5t54.5 77.5t21 78l-2 3q-49 -66 -172 -66q-95 0 -155 51t-60 142z" />
<glyph unicode="&#xe04;" horiz-adv-x="1374" d="M174 0v707q0 115 30.5 207.5t92 162t161.5 107t232 37.5q134 0 233.5 -37.5t159 -107t88.5 -161.5t29 -208v-707h-94v707q0 436 -416 436q-98 0 -173 -24.5t-121 -65t-75.5 -98t-41 -117.5t-11.5 -131v-310h2q49 111 155 178.5t253 67.5q54 0 123 -14l-27 -94 q-55 14 -115 14q-160 0 -266.5 -104t-124.5 -255v-190h-94z" />
<glyph unicode="&#xe05;" horiz-adv-x="1382" d="M174 0v872q0 166 68.5 257.5t212.5 91.5q96 0 156 -44.5t81 -121.5h4q24 75 86.5 120.5t147.5 45.5q81 0 136.5 -24t86 -71.5t43 -108.5t12.5 -145v-872h-94v897q0 60 -6.5 99t-25.5 75.5t-58.5 54t-101.5 17.5q-79 0 -129.5 -51.5t-55.5 -118.5h-88q-9 71 -54.5 120.5 t-131.5 49.5q-103 0 -149 -66.5t-46 -179.5v-500h2q49 111 155 178.5t253 67.5q54 0 123 -14l-27 -94q-55 14 -115 14q-160 0 -266.5 -104t-124.5 -255v-190h-94z" />
<glyph unicode="&#xe06;" horiz-adv-x="1347" d="M154 1174v18h94v-18q0 -119 147 -119q70 0 111 31t41 94v12h82v-119q0 -58 -20.5 -112t-53.5 -96.5t-72.5 -84t-79.5 -84t-73 -87t-53.5 -101t-20.5 -119.5q26 -67 67 -124.5t100 -107.5t141.5 -79t178.5 -29q97 0 164 29.5t104 87t52.5 129.5t15.5 170v727h95v-727 q0 -494 -424 -494q-168 0 -294.5 73.5t-205.5 211.5h-2l-4 -256h-82v389q0 67 21 129.5t54.5 111.5t74.5 95t81.5 86t74 77.5t54.5 77.5t21 78l-2 3q-49 -66 -172 -66q-95 0 -155 51t-60 142z" />
<glyph unicode="&#xe07;" horiz-adv-x="1243" d="M92 862l80 41l418 -825h26q86 0 154.5 29t114 78.5t75.5 118t43 144t13 160.5q0 93 -20 179t-60.5 160t-111 118.5t-162.5 44.5q-91 0 -162 -43l-27 74q74 51 186 51q115 0 204 -48.5t141.5 -132t79 -185.5t26.5 -218q0 -97 -18 -185.5t-55.5 -166t-91.5 -134.5 t-131 -89.5t-169 -32.5h-117z" />
<glyph unicode="&#xe08;" horiz-adv-x="1247" d="M92 1069q78 72 199.5 112t257.5 40q284 0 424.5 -153.5t140.5 -436.5q0 -166 -62 -310t-177.5 -232.5t-258.5 -88.5h-106l-139 426q-25 75 -38 92q-21 27 -69 27t-82 -17l-16 78q47 21 104 21q53 0 86.5 -16.5t51.5 -45t36 -82.5l131 -405h19q131 0 229.5 76t147.5 200.5 t49 276.5q0 259 -115.5 385.5t-359.5 126.5q-239 0 -408 -135z" />
<glyph unicode="&#xe09;" horiz-adv-x="1304" d="M113 614q44 19 77 19q67 0 91 -35.5t24 -105.5v-140q0 -164 80 -233.5t242 -69.5q95 0 165.5 27t117.5 80.5t76 119t50 156.5v309q0 193 -104 297.5t-338 104.5q-243 0 -436 -121l-45 63q196 136 485 136q145 0 250 -36.5t165.5 -103t88.5 -151t28 -189.5v-741h-86 l-6 242q-101 -271 -436 -271q-179 0 -285 97t-106 284v123v6q0 26 -1 37.5t-9.5 22t-26.5 10.5q-24 0 -51 -12z" />
<glyph unicode="&#xe0a;" horiz-adv-x="1236" d="M133 406q0 92 31 169t74.5 128.5t87.5 96t75 92.5t31 97q0 71 -32 98t-124 27h-102v78h102q132 0 189 -44t57 -157q0 -63 -30.5 -119t-73.5 -101.5t-86.5 -94t-74 -118t-30.5 -152.5q0 -166 99.5 -261.5t281.5 -95.5q212 0 301.5 95.5t89.5 283.5q0 62 -14 117.5 t-42.5 103.5t-80 76.5t-119.5 28.5h-30v77h51q97 0 141.5 54t52.5 155l15 179h90l-14 -179q-4 -41 -12.5 -74t-25.5 -68t-48.5 -62t-75.5 -45v-5q101 -42 154 -140.5t53 -217.5q0 -215 -118.5 -336t-365.5 -121q-222 0 -349.5 115t-127.5 320z" />
<glyph unicode="&#xe0b;" horiz-adv-x="1234" d="M123 1174v18h94v-18q0 -119 148 -119q70 0 110.5 31t40.5 94v12h82v-119q0 -58 -20.5 -112t-53.5 -96.5t-72.5 -84t-79.5 -84t-73 -87t-53.5 -101t-20.5 -119.5q0 -160 99 -250t276 -90q214 0 305.5 95.5t91.5 283.5q0 62 -14 117.5t-42.5 103.5t-80 76.5t-119.5 28.5 h-30v77h51q97 0 141.5 54t52.5 155l15 179h90l-14 -179q-4 -41 -12.5 -74t-25.5 -68t-48.5 -62t-75.5 -45v-5q101 -42 154 -140.5t53 -217.5q0 -215 -119.5 -336t-370.5 -121q-215 0 -343 110t-128 308q0 67 21 129.5t54.5 111.5t74.5 95t81.5 86t74 77.5t54.5 77.5t21 78 l-2 3q-49 -66 -172 -66q-95 0 -155 51t-60 142z" />
<glyph unicode="&#xe0c;" horiz-adv-x="2138" d="M113 965q99 114 236 185t298 71q481 0 481 -430v-351q33 -88 71 -153t92 -122t128 -86.5t166 -29.5q56 0 99.5 13t73 33t51 53.5t33 66t18.5 79t8.5 83.5t1.5 88v727h94v-727q0 -86 -9 -154.5t-34.5 -134t-66.5 -109t-109.5 -70t-159.5 -26.5q-90 0 -166 25.5t-131.5 72 t-94.5 96.5t-73 114l-4 -279h-82v791q0 179 -94.5 265.5t-292.5 86.5q-125 0 -240 -56t-206 -153l4 -19l289 -172v-69q-98 -36 -153.5 -110.5t-55.5 -211.5v-82q0 -113 45.5 -167t152.5 -54q87 0 150 45l35 -67q-67 -56 -195 -56q-143 0 -213 79.5t-70 225.5v76 q0 141 50.5 223.5t152.5 135.5v4l-256 147z" />
<glyph unicode="&#xe0d;" horiz-adv-x="2138" d="M113 965q99 114 236 185t298 71q481 0 481 -430v-132q0 -101 17.5 -174.5t59 -131t114.5 -86.5t178 -29q90 0 156 19.5t107.5 53.5t66 87.5t34 114t9.5 140.5v539h94v-539q0 -192 -66 -299q76 -80 76 -198q0 -173 -125.5 -261t-351.5 -88q-251 0 -422 91l21 79 q156 -92 401 -92q201 0 298 68t97 215q0 81 -39 123q-118 -131 -356 -131q-463 0 -463 499v132q0 179 -94.5 265.5t-292.5 86.5q-125 0 -240 -56t-206 -153l4 -19l289 -172v-69q-98 -36 -153.5 -110.5t-55.5 -211.5v-82q0 -113 45.5 -167t152.5 -54q87 0 150 45l35 -67 q-67 -56 -195 -56q-143 0 -213 79.5t-70 225.5v76q0 141 50.5 223.5t152.5 135.5v4l-256 147z" />
<glyph unicode="&#xe0e;" horiz-adv-x="1388" d="M102 16l17 76q55 -31 104 -31q26 0 43 8t25.5 17t12.5 33t4.5 38.5t0.5 51.5v153q0 129 34 209.5t124 139.5v4l-289 147l-24 103q100 113 245.5 184.5t315.5 71.5q261 0 380 -109.5t119 -320.5v-1303h-90q-228 174 -526 174q-112 0 -209.5 -31t-157.5 -73l-34 84 q160 102 405 102q93 0 175.5 -15t148.5 -42.5t106 -50t88 -54.5v1209q0 187 -100.5 269.5t-304.5 82.5q-134 0 -258.5 -56.5t-214.5 -152.5l4 -19l321 -172v-69q-95 -43 -129.5 -113.5t-34.5 -198.5v-153q0 -54 -6.5 -91t-24 -69.5t-53 -48.5t-88.5 -16q-83 0 -129 32z" />
<glyph unicode="&#xe0f;" horiz-adv-x="1388" d="M102 16l17 76q55 -31 104 -31q26 0 43 8t25.5 17t12.5 33t4.5 38.5t0.5 51.5v153q0 129 34 209.5t124 139.5v4l-289 147l-24 103q100 113 245.5 184.5t315.5 71.5q261 0 380 -109.5t119 -320.5v-1303h-129l-333 270q-9 -35 -16 -58t-21 -57.5t-33 -57t-46 -45t-66 -33.5 t-87 -11q-133 0 -276 25v80q17 -2 60.5 -8t70 -9.5t68 -6.5t77.5 -3q40 0 71 13.5t50 35t32.5 50.5t21.5 57.5t15 59.5q0 3 0.5 4t1 3.5t1 4t0.5 3.5l123 19l321 -256v1223q0 187 -100.5 269.5t-304.5 82.5q-134 0 -258.5 -56.5t-214.5 -152.5l4 -19l321 -172v-69 q-95 -43 -129.5 -113.5t-34.5 -198.5v-153q0 -54 -6.5 -91t-24 -69.5t-53 -48.5t-88.5 -16q-83 0 -129 32z" />
<glyph unicode="&#xe10;" horiz-adv-x="1255" d="M92 1069q78 72 199.5 112t257.5 40q168 0 293 -58l278 111l33 -86l-227 -80q188 -149 188 -477q0 -166 -62 -310t-177.5 -232.5t-258.5 -88.5h-106l-139 426q-25 75 -38 92q-21 27 -69 27t-82 -17l-16 78q47 21 104 21q53 0 86.5 -16.5t51.5 -45t36 -82.5l131 -405h19 q131 0 229.5 76t147.5 200.5t49 276.5q0 259 -115.5 385.5t-359.5 126.5q-239 0 -408 -135zM190 -352q18 -2 54.5 -7t55 -7.5t48.5 -4.5t58 -2q38 0 69.5 16t51 37.5t37 57t26 60.5t18.5 63l107 16l266 -260v272h82v-348h-113l-272 269q-13 -37 -22 -59t-26 -57t-36.5 -57 t-46 -44.5t-62.5 -33t-79 -10.5q-96 0 -216 21v78z" />
<glyph unicode="&#xe11;" horiz-adv-x="1466" d="M61 1174v18h95v-18q0 -119 147 -119q70 0 111 31t41 94v12h82v-188q84 98 194.5 157.5t229.5 59.5q82 0 142 -23t96 -60.5t57.5 -95t28.5 -117t7 -137.5v-788h-94v791q0 38 -1 62.5t-3.5 60.5t-9.5 60t-18 53t-28.5 47.5t-41.5 35.5t-58.5 25t-76.5 8q-85 0 -166 -37.5 t-143.5 -96.5t-114 -133t-83.5 -146t-46 -136v-594h-95v578q10 72 49 158.5t89 156.5v151l-2 3q-49 -66 -173 -66q-95 0 -155 51t-60 142z" />
<glyph unicode="&#xe12;" horiz-adv-x="2195" d="M133 569q0 75 3 138t12.5 132t25 122.5t42 104t61.5 83.5t86 52.5t114 19.5q86 0 137 -45.5t70 -116.5h4q56 162 236 162q65 0 113.5 -21t76.5 -54.5t44.5 -83.5t22 -98.5t5.5 -109.5v-414q26 -69 54.5 -123.5t68.5 -106.5t86.5 -86t109.5 -54.5t137 -20.5q56 0 99.5 13 t73 33t51 53.5t33 66t18.5 79t8.5 83.5t1.5 88v727h94v-727q0 -86 -9 -154.5t-34.5 -134t-66.5 -109t-109.5 -70t-159.5 -26.5q-73 0 -137 17.5t-111.5 46t-89.5 70t-70.5 83t-55.5 91.5l-4 -279h-82v854q0 54 -2.5 90.5t-13 77t-29 64.5t-52 39.5t-80.5 15.5 q-90 0 -131 -46t-55 -124h-90q-7 39 -15.5 64.5t-26 53t-48 41t-74.5 13.5q-42 0 -77 -14.5t-60 -42.5t-44 -61.5t-30.5 -80.5t-19.5 -89.5t-11.5 -97t-4.5 -95.5t-1 -93q0 -123 23.5 -217t61 -150.5t90 -92t103.5 -48t109 -12.5q87 0 160 43l27 -72q-77 -49 -193 -49 q-127 0 -220.5 46.5t-148 130t-80.5 188.5t-26 233z" />
<glyph unicode="&#xe13;" horiz-adv-x="2138" d="M113 965q99 114 236 185t298 71q481 0 481 -430v-326q0 -81 6.5 -139t25.5 -113.5t52 -89t89 -54t133 -20.5q96 0 172 32.5t126.5 92t83 126.5t54.5 151v741h94v-1192h-82l-4 270q-139 -299 -444 -299q-115 0 -194 34t-123.5 101t-63.5 153.5t-19 205.5v326 q0 179 -94.5 265.5t-292.5 86.5q-125 0 -240 -56t-206 -153l4 -19l289 -172v-69q-98 -36 -153.5 -110.5t-55.5 -211.5v-82q0 -113 45.5 -167t152.5 -54q87 0 150 45l35 -67q-67 -56 -195 -56q-143 0 -213 79.5t-70 225.5v76q0 141 50.5 223.5t152.5 135.5v4l-256 147z" />
<glyph unicode="&#xe14;" horiz-adv-x="1417" d="M133 565q0 144 38 263.5t111 207.5t186 136.5t257 48.5q257 0 387.5 -129t130.5 -373v-719h-94v719q0 210 -104 317t-322 107q-128 0 -226 -47.5t-155.5 -129.5t-86 -183t-28.5 -218q0 -88 13 -164t43 -141.5t74 -111.5t109.5 -72.5t147.5 -26.5q113 0 181 45l30 -71 q-76 -52 -217 -52q-222 0 -348.5 157.5t-126.5 436.5z" />
<glyph unicode="&#xe15;" horiz-adv-x="1417" d="M133 569q0 105 8.5 192.5t32 175.5t62.5 148t104 98t152 38t144.5 -46.5t76.5 -115.5h4q23 70 85 116t165 46q276 0 276 -367v-854h-94v854q0 51 -4 90.5t-16.5 78t-33 64t-55.5 41t-82 15.5q-169 0 -200 -172h-90q-7 38 -17 65t-29 53.5t-52.5 40t-80.5 13.5 q-64 0 -112 -33t-76 -85.5t-45 -130.5t-23 -154.5t-6 -170.5q0 -520 383 -520q113 0 181 45l30 -71q-76 -52 -217 -52q-125 0 -218 46.5t-147 129.5t-80 188.5t-26 233.5z" />
<glyph unicode="&#xe16;" horiz-adv-x="1343" d="M113 965q100 113 245 184.5t314 71.5q258 0 377.5 -109.5t119.5 -320.5v-791h-94v791q0 187 -99.5 269.5t-303.5 82.5q-133 0 -257 -56.5t-214 -152.5l4 -19l289 -172v-69q-98 -36 -153.5 -110.5t-55.5 -211.5v-82q0 -113 45.5 -167t152.5 -54q87 0 150 45l35 -67 q-67 -56 -195 -56q-143 0 -213 79.5t-70 225.5v76q0 141 50.5 223.5t152.5 135.5v4l-256 147z" />
<glyph unicode="&#xe17;" horiz-adv-x="1359" d="M174 0v1192h82l8 -318q59 144 195.5 245.5t318.5 101.5q217 0 312.5 -124.5t95.5 -361.5v-735h-94v735q0 78 -8.5 137.5t-30.5 112t-58 86t-93 53t-134 19.5q-185 0 -317 -124.5t-183 -330.5v-688h-94z" />
<glyph unicode="&#xe18;" horiz-adv-x="1280" d="M143 764q0 109 23 189t63.5 131.5t105.5 82t140 42.5t176 12q250 0 447 -82l-29 -74q-183 78 -418 78q-84 0 -144.5 -8.5t-113.5 -31t-85.5 -62t-51 -102.5t-18.5 -151l612 -81q166 -23 231.5 -114t65.5 -247q0 -193 -125.5 -284t-353.5 -91q-504 0 -504 359v153h94v-153 q0 -80 28 -136t83.5 -87t127.5 -44.5t171 -13.5q196 0 290.5 70t94.5 227q0 134 -49 200t-185 85l-639 84z" />
<glyph unicode="&#xe19;" horiz-adv-x="1359" d="M174 465v727h94v-727q0 -77 10.5 -138t35.5 -114t64.5 -88.5t100 -55.5t139.5 -20q104 0 188 33t140 91t91.5 127t54.5 151v741h94v-1192h-82l-4 270q-143 -299 -482 -299q-225 0 -334.5 129.5t-109.5 364.5z" />
<glyph unicode="&#xe1a;" horiz-adv-x="1363" d="M174 471v721h94v-721q0 -422 414 -422q111 0 192.5 31t129 89t70 133.5t22.5 170.5v719h94v-719q0 -84 -17 -157t-56 -137t-96.5 -109.5t-144 -72t-194.5 -26.5q-131 0 -230.5 38.5t-159 107.5t-89 158t-29.5 196z" />
<glyph unicode="&#xe1b;" horiz-adv-x="1368" d="M174 471v721h94v-721q0 -422 416 -422q112 0 194 31t129.5 89t70 133.5t22.5 170.5v1063h94v-1063q0 -106 -28.5 -194t-87.5 -158.5t-159.5 -110t-234.5 -39.5q-132 0 -232 38.5t-159.5 107.5t-89 158t-29.5 196z" />
<glyph unicode="&#xe1c;" horiz-adv-x="1511" d="M174 346v557q0 46 1 73.5t5.5 62.5t13.5 54.5t25.5 41t40 32.5t58.5 18t81 7h156v-78h-145q-26 0 -46.5 -2t-35.5 -9.5t-25 -13.5t-17 -21t-10.5 -26t-5 -34.5t-2 -39.5t-0.5 -48v-592q0 -150 47.5 -214.5t167.5 -64.5q59 0 104 27.5t71 73.5t38.5 98t12.5 108v410h90 v-410q0 -76 22.5 -143t77.5 -115.5t133 -48.5q124 0 167.5 62t43.5 217v864h94v-848q0 -192 -66 -282.5t-229 -90.5q-106 0 -182 58.5t-102 165.5h-4q-27 -106 -99.5 -165t-181.5 -59q-158 0 -228.5 89t-70.5 286z" />
<glyph unicode="&#xe1d;" horiz-adv-x="1515" d="M174 346v557q0 46 1 73.5t5.5 62.5t13.5 54.5t25.5 41t40 32.5t58.5 18t81 7h156v-78h-145q-26 0 -46.5 -2t-35.5 -9.5t-25 -13.5t-17 -21t-10.5 -26t-5 -34.5t-2 -39.5t-0.5 -48v-592q0 -150 47.5 -214.5t167.5 -64.5q59 0 105 27.5t72 73.5t38.5 98t12.5 108v410h90 v-410q0 -55 14 -107.5t41 -98.5t73.5 -73.5t106.5 -27.5q124 0 167.5 62t43.5 217v1208h94v-1192q0 -190 -65.5 -281.5t-228.5 -91.5q-106 0 -183.5 58.5t-103.5 165.5h-4q-27 -105 -100.5 -164.5t-182.5 -59.5q-158 0 -228.5 89t-70.5 286z" />
<glyph unicode="&#xe1e;" horiz-adv-x="1579" d="M113 1192h94l209 -1073h4l325 1011h95l317 -1007h4l211 1069h94l-249 -1192h-103l-321 1001h-5l-327 -1001h-105z" />
<glyph unicode="&#xe1f;" horiz-adv-x="1585" d="M113 1192h94l209 -1073h4l325 1011h95l317 -1007h4l287 1413h86l-317 -1536h-103l-321 1001h-5l-327 -1001h-105z" />
<glyph unicode="&#xe20;" horiz-adv-x="1384" d="M102 16l17 76q55 -31 104 -31q26 0 43 8t25.5 17t12.5 33t4.5 38.5t0.5 51.5v153q0 129 34 209.5t124 139.5v4l-289 147l-24 103q100 113 245 184.5t314 71.5q258 0 377.5 -109.5t119.5 -320.5v-791h-94v791q0 187 -99.5 269.5t-303.5 82.5q-133 0 -257 -56.5 t-214 -152.5l4 -19l321 -172v-69q-95 -43 -129.5 -113.5t-34.5 -198.5v-153q0 -54 -6.5 -91t-24 -69.5t-53 -48.5t-88.5 -16q-83 0 -129 32z" />
<glyph unicode="&#xe21;" horiz-adv-x="1359" d="M174 0v1192h94v-752q26 -78 67 -145t101 -124t145 -89.5t185 -32.5q79 0 137 20t94 55t57.5 89t29.5 113.5t8 138.5v727h94v-727q0 -242 -97.5 -368t-322.5 -126q-118 0 -218 42t-168 108t-120 158l-4 -279h-82z" />
<glyph unicode="&#xe22;" horiz-adv-x="1329" d="M133 330q0 223 211 293v4q-89 19 -147 94t-58 184q0 140 95 228t253 88q88 0 152 -23l-23 -74q-59 19 -129 19q-122 0 -188 -64.5t-66 -171.5q0 -241 259 -241h196v-74h-196q-111 0 -188 -69t-77 -187q0 -287 426 -287q214 0 311 94.5t97 282.5v766h94v-772 q0 -214 -126.5 -331.5t-373.5 -117.5q-153 0 -267.5 36t-184.5 118.5t-70 204.5z" />
<glyph unicode="&#xe23;" horiz-adv-x="1148" d="M123 131l47 68q69 -69 174 -109.5t231 -40.5q167 0 261.5 59t95.5 183q0 116 -85 179t-290 108q-70 17 -121.5 33.5t-106.5 44.5t-89.5 62t-57 85t-22.5 115q0 149 113.5 226t304.5 77q238 0 389 -101l-41 -67q-56 40 -154 65t-194 25q-69 0 -125.5 -11.5t-102 -37 t-71 -70t-25.5 -106.5q0 -44 13 -79.5t39.5 -61t54 -44t70 -33t74.5 -23t79 -18.5q58 -14 97 -24.5t90 -28.5t84 -36.5t68.5 -46t56 -60t33.5 -76.5t13 -96q0 -155 -121 -237.5t-330 -82.5q-147 0 -266 45t-186 115z" />
<glyph unicode="&#xe24;" horiz-adv-x="1347" d="M113 965q100 113 245.5 184.5t315.5 71.5q261 0 380.5 -109.5t119.5 -320.5v-1303h-95v1303q0 187 -100.5 269.5t-304.5 82.5q-134 0 -258.5 -56.5t-214.5 -152.5l4 -19l289 -172v-69q-98 -36 -153.5 -110.5t-55.5 -211.5v-82q0 -113 45.5 -167t152.5 -54q87 0 150 45 l35 -67q-67 -56 -195 -56q-143 0 -213 79.5t-70 225.5v76q0 141 50.5 223.5t152.5 135.5v4l-256 147z" />
<glyph unicode="&#xe25;" horiz-adv-x="1331" d="M133 332q0 98 37.5 171.5t105 118t153.5 66t189 21.5q125 0 249 -37.5t196 -81.5v246q0 164 -109 235.5t-313 71.5q-237 0 -403 -115l-45 70q83 56 199.5 89.5t250.5 33.5q111 0 200 -19.5t161.5 -62.5t112.5 -120t40 -183v-836h-94v500q-78 53 -204.5 92t-240.5 39 q-185 0 -288 -74t-103 -223q0 -138 73.5 -211.5t215.5 -73.5q90 0 154 37l35 -72q-68 -43 -189 -43q-174 0 -278.5 95t-104.5 266z" />
<glyph unicode="&#xe26;" horiz-adv-x="1388" d="M102 16l17 76q55 -31 104 -31q26 0 43 8t25.5 17t12.5 33t4.5 38.5t0.5 51.5v153q0 129 34 209.5t124 139.5v4l-289 147l-24 103q100 113 245.5 184.5t315.5 71.5q261 0 380 -109.5t119 -320.5v-1303h-94v1303q0 187 -100.5 269.5t-304.5 82.5q-134 0 -258.5 -56.5 t-214.5 -152.5l4 -19l321 -172v-69q-95 -43 -129.5 -113.5t-34.5 -198.5v-153q0 -54 -6.5 -91t-24 -69.5t-53 -48.5t-88.5 -16q-83 0 -129 32z" />
<glyph unicode="&#xe27;" horiz-adv-x="1224" d="M102 1077q178 144 461 144q138 0 243 -46t168.5 -129t95.5 -191.5t32 -240.5q0 -643 -543 -643q-157 0 -274 45.5t-179 110.5l52 63q63 -63 168 -102t235 -39q104 0 183.5 30.5t129 81t80 124.5t42.5 153.5t12 175.5q0 84 -14 158.5t-47 143.5t-83 118.5t-127.5 79 t-175.5 29.5q-245 0 -409 -129z" />
<glyph unicode="&#xe28;" horiz-adv-x="1386" d="M174 0v707q0 115 30.5 207.5t92 162t161.5 107t232 37.5q165 0 275 -58l276 111l33 -86l-227 -80q153 -133 153 -401v-707h-94v707q0 436 -416 436q-98 0 -173 -24.5t-121 -65t-75.5 -98t-41 -117.5t-11.5 -131v-310h2q49 111 155 178.5t253 67.5q54 0 123 -14l-27 -94 q-55 14 -115 14q-160 0 -266.5 -104t-124.5 -255v-190h-94z" />
<glyph unicode="&#xe29;" horiz-adv-x="1435" d="M174 471v721h94v-721q0 -203 97 -312.5t313 -109.5q115 0 196.5 29.5t128 86t67 130t20.5 170.5v156h-347v77h347v494h94v-494h159v-77h-159v-156q0 -84 -16 -156t-53.5 -135.5t-94.5 -107.5t-144 -69.5t-198 -25.5q-132 0 -231 38.5t-157.5 107.5t-87 157.5t-28.5 196.5 z" />
<glyph unicode="&#xe2a;" horiz-adv-x="1357" d="M133 332q0 98 37.5 171.5t105 118t153.5 66t189 21.5q125 0 249 -37.5t196 -81.5v246q0 164 -109 235.5t-313 71.5q-237 0 -403 -115l-45 70q83 56 199.5 89.5t250.5 33.5q185 0 307 -54l271 107l34 -86l-221 -76q123 -95 123 -276v-836h-94v500q-78 53 -204.5 92 t-240.5 39q-185 0 -288 -74t-103 -223q0 -138 73.5 -211.5t215.5 -73.5q90 0 154 37l35 -72q-68 -43 -189 -43q-174 0 -278.5 95t-104.5 266z" />
<glyph unicode="&#xe2b;" horiz-adv-x="1331" d="M174 0v1192h94v-500h295q145 0 235 17t152 64t86.5 126.5t24.5 206.5v86h90v-86q0 -179 -49 -278t-164 -150v-2q63 -30 109 -71.5t73 -84.5t42.5 -98.5t20.5 -105t5 -111.5v-205h-94v205q0 88 -9.5 149.5t-35.5 117.5t-75.5 97.5t-125.5 73.5q-103 -29 -283 -29h-297 v-614h-94z" />
<glyph unicode="&#xe2c;" horiz-adv-x="1546" d="M113 1192h94l209 -1073h4l325 1011h95l317 -1007h4l162 813q10 46 11.5 81.5t-8 63.5t-22.5 47.5t-40.5 39.5t-53 33.5t-69.5 33.5v59l307 226l47 -68l-252 -182v-4q25 -12 44.5 -23t42 -28.5t38 -36t29 -44.5t20 -56t6 -69t-9.5 -83l-196 -926h-103l-321 1001h-5 l-327 -1001h-105z" />
<glyph unicode="&#xe2d;" horiz-adv-x="1357" d="M154 389v229h469v-73h-375v-142q0 -167 115 -260.5t301 -93.5q83 0 152.5 16.5t130.5 55t103.5 98t66.5 149.5t24 205q0 280 -114.5 425t-369.5 145q-104 0 -192 -20t-141 -45t-121 -68l-49 69q209 142 503 142q153 0 265.5 -46.5t180 -134t100 -203.5t32.5 -264 q0 -299 -153 -450.5t-418 -151.5q-221 0 -365.5 117.5t-144.5 300.5z" />
<glyph unicode="&#xe2e;" horiz-adv-x="1355" d="M154 389v229h469v-73h-375v-142q0 -167 115 -260.5t301 -93.5q83 0 152.5 16.5t130.5 55t103.5 98t66.5 149.5t24 205q0 280 -114.5 425t-369.5 145q-104 0 -192 -20t-141 -45t-121 -68l-47 67q212 144 501 144q168 0 287 -58l277 111l32 -86l-223 -78q205 -163 205 -537 q0 -299 -153 -450.5t-418 -151.5q-221 0 -365.5 117.5t-144.5 300.5z" />
<glyph unicode="&#xe2f;" horiz-adv-x="1011" d="M123 1012h94q0 -53 10.5 -99t35 -87t71 -65t110.5 -24q127 0 207 80.5t99 194.5h88v-1012h-95v657l9 170q-102 -168 -308 -168q-301 0 -321 353z" />
<glyph unicode="&#xe30;" horiz-adv-x="833" d="M133 295v84h94v-64q0 -58 13.5 -72t66.5 -14h393v-77h-424q-76 0 -109.5 30.5t-33.5 112.5zM133 938v84h94v-64q0 -58 13.5 -72t66.5 -14h393v-77h-424q-76 0 -109.5 30.5t-33.5 112.5z" />
<glyph unicode="&#xe31;" d="M-723 1571v84h94v-96q0 -33 17.5 -43.5t58.5 -10.5h602v-78h-620q-79 0 -115.5 29.5t-36.5 114.5z" />
<glyph unicode="&#xe32;" horiz-adv-x="1116" d="M92 1092q62 54 161 91.5t222 37.5q233 0 350 -116t117 -312v-793h-94v793q0 165 -91.5 257.5t-281.5 92.5q-206 0 -338 -115z" />
<glyph unicode="&#xe33;" horiz-adv-x="1116" d="M-485 1575q0 88 57 149.5t160 61.5q107 0 163 -61t56 -150q0 -88 -57 -149.5t-162 -61.5q-103 0 -160 61.5t-57 149.5zM-408 1575q0 -65 38 -103t102 -38q67 0 104 37.5t37 103.5t-37 103.5t-104 37.5q-64 0 -102 -37t-38 -104zM92 1092q62 54 161 91.5t222 37.5 q233 0 350 -116t117 -312v-793h-94v793q0 165 -91.5 257.5t-281.5 92.5q-206 0 -338 -115z" />
<glyph unicode="&#xe34;" d="M-1065 1427v78h891v-78h-891z" />
<glyph unicode="&#xe35;" d="M-1065 1427v78h797v275h94v-353h-891z" />
<glyph unicode="&#xe36;" d="M-1067 1427v78h590q-43 34 -43 115q0 79 52 135.5t146 56.5q99 0 149 -55.5t50 -136.5q0 -79 -52.5 -136t-146.5 -57h-745zM-442 1620q0 -56 31 -89.5t89 -33.5q60 0 90.5 33.5t30.5 89.5t-31.5 89.5t-89.5 33.5q-59 0 -89.5 -32.5t-30.5 -90.5z" />
<glyph unicode="&#xe37;" d="M-1065 1427v78h586v277h90v-277h125v275h90v-353h-891z" />
<glyph unicode="&#xe38;" d="M-414 -168h80q82 0 121 -32t39 -115v-267h-94v267q0 39 -16 54t-50 15h-80v78z" />
<glyph unicode="&#xe39;" d="M-733 -166h88q66 0 99.5 -29t33.5 -98v-125q0 -114 125 -114q123 0 123 114v252h90v-252q0 -89 -56.5 -136.5t-156.5 -47.5q-104 0 -159.5 47t-55.5 137v125q0 29 -15.5 39t-52.5 10h-63v78z" />
<glyph unicode="&#xe3a;" d="M-313 -242q0 38 25 64t65 26t65 -26t25 -64q0 -39 -24.5 -64.5t-65.5 -25.5t-65.5 25.5t-24.5 64.5z" />
<glyph unicode="&#xe3f;" horiz-adv-x="1351" d="M164 10v1327h442v209h90v-209h35q204 0 320 -84t116 -252q0 -114 -66.5 -191t-172.5 -101q143 -24 227 -113t84 -223q0 -182 -122 -272.5t-359 -90.5h-62v-211h-90v211h-442zM254 92h352v570h-352v-570zM254 739h352v516h-352v-516zM696 92h45q205 0 306.5 65t101.5 216 q0 138 -105 213.5t-301 75.5h-47v-570zM696 739q184 0 282.5 65t98.5 197q0 135 -86.5 194.5t-259.5 59.5h-35v-516z" />
<glyph unicode="&#xe40;" horiz-adv-x="579" d="M174 250v942h94v-940q0 -108 22 -155.5t97 -47.5q65 0 107 29l34 -66q-56 -41 -151 -41q-114 0 -158.5 72t-44.5 207z" />
<glyph unicode="&#xe41;" horiz-adv-x="1112" d="M174 250v942h94v-940q0 -108 22 -155.5t97 -47.5q65 0 107 29l34 -66q-56 -41 -151 -41q-114 0 -158.5 72t-44.5 207zM707 250v942h94v-940q0 -108 22 -155.5t97 -47.5q64 0 106 29l35 -66q-56 -41 -152 -41q-114 0 -158 72t-44 207z" />
<glyph unicode="&#xe42;" horiz-adv-x="774" d="M82 1653v59q47 76 132 103.5t210 27.5h268v-74h-268q-194 0 -244 -75v-8q65 -42 104 -76.5t68.5 -76.5t43.5 -100t20 -129.5t6 -181.5v-870q0 -108 22 -155.5t97 -47.5q64 0 106 29l35 -66q-56 -41 -152 -41q-114 0 -158 72t-44 207v872v7q0 97 -1 138t-8.5 100.5 t-21 85.5t-42.5 65t-69 68t-104 67z" />
<glyph unicode="&#xe43;" horiz-adv-x="778" d="M82 1675q41 80 126.5 138.5t194.5 58.5q157 0 230.5 -72.5t73.5 -183.5q0 -61 -29.5 -125t-71.5 -121t-83.5 -116t-71 -131.5t-29.5 -145.5v-725q0 -108 22 -155.5t97 -47.5q64 0 106 29l35 -66q-56 -41 -152 -41q-114 0 -158 72t-44 207v727q0 61 16 118.5t41.5 103.5 t56 89.5t61 83.5t56 78t41.5 81t16 85q0 182 -213 182q-90 0 -153 -46t-115 -132z" />
<glyph unicode="&#xe44;" horiz-adv-x="778" d="M102 1769v74h635v-69q-158 -166 -239.5 -364t-81.5 -474v-684q0 -108 22 -155.5t97 -47.5q64 0 106 29l35 -66q-56 -41 -152 -41q-114 0 -158 72t-44 207v686q0 504 305 833h-525z" />
<glyph unicode="&#xe45;" horiz-adv-x="1116" d="M92 1092q62 54 161 91.5t222 37.5q233 0 350 -116t117 -312v-1305h-94v1305q0 165 -91.5 257.5t-281.5 92.5q-206 0 -338 -115z" />
<glyph unicode="&#xe46;" horiz-adv-x="1185" d="M123 788q0 139 62.5 227.5t185.5 88.5q146 0 194 -141h4q15 56 68.5 98.5t128.5 42.5q71 0 120.5 -23.5t76 -68t38 -97.5t11.5 -122v-1188h-94v1188q0 115 -32 174t-122 59q-74 0 -114 -50.5t-48 -135.5h-70q-6 85 -45.5 135.5t-113.5 50.5q-156 0 -156 -233 q0 -134 58 -185t206 -51l-22 -78q-166 0 -251 79.5t-85 229.5z" />
<glyph unicode="&#xe47;" d="M-1018 1638q0 138 91 195t259 57h461v-73h-461q-45 0 -77.5 -3t-69 -13.5t-59.5 -29.5t-38.5 -52.5t-15.5 -80.5q0 -163 160 -163q40 0 70 14t47.5 38.5t27 50t13.5 56.5h69q5 -63 48.5 -111t121.5 -48q48 0 83 15t65 56l33 -63q-51 -82 -181 -82q-79 0 -129.5 39 t-72.5 94h-2q-20 -56 -70.5 -94.5t-134.5 -38.5q-109 0 -173.5 61.5t-64.5 175.5z" />
<glyph unicode="&#xe48;" d="M-264 1913v291h90v-291h-90z" />
<glyph unicode="&#xe49;" d="M-635 2093v74h156q59 0 59 -62v-118h443v-74h-533v155q0 14 -5 19.5t-22 5.5h-98z" />
<glyph unicode="&#xe4a;" d="M-600 1913q0 56 6.5 99.5t23 85t50.5 64.5t84 23q89 0 119 -96h2q35 96 122 96q71 0 113.5 -48.5t48.5 -149.5h131v-74h-213q-7 111 -16 142q-18 61 -64 61q-24 0 -41 -17t-26.5 -47t-14 -64.5t-4.5 -74.5h-73q0 203 -80 203q-86 0 -86 -203h-82z" />
<glyph unicode="&#xe4b;" d="M-418 2042v69h158v127h78v-127h157v-69h-157v-129h-78v129h-158z" />
<glyph unicode="&#xe4c;" d="M-555 1751v84q0 82 33.5 112.5t109.5 30.5h330v-77h-299q-53 0 -66.5 -14t-13.5 -72v-64h-94z" />
<glyph unicode="&#xe4d;" d="M-485 1575q0 88 57 149.5t160 61.5q107 0 163 -61t56 -150q0 -88 -57 -149.5t-162 -61.5q-103 0 -160 61.5t-57 149.5zM-408 1575q0 -65 38 -103t102 -38q67 0 104 37.5t37 103.5t-37 103.5t-104 37.5q-64 0 -102 -37t-38 -104z" />
<glyph unicode="&#xe4e;" d="M-743 1554q0 64 50 106.5t144 43.5q-86 42 -86 115q0 118 199 118q88 0 145 -24l-16 -53q-83 16 -125 16q-57 0 -89 -14.5t-32 -57.5q0 -45 38 -67.5t97 -24.5l-6 -51q-55 0 -91.5 -3t-73.5 -13.5t-55 -33t-18 -57.5q0 -39 34.5 -57t90.5 -18q61 0 111 16l12 -49 q-44 -29 -147 -29q-88 0 -135 39t-47 98z" />
<glyph unicode="&#xe4f;" horiz-adv-x="1263" d="M123 606q0 218 143 364t367 146q223 0 365.5 -146t142.5 -364t-142.5 -364t-365.5 -146q-224 0 -367 146t-143 364zM201 606q0 -191 114.5 -313.5t317.5 -122.5q201 0 315.5 122.5t114.5 313.5q0 188 -114.5 312t-315.5 124q-202 0 -317 -123.5t-115 -312.5zM477 606 q0 68 43 113t113 45q73 0 114 -44.5t41 -113.5q0 -68 -41 -112.5t-114 -44.5q-71 0 -113.5 44.5t-42.5 112.5z" />
<glyph unicode="&#xe50;" horiz-adv-x="1339" d="M123 508q0 245 154 390.5t393 145.5t393 -145.5t154 -390.5q0 -246 -152.5 -391.5t-394.5 -145.5q-157 0 -280.5 64t-195 187t-71.5 286zM213 508q0 -204 121 -333.5t336 -129.5t335.5 129t120.5 334t-120.5 334t-335.5 129t-336 -129.5t-121 -333.5z" />
<glyph unicode="&#xe51;" horiz-adv-x="1292" d="M113 567q0 225 142 351t384 126q117 0 212 -30t167 -91t111.5 -161t39.5 -232q0 -128 -43 -236t-116 -181t-170 -114.5t-205 -43.5v74q212 12 328 153t116 348q0 441 -440 441q-197 0 -316.5 -103.5t-119.5 -300.5q0 -129 56.5 -201.5t170.5 -72.5q69 0 116.5 19.5 t90.5 68.5l37 -66q-41 -48 -105 -72t-135 -24q-85 0 -149 29.5t-100.5 80t-54 110.5t-17.5 128z" />
<glyph unicode="&#xe52;" horiz-adv-x="1466" d="M164 412v852h90v-854q0 -201 119.5 -283t374.5 -82q250 0 362.5 78t112.5 266v324q0 51 -1.5 81t-9.5 68.5t-23.5 59t-44.5 35t-71 14.5q-123 0 -149 -170h-78q-15 85 -48.5 127.5t-101.5 42.5q-48 0 -80.5 -21.5t-48.5 -61t-22 -83t-6 -100.5q0 -66 16.5 -107t57 -64.5 t95.5 -31.5t144 -8l-16 -74q-206 0 -296.5 63.5t-90.5 221.5q0 339 241 339q149 0 193 -153h4q19 66 67.5 109.5t122.5 43.5q60 0 103.5 -18.5t68.5 -48t40 -74.5t19.5 -89t4.5 -101v-322q0 -223 -143.5 -321.5t-419.5 -98.5q-138 0 -242.5 23t-183.5 73.5t-119.5 137 t-40.5 207.5z" />
<glyph unicode="&#xe53;" horiz-adv-x="1372" d="M133 477q0 89 9.5 166.5t34 153t63 129t99.5 86t140 32.5q86 0 139 -48t72 -122h4q18 71 81 120.5t151 49.5q84 0 139.5 -24.5t86.5 -77.5t43.5 -124t12.5 -177v-641h-90v641q0 71 -3 115t-14 89.5t-32 70t-58 40t-91 15.5q-81 0 -132.5 -58.5t-56.5 -136.5h-86 q-21 191 -170 191q-46 0 -83.5 -17.5t-63 -46.5t-45 -70t-31 -83.5t-18 -93.5t-9 -92.5t-2.5 -86.5q0 -89 17 -164t53 -136.5t99.5 -96.5t148.5 -35q122 0 180 51l41 -61q-80 -64 -215 -64q-106 0 -186.5 38.5t-129.5 108t-73.5 160t-24.5 199.5z" />
<glyph unicode="&#xe54;" horiz-adv-x="1288" d="M123 504q0 164 79.5 281t217 174t319.5 57q164 0 262.5 44.5t196.5 162.5l49 -60q-60 -74 -123 -120t-154.5 -73.5t-209.5 -27.5q-121 0 -219.5 -26t-172.5 -78t-114.5 -137t-40.5 -197q0 -430 516 -430h279v2q-195 94 -195 286q0 60 27.5 110.5t74.5 76.5l86 -19 q-46 -29 -70 -67.5t-24 -100.5q0 -66 25.5 -120.5t69 -88.5t96 -53.5t110.5 -21.5v-68q-263 -10 -479 -10q-303 0 -454.5 128t-151.5 376z" />
<glyph unicode="&#xe55;" horiz-adv-x="1288" d="M123 504q0 212 126 338.5t347 156.5q-35 19 -56.5 60.5t-21.5 91.5q0 79 52.5 135.5t146.5 56.5q97 0 149 -56t52 -136q0 -39 -16 -77.5t-46 -57.5q101 10 181 60t161 147l49 -60q-60 -74 -123 -120t-154.5 -73.5t-209.5 -27.5q-121 0 -219.5 -26t-172.5 -78t-114.5 -137 t-40.5 -197q0 -430 516 -430h279v2q-195 94 -195 286q0 60 27.5 110.5t74.5 76.5l86 -19q-46 -29 -70 -67.5t-24 -100.5q0 -66 25.5 -120.5t69 -88.5t96 -53.5t110.5 -21.5v-68q-263 -10 -479 -10q-303 0 -454.5 128.5t-151.5 375.5zM588 1151q0 -59 36 -95t93 -36 q61 0 96 35.5t35 95.5t-35 95.5t-96 35.5q-58 0 -93.5 -35t-35.5 -96z" />
<glyph unicode="&#xe56;" horiz-adv-x="1318" d="M41 1143l78 37l160 -361h2q61 105 168 165t231 60q135 0 236.5 -43.5t161.5 -120.5t89 -174t29 -214q0 -247 -136 -384t-378 -137q-213 0 -345 115t-157 311l88 25q20 -183 129 -280t285 -97q210 0 317 120t107 327q0 106 -24 191t-74 150.5t-133.5 101.5t-194.5 36 q-135 0 -226.5 -66.5t-134.5 -159.5h-94z" />
<glyph unicode="&#xe57;" horiz-adv-x="1607" d="M133 477q0 89 8.5 166.5t31 153t57 129t90 86t126.5 32.5q86 0 139 -48t72 -122h5q19 73 76.5 121.5t144.5 48.5q147 0 205.5 -86t58.5 -268v-616q49 2 82 7.5t57 20t37.5 33.5t21.5 53.5t10.5 72.5t2.5 99v904h86v-904q0 -45 -1 -73.5t-5 -66.5t-12.5 -61.5t-22.5 -51 t-36 -44.5t-52.5 -32t-72.5 -22.5t-95 -8.5h-90v662q0 41 -0.5 65t-3 58t-7.5 53.5t-13 44t-21.5 38t-32 26.5t-44.5 18.5t-58 5.5q-80 0 -127 -57.5t-52 -137.5h-86q-21 191 -170 191q-53 0 -94 -33.5t-64 -84t-37.5 -119.5t-19 -129t-4.5 -124q0 -89 17 -164t53 -136.5 t99.5 -96.5t148.5 -35q122 0 180 51l41 -61q-80 -64 -215 -64q-106 0 -186.5 38.5t-129.5 108t-73.5 160t-24.5 199.5z" />
<glyph unicode="&#xe58;" horiz-adv-x="1437" d="M133 465q0 269 126.5 410t399.5 141h185q135 0 233 35.5t168 136.5l49 -60q-32 -41 -62.5 -69t-82 -57.5t-128.5 -44.5t-177 -15h-185q-220 0 -328 -115t-108 -362q0 -420 246 -420q113 0 167 73t54 206v161h90v-161q0 -131 55.5 -205t165.5 -74q112 0 157.5 83.5 t45.5 260.5v133h90v-135q0 -204 -73 -310t-215 -106q-90 0 -162 46.5t-105 148.5h-4q-63 -195 -266 -195q-169 0 -252.5 130.5t-83.5 363.5z" />
<glyph unicode="&#xe59;" horiz-adv-x="1468" d="M133 477q0 72 6 136t19 130.5t37.5 119t59 94t85.5 64.5t115 23q103 0 158.5 -43t84.5 -118h4q4 71 50.5 116t113.5 45q31 0 58 -8t46.5 -19.5t38 -32t30.5 -38t25.5 -45.5t20.5 -46.5t19 -50t18 -46.5q30 -71 46 -90q22 -27 53 -27q53 0 66 74.5t13 281.5v228h86v-228 q0 -82 -1.5 -133t-7 -106t-16.5 -85.5t-29.5 -57t-46 -37.5t-66.5 -11q-67 0 -109 48.5t-76 136.5q-4 9 -17.5 45.5t-24.5 60t-28.5 53t-41 45t-50.5 15.5q-44 0 -70 -25.5t-33 -68t-4.5 -88.5t13.5 -97l144 -692h-97l-143 694q-13 56 -21 86.5t-26 73t-38.5 64t-55.5 37.5 t-80 16q-57 0 -101 -30t-69 -77.5t-41 -114.5t-21.5 -130.5t-5.5 -137.5q0 -203 63 -319.5t177 -116.5q71 0 119 37l34 -64q-56 -47 -157 -47q-69 0 -125 29t-93 78t-61.5 115t-35.5 137t-11 147z" />
<glyph unicode="&#xe5b;" horiz-adv-x="2498" d="M123 647q0 92 19 173t62 154t107.5 125t161 82.5t217.5 30.5q204 0 337.5 -107.5t133.5 -281.5v-55h-82v55q0 137 -103 224.5t-286 87.5q-239 0 -356 -127.5t-117 -360.5q0 -252 131.5 -377t372.5 -125q165 0 287.5 54t197.5 156.5t111.5 243t36.5 321.5h51 q103 -93 162 -250.5t59 -296.5q54 79 84.5 209t11.5 276h54q62 -55 103.5 -116t60 -122t24.5 -107.5t6 -100.5q46 42 68.5 144t5.5 202h78q27 -108 76 -145.5t131 -37.5h47v-69h-47q-167 0 -215 121q0 -86 -41 -172.5t-97 -120.5h-73q0 153 -23.5 248.5t-83.5 162.5 q12 -111 -39.5 -259t-138.5 -232h-62q0 189 -31.5 311t-97.5 219q-10 -166 -55.5 -295t-129 -224.5t-215 -146t-306.5 -50.5q-287 0 -442.5 153t-155.5 426z" />
<glyph unicode="&#x2000;" horiz-adv-x="1119" />
<glyph unicode="&#x2001;" horiz-adv-x="2238" />
<glyph unicode="&#x2002;" horiz-adv-x="1119" />
<glyph unicode="&#x2003;" horiz-adv-x="2238" />
<glyph unicode="&#x2004;" horiz-adv-x="746" />
<glyph unicode="&#x2005;" horiz-adv-x="559" />
<glyph unicode="&#x2006;" horiz-adv-x="373" />
<glyph unicode="&#x2007;" horiz-adv-x="373" />
<glyph unicode="&#x2008;" horiz-adv-x="279" />
<glyph unicode="&#x2009;" horiz-adv-x="447" />
<glyph unicode="&#x200a;" horiz-adv-x="124" />
<glyph unicode="&#x2010;" horiz-adv-x="876" d="M113 494v77h651v-77h-651z" />
<glyph unicode="&#x2011;" horiz-adv-x="876" d="M113 494v77h651v-77h-651z" />
<glyph unicode="&#x2012;" horiz-adv-x="876" d="M113 494v77h651v-77h-651z" />
<glyph unicode="&#x2013;" horiz-adv-x="1325" d="M113 514v78h1099v-78h-1099z" />
<glyph unicode="&#x2014;" horiz-adv-x="1458" d="M113 514v78h1233v-78h-1233z" />
<glyph unicode="&#x2018;" horiz-adv-x="421" d="M113 991l108 357h88l-100 -357h-96z" />
<glyph unicode="&#x2019;" horiz-adv-x="421" d="M113 991l100 357h96l-108 -357h-88z" />
<glyph unicode="&#x201a;" horiz-adv-x="421" d="M113 -186l100 356h96l-108 -356h-88z" />
<glyph unicode="&#x201c;" horiz-adv-x="626" d="M113 991l108 357h88l-100 -357h-96zM317 991l109 357h88l-100 -357h-97z" />
<glyph unicode="&#x201d;" horiz-adv-x="626" d="M113 991l100 357h96l-108 -357h-88zM317 991l101 357h96l-108 -357h-89z" />
<glyph unicode="&#x201e;" horiz-adv-x="626" d="M113 -186l100 356h96l-108 -356h-88zM317 -186l101 356h96l-108 -356h-89z" />
<glyph unicode="&#x2020;" horiz-adv-x="772" d="M113 907v78h225v490h94v-490h227v-78h-227v-1085h-94v1085h-225z" />
<glyph unicode="&#x2021;" horiz-adv-x="772" d="M113 909v78h225v488h94v-488h227v-78h-227v-522h227v-78h-227v-487h-94v487h-223v78h223v522h-225z" />
<glyph unicode="&#x2022;" horiz-adv-x="544" d="M113 604q0 69 44 114.5t115 45.5t115.5 -45.5t44.5 -114.5q0 -67 -44.5 -113.5t-115.5 -46.5t-115 46t-44 114z" />
<glyph unicode="&#x2026;" horiz-adv-x="925" d="M113 0v123h131v-123h-131zM397 0v123h131v-123h-131zM682 0v123h131v-123h-131z" />
<glyph unicode="&#x202f;" horiz-adv-x="447" />
<glyph unicode="&#x2030;" horiz-adv-x="2019" d="M113 1044q0 149 72.5 240.5t209.5 91.5q142 0 212.5 -91t70.5 -241q0 -146 -73 -238.5t-210 -92.5t-209.5 92.5t-72.5 238.5zM195 1044q0 -262 200 -262q201 0 201 262q0 126 -49.5 194.5t-151.5 68.5q-200 0 -200 -263zM219 0l852 1348h98l-852 -1348h-98zM707 301 q0 149 72.5 240.5t209.5 91.5q142 0 212.5 -91t70.5 -241q0 -146 -73 -239t-210 -93t-209.5 92.5t-72.5 239.5zM788 301q0 -262 201 -262t201 262t-201 262t-201 -262zM1341 301q0 149 72.5 240.5t210.5 91.5q142 0 212.5 -91t70.5 -241q0 -146 -73 -239t-210 -93t-210 93 t-73 239zM1423 301q0 -262 201 -262t201 262t-201 262t-201 -262z" />
<glyph unicode="&#x2039;" horiz-adv-x="784" d="M113 557v74l559 483v-100l-482 -418v-4l482 -418v-100z" />
<glyph unicode="&#x203a;" horiz-adv-x="784" d="M113 74v100l481 418v4l-481 418v100l559 -483v-74z" />
<glyph unicode="&#x2044;" horiz-adv-x="1175" d="M113 0l852 1348h98l-852 -1348h-98z" />
<glyph unicode="&#x205f;" horiz-adv-x="559" />
<glyph unicode="&#x20ac;" horiz-adv-x="1478" d="M92 471l21 74h196q-15 112 -2 239h-198l20 74h193q53 235 230 376.5t431 141.5q217 0 348 -63l-39 -70q-115 51 -309 51q-95 0 -184 -27t-166 -79t-135 -137t-84 -193h577l-22 -74h-568q-18 -135 2 -239h572l-23 -74h-534q55 -204 212 -311t363 -107q60 0 101.5 3.5 t105.5 20t125 48.5l41 -72q-152 -82 -373 -82q-257 0 -434 134.5t-235 365.5h-232z" />
<glyph unicode="&#x2122;" horiz-adv-x="1337" d="M113 1290v58h424v-58h-179v-512h-69v512h-176zM655 778v570h101l188 -478l178 478h103v-570h-62v498l-194 -498h-51l-201 498v-498h-62z" />
<glyph unicode="&#x2202;" horiz-adv-x="1228" d="M125 424q0 150 65.5 256t173 155.5t246.5 49.5q164 0 274.5 -76t149.5 -193q0 421 -213 607t-637 129l13 69q137 23 258 13.5t223 -43t183.5 -101t138 -161.5t86.5 -224t30 -289q0 -326 -127.5 -485.5t-392.5 -159.5q-219 0 -345 129.5t-126 323.5zM215 422 q0 -170 109 -271.5t272 -101.5q184 0 292.5 97t108.5 276q0 178 -107.5 281.5t-281.5 103.5q-175 0 -284 -99t-109 -286z" />
<glyph unicode="&#x2206;" horiz-adv-x="1355" d="M113 0l544 1323h74l512 -1323h-1130zM240 78h880l-426 1130z" />
<glyph unicode="&#x220f;" horiz-adv-x="1368" d="M113 1325v82h1142v-82h-131v-1579h-94v1579h-692v-1579h-94v1579h-131z" />
<glyph unicode="&#x2211;" horiz-adv-x="1609" d="M113 -297l667 973v4l-633 932v45h1303v-82h-1167l596 -873v-49l-633 -932h1251v-81h-1384v63z" />
<glyph unicode="&#x2212;" horiz-adv-x="815" d="M113 494v77h589v-77h-589z" />
<glyph unicode="&#x221a;" horiz-adv-x="1527" d="M113 596v82h252l286 -596l502 1364h262v-78h-196l-510 -1368h-107l-293 596h-196z" />
<glyph unicode="&#x221e;" horiz-adv-x="2279" d="M113 600q0 193 119.5 299.5t322.5 106.5q85 0 161 -24t147.5 -74.5t134 -111t139.5 -151.5q44 58 77.5 97.5t91.5 93t113.5 86t134.5 56t164 23.5q214 0 331.5 -111t117.5 -312q0 -172 -115 -285t-313 -113q-301 0 -598 344q-61 -75 -115.5 -129.5t-126 -107t-154.5 -80 t-174 -27.5q-208 0 -333 109t-125 311zM203 600q0 -82 25.5 -145t63 -98.5t89.5 -58t97 -29.5t93 -7q78 0 150.5 25t137 73.5t117.5 102t111 127.5q-84 93 -142 148.5t-123.5 102.5t-129.5 67t-137 20q-154 0 -253 -87t-99 -241zM1188 580q283 -322 541 -322q91 0 160 27.5 t109 74.5t59.5 102t19.5 116q0 91 -30 159t-83 107t-118 57.5t-142 18.5q-68 0 -131 -19.5t-108.5 -46t-95.5 -73.5t-81.5 -82.5t-77.5 -91.5q-15 -18 -22 -27z" />
<glyph unicode="&#x222b;" horiz-adv-x="1163" d="M113 -180l41 47q86 -90 198 -90q100 0 141.5 50.5t41.5 172.5v1085q0 145 69 218t199 73q156 0 248 -116l-41 -48q-87 91 -199 91q-99 0 -140.5 -51t-41.5 -173v-1085q0 -145 -69.5 -218t-199.5 -73q-154 0 -247 117z" />
<glyph unicode="&#x2248;" horiz-adv-x="1171" d="M113 307q111 160 317 160q52 0 100.5 -15.5t85 -38t70 -45t68 -38t65.5 -15.5q65 0 108 36.5t89 109.5l43 -53q-46 -82 -104 -126t-144 -44q-42 0 -83 15.5t-75 37.5t-68.5 44.5t-76.5 38t-86 15.5q-155 0 -262 -139zM113 676q111 160 317 160q63 0 123.5 -24t98.5 -52 t83.5 -52t83.5 -24q65 0 108 36.5t89 108.5l43 -53q-46 -82 -104 -126t-144 -44q-51 0 -103 24t-89 52t-90.5 52t-106.5 24q-154 0 -262 -140z" />
<glyph unicode="&#x2260;" horiz-adv-x="876" d="M113 393v78h256l51 139h-307v78h338l159 424h88l-159 -424h225v-78h-256l-51 -139h307v-78h-336l-156 -420h-88l156 420h-227z" />
<glyph unicode="&#x2264;" horiz-adv-x="813" d="M113 115v73h587v-73h-587zM117 731v98l579 412v-98l-508 -361l508 -366v-99z" />
<glyph unicode="&#x2265;" horiz-adv-x="813" d="M113 115v73h587v-73h-587zM117 317v99l508 366l-508 361v98l579 -412v-98z" />
<glyph unicode="&#x25ca;" horiz-adv-x="1378" d="M113 655v33l546 711h76l531 -711v-33l-531 -710h-76zM207 666l481 -631h19l464 629v16l-464 629h-19l-481 -631v-12z" />
<glyph unicode="&#x25fc;" horiz-adv-x="1013" d="M0 0v1014h1014v-1014h-1014z" />
<glyph unicode="&#xf700;" horiz-adv-x="1265" d="M92 1069q78 72 199.5 112t257.5 40q168 0 293 -58l278 111l33 -86l-227 -80q188 -149 188 -477q0 -166 -62 -310t-177.5 -232.5t-258.5 -88.5h-106l-139 426q-25 75 -38 92q-21 27 -69 27t-82 -17l-16 78q47 21 104 21q53 0 86.5 -16.5t51.5 -45t36 -82.5l131 -405h19 q131 0 229.5 76t147.5 200.5t49 276.5q0 259 -115.5 385.5t-359.5 126.5q-239 0 -408 -135z" />
<glyph unicode="&#xf701;" d="M-1204 1427v78h772v-78h-772z" />
<glyph unicode="&#xf702;" d="M-1204 1427v78h678v275h94v-353h-772z" />
<glyph unicode="&#xf703;" d="M-1204 1427v78h440q-43 43 -43 115q0 79 52.5 135.5t146.5 56.5q99 0 148.5 -55.5t49.5 -136.5q0 -79 -52 -136t-146 -57h-596zM-729 1620q0 -56 31.5 -89.5t89.5 -33.5q60 0 90.5 33.5t30.5 89.5t-31.5 89.5t-89.5 33.5q-59 0 -90 -32.5t-31 -90.5z" />
<glyph unicode="&#xf704;" d="M-1204 1427v78h467v277h90v-277h125v275h90v-353h-772z" />
<glyph unicode="&#xf705;" d="M-737 1438v350h90v-350h-90z" />
<glyph unicode="&#xf706;" d="M-1130 1673v78h163q39 0 55.5 -21t16.5 -49v-165h451v-78h-545v204q0 15 -7 23t-28 8h-106z" />
<glyph unicode="&#xf707;" d="M-1214 1438q0 44 4.5 82t17 78t32 68.5t53 46.5t77.5 18q103 0 129 -117h2q11 50 47 83.5t88 33.5q159 0 180 -215h181v-78h-263q-2 28 -2.5 36.5t-3 35.5t-5.5 38.5t-8 33t-12 31.5t-16.5 22t-22 17t-28.5 5q-35 0 -58 -35.5t-31.5 -82.5t-8.5 -101h-82q0 219 -86 219 q-35 0 -58 -37t-31.5 -84t-8.5 -98h-86z" />
<glyph unicode="&#xf708;" d="M-934 1579v74h170v139h86v-139h170v-74h-170v-141h-86v141h-170z" />
<glyph unicode="&#xf709;" d="M-954 1438v84q0 79 43.5 111t122.5 32h325v-78h-317q-43 0 -61.5 -19.5t-18.5 -66.5v-63h-94z" />
<glyph unicode="&#xf70a;" d="M-264 1438v350h90v-350h-90z" />
<glyph unicode="&#xf70b;" d="M-809 1673v78h164q39 0 55.5 -21t16.5 -49v-165h518v-78h-613v204q0 15 -6.5 23t-27.5 8h-107z" />
<glyph unicode="&#xf70c;" d="M-961 1438q0 46 5.5 86.5t19.5 79t35.5 66t56 44.5t78.5 17q57 0 92.5 -33t48.5 -84h2q15 51 53 84t95 33q169 0 190 -215h230v-78h-312q0 219 -108 219q-39 0 -65 -35.5t-35 -82t-9 -101.5h-82q0 219 -100 219q-32 0 -54.5 -20.5t-33.5 -55.5t-15.5 -69.5t-4.5 -73.5 h-87z" />
<glyph unicode="&#xf70d;" d="M-575 1579v74h169v139h87v-139h169v-74h-169v-141h-87v141h-169z" />
<glyph unicode="&#xf70e;" d="M-713 1438v84q0 79 43.5 111t122.5 32h408v-78h-400q-43 0 -61 -19.5t-18 -66.5v-63h-95z" />
<glyph unicode="&#xf70f;" horiz-adv-x="2138" d="M113 965q99 114 236 185t298 71q481 0 481 -430v-320q0 -100 19 -174.5t61 -131.5t115 -86.5t176 -29.5q371 0 371 416v727h94v-727q0 -105 -26 -192.5t-80 -156t-145.5 -107t-213.5 -38.5q-125 0 -217 38t-145 108t-78 157.5t-25 196.5v320q0 179 -94.5 265.5 t-292.5 86.5q-125 0 -240 -56t-206 -153l4 -19l289 -172v-69q-98 -36 -153.5 -110.5t-55.5 -211.5v-82q0 -113 45.5 -167t152.5 -54q87 0 150 45l35 -67q-67 -56 -195 -56q-143 0 -213 79.5t-70 225.5v76q0 141 50.5 223.5t152.5 135.5v4l-256 147z" />
<glyph unicode="&#xf710;" d="M-1204 1571v84h94v-96q0 -33 17.5 -43.5t58.5 -10.5h602v-78h-641q-72 0 -101.5 32.5t-29.5 111.5z" />
<glyph unicode="&#xf711;" d="M-874 1575q0 88 57 149.5t160 61.5q107 0 163 -61t56 -150q0 -88 -57 -149.5t-162 -61.5q-103 0 -160 61.5t-57 149.5zM-797 1575q0 -65 38 -103t102 -38q67 0 104 37.5t37 103.5t-37 103.5t-104 37.5q-64 0 -102 -37t-38 -104z" />
<glyph unicode="&#xf712;" d="M-1214 1638q0 134 89.5 193t256.5 59h419v-73h-419q-44 0 -77.5 -3.5t-68.5 -14.5t-58 -30t-37.5 -52.5t-14.5 -78.5q0 -163 147 -163q33 0 58 10t40 24.5t26 37t16 42.5t8 45h69q5 -66 40.5 -112.5t109.5 -46.5q47 0 81 15t64 56l33 -63q-51 -82 -178 -82 q-71 0 -120.5 38.5t-62.5 90.5h-2q-47 -129 -194 -129q-104 0 -164.5 63.5t-60.5 173.5z" />
<glyph unicode="&#xf713;" d="M-522 1913v291h90v-291h-90z" />
<glyph unicode="&#xf714;" d="M-881 2093v74h156q59 0 59 -62v-118h412v-74h-502v155q0 10 -1 14t-7 7.5t-18 3.5h-99z" />
<glyph unicode="&#xf715;" d="M-926 1913q0 56 6.5 99.5t23 85t50.5 64.5t84 23q89 0 119 -96h2q35 96 123 96q71 0 113.5 -48.5t48.5 -149.5h131v-74h-213q-7 111 -16 142q-18 61 -64 61q-24 0 -41 -17t-26.5 -47t-14 -64.5t-4.5 -74.5h-74q0 203 -80 203q-86 0 -86 -203h-82z" />
<glyph unicode="&#xf716;" d="M-676 2042v69h158v127h78v-127h157v-69h-157v-129h-78v129h-158z" />
<glyph unicode="&#xf717;" d="M-842 1708v84q0 81 34 112t110 31h288v-77h-258q-53 0 -66.5 -14t-13.5 -72v-64h-94z" />
<glyph unicode="&#xf718;" d="M-414 -463h80q82 0 121 -32t39 -115v-226h-94v226q0 39 -16 54t-50 15h-80v78z" />
<glyph unicode="&#xf719;" d="M-733 -463h88q66 0 99.5 -29t33.5 -98v-84q0 -114 125 -114q123 0 123 114v211h90v-211q0 -89 -56.5 -136.5t-156.5 -47.5q-104 0 -159.5 47t-55.5 137v84q0 29 -15.5 39t-52.5 10h-63v78z" />
<glyph unicode="&#xf71a;" d="M-313 -553q0 38 25 64t65 26t65 -26t25 -64q0 -39 -24.5 -64.5t-65.5 -25.5t-65.5 25.5t-24.5 64.5z" />
<glyph unicode="&#xf71b;" horiz-adv-x="1378" d="M92 57l17 76q55 -31 104 -31q26 0 43 8t25.5 17t12.5 33t4.5 38.5t0.5 51.5v112q0 129 34 209.5t124 139.5v4l-289 147l-25 103q100 113 246 184.5t316 71.5q261 0 380 -109.5t119 -320.5v-1139h-90q-228 174 -526 174q-112 0 -209 -31.5t-158 -73.5l-35 84 q162 103 406 103q93 0 175.5 -15t148.5 -42.5t106 -50t88 -54.5v1045q0 187 -100.5 269.5t-304.5 82.5q-134 0 -259 -56.5t-215 -152.5l5 -19l321 -172v-69q-95 -43 -129.5 -113.5t-34.5 -198.5v-112q0 -54 -6.5 -91t-24 -69.5t-53 -48.5t-88.5 -16q-83 0 -129 32z" />
<glyph unicode="&#xf71c;" horiz-adv-x="1378" d="M92 57l17 76q55 -31 104 -31q26 0 43 8t25.5 17t12.5 33t4.5 38.5t0.5 51.5v112q0 129 34 209.5t124 139.5v4l-289 147l-25 103q100 113 246 184.5t316 71.5q261 0 380 -109.5t119 -320.5v-1139h-129l-334 270q-7 -30 -12.5 -49.5t-17.5 -49.5t-24.5 -50t-33 -43.5 t-45 -37t-59.5 -23t-76 -9.5q-133 0 -276 25v79q13 -2 60 -8t71.5 -9t66.5 -6t78 -3q40 0 71 13.5t50 35t32.5 50.5t21.5 57.5t15 59.5l3 15l122 19l322 -256v1059q0 187 -100.5 269.5t-304.5 82.5q-134 0 -259 -56.5t-215 -152.5l5 -19l321 -172v-69q-95 -43 -129.5 -113.5 t-34.5 -198.5v-112q0 -54 -6.5 -91t-24 -69.5t-53 -48.5t-88.5 -16q-83 0 -129 32z" />
<glyph unicode="&#xf71d;" horiz-adv-x="1552" d="M113 1192h94l209 -1073h4l325 893h95l317 -889h4l121 598q11 52 15.5 82.5t-1 60.5t-13.5 44.5t-36.5 36t-55.5 35t-85 40.5v59l307 226l47 -68l-252 -182v-4q38 -20 58.5 -31.5t45.5 -29.5t36.5 -34t23 -40t12.5 -52.5t-2.5 -66.5t-13.5 -86l-151 -711h-103l-321 883h-5 l-327 -883h-105z" />
<glyph unicode="&#xf883;" horiz-adv-x="1347" d="M113 965q100 113 245.5 184.5t315.5 71.5q261 0 380.5 -109.5t119.5 -320.5v-1139h-95v1139q0 187 -100.5 269.5t-304.5 82.5q-134 0 -258.5 -56.5t-214.5 -152.5l4 -19l289 -172v-69q-98 -36 -153.5 -110.5t-55.5 -211.5v-82q0 -113 45.5 -167t152.5 -54q87 0 150 45 l35 -67q-67 -56 -195 -56q-143 0 -213 79.5t-70 225.5v76q0 141 50.5 223.5t152.5 135.5v4l-256 147z" />
<glyph unicode="&#xf884;" horiz-adv-x="1378" d="M92 16l17 76q55 -31 104 -31q26 0 43 8t25.5 17t12.5 33t4.5 38.5t0.5 51.5v153q0 129 34 209.5t124 139.5v4l-289 147l-25 103q100 113 246 184.5t316 71.5q261 0 380 -109.5t119 -320.5v-1139h-94v1139q0 187 -100.5 269.5t-304.5 82.5q-134 0 -259 -56.5t-215 -152.5 l5 -19l321 -172v-69q-95 -43 -129.5 -113.5t-34.5 -198.5v-153q0 -54 -6.5 -91t-24 -69.5t-53 -48.5t-88.5 -16q-83 0 -129 32z" />
<glyph d="M-907 1554q0 64 50 106.5t144 43.5q-86 42 -86 115q0 118 199 118q88 0 145 -24l-16 -53q-83 16 -125 16q-57 0 -89 -14.5t-32 -57.5q0 -45 38 -67.5t97 -24.5l-6 -51q-55 0 -91 -3t-73 -13.5t-55 -33t-18 -57.5q0 -39 34.5 -57t90.5 -18q60 0 110 16l12 -49 q-44 -29 -147 -29q-88 0 -135 39t-47 98z" />
<glyph horiz-adv-x="1116" d="M-874 1575q0 88 57 149.5t160 61.5q107 0 163 -61t56 -150q0 -88 -57 -149.5t-162 -61.5q-103 0 -160 61.5t-57 149.5zM-797 1575q0 -65 38 -103t102 -38q67 0 104 37.5t37 103.5t-37 103.5t-104 37.5q-64 0 -102 -37t-38 -104zM92 1092q62 54 161 91.5t222 37.5 q233 0 350 -116t117 -312v-793h-94v793q0 165 -91.5 257.5t-281.5 92.5q-206 0 -338 -115z" />
</font>
</defs>
</svg>
