<?xml version="1.0" standalone="no"?>
<!DOCTYPE svg PUBLIC "-//W3C//DTD SVG 1.1//EN" "http://www.w3.org/Graphics/SVG/1.1/DTD/svg11.dtd" >
<svg xmlns="http://www.w3.org/2000/svg" xmlns:xlink="http://www.w3.org/1999/xlink" version="1.1">
<metadata></metadata>
<defs>
<font id="psu_stidtibold" horiz-adv-x="0" >
<font-face units-per-em="2048" ascent="1536" descent="-512" />
<missing-glyph horiz-adv-x="610" />
<glyph unicode="&#xe2f;&#xe2f;" horiz-adv-x="1589" d="M82 1012h328q0 -95 24 -139t94 -44q67 0 99 53.5t32 129.5h340v-1012h-364v365q0 163 106 317l-10 8q-35 -48 -103 -81.5t-153 -33.5q-202 0 -297.5 107.5t-95.5 329.5zM1116 0v1012h361v-1012h-361z" />
<glyph unicode="&#xe4f;&#x22;" horiz-adv-x="1325" d="M61 618q0 90 24 174t73.5 157.5t119.5 128.5t169.5 86.5t216.5 31.5t216 -31.5t169 -86.5t119 -128.5t72.5 -157.5t23.5 -174t-23.5 -174t-72.5 -157.5t-119 -128t-169 -86t-216 -31.5t-216.5 31.5t-169.5 86t-119.5 128t-73.5 157.5t-24 174zM309 1288v449h279v-449 h-279zM332 618q0 -145 90 -238t242 -93t240.5 92.5t88.5 238.5q0 148 -88.5 240t-240.5 92q-153 0 -242.5 -92.5t-89.5 -239.5zM440 618q0 97 58 159.5t164 62.5t163.5 -62.5t57.5 -159.5q0 -98 -57.5 -159.5t-163.5 -61.5q-107 0 -164.5 61.5t-57.5 159.5zM731 1288v449 h279v-449h-279z" />
<glyph unicode="&#xe24;&#xe32;" horiz-adv-x="2136" d="M51 958q102 114 280.5 188.5t373.5 74.5q238 0 380 -93q170 93 371 93q290 0 428.5 -124.5t138.5 -383.5v-1225h-364v1229q0 117 -54 169t-173 52q-96 0 -183 -41q25 -89 25 -197v-1212h-365v1212q0 127 -54 182.5t-185 55.5q-68 0 -139 -21.5t-115 -56.5l2 -4l192 -125 v-113q-85 -38 -113 -81.5t-28 -147.5v-41q0 -54 22.5 -78t67.5 -24q65 0 111 37l108 -224q-55 -47 -123 -67.5t-166 -20.5q-183 0 -284 90.5t-101 264.5v65q0 95 53.5 168t141.5 111v4l-209 139z" />
<glyph unicode="&#xe26;&#xe32;" horiz-adv-x="2174" d="M41 27l39 243q37 -16 86 -16q39 0 53 21t14 63v57q0 195 132 275v4l-236 139l-39 145q102 114 280 188.5t373 74.5q239 0 381 -93q170 93 371 93q290 0 428.5 -124.5t138.5 -383.5v-1225h-364v1229q0 116 -54.5 168.5t-173.5 52.5q-95 0 -182 -41q25 -89 25 -197v-1212 h-365v1212q0 127 -54 182.5t-185 55.5q-68 0 -139 -21.5t-115 -56.5l2 -4l219 -125v-113q-24 -12 -41 -26.5t-27 -35.5t-15.5 -34.5t-8 -43.5t-2.5 -40v-45v-117q0 -63 -14 -115t-45.5 -96.5t-90 -69t-141.5 -24.5q-158 0 -250 56z" />
<glyph unicode="fi" horiz-adv-x="1368" d="M61 625v262h111v65q0 209 128 327t349 118q336 0 494 -244l-219 -137q-44 57 -97 88t-131 31q-172 0 -172 -181v-67h203v-262h-186v-625h-369v625h-111zM901 0v938h365v-938h-365z" />
<glyph unicode="fl" horiz-adv-x="1566" d="M61 625v262h111v78q0 218 129 325t369 107q174 0 329 -47.5t252 -132.5v-787q0 -37 1.5 -60.5t7 -49.5t15.5 -40.5t28.5 -24t44.5 -9.5q66 0 122 33l97 -218q-109 -90 -316 -90q-103 0 -174.5 32.5t-111.5 96t-57 144.5t-17 192v658q-92 45 -211 45q-156 0 -156 -174v-78 h203v-262h-186v-625h-369v625h-111z" />
<glyph />
<glyph />
<glyph unicode="&#xd;" horiz-adv-x="610" />
<glyph unicode=" "  horiz-adv-x="610" />
<glyph unicode="&#x09;" horiz-adv-x="610" />
<glyph unicode="&#xa0;" horiz-adv-x="610" />
<glyph unicode="!" horiz-adv-x="606" d="M113 0v221h381v-221h-381zM115 1348h377l-15 -1055h-348z" />
<glyph unicode="&#x22;" horiz-adv-x="833" d="M61 893v455h316v-455h-316zM457 893v455h315v-455h-315z" />
<glyph unicode="#" horiz-adv-x="1566" d="M61 258l70 242h182l68 225h-203l78 242h197l79 266h310l-80 -266h235l80 266h309l-79 -266h198l-80 -242h-190l-68 -225h211l-69 -242h-213l-76 -258h-309l75 258h-237l-76 -258h-309l76 258h-179zM623 500h235l68 225h-236z" />
<glyph unicode="$" horiz-adv-x="1312" d="M61 195l144 284q90 -75 224.5 -119.5t248.5 -44.5q196 0 196 76q0 22 -11.5 37.5t-38 27t-50 18.5t-69 18t-74.5 20q-128 39 -218.5 79.5t-161 95t-105.5 124.5t-35 158q0 83 29.5 148t83 107t120 68t150.5 39v217h356v-219q222 -41 367 -135l-140 -274 q-70 45 -195.5 79.5t-222.5 34.5q-172 0 -172 -63q0 -22 14 -38.5t44 -30t59 -22.5t77.5 -23.5t80.5 -25.5q61 -22 97.5 -36t86 -34.5t78.5 -36.5t66 -38t57.5 -43t43.5 -48.5t34 -57t18.5 -65.5t7.5 -77q0 -158 -104 -253.5t-297 -125.5v-217h-356v217q-273 44 -433 179z " />
<glyph unicode="%" horiz-adv-x="1665" d="M61 1010q0 162 83 263t249 101t249 -101t83 -263q0 -163 -82.5 -263t-249.5 -100t-249.5 100t-82.5 263zM240 0l854 1350h331l-854 -1350h-331zM311 1010q0 -73 17.5 -107.5t64.5 -34.5t64.5 34.5t17.5 107.5q0 76 -17.5 109.5t-64.5 33.5q-46 0 -64 -34t-18 -109z M940 334q0 162 83 263t249 101t249 -101t83 -263q0 -163 -82.5 -263t-249.5 -100t-249.5 100t-82.5 263zM1190 334q0 -72 17.5 -106.5t64.5 -34.5t64.5 34.5t17.5 106.5q0 76 -17.5 109.5t-64.5 33.5q-46 0 -64 -34t-18 -109z" />
<glyph unicode="&#x26;" horiz-adv-x="1370" d="M61 377q0 235 269 391l32 20q-133 126 -133 259q0 85 32.5 150.5t88 103t122.5 56.5t142 19q104 0 182.5 -29.5t121 -78.5t63 -104t20.5 -115q0 -178 -223 -320l113 -133q45 66 96 190l207 -204q-35 -89 -119 -222l295 -360h-358l-105 123q-137 -150 -377 -150 q-97 0 -180 24.5t-148.5 72.5t-103 127t-37.5 180zM418 389q0 -58 39.5 -89.5t103.5 -31.5q56 0 98.5 25.5t65.5 62.5l-176 215l-41 -30q-44 -35 -67 -69t-23 -83zM524 1034q0 -41 25 -74t61 -55q43 19 70 54.5t27 76.5q0 37 -25.5 61.5t-67.5 24.5q-41 0 -65.5 -23.5 t-24.5 -64.5z" />
<glyph unicode="'" horiz-adv-x="442" d="M61 893v455h320v-455h-320z" />
<glyph unicode="(" horiz-adv-x="696" d="M61 649q0 244 83 463t227 369l264 -105q-205 -316 -205 -727t205 -727l-262 -104q-147 149 -229.5 367t-82.5 464z" />
<glyph unicode=")" horiz-adv-x="696" d="M61 -78q205 316 205 727t-205 727l265 105q144 -150 226.5 -368.5t82.5 -463.5q0 -246 -82 -464.5t-229 -366.5z" />
<glyph unicode="*" horiz-adv-x="874" d="M61 936l199 92l-199 92l115 183l141 -84l-10 159h260l-10 -159l141 84l115 -183l-199 -92l199 -92l-106 -191l-150 95l10 -160h-260l10 160l-149 -95z" />
<glyph unicode="+" horiz-adv-x="964" d="M61 408v299h250v249h340v-249h252v-299h-250v-246h-342v246h-250z" />
<glyph unicode="," horiz-adv-x="573" d="M61 -248l111 430h340l-139 -430h-312z" />
<glyph unicode="-" horiz-adv-x="925" d="M61 385v332h803v-332h-803z" />
<glyph unicode="." horiz-adv-x="483" d="M61 0v324h361v-324h-361z" />
<glyph unicode="/" horiz-adv-x="993" d="M61 0l494 1348h377l-494 -1348h-377z" />
<glyph unicode="0" horiz-adv-x="1380" d="M61 672q0 159 38.5 287.5t115 222t197 144t278.5 50.5t278.5 -50.5t197 -144t115 -222t38.5 -287.5q0 -123 -24 -229t-74.5 -193t-124 -149t-177 -96t-229.5 -34t-229.5 34t-177 96t-124 149t-74.5 193t-24 229zM438 672q0 -398 252 -398t252 398q0 91 -12.5 161 t-40 125.5t-78 85t-121.5 29.5t-121.5 -29.5t-78 -85t-40 -125.5t-12.5 -161z" />
<glyph unicode="1" horiz-adv-x="925" d="M10 1024l447 324h325v-1348h-381v952l-194 -151z" />
<glyph unicode="2" horiz-adv-x="1181" d="M61 0q0 108 8.5 189t31.5 151.5t55 123.5t86.5 107.5t118.5 101t159 105.5q15 9 52 30t61.5 36.5t52.5 37t42.5 45.5t14.5 50q0 53 -37.5 74.5t-105.5 21.5q-87 0 -171 -45t-153 -117l-208 230q200 235 544 235q245 0 376.5 -104.5t131.5 -294.5q0 -46 -11 -89.5 t-26.5 -77t-43.5 -67.5t-51 -57t-60.5 -51t-60.5 -44t-62 -40q-26 -17 -94 -57t-110.5 -67t-80 -63.5t-37.5 -64.5h631v-299h-1053z" />
<glyph unicode="3" horiz-adv-x="1259" d="M51 184l172 234q144 -144 350 -144q248 0 248 140q0 39 -20 65.5t-44.5 39.5t-75.5 19.5t-82 7.5t-95 1h-25v266q47 0 78.5 1.5t70.5 5.5t64.5 13t48.5 23.5t34 37.5t11 54q0 64 -56.5 94.5t-147.5 30.5q-167 0 -291 -117l-195 220q86 97 223 148.5t295 51.5 q88 0 168 -14t150 -44.5t121 -74.5t80.5 -108t29.5 -142q0 -226 -231 -291v-8q126 -30 196 -106t70 -195q0 -106 -44.5 -188t-124.5 -132.5t-185 -76t-230 -25.5q-366 0 -563 213z" />
<glyph unicode="4" horiz-adv-x="1255" d="M31 272v314l594 762h413v-781h176v-295h-167v-272h-365v272h-651zM358 555h357v467h-4z" />
<glyph unicode="5" horiz-adv-x="1255" d="M61 127l154 248q91 -59 178 -86t199 -27q108 0 172.5 41t64.5 129q0 55 -23 92t-67.5 55.5t-95.5 25.5t-123 7q-179 0 -364 -37v773h958v-279h-622v-186q82 12 167 12q261 0 398 -119.5t137 -341.5q0 -224 -159.5 -343.5t-442.5 -119.5q-335 0 -531 156z" />
<glyph unicode="6" horiz-adv-x="1269" d="M61 610q0 180 33 317t104 239.5t190.5 156t285.5 53.5q329 0 502 -227l-203 -188q-60 66 -128.5 95t-162.5 29q-136 0 -210.5 -76t-74.5 -216q50 42 126 65t153 23q244 0 388 -122.5t144 -320.5q0 -97 -33.5 -180.5t-100 -148t-175 -101.5t-248.5 -37q-155 0 -269.5 45.5 t-184 131t-103 200.5t-33.5 262zM446 428q0 -81 55 -127.5t148 -46.5q98 0 150.5 44.5t52.5 129.5q0 82 -58 126t-143 44q-94 0 -149.5 -43.5t-55.5 -126.5z" />
<glyph unicode="7" horiz-adv-x="1138" d="M61 1044v304h1016v-252l-557 -1096h-418l543 1044h-584z" />
<glyph unicode="8" horiz-adv-x="1290" d="M61 379q0 120 77 206t206 117v5q-91 32 -155 102.5t-64 175.5q0 189 144.5 290t375.5 101t375.5 -101t144.5 -290q0 -106 -64.5 -178t-154.5 -100v-5q128 -39 205.5 -124t77.5 -199q0 -102 -45.5 -181t-126 -128t-185 -74t-227.5 -25t-227.5 25t-185 74t-126 128 t-45.5 181zM438 397q0 -76 56 -115.5t151 -39.5t151 39.5t56 115.5q0 75 -61.5 114.5t-145.5 39.5q-85 0 -146 -39.5t-61 -114.5zM469 971q0 -65 51 -99t125 -34t125 34t51 99q0 61 -50 98t-126 37t-126 -37t-50 -98z" />
<glyph unicode="9" horiz-adv-x="1269" d="M61 905q0 97 33.5 181t100 149.5t175 103t248.5 37.5q124 0 223 -32t167 -89t113.5 -138t66 -175.5t20.5 -204.5q0 -146 -17 -259t-59.5 -211t-111.5 -161t-175.5 -99t-248.5 -36q-162 0 -292 54t-210 147l182 195q125 -113 318 -113q87 0 142.5 18.5t85 60t40 93.5 t10.5 133q-42 -46 -120 -73t-164 -27q-239 0 -383 124t-144 322zM414 915q0 -82 58.5 -128t143.5 -46q93 0 150 47.5t57 126.5q0 81 -56 130t-149 49q-97 0 -150.5 -46.5t-53.5 -132.5z" />
<glyph unicode=":" horiz-adv-x="483" d="M61 49v324h361v-324h-361zM61 653v324h361v-324h-361z" />
<glyph unicode=";" horiz-adv-x="573" d="M61 -59l111 430h340l-139 -430h-312zM137 653v324h361v-324h-361z" />
<glyph unicode="&#x3c;" horiz-adv-x="942" d="M61 489v279l820 406v-347l-447 -200v-9l447 -202v-348z" />
<glyph unicode="=" horiz-adv-x="892" d="M61 150v303h770v-303h-770zM61 600v303h770v-303h-770z" />
<glyph unicode="&#x3e;" horiz-adv-x="942" d="M61 68v348l447 202v9l-447 200v347l820 -406v-279z" />
<glyph unicode="?" horiz-adv-x="1058" d="M51 1159q67 89 194 151t294 62q95 0 176.5 -22t145 -64.5t100 -110.5t36.5 -155q0 -62 -16 -114t-41.5 -89t-56 -71.5l-61 -69t-56 -73t-41.5 -92t-16 -118.5v-102h-381v102q0 88 22 164.5t55 126t71.5 94.5t71.5 75.5t55 63.5t22 62q0 45 -32 67.5t-83 22.5 q-143 0 -246 -131zM322 0v221h393v-221h-393z" />
<glyph unicode="@" horiz-adv-x="1693" d="M72 582q13 107 49.5 204.5t105.5 190t162.5 159.5t230 107.5t300.5 40.5q236 0 404 -79.5t247.5 -232.5t52.5 -360q-28 -211 -150.5 -326.5t-281.5 -115.5q-64 0 -119.5 26t-81.5 70h-4q-73 -94 -229 -94q-71 0 -129.5 25t-100 72t-57.5 123t0 171q26 157 128.5 261 t262.5 104q119 0 176 -70l19 33h190l-114 -445q-7 -35 7.5 -54t47.5 -17q61 1 104.5 65t61.5 170q14 98 -3 175t-57.5 125.5t-103.5 80t-134 44t-155 12.5q-220 0 -364.5 -119t-182.5 -346q-22 -135 1.5 -235.5t84.5 -160.5t147.5 -89t198.5 -29q79 0 150 17t106 46 l101 -203q-125 -82 -373 -82q-167 0 -303.5 46.5t-234 135.5t-141 231.5t-19.5 322.5zM737 448.5q15 -42.5 64 -42.5q68 0 82 53l47 164q10 29 -8.5 50t-55.5 21q-87 0 -125 -137q-19 -66 -4 -108.5z" />
<glyph unicode="A" horiz-adv-x="1449" d="M10 0l529 1348h370l531 -1348h-406l-92 270h-430l-92 -270h-410zM582 537h284l-141 432h-4z" />
<glyph unicode="B" horiz-adv-x="1378" d="M113 0v1348h628q110 0 201.5 -21t163 -64t111.5 -115.5t40 -168.5q0 -99 -57.5 -161.5t-157.5 -90.5v-6q134 -34 204.5 -115.5t70.5 -189.5q0 -203 -141.5 -309.5t-372.5 -106.5h-690zM477 274h293q86 0 134 37.5t48 104.5q0 65 -48.5 101t-143.5 36h-283v-279zM477 819 h240q79 0 127.5 32t48.5 95q0 127 -176 127h-240v-254z" />
<glyph unicode="C" horiz-adv-x="1464" d="M61 674q0 205 83.5 363.5t243.5 248.5t374 90q223 0 379 -76.5t262 -230.5l-211 -221q-152 225 -379 225q-178 0 -276.5 -104t-98.5 -295q0 -193 98.5 -296.5t276.5 -103.5q88 0 161 32t121.5 79t96.5 119l211 -225q-98 -148 -247.5 -228t-383.5 -80q-165 0 -300 52 t-224.5 145.5t-138 222.5t-48.5 283z" />
<glyph unicode="D" horiz-adv-x="1421" d="M113 0v1348h594q300 0 476.5 -182t176.5 -482q0 -200 -78.5 -354.5t-227.5 -242t-347 -87.5h-594zM485 299h213q74 0 131 31.5t92 85.5t52.5 122t17.5 146q0 103 -30 183.5t-97.5 131t-165.5 50.5h-213v-750z" />
<glyph unicode="E" horiz-adv-x="1300" d="M113 0v1348h1089v-287h-708v-238h536v-278h-536v-258h714v-287h-1095z" />
<glyph unicode="F" horiz-adv-x="1271" d="M113 0v1348h1087v-299h-706v-250h489v-299h-489v-500h-381z" />
<glyph unicode="G" horiz-adv-x="1488" d="M61 668q0 327 193 517.5t524 190.5q207 0 357 -65.5t256 -196.5l-220 -227q-76 89 -163.5 137.5t-208.5 48.5q-172 0 -266.5 -104.5t-94.5 -300.5q0 -394 353 -394q122 0 193 53t73 140v31h-316v278h676v-317q-22 -127 -80.5 -222.5t-145.5 -152.5t-191.5 -85t-225.5 -28 q-154 0 -284 46.5t-225.5 133t-149.5 219.5t-54 298z" />
<glyph unicode="H" horiz-adv-x="1458" d="M113 0v1348h381v-527h471v527h381v-1348h-381v522h-471v-522h-381z" />
<glyph unicode="I" horiz-adv-x="647" d="M133 0v1348h381v-1348h-381z" />
<glyph unicode="J" horiz-adv-x="1097" d="M20 246l263 186q81 -158 204 -158q75 0 101 41t26 117v916h381v-883q0 -236 -117 -365t-360 -129q-350 0 -498 275z" />
<glyph unicode="K" horiz-adv-x="1427" d="M113 0v1348h372v-566l451 566h430l-483 -562q172 -110 280 -346l203 -440h-393l-146 326q-68 144 -163 209l-179 -211v-324h-372z" />
<glyph unicode="L" horiz-adv-x="1161" d="M113 0v1348h381v-1049h626v-299h-1007z" />
<glyph unicode="M" horiz-adv-x="1626" d="M113 0v1348h389l313 -723l301 723h397v-1348h-356v764l-237 -571h-207l-244 571v-764h-356z" />
<glyph unicode="N" horiz-adv-x="1449" d="M113 0v1348h370l494 -795v795h360v-1348h-362l-502 795v-795h-360z" />
<glyph unicode="O" horiz-adv-x="1538" d="M61 672q0 153 45 280.5t131.5 222.5t222 148t308.5 53t309.5 -53t223 -148t131.5 -222.5t45 -280.5t-45.5 -281t-133 -221.5t-223 -146t-307.5 -52.5q-171 0 -306.5 52t-222.5 146t-132.5 222t-45.5 281zM438 672q0 -183 85 -290.5t245 -107.5q163 0 247.5 107t84.5 291 q0 186 -84.5 293.5t-247.5 107.5q-162 0 -246 -108t-84 -293z" />
<glyph unicode="P" horiz-adv-x="1329" d="M113 0v1348h637q152 0 269.5 -52t188 -160t70.5 -257q0 -146 -74.5 -254.5t-193 -161.5t-260.5 -53h-256v-410h-381zM485 692h215q99 0 154 48.5t55 138.5q0 91 -54.5 138.5t-154.5 47.5h-215v-373z" />
<glyph unicode="Q" horiz-adv-x="1538" d="M61 672q0 153 45 280.5t131.5 222.5t222 148t308.5 53t309.5 -53t223 -148t131.5 -222.5t45 -280.5q0 -251 -132 -418.5t-374 -208.5v-4l364 -139l-161 -283l-572 375q-267 61 -404 234.5t-137 443.5zM438 672q0 -183 85 -290.5t245 -107.5q163 0 247.5 107t84.5 291 q0 186 -84.5 293.5t-247.5 107.5q-162 0 -246 -108t-84 -293z" />
<glyph unicode="R" horiz-adv-x="1363" d="M113 0v1348h645q114 0 207.5 -25.5t165.5 -77t111.5 -135t39.5 -192.5q0 -143 -84 -231.5t-213 -115.5v-4q209 -68 248 -293l43 -274h-377l-37 240q-13 94 -61.5 155.5t-134.5 61.5h-172v-457h-381zM485 739h240q92 0 140 43t48 123q0 77 -50 118.5t-138 41.5h-240v-326z " />
<glyph unicode="S" horiz-adv-x="1312" d="M61 166l150 285q94 -79 223 -128t244 -49q43 0 75 3.5t61 12.5t44.5 27t15.5 45q0 13 -3.5 24.5t-12.5 21.5t-17.5 18t-25 16.5t-29 14.5t-35 13.5t-36.5 12.5t-41.5 13.5t-42.5 13.5q-73 25 -129 47t-112.5 49t-97 54t-76.5 61.5t-58 72t-34.5 84t-12.5 99.5 q0 104 41.5 182t116.5 125t172.5 69.5t217.5 22.5q321 0 558 -153l-146 -275q-80 57 -187.5 91t-211.5 34q-185 0 -185 -84q0 -22 13.5 -39t44 -31t57.5 -23t78 -24t82 -26q98 -36 166.5 -66.5t133.5 -72t104 -87t62 -106.5t23 -135q0 -191 -155 -299.5t-418 -108.5 q-173 0 -334 47t-283 148z" />
<glyph unicode="T" horiz-adv-x="1251" d="M61 1049v299h1129v-299h-375v-1049h-381v1049h-373z" />
<glyph unicode="U" horiz-adv-x="1445" d="M102 516v832h381v-834q0 -114 59 -177t183 -63q121 0 179.5 63t58.5 177v834h380v-832q0 -251 -165 -398t-453 -147t-455.5 147.5t-167.5 397.5z" />
<glyph unicode="V" horiz-adv-x="1470" d="M41 1348h393l295 -906h8l297 906h396l-508 -1348h-375z" />
<glyph unicode="W" horiz-adv-x="1937" d="M41 1348h360l191 -906h4l217 783h320l227 -783h4l172 906h360l-340 -1348h-368l-217 719h-4l-211 -719h-373z" />
<glyph unicode="X" horiz-adv-x="1509" d="M41 0l481 688l-469 660h426l264 -422l256 422h435l-459 -668l493 -680h-436l-280 422l-263 -422h-448z" />
<glyph unicode="Y" horiz-adv-x="1443" d="M31 1348h393l307 -623h8l277 623h397l-489 -920v-428h-381v428z" />
<glyph unicode="Z" horiz-adv-x="1382" d="M82 0v244l704 805h-671v299h1159v-261l-692 -788h718v-299h-1218z" />
<glyph unicode="[" horiz-adv-x="702" d="M113 -297v1939h549v-294h-197v-1350h197v-295h-549z" />
<glyph unicode="\" horiz-adv-x="993" d="M61 1348h377l494 -1348h-377z" />
<glyph unicode="]" horiz-adv-x="702" d="M41 -2h192v1350h-192v294h549v-1939h-549v295z" />
<glyph unicode="^" horiz-adv-x="1253" d="M61 584l412 764h305l414 -764h-381l-182 399h-4l-183 -399h-381z" />
<glyph unicode="_" horiz-adv-x="935" d="M0 0h936v-274h-936v274z" />
<glyph unicode="`" horiz-adv-x="1558" d="M524 1786h394l116 -430h-286z" />
<glyph unicode="a" horiz-adv-x="1169" d="M51 293q0 87 33 150t92.5 98t132 51t162.5 16q147 0 250 -49v68q0 147 -178 147q-182 0 -336 -82l-98 242q86 51 203.5 78.5t242.5 27.5q117 0 210 -22.5t164 -70.5t109.5 -129t38.5 -191v-627h-276l-31 90q-116 -119 -315 -119q-193 0 -298.5 88.5t-105.5 233.5z M399 291q0 -47 31 -72.5t86 -25.5q67 0 125 23.5t88 64.5v61q-95 45 -213 45q-56 0 -86.5 -24.5t-30.5 -71.5z" />
<glyph unicode="b" horiz-adv-x="1261" d="M102 0v1436h349v-504q37 48 110.5 78t157.5 30q160 0 272 -69.5t165.5 -188.5t53.5 -278q0 -115 -30 -211.5t-87.5 -168.5t-149 -112.5t-208.5 -40.5q-104 0 -191.5 37t-142.5 105l-30 -113h-269zM459 397q12 -62 67 -104.5t131 -42.5q108 0 154.5 65t46.5 189 q0 120 -50.5 189t-152.5 69q-75 0 -128.5 -46.5t-67.5 -101.5v-217z" />
<glyph unicode="c" horiz-adv-x="1193" d="M51 506q0 167 78 289t213 183.5t311 61.5q147 0 274.5 -51t213.5 -160l-152 -208q-65 71 -137 106t-176 35q-120 0 -194 -67t-74 -189t74 -189t194 -67q106 0 178 35t137 106l152 -209q-82 -109 -210 -160t-280 -51q-176 0 -311 61.5t-213 184t-78 289.5z" />
<glyph unicode="d" horiz-adv-x="1261" d="M51 504q0 114 31.5 211t92 170t157 114t219.5 41q84 0 156 -29.5t104 -72.5v498h348v-1436h-268l-31 113q-48 -69 -136.5 -105.5t-191.5 -36.5q-230 0 -355.5 141.5t-125.5 391.5zM403 504q0 -125 45.5 -189.5t155.5 -64.5q73 0 127 44t72 112v202q-14 60 -65.5 107 t-131.5 47q-98 0 -150.5 -67.5t-52.5 -190.5z" />
<glyph unicode="e" horiz-adv-x="1185" d="M51 510q0 243 145 386.5t404 143.5q122 0 218 -33.5t158 -91t100 -136.5t50 -169q7 -49 7 -101q0 -43 -5 -89h-725q0 -84 54.5 -139.5t179.5 -55.5q194 0 297 103l168 -164q-158 -193 -481 -193q-271 0 -420.5 142.5t-149.5 396.5zM416 637h377q0 73 -50 117.5t-135 44.5 q-89 0 -140.5 -44.5t-51.5 -117.5z" />
<glyph unicode="f" horiz-adv-x="894" d="M61 625v262h111v143q0 159 92 252.5t271 93.5q242 0 360 -188l-147 -168q-62 84 -139 84q-11 0 -23 -2q-62 -9 -62 -96v-119h203v-262h-186v-625h-369v625h-111z" />
<glyph unicode="g" horiz-adv-x="1261" d="M51 528q0 233 136.5 372.5t361.5 139.5q202 0 311 -127l21 99h278v-897q0 -506 -555 -506q-109 0 -215.5 24.5t-173.5 65.5l55 235q146 -75 320 -75q143 0 206.5 55t63.5 164v76q-36 -56 -115.5 -90.5t-181.5 -34.5q-228 0 -370 132t-142 367zM412 528q0 -108 51 -170.5 t153 -62.5q81 0 128 40t59 99v199q-11 59 -59.5 100t-122.5 41q-102 0 -155.5 -64t-53.5 -182z" />
<glyph unicode="h" horiz-adv-x="1269" d="M102 0v1434h322v-547q48 69 133.5 111t187.5 42q215 0 324 -112.5t109 -329.5v-598h-365v592q0 170 -145 170q-74 0 -131.5 -58t-69.5 -143v-561h-365z" />
<glyph unicode="i" horiz-adv-x="610" d="M119 1102v246h373v-246h-373zM123 0v1012h364v-1012h-364z" />
<glyph unicode="j" horiz-adv-x="870" d="M-20 -281l98 244q66 -42 118 -61q44 -16 90 -16q9 0 19 1q57 4 75.5 47.5t18.5 139.5v938h365v-895q0 -130 -19.5 -220t-67 -157t-130.5 -99t-207 -32q-115 0 -207.5 31t-152.5 79zM395 1081v267h373v-267h-373z" />
<glyph unicode="k" horiz-adv-x="1210" d="M102 0v1368h344v-719h5l299 363h383l-385 -439q80 -41 136 -100.5t117 -167.5l168 -305h-358l-141 252q-47 81 -115 104l-102 -112v-244h-351z" />
<glyph unicode="l" horiz-adv-x="772" d="M92 436v932h365v-938q0 -37 1.5 -60.5t6.5 -49.5t15 -40.5t28.5 -24t44.5 -9.5q67 0 123 33l96 -218q-109 -90 -315 -90q-103 0 -175 32.5t-113 95.5t-59 145t-18 192z" />
<glyph unicode="m" horiz-adv-x="1773" d="M102 0v1012h258l21 -135q93 163 297 163q100 0 174.5 -51.5t101.5 -130.5h4q45 81 136.5 131.5t199.5 50.5q184 0 285.5 -109.5t101.5 -279.5v-651h-352v637q0 57 -29.5 91t-87.5 34q-64 0 -104.5 -44.5t-48.5 -113.5v-604h-324v637q0 56 -30.5 90.5t-88.5 34.5 q-62 0 -106 -44.5t-55 -113.5v-604h-353z" />
<glyph unicode="n" horiz-adv-x="1269" d="M102 0v1012h279l27 -135q113 163 333 163q215 0 326 -113.5t111 -328.5v-598h-365v592q0 170 -145 170q-74 0 -131.5 -58t-69.5 -143v-561h-365z" />
<glyph unicode="o" horiz-adv-x="1236" d="M51 506q0 249 151.5 391.5t415.5 142.5t416 -142.5t152 -391.5q0 -243 -148.5 -389t-419.5 -146q-270 0 -418.5 146t-148.5 389zM412 506q0 -116 49 -186t157 -70q207 0 207 256q0 117 -51 186.5t-156 69.5t-155.5 -69.5t-50.5 -186.5z" />
<glyph unicode="p" horiz-adv-x="1261" d="M102 -358v1370h258l27 -123q114 151 324 151q233 0 366 -149t133 -383q0 -151 -51 -270.5t-160 -193t-262 -73.5q-92 0 -166 30.5t-120 76.5v-436h-349zM459 410q11 -65 64 -112.5t134 -47.5q109 0 155 66.5t46 191.5v9q0 106 -48 174q-50 71 -153 71q-76 0 -127.5 -45 t-70.5 -109v-198z" />
<glyph unicode="q" horiz-adv-x="1261" d="M51 504q0 114 32.5 211.5t92.5 170t151 113.5t203 41q130 0 212 -38t135 -113l24 123h258v-1370h-348v436q-41 -46 -112.5 -76.5t-161.5 -30.5q-236 0 -361 143.5t-125 389.5zM403 504q0 -128 43.5 -191t149.5 -63q84 0 138.5 48.5t68.5 111.5v196q-20 65 -71 110.5 t-132 45.5q-98 0 -147.5 -74t-49.5 -184z" />
<glyph unicode="r" horiz-adv-x="997" d="M102 0v1012h279l31 -178q43 95 125 150.5t194 55.5q88 0 156.5 -31.5t109.5 -82.5l-161 -226q-64 54 -154 54q-83 0 -140 -55.5t-75 -139.5v-559h-365z" />
<glyph unicode="s" horiz-adv-x="1077" d="M51 121l115 225q64 -47 162.5 -82t187.5 -35q146 0 146 68q0 10 -3.5 18.5t-13 15.5t-18 12t-25.5 11t-28 9.5t-33.5 9.5t-34.5 10q-165 50 -231 84q-173 97 -177 258q0 85 37 148t103 98.5t145.5 52t175.5 16.5q261 0 432 -116l-121 -228q-141 86 -303 86q-42 0 -73 -13 t-31 -40q0 -8 3 -15t10 -13t13.5 -11.5t19 -11t21 -9t24.5 -9t24.5 -8t27 -8t25.5 -7.5q155 -50 207 -74q147 -70 178 -188q10 -36 10 -78q0 -158 -127 -242t-348 -84q-155 0 -284.5 39t-215.5 111z" />
<glyph unicode="t" horiz-adv-x="919" d="M61 725v279h154v272h340v-272h219v-279h-219v-295q0 -43 3.5 -72.5t13 -55.5t28.5 -39t49 -13q67 0 123 33l96 -222q-104 -90 -299 -90q-193 0 -286 102.5t-93 321.5v330h-129z" />
<glyph unicode="u" horiz-adv-x="1269" d="M92 414v598h365v-598q0 -81 35.5 -122.5t117.5 -41.5q86 0 133.5 52.5t59.5 133.5v576h364v-1012h-274l-29 127q-44 -68 -130 -112t-197 -44q-219 0 -332 115t-113 328z" />
<glyph unicode="v" horiz-adv-x="1183" d="M31 1012h362l199 -660h4l188 660h369l-377 -1012h-368z" />
<glyph unicode="w" horiz-adv-x="1585" d="M31 1012h329l132 -570h4l143 488h305l148 -488h4l133 570h325l-292 -1012h-297l-177 545h-4l-163 -545h-302z" />
<glyph unicode="x" horiz-adv-x="1208" d="M31 0l342 526v4l-332 482h377l170 -271h4l172 271h379l-334 -482v-4l369 -526h-381l-201 311h-4l-182 -311h-379z" />
<glyph unicode="y" horiz-adv-x="1163" d="M31 1012h377l178 -635h4l178 635h365l-359 -977q-23 -59 -38.5 -96.5t-39.5 -87.5t-45.5 -81.5t-52 -65.5t-62.5 -53t-73.5 -31.5t-89.5 -12.5q-181 0 -303 96l96 209q39 -24 67.5 -35.5t65.5 -11.5q27 0 47.5 14.5t34 42t21 52t14.5 59.5z" />
<glyph unicode="z" horiz-adv-x="1122" d="M72 0v215l514 526h-482v271h928v-215l-512 -527h531v-270h-979z" />
<glyph unicode="{" horiz-adv-x="765" d="M51 530v263q103 0 134 63q21 44 22 171v38v147q0 222 125 326t393 104v-274q-108 0 -145 -35.5t-37 -144.5v-125q0 -66 -3.5 -113.5t-15.5 -96.5t-32.5 -82.5t-55.5 -61t-84 -41.5v-13q49 -14 84 -41t55.5 -60.5t32.5 -82t15.5 -96t3.5 -113.5v-125q0 -109 37 -144.5 t145 -35.5v-274q-267 0 -392.5 105t-125.5 335v137v56t-1.5 48.5t-4.5 44.5t-8 35.5t-13 31.5t-19.5 23t-27 18t-36 9t-46.5 4z" />
<glyph unicode="|" horiz-adv-x="606" d="M113 -297v1939h381v-1939h-381z" />
<glyph unicode="}" horiz-adv-x="765" d="M41 -43q108 0 145 35.5t37 144.5v125q0 67 3.5 113.5t15 96t32 82.5t55.5 60t85 41v13q-50 14 -85 41.5t-55.5 60.5t-32 82.5t-15 96.5t-3.5 114v125q0 109 -37 144.5t-145 35.5v274q268 0 393 -104t125 -326v-147q0 -139 12 -183q19 -68 87 -84q25 -5 57 -5v-263 q-26 0 -46.5 -4t-36 -9t-27 -18t-19.5 -23t-13 -31.5t-8 -35.5t-4.5 -44.5t-1.5 -48.5v-56v-137q0 -230 -125.5 -335t-392.5 -105v274z" />
<glyph unicode="~" horiz-adv-x="1265" d="M61 555q45 100 147.5 171t235.5 71q70 0 131 -21.5t98 -47.5t85 -47.5t94 -21.5q35 0 63 9.5t51 30.5t37.5 40t36.5 52l164 -213q-22 -43 -50.5 -80.5t-71 -75.5t-103 -60t-131.5 -22q-63 0 -123.5 21.5t-100 47t-89.5 47t-95 21.5q-73 0 -123 -31.5t-96 -93.5z" />
<glyph unicode="&#xa1;" horiz-adv-x="606" d="M113 791v221h381v-221h-381zM115 -336l14 1055h348l15 -1055h-377z" />
<glyph unicode="&#xa2;" horiz-adv-x="1214" d="M61 506q0 199 106.5 330t291.5 180v209h364v-201q209 -45 328 -195l-154 -213q-65 71 -136.5 106.5t-174.5 35.5q-121 0 -194.5 -65.5t-73.5 -186.5t73.5 -186.5t194.5 -65.5q106 0 177 34.5t136 106.5l154 -213q-112 -152 -330 -194v-191h-364v199q-185 49 -291.5 180 t-106.5 330z" />
<glyph unicode="&#xa3;" horiz-adv-x="1138" d="M61 0v244q181 121 181 280h-181v283h142q-44 180 -7.5 308.5t142.5 198.5t264 70q288 0 455 -194l-187 -238q-48 58 -105.5 92t-105 37.5t-86.5 -14.5q-91 -50 -18 -252h338v-291h-291q0 -59 -15.5 -122t-51.5 -99v-4h542v-299h-1016z" />
<glyph unicode="&#xa4;" horiz-adv-x="1331" d="M61 1104l265 231l202 -237q56 20 138 20q81 0 137 -20l203 237l264 -231l-183 -205q58 -101 58 -225q0 -108 -58 -217l179 -193l-262 -235l-197 223q-64 -23 -141 -23q-78 0 -142 23l-196 -223l-262 235l178 193q-58 109 -58 217q0 124 58 225zM506 674q0 -70 44.5 -116 t115.5 -46t115 46t44 116q0 75 -42.5 120.5t-114.5 45.5t-117 -45.5t-45 -120.5z" />
<glyph unicode="&#xa5;" horiz-adv-x="1546" d="M61 1348h414l311 -533l301 533h398l-375 -584h190v-234h-325v-108h325v-234h-325v-188h-381v188h-330v234h330v108h-330v234h187z" />
<glyph unicode="&#xa6;" horiz-adv-x="606" d="M113 -297v756h381v-756h-381zM113 887v755h381v-755h-381z" />
<glyph unicode="&#xa7;" horiz-adv-x="1081" d="M61 510q0 83 43.5 143.5t106.5 94.5v4q-67 38 -108.5 108.5t-41.5 145.5q0 93 37 163t103.5 112.5t152 63.5t187.5 21q120 0 246.5 -38t226.5 -120l-117 -282q-69 60 -167 96.5t-191 36.5q-101 0 -101 -66q0 -10 3.5 -18.5t11 -16t15 -14t21 -12.5t23 -10.5t26.5 -10 t26.5 -8.5t28 -8.5t25.5 -7.5q166 -51 217 -75q129 -59 167 -157q18 -49 18 -112q0 -152 -150 -240v-4q150 -89 150 -254q0 -93 -37 -163t-103 -112.5t-151.5 -63.5t-187.5 -21q-119 0 -248 38t-225 119l116 283q69 -60 167 -96.5t192 -36.5q100 0 100 65q0 16 -10.5 28 t-32 20.5t-40.5 14t-50 13t-47 12.5q-89 23 -154 49.5t-125 68.5t-91.5 104t-31.5 143zM393 535q0 -25 14 -43t49.5 -30.5t59 -18t76.5 -15.5q7 -1 10 -2l21 -6q63 34 63 98q0 26 -16.5 45t-48.5 31.5t-64 20t-78 14.5l-22 4q-64 -34 -64 -98z" />
<glyph unicode="&#xa8;" horiz-adv-x="1558" d="M301 1317v311h352v-311h-352zM903 1317v311h352v-311h-352z" />
<glyph unicode="&#xa9;" horiz-adv-x="1589" d="M61 672q0 321 203 512.5t531 191.5q216 0 382 -85.5t258.5 -245.5t92.5 -371q0 -203 -90.5 -362.5t-258 -250t-384.5 -90.5q-163 0 -300.5 52.5t-232.5 145t-148 222t-53 281.5zM307 672q0 -220 129.5 -356t358.5 -136q228 0 357.5 137t129.5 357q0 222 -133 357.5 t-354 135.5t-354.5 -136t-133.5 -359zM393 674q0 181 105 290t293 109q138 0 220 -46t142 -130l-147 -139q-44 51 -86.5 74.5t-100.5 23.5q-79 0 -121.5 -46t-42.5 -136q0 -182 164 -182q64 0 103.5 22.5t83.5 77.5l147 -141q-60 -85 -142.5 -131t-213.5 -46 q-192 0 -298 109.5t-106 290.5z" />
<glyph unicode="&#xaa;" horiz-adv-x="800" d="M61 895q0 114 77 164.5t204 50.5q96 0 168 -33v39q0 96 -121 96q-122 0 -223 -55l-68 164q123 72 299 72q162 0 252 -67t90 -210v-420h-178l-20 52q-78 -72 -209 -72q-129 0 -200 61t-71 158zM295 895q0 -30 21.5 -47t58.5 -17q91 0 137 58v37q-68 28 -137 28 q-80 0 -80 -59z" />
<glyph unicode="&#xab;" horiz-adv-x="1435" d="M61 489v205l699 621v-414l-367 -307v-4l367 -316v-401zM676 489v205l698 621v-414l-366 -307v-4l366 -316v-401z" />
<glyph unicode="&#xac;" horiz-adv-x="1222" d="M61 492v299h1100v-598h-360v299h-740z" />
<glyph unicode="&#xad;" horiz-adv-x="925" d="M61 385v332h803v-332h-803z" />
<glyph unicode="&#xae;" horiz-adv-x="1589" d="M61 672q0 321 203 512.5t531 191.5q216 0 382 -85.5t258.5 -245.5t92.5 -371q0 -203 -90.5 -362.5t-258 -250t-384.5 -90.5q-163 0 -300.5 52.5t-232.5 145t-148 222t-53 281.5zM307 672q0 -220 129.5 -356t358.5 -136q228 0 357.5 137t129.5 357q0 222 -133 357.5 t-354 135.5t-354.5 -136t-133.5 -359zM508 328v700h336q122 0 198 -58t76 -173q0 -73 -44 -117.5t-107 -56.5v-2q99 -29 125 -150l24 -143h-219l-20 125q-18 104 -89 104h-67v-229h-213zM721 717h98q36 0 59 20.5t23 57.5q0 35 -22.5 54t-59.5 19h-98v-151z" />
<glyph unicode="&#xb0;" horiz-adv-x="847" d="M61 1313q0 144 100.5 244t262.5 100q161 0 261.5 -100t100.5 -244t-100.5 -245t-261.5 -101t-262 101t-101 245zM287 1313q0 -62 36.5 -102t100.5 -40t100.5 40t36.5 102t-36.5 100.5t-100.5 38.5t-100.5 -38.5t-36.5 -100.5z" />
<glyph unicode="&#xb1;" horiz-adv-x="942" d="M61 688v299h238v244h340v-244h242v-299h-240v-229h-342v229h-238zM74 51v299h782v-299h-782z" />
<glyph unicode="&#xb2;" horiz-adv-x="702" d="M61 1237q45 57 122 93t171 36q122 0 203.5 -55.5t81.5 -151.5q0 -81 -34 -126.5t-109 -94.5q-14 -9 -59 -32t-77 -42.5t-32 -29.5h313v-185h-571q0 108 17 169t61.5 108.5t138.5 107.5q5 3 26 14.5t32 18.5t26 18.5t22.5 23.5t7.5 24q0 21 -14.5 28.5t-42.5 7.5 q-87 0 -162 -82z" />
<glyph unicode="&#xb3;" horiz-adv-x="720" d="M61 750l101 135q73 -70 172 -70q46 0 69 11t23 44q0 15 -6 26t-16 17t-24 10t-30 5t-33.5 2t-35.5 0h-17v149q38 0 59.5 1.5t44 7t32.5 17.5t10 32q0 51 -76 51q-78 0 -137 -53l-111 125q43 52 114 78t154 26q79 0 142 -20t104 -66t41 -113q0 -112 -113 -147v-4 q58 -12 94.5 -55.5t36.5 -102.5q0 -110 -83.5 -163.5t-221.5 -53.5q-190 0 -293 111z" />
<glyph unicode="&#xb4;" horiz-adv-x="1558" d="M524 1356l117 430h393l-223 -430h-287z" />
<glyph unicode="&#xb5;" horiz-adv-x="1280" d="M102 -426v1438h365v-598q0 -160 156 -160q79 0 129 49.5t61 136.5v572h365v-1012h-275l-26 123q-41 -69 -102.5 -106t-162.5 -37q-48 0 -94 14.5t-69 42.5h-3v-463h-344z" />
<glyph unicode="&#xb6;" horiz-adv-x="1513" d="M61 997q0 94 32 164t88.5 109.5t124 58.5t147.5 19h999v-332h-152v-1528h-348v1528h-139v-1528h-348v1151h-12q-79 0 -147 19.5t-124.5 60.5t-88.5 112t-32 166z" />
<glyph unicode="&#xb7;" horiz-adv-x="483" d="M61 487v324h361v-324h-361z" />
<glyph unicode="&#xb8;" horiz-adv-x="1558" d="M492 -494l47 183q71 -29 141 -29q67 0 97 21.5t30 68.5q0 43 -31.5 69t-99.5 36l37 145h254l-29 -100q131 -52 131 -179t-93 -192.5t-257 -65.5q-140 0 -227 43z" />
<glyph unicode="&#xb9;" horiz-adv-x="583" d="M61 1151l230 197h231v-689h-246v449l-98 -88z" />
<glyph unicode="&#xba;" horiz-adv-x="872" d="M61 1036q0 166 101 261.5t274 95.5t274 -95.5t101 -261.5q0 -163 -98 -259.5t-277 -96.5q-177 0 -276 97t-99 259zM303 1036q0 -155 133 -155t133 155q0 74 -33.5 115t-99.5 41t-99.5 -41t-33.5 -115z" />
<glyph unicode="&#xbb;" horiz-adv-x="1435" d="M61 -127v401l367 316v4l-367 307v414l699 -621v-205zM676 -127v401l366 316v4l-366 307v414l698 -621v-205z" />
<glyph unicode="&#xbc;" horiz-adv-x="1669" d="M61 1151l230 197h231v-689h-246v449l-98 -88zM227 0l852 1348h332l-852 -1348h-332zM969 121v190l266 383h287v-393h86v-180h-86v-121h-230v121h-323zM1176 289h157v227z" />
<glyph unicode="&#xbd;" horiz-adv-x="1695" d="M61 1151l230 197h231v-689h-246v449l-98 -88zM227 0l852 1348h332l-852 -1348h-332zM1047 588q45 57 121.5 93t170.5 36q122 0 203.5 -55.5t81.5 -151.5q0 -55 -20 -97t-47.5 -67t-75.5 -57q-9 -6 -49.5 -30t-63 -40.5t-22.5 -25.5h288v-193h-583q0 151 41.5 222 t179.5 163q84 45 102 71q8 11 8 21q0 35 -53 35q-80 0 -162 -90z" />
<glyph unicode="&#xbe;" horiz-adv-x="1744" d="M61 750l101 135q73 -70 172 -70q46 0 69 11t23 44q0 15 -6 26t-16 17t-24 10t-30 5t-33.5 2t-35.5 0h-17v149q38 0 59.5 1.5t44 7t32.5 17.5t10 32q0 51 -76 51q-78 0 -137 -53l-111 125q43 52 114 78t154 26q79 0 142 -20t104 -66t41 -113q0 -112 -113 -147v-4 q58 -12 94.5 -55.5t36.5 -102.5q0 -110 -83.5 -163.5t-221.5 -53.5q-190 0 -293 111zM309 0l852 1348h332l-852 -1348h-332zM1044 121v190l267 383h286v-393h86v-180h-86v-121h-229v121h-324zM1251 289h158v227z" />
<glyph unicode="&#xbf;" horiz-adv-x="1058" d="M61 -8q0 62 16 113.5t41.5 88.5t56.5 71.5t61.5 69t56 72.5t41.5 92t16 119v103h381v-103q0 -76 -16.5 -143t-42.5 -115t-57.5 -89t-63.5 -72.5t-58 -58.5t-42.5 -54t-16.5 -53q0 -45 32 -67.5t83 -22.5q143 0 246 131l213 -221q-67 -89 -194 -151t-294 -62 q-128 0 -229.5 37.5t-165.5 118.5t-64 196zM344 791v221h393v-221h-393z" />
<glyph unicode="&#xc0;" horiz-adv-x="1449" d="M10 0l529 1348h370l531 -1348h-406l-92 270h-430l-92 -270h-410zM350 1856h394l116 -430h-286zM582 537h284l-141 432h-4z" />
<glyph unicode="&#xc1;" horiz-adv-x="1449" d="M10 0l529 1348h370l531 -1348h-406l-92 270h-430l-92 -270h-410zM582 537h284l-141 432h-4zM590 1425l117 430h393l-223 -430h-287z" />
<glyph unicode="&#xc2;" horiz-adv-x="1449" d="M10 0l529 1348h370l531 -1348h-406l-92 270h-430l-92 -270h-410zM299 1426l303 434h252l295 -434h-319l-101 182h-2l-106 -182h-322zM582 537h284l-141 432h-4z" />
<glyph unicode="&#xc3;" horiz-adv-x="1449" d="M10 0l529 1348h370l531 -1348h-406l-92 270h-430l-92 -270h-410zM250 1612q49 97 137.5 155t200.5 58q59 0 109.5 -19t79.5 -41.5t67 -41.5t76 -19q52 0 84.5 26t64.5 82l127 -170q-48 -91 -113.5 -143.5t-168.5 -52.5q-59 0 -110 19t-80.5 41t-67.5 41t-74 19 q-116 0 -188 -100zM582 537h284l-141 432h-4z" />
<glyph unicode="&#xc4;" horiz-adv-x="1449" d="M10 0l529 1348h370l531 -1348h-406l-92 270h-430l-92 -270h-410zM248 1446v311h352v-311h-352zM582 537h284l-141 432h-4zM850 1446v311h352v-311h-352z" />
<glyph unicode="&#xc5;" horiz-adv-x="1449" d="M10 0l502 1280q-88 82 -88 205q0 119 83 197.5t216 78.5q132 0 214.5 -78.5t82.5 -197.5q0 -124 -86 -201l506 -1284h-406l-92 270h-430l-92 -270h-410zM582 537h284l-141 432h-4zM637 1485q0 -37 22.5 -62.5t63.5 -25.5q40 0 62 25.5t22 62.5t-22 62.5t-62 25.5 q-41 0 -63.5 -25.5t-22.5 -62.5z" />
<glyph unicode="&#xc6;" horiz-adv-x="1898" d="M10 0l676 1348h1114v-287h-612v-238h454v-278h-454v-258h618v-287h-962v291h-322l-141 -291h-371zM633 565h219v484h-2z" />
<glyph unicode="&#xc7;" horiz-adv-x="1464" d="M61 674q0 205 83.5 363.5t243.5 248.5t374 90q223 0 379 -76.5t262 -230.5l-211 -221q-152 225 -379 225q-178 0 -276.5 -104t-98.5 -295q0 -193 98.5 -296.5t276.5 -103.5q88 0 161 32t121.5 79t96.5 119l211 -225q-83 -125 -202 -201t-296 -98l-22 -80 q131 -52 131 -179t-93 -192.5t-257 -65.5q-141 0 -228 43l47 183q71 -29 142 -29q67 0 97 21.5t30 68.5q0 43 -31.5 69t-99.5 36l30 125q-276 36 -433 224t-157 470z" />
<glyph unicode="&#xc8;" horiz-adv-x="1300" d="M113 0v1348h1089v-287h-708v-238h536v-278h-536v-258h714v-287h-1095zM305 1855h393l117 -430h-287z" />
<glyph unicode="&#xc9;" horiz-adv-x="1300" d="M113 0v1348h1089v-287h-708v-238h536v-278h-536v-258h714v-287h-1095zM504 1425l117 430h393l-223 -430h-287z" />
<glyph unicode="&#xca;" horiz-adv-x="1300" d="M113 0v1348h1089v-287h-708v-238h536v-278h-536v-258h714v-287h-1095zM231 1425l304 435h251l295 -435h-319l-100 183h-3l-106 -183h-322z" />
<glyph unicode="&#xcb;" horiz-adv-x="1300" d="M113 0v1348h1089v-287h-708v-238h536v-278h-536v-258h714v-287h-1095zM182 1446v311h352v-311h-352zM784 1446v311h352v-311h-352z" />
<glyph unicode="&#xcc;" horiz-adv-x="647" d="M-41 1855h393l117 -430h-287zM133 0v1348h381v-1348h-381z" />
<glyph unicode="&#xcd;" horiz-adv-x="647" d="M133 0v1348h381v-1348h-381zM180 1425l117 430h393l-223 -430h-287z" />
<glyph unicode="&#xce;" horiz-adv-x="647" d="M-105 1446l303 434h252l295 -434h-319l-101 182h-2l-106 -182h-322zM133 0v1348h381v-1348h-381z" />
<glyph unicode="&#xcf;" horiz-adv-x="647" d="M-133 1446v311h352v-311h-352zM133 0v1348h381v-1348h-381zM428 1446v311h352v-311h-352z" />
<glyph unicode="&#xd0;" horiz-adv-x="1585" d="M61 518v307h215v523h594q300 0 477 -182t177 -482q0 -200 -78.5 -354.5t-228 -242t-347.5 -87.5h-594v518h-215zM649 303h213q144 0 218.5 108t74.5 273q0 102 -30 181t-97.5 129t-165.5 50h-213v-219h246v-307h-246v-215z" />
<glyph unicode="&#xd1;" horiz-adv-x="1449" d="M113 0v1348h370l494 -795v795h360v-1348h-362l-502 795v-795h-360zM244 1612q49 97 137.5 155t200.5 58q59 0 109.5 -19t79.5 -41.5t67 -41.5t76 -19q52 0 84.5 26t64.5 82l127 -170q-48 -91 -113.5 -143.5t-168.5 -52.5q-59 0 -110 19t-80.5 41t-67.5 41t-74 19 q-116 0 -188 -100z" />
<glyph unicode="&#xd2;" horiz-adv-x="1538" d="M61 672q0 153 45 280.5t131.5 222.5t222 148t308.5 53t309.5 -53t223 -148t131.5 -222.5t45 -280.5t-45.5 -281t-133 -221.5t-223 -146t-307.5 -52.5q-171 0 -306.5 52t-222.5 146t-132.5 222t-45.5 281zM408 1855h393l117 -430h-287zM438 672q0 -183 85 -290.5 t245 -107.5q163 0 247.5 107t84.5 291q0 186 -84.5 293.5t-247.5 107.5q-162 0 -246 -108t-84 -293z" />
<glyph unicode="&#xd3;" horiz-adv-x="1538" d="M61 672q0 153 45 280.5t131.5 222.5t222 148t308.5 53t309.5 -53t223 -148t131.5 -222.5t45 -280.5t-45.5 -281t-133 -221.5t-223 -146t-307.5 -52.5q-171 0 -306.5 52t-222.5 146t-132.5 222t-45.5 281zM438 672q0 -183 85 -290.5t245 -107.5q163 0 247.5 107t84.5 291 q0 186 -84.5 293.5t-247.5 107.5q-162 0 -246 -108t-84 -293zM637 1425l117 430h393l-223 -430h-287z" />
<glyph unicode="&#xd4;" horiz-adv-x="1538" d="M61 672q0 153 45 280.5t131.5 222.5t222 148t308.5 53t309.5 -53t223 -148t131.5 -222.5t45 -280.5t-45.5 -281t-133 -221.5t-223 -146t-307.5 -52.5q-171 0 -306.5 52t-222.5 146t-132.5 222t-45.5 281zM344 1426l303 434h252l295 -434h-319l-101 182h-2l-106 -182h-322 zM438 672q0 -183 85 -290.5t245 -107.5q163 0 247.5 107t84.5 291q0 186 -84.5 293.5t-247.5 107.5q-162 0 -246 -108t-84 -293z" />
<glyph unicode="&#xd5;" horiz-adv-x="1538" d="M61 672q0 153 45 280.5t131.5 222.5t222 148t308.5 53t309.5 -53t223 -148t131.5 -222.5t45 -280.5t-45.5 -281t-133 -221.5t-223 -146t-307.5 -52.5q-171 0 -306.5 52t-222.5 146t-132.5 222t-45.5 281zM295 1612q49 97 137.5 155t200.5 58q59 0 109.5 -19t79.5 -41.5 t67 -41.5t76 -19q52 0 84.5 26t64.5 82l127 -170q-48 -91 -114 -143.5t-169 -52.5q-59 0 -110 19t-80 41.5t-67 41.5t-74 19q-116 0 -189 -101zM438 672q0 -183 85 -290.5t245 -107.5q163 0 247.5 107t84.5 291q0 186 -84.5 293.5t-247.5 107.5q-162 0 -246 -108t-84 -293z " />
<glyph unicode="&#xd6;" horiz-adv-x="1538" d="M61 672q0 153 45 280.5t131.5 222.5t222 148t308.5 53t309.5 -53t223 -148t131.5 -222.5t45 -280.5t-45.5 -281t-133 -221.5t-223 -146t-307.5 -52.5q-171 0 -306.5 52t-222.5 146t-132.5 222t-45.5 281zM291 1446v311h352v-311h-352zM438 672q0 -183 85 -290.5 t245 -107.5q163 0 247.5 107t84.5 291q0 186 -84.5 293.5t-247.5 107.5q-162 0 -246 -108t-84 -293zM893 1446v311h352v-311h-352z" />
<glyph unicode="&#xd7;" horiz-adv-x="970" d="M61 346l203 203l-203 205l220 217l204 -201l205 201l219 -219l-204 -203l200 -205l-215 -215l-205 201l-202 -203z" />
<glyph unicode="&#xd8;" horiz-adv-x="1538" d="M61 672q0 153 45 280.5t131.5 222.5t222 148t308.5 53q63 0 131 -10l64 156h303l-99 -242q153 -90 231.5 -246.5t78.5 -361.5q0 -153 -45.5 -281t-133 -221.5t-223 -146t-307.5 -52.5q-68 0 -133 9l-66 -164h-303l103 252q-152 90 -230 245.5t-78 358.5zM438 672 q0 -166 68 -269l272 670h-10q-162 0 -246 -108t-84 -293zM756 274h12q163 0 247.5 107t84.5 291q0 171 -70 272z" />
<glyph unicode="&#xd9;" horiz-adv-x="1445" d="M102 516v832h381v-834q0 -114 59 -177t183 -63q121 0 179.5 63t58.5 177v834h380v-832q0 -251 -165 -398t-453 -147t-455.5 147.5t-167.5 397.5zM362 1856h394l116 -430h-286z" />
<glyph unicode="&#xda;" horiz-adv-x="1445" d="M102 516v832h381v-834q0 -114 59 -177t183 -63q121 0 179.5 63t58.5 177v834h380v-832q0 -251 -165 -398t-453 -147t-455.5 147.5t-167.5 397.5zM580 1425l116 430h394l-224 -430h-286z" />
<glyph unicode="&#xdb;" horiz-adv-x="1445" d="M102 516v832h381v-834q0 -114 59 -177t183 -63q121 0 179.5 63t58.5 177v834h380v-832q0 -251 -165 -398t-453 -147t-455.5 147.5t-167.5 397.5zM299 1425l303 435h252l295 -435h-320l-100 183h-2l-106 -183h-322z" />
<glyph unicode="&#xdc;" horiz-adv-x="1445" d="M102 516v832h381v-834q0 -114 59 -177t183 -63q121 0 179.5 63t58.5 177v834h380v-832q0 -251 -165 -398t-453 -147t-455.5 147.5t-167.5 397.5zM246 1446v311h352v-311h-352zM848 1446v311h352v-311h-352z" />
<glyph unicode="&#xdd;" horiz-adv-x="1443" d="M31 1348h393l307 -623h8l277 623h397l-489 -920v-428h-381v428zM582 1425l116 430h394l-224 -430h-286z" />
<glyph unicode="&#xde;" horiz-adv-x="1339" d="M113 0v1348h383v-185h254q152 0 269.5 -52t188 -160t70.5 -257q0 -146 -74.5 -254.5t-193 -161.5t-260.5 -53h-256v-225h-381zM485 508h215q99 0 154 48t55 138q0 91 -55 139t-154 48h-215v-373z" />
<glyph unicode="&#xdf;" horiz-adv-x="1247" d="M102 0v856q0 122 27 212.5t86.5 158t160 101.5t242.5 34q226 0 360 -110.5t134 -299.5q0 -89 -46.5 -156.5t-133.5 -97.5v-4q122 -36 193 -121t71 -206q0 -408 -555 -408l-57 303q123 0 177 38.5t54 125.5q0 66 -45 113.5t-143 60.5v184q63 4 94 41t31 97q0 63 -34.5 100 t-99.5 37q-75 0 -105 -47t-30 -140v-872h-381z" />
<glyph unicode="&#xe0;" horiz-adv-x="1169" d="M51 293q0 87 33 150t92.5 98t132 51t162.5 16q147 0 250 -49v68q0 147 -178 147q-182 0 -336 -82l-98 242q86 51 203.5 78.5t242.5 27.5q117 0 210 -22.5t164 -70.5t109.5 -129t38.5 -191v-627h-276l-31 90q-116 -119 -315 -119q-193 0 -298.5 88.5t-105.5 233.5z M244 1581h393l117 -430h-287zM399 291q0 -47 31 -72.5t86 -25.5q67 0 125 23.5t88 64.5v61q-95 45 -213 45q-56 0 -86.5 -24.5t-30.5 -71.5z" />
<glyph unicode="&#xe1;" horiz-adv-x="1169" d="M51 293q0 87 33 150t92.5 98t132 51t162.5 16q147 0 250 -49v68q0 147 -178 147q-182 0 -336 -82l-98 242q86 51 203.5 78.5t242.5 27.5q117 0 210 -22.5t164 -70.5t109.5 -129t38.5 -191v-627h-276l-31 90q-116 -119 -315 -119q-193 0 -298.5 88.5t-105.5 233.5z M399 291q0 -47 31 -72.5t86 -25.5q67 0 125 23.5t88 64.5v61q-95 45 -213 45q-56 0 -86.5 -24.5t-30.5 -71.5zM434 1151l117 430h393l-223 -430h-287z" />
<glyph unicode="&#xe2;" horiz-adv-x="1169" d="M51 293q0 87 33 150t92.5 98t132 51t162.5 16q147 0 250 -49v68q0 147 -178 147q-182 0 -336 -82l-98 242q86 51 203.5 78.5t242.5 27.5q117 0 210 -22.5t164 -70.5t109.5 -129t38.5 -191v-627h-276l-31 90q-116 -119 -315 -119q-193 0 -298.5 88.5t-105.5 233.5z M160 1151l303 434h252l295 -434h-320l-100 182h-2l-107 -182h-321zM399 291q0 -47 31 -72.5t86 -25.5q67 0 125 23.5t88 64.5v61q-95 45 -213 45q-56 0 -86.5 -24.5t-30.5 -71.5z" />
<glyph unicode="&#xe3;" horiz-adv-x="1169" d="M51 293q0 87 33 150t92.5 98t132 51t162.5 16q147 0 250 -49v68q0 147 -178 147q-182 0 -336 -82l-98 242q86 51 203.5 78.5t242.5 27.5q117 0 210 -22.5t164 -70.5t109.5 -129t38.5 -191v-627h-276l-31 90q-116 -119 -315 -119q-193 0 -298.5 88.5t-105.5 233.5z M119 1338q49 97 137.5 155t200.5 58q59 0 109.5 -19t79.5 -41.5t67 -41.5t76 -19q52 0 84.5 26t64.5 82l127 -170q-48 -91 -113.5 -143.5t-168.5 -52.5q-59 0 -110 19t-80.5 41t-67.5 41t-74 19q-116 0 -188 -100zM399 291q0 -47 31 -72.5t86 -25.5q67 0 125 23.5t88 64.5 v61q-95 45 -213 45q-56 0 -86.5 -24.5t-30.5 -71.5z" />
<glyph unicode="&#xe4;" horiz-adv-x="1169" d="M51 293q0 87 33 150t92.5 98t132 51t162.5 16q147 0 250 -49v68q0 147 -178 147q-182 0 -336 -82l-98 242q86 51 203.5 78.5t242.5 27.5q117 0 210 -22.5t164 -70.5t109.5 -129t38.5 -191v-627h-276l-31 90q-116 -119 -315 -119q-193 0 -298.5 88.5t-105.5 233.5z M104 1171v312h353v-312h-353zM399 291q0 -47 31 -72.5t86 -25.5q67 0 125 23.5t88 64.5v61q-95 45 -213 45q-56 0 -86.5 -24.5t-30.5 -71.5zM707 1171v312h352v-312h-352z" />
<glyph unicode="&#xe5;" horiz-adv-x="1169" d="M51 293q0 87 33 150t92.5 98t132 51t162.5 16q147 0 250 -49v68q0 147 -178 147q-182 0 -336 -82l-98 242q86 51 203.5 78.5t242.5 27.5q117 0 210 -22.5t164 -70.5t109.5 -129t38.5 -191v-627h-276l-31 90q-116 -119 -315 -119q-193 0 -298.5 88.5t-105.5 233.5z M307 1407q0 119 83 197.5t216 78.5q132 0 214.5 -78.5t82.5 -197.5t-82.5 -198t-214.5 -79q-133 0 -216 79t-83 198zM399 291q0 -47 31 -72.5t86 -25.5q67 0 125 23.5t88 64.5v61q-95 45 -213 45q-56 0 -86.5 -24.5t-30.5 -71.5zM520 1407q0 -37 22.5 -62.5t63.5 -25.5 q40 0 62 25.5t22 62.5t-22 62.5t-62 25.5q-41 0 -63.5 -25.5t-22.5 -62.5z" />
<glyph unicode="&#xe6;" horiz-adv-x="1904" d="M51 293q0 87 33 150t92.5 98t132 51t162.5 16q147 0 250 -49v68q0 147 -178 147q-182 0 -336 -82l-98 242q86 51 203.5 78.5t242.5 27.5q289 0 391 -163h6q56 76 153.5 119.5t213.5 43.5q122 0 218 -33.5t158 -91t100 -136.5t50 -169t2 -190h-725q0 -84 54 -139.5 t180 -55.5q194 0 297 103l168 -164q-158 -193 -482 -193q-126 0 -230 47t-167 127h-4q-87 -90 -194.5 -132t-268.5 -42q-194 0 -309 89.5t-115 232.5zM399 291q0 -47 31 -72.5t86 -25.5q67 0 125 23.5t88 64.5v61q-95 45 -213 45q-56 0 -86.5 -24.5t-30.5 -71.5zM1135 637 h376q0 73 -49.5 117.5t-134.5 44.5q-89 0 -140.5 -44.5t-51.5 -117.5z" />
<glyph unicode="&#xe7;" horiz-adv-x="1193" d="M51 506q0 167 78 289t213 183.5t311 61.5q147 0 274.5 -51t213.5 -160l-152 -208q-65 71 -137 106t-176 35q-120 0 -194 -67t-74 -189t74 -189t194 -67q106 0 178 35t137 106l152 -209q-118 -162 -375 -202l-23 -80q132 -52 132 -179t-93.5 -192.5t-257.5 -65.5 q-140 0 -227 43l47 183q71 -29 141 -29q67 0 97 21.5t30 68.5q0 43 -31.5 69t-99.5 36l33 129q-212 33 -338.5 169.5t-126.5 352.5z" />
<glyph unicode="&#xe8;" horiz-adv-x="1185" d="M51 510q0 243 145 386.5t404 143.5q122 0 218 -33.5t158 -91t100 -136.5t50 -169t2 -190h-725q0 -84 54.5 -139.5t179.5 -55.5q194 0 297 103l168 -164q-158 -193 -481 -193q-271 0 -420.5 142.5t-149.5 396.5zM227 1581h394l116 -430h-286zM416 637h377q0 73 -50 117.5 t-135 44.5q-89 0 -140.5 -44.5t-51.5 -117.5z" />
<glyph unicode="&#xe9;" horiz-adv-x="1185" d="M51 510q0 243 145 386.5t404 143.5q122 0 218 -33.5t158 -91t100 -136.5t50 -169t2 -190h-725q0 -84 54.5 -139.5t179.5 -55.5q194 0 297 103l168 -164q-158 -193 -481 -193q-271 0 -420.5 142.5t-149.5 396.5zM416 637h377q0 73 -50 117.5t-135 44.5q-89 0 -140.5 -44.5 t-51.5 -117.5zM457 1151l116 430h394l-224 -430h-286z" />
<glyph unicode="&#xea;" horiz-adv-x="1185" d="M51 510q0 243 145 386.5t404 143.5q122 0 218 -33.5t158 -91t100 -136.5t50 -169t2 -190h-725q0 -84 54.5 -139.5t179.5 -55.5q194 0 297 103l168 -164q-158 -193 -481 -193q-271 0 -420.5 142.5t-149.5 396.5zM180 1151l303 434h252l295 -434h-319l-101 182h-2 l-106 -182h-322zM416 637h377q0 73 -50 117.5t-135 44.5q-89 0 -140.5 -44.5t-51.5 -117.5z" />
<glyph unicode="&#xeb;" horiz-adv-x="1185" d="M51 510q0 243 145 386.5t404 143.5q122 0 218 -33.5t158 -91t100 -136.5t50 -169t2 -190h-725q0 -84 54.5 -139.5t179.5 -55.5q194 0 297 103l168 -164q-158 -193 -481 -193q-271 0 -420.5 142.5t-149.5 396.5zM129 1171v312h352v-312h-352zM416 637h377q0 73 -50 117.5 t-135 44.5q-89 0 -140.5 -44.5t-51.5 -117.5zM731 1171v312h352v-312h-352z" />
<glyph unicode="&#xec;" horiz-adv-x="610" d="M-70 1581h394l116 -430h-286zM123 0v1012h364v-1012h-364z" />
<glyph unicode="&#xed;" horiz-adv-x="610" d="M123 0v1012h364v-1012h-364zM166 1151l117 430h393l-223 -430h-287z" />
<glyph unicode="&#xee;" horiz-adv-x="610" d="M-121 1151l303 434h252l295 -434h-319l-101 182h-2l-106 -182h-322zM123 0v1012h364v-1012h-364z" />
<glyph unicode="&#xef;" horiz-adv-x="610" d="M-154 1171v312h353v-312h-353zM123 0v1012h364v-1012h-364zM408 1171v312h352v-312h-352z" />
<glyph unicode="&#xf0;" horiz-adv-x="1234" d="M72 461q0 150 67 254t178 152t256 48q73 0 140.5 -19.5t99.5 -49.5h4q0 94 -38 171.5t-109 117.5l-191 -172l-153 151l120 105q-73 7 -164 1.5t-167 -18.5l32 219q268 52 506 -4l142 123l172 -160l-82 -69q151 -108 220 -283.5t69 -425.5q0 -133 -33 -244.5t-99.5 -199.5 t-177.5 -137.5t-258 -49.5q-129 0 -231.5 38t-168 105t-100 155.5t-34.5 191.5zM449 442q0 -87 45.5 -129.5t121.5 -42.5q75 0 119.5 43.5t44.5 128.5q0 79 -44 126.5t-122 47.5q-80 0 -122.5 -47t-42.5 -127z" />
<glyph unicode="&#xf1;" horiz-adv-x="1269" d="M102 0v1012h279l27 -135q113 163 333 163q215 0 326 -113.5t111 -328.5v-598h-365v592q0 170 -145 170q-74 0 -131.5 -58t-69.5 -143v-561h-365zM170 1338q49 97 137.5 155t200.5 58q59 0 109.5 -19t79.5 -41.5t67 -41.5t76 -19q52 0 84.5 26t64.5 82l127 -170 q-48 -91 -113.5 -143.5t-168.5 -52.5q-59 0 -110 19t-80.5 41t-67.5 41t-74 19q-116 0 -188 -100z" />
<glyph unicode="&#xf2;" horiz-adv-x="1236" d="M51 506q0 249 151.5 391.5t415.5 142.5t416 -142.5t152 -391.5q0 -243 -148.5 -389t-419.5 -146q-270 0 -418.5 146t-148.5 389zM252 1581h393l117 -430h-287zM412 506q0 -116 49 -186t157 -70q207 0 207 256q0 117 -51 186.5t-156 69.5t-155.5 -69.5t-50.5 -186.5z" />
<glyph unicode="&#xf3;" horiz-adv-x="1236" d="M51 506q0 249 151.5 391.5t415.5 142.5t416 -142.5t152 -391.5q0 -243 -148.5 -389t-419.5 -146q-270 0 -418.5 146t-148.5 389zM412 506q0 -116 49 -186t157 -70q207 0 207 256q0 117 -51 186.5t-156 69.5t-155.5 -69.5t-50.5 -186.5zM489 1151l117 430h393l-223 -430 h-287z" />
<glyph unicode="&#xf4;" horiz-adv-x="1236" d="M51 506q0 249 151.5 391.5t415.5 142.5t416 -142.5t152 -391.5q0 -243 -148.5 -389t-419.5 -146q-270 0 -418.5 146t-148.5 389zM195 1151l303 434h252l294 -434h-319l-100 182h-2l-107 -182h-321zM412 506q0 -116 49 -186t157 -70q207 0 207 256q0 117 -51 186.5 t-156 69.5t-155.5 -69.5t-50.5 -186.5z" />
<glyph unicode="&#xf5;" horiz-adv-x="1236" d="M51 506q0 249 151.5 391.5t415.5 142.5t416 -142.5t152 -391.5q0 -243 -148.5 -389t-419.5 -146q-270 0 -418.5 146t-148.5 389zM145 1337q49 97 137.5 155t200.5 58q59 0 109.5 -19t79.5 -41t67 -41t76 -19q52 0 85 26t65 82l127 -170q-48 -91 -114 -144t-169 -53 q-59 0 -110 19t-80.5 41.5t-67.5 41.5t-74 19q-116 0 -188 -100zM412 506q0 -116 49 -186t157 -70q207 0 207 256q0 117 -51 186.5t-156 69.5t-155.5 -69.5t-50.5 -186.5z" />
<glyph unicode="&#xf6;" horiz-adv-x="1236" d="M51 506q0 249 151.5 391.5t415.5 142.5t416 -142.5t152 -391.5q0 -243 -148.5 -389t-419.5 -146q-270 0 -418.5 146t-148.5 389zM145 1172v311h352v-311h-352zM412 506q0 -116 49 -186t157 -70q207 0 207 256q0 117 -51 186.5t-156 69.5t-155.5 -69.5t-50.5 -186.5z M747 1172v311h352v-311h-352z" />
<glyph unicode="&#xf7;" horiz-adv-x="937" d="M61 406v307h816v-307h-816zM279 57v254h376v-254h-376zM279 807v254h376v-254h-376z" />
<glyph unicode="&#xf8;" horiz-adv-x="1236" d="M51 506q0 249 151.5 391.5t415.5 142.5q48 0 95 -6l90 221h241l-116 -284q125 -67 191.5 -185t66.5 -280q0 -240 -153.5 -387.5t-414.5 -147.5q-52 0 -98 6l-90 -223h-242l119 291q-123 66 -189.5 186t-66.5 275zM397 506q0 -97 35 -156l166 404q-201 -12 -201 -248z M635 258q207 9 207 248q0 106 -39 162z" />
<glyph unicode="&#xf9;" horiz-adv-x="1269" d="M92 414v598h365v-598q0 -81 35.5 -122.5t117.5 -41.5q86 0 133.5 52.5t59.5 133.5v576h364v-1012h-274l-29 127q-44 -68 -130 -112t-197 -44q-219 0 -332 115t-113 328zM260 1581h394l116 -430h-286z" />
<glyph unicode="&#xfa;" horiz-adv-x="1269" d="M92 414v598h365v-598q0 -81 35.5 -122.5t117.5 -41.5q86 0 133.5 52.5t59.5 133.5v576h364v-1012h-274l-29 127q-44 -68 -130 -112t-197 -44q-219 0 -332 115t-113 328zM479 1151l117 430h393l-223 -430h-287z" />
<glyph unicode="&#xfb;" horiz-adv-x="1269" d="M92 414v598h365v-598q0 -81 35.5 -122.5t117.5 -41.5q86 0 133.5 52.5t59.5 133.5v576h364v-1012h-274l-29 127q-44 -68 -130 -112t-197 -44q-219 0 -332 115t-113 328zM204 1151l303 434h252l295 -434h-319l-101 182h-2l-106 -182h-322z" />
<glyph unicode="&#xfc;" horiz-adv-x="1269" d="M92 414v598h365v-598q0 -81 35.5 -122.5t117.5 -41.5q86 0 133.5 52.5t59.5 133.5v576h364v-1012h-274l-29 127q-44 -68 -130 -112t-197 -44q-219 0 -332 115t-113 328zM152 1171v312h352v-312h-352zM754 1171v312h352v-312h-352z" />
<glyph unicode="&#xfd;" horiz-adv-x="1163" d="M31 1012h377l178 -635h4l178 635h365l-359 -977q-23 -59 -38.5 -96.5t-39.5 -87.5t-45.5 -81.5t-52 -65.5t-62.5 -53t-73.5 -31.5t-89.5 -12.5q-181 0 -303 96l96 209q39 -24 67.5 -35.5t65.5 -11.5q27 0 47.5 14.5t34 42t21 52t14.5 59.5zM450 1151l117 430h393 l-223 -430h-287z" />
<glyph unicode="&#xfe;" horiz-adv-x="1261" d="M102 -358v1706h349v-398q43 41 112.5 65.5t147.5 24.5q233 0 366 -149t133 -383q0 -151 -51 -270.5t-160 -193t-262 -73.5q-92 0 -166 30.5t-120 76.5v-436h-349zM451 410q11 -64 67.5 -112t138.5 -48q109 0 155 66.5t46 191.5q2 112 -48 183t-153 71q-77 0 -132 -45.5 t-74 -108.5v-198z" />
<glyph unicode="&#xff;" horiz-adv-x="1163" d="M31 1012h377l178 -635h4l178 635h365l-359 -977q-23 -59 -38.5 -96.5t-39.5 -87.5t-45.5 -81.5t-52 -65.5t-62.5 -53t-73.5 -31.5t-89.5 -12.5q-181 0 -303 96l96 209q39 -24 67.5 -35.5t65.5 -11.5q27 0 47.5 14.5t34 42t21 52t14.5 59.5zM111 1171v312h352v-312h-352z M713 1171v312h352v-312h-352z" />
<glyph unicode="&#x141;" horiz-adv-x="1226" d="M0 311v303l840 410v-303zM178 0v1348h381v-1049h627v-299h-1008z" />
<glyph unicode="&#x142;" horiz-adv-x="841" d="M10 332v303l758 409v-303zM152 436v932h364v-938q0 -37 1.5 -60.5t6.5 -49.5t15 -40.5t28.5 -24t44.5 -9.5q67 0 123 33l96 -218q-109 -90 -315 -90q-103 0 -175 32.5t-112.5 95.5t-58.5 145t-18 192z" />
<glyph unicode="&#x152;" horiz-adv-x="1974" d="M61 672q0 153 45 280.5t131.5 222.5t222 148t308.5 53q107 0 233 -28h869v-287h-606v-238h454v-278h-454v-258h618v-287h-881q-131 -29 -233 -29q-171 0 -306.5 52t-222.5 146t-132.5 222t-45.5 281zM434 672q0 -187 86 -294.5t248 -107.5q94 0 156 33v739 q-72 35 -156 35q-162 0 -248 -108t-86 -297z" />
<glyph unicode="&#x153;" horiz-adv-x="2013" d="M51 506q0 249 151.5 391.5t415.5 142.5q269 0 410 -170q128 170 399 170q122 0 218.5 -33.5t158.5 -91t100 -136.5t50 -169t2 -190h-725q0 -39 11.5 -72t36.5 -61.5t72.5 -45t112.5 -16.5q194 0 297 103l168 -164q-158 -193 -481 -193q-285 0 -420 170 q-58 -79 -164.5 -124.5t-245.5 -45.5q-270 0 -418.5 146t-148.5 389zM412 506q0 -115 49 -183.5t157 -68.5q207 0 207 252q0 116 -50.5 184t-156.5 68t-156 -67.5t-50 -184.5zM1243 637h377q0 73 -49.5 117.5t-134.5 44.5q-90 0 -141.5 -44.5t-51.5 -117.5z" />
<glyph unicode="&#x160;" horiz-adv-x="1312" d="M61 166l150 285q94 -79 223 -128t244 -49q43 0 75 3.5t61 12.5t44.5 27t15.5 45q0 13 -3.5 24.5t-12.5 21.5t-17.5 18t-25 16.5t-29 14.5t-35 13.5t-36.5 12.5t-41.5 13.5t-42.5 13.5q-73 25 -129 47t-112.5 49t-97 54t-76.5 61.5t-58 72t-34.5 84t-12.5 99.5 q0 104 41.5 182t116.5 125t172.5 69.5t217.5 22.5q321 0 558 -153l-146 -275q-80 57 -187.5 91t-211.5 34q-185 0 -185 -84q0 -22 13.5 -39t44 -31t57.5 -23t78 -24t82 -26q98 -36 166.5 -66.5t133.5 -72t104 -87t62 -106.5t23 -135q0 -191 -155 -299.5t-418 -108.5 q-173 0 -334 47t-283 148zM231 1860h320l100 -183h2l107 183h321l-303 -435h-252z" />
<glyph unicode="&#x161;" horiz-adv-x="1077" d="M51 121l115 225q64 -47 162.5 -82t187.5 -35q146 0 146 68q0 10 -3.5 18.5t-13 15.5t-18 12t-25.5 11t-28 9.5t-33.5 9.5t-34.5 10q-165 50 -231 84q-173 97 -177 258q0 85 37 148t103 98.5t145.5 52t175.5 16.5q261 0 432 -116l-121 -228q-141 86 -303 86q-42 0 -73 -13 t-31 -40q0 -8 3 -15t10 -13t13.5 -11.5t19 -11t21 -9t24.5 -9t24.5 -8t27 -8t25.5 -7.5q155 -50 207 -74q147 -70 178 -188q10 -36 10 -78q0 -158 -127 -242t-348 -84q-155 0 -284.5 39t-215.5 111zM115 1585h319l101 -182h2l106 182h322l-303 -434h-252z" />
<glyph unicode="&#x178;" horiz-adv-x="1443" d="M31 1348h393l307 -623h8l277 623h397l-489 -920v-428h-381v428zM254 1446v311h352v-311h-352zM856 1446v311h352v-311h-352z" />
<glyph unicode="&#x17d;" horiz-adv-x="1382" d="M82 0v244l704 805h-671v299h1159v-261l-692 -788h718v-299h-1218zM266 1860h320l100 -183h2l107 183h321l-303 -435h-252z" />
<glyph unicode="&#x17e;" horiz-adv-x="1122" d="M72 0v215l514 526h-482v271h928v-215l-512 -527h531v-270h-979zM141 1585h320l100 -182h2l107 182h321l-303 -434h-252z" />
<glyph unicode="&#x192;" horiz-adv-x="1239" d="M-184 -268l151 172q61 -82 137 -82q44 0 63.5 22.5t31.5 69.5l129 608h-146l51 266h150l51 242q32 157 129 251.5t268 94.5q128 0 209.5 -49t137.5 -139l-152 -172q-32 41 -64 61.5t-77 20.5q-80 0 -103 -92l-49 -218h236l-51 -266h-226l-133 -633q-15 -73 -44 -133 t-75 -109t-116 -76.5t-158 -27.5q-232 0 -350 189z" />
<glyph unicode="&#x2c6;" horiz-adv-x="1558" d="M354 1317l303 434h252l295 -434h-319l-101 182h-2l-106 -182h-322z" />
<glyph unicode="&#x2dc;" horiz-adv-x="1558" d="M307 1432q49 97 137.5 155t200.5 58q59 0 109.5 -19t79.5 -41.5t67 -41.5t76 -19q52 0 84.5 26t64.5 82l127 -170q-48 -91 -113.5 -143.5t-168.5 -52.5q-59 0 -110 19t-80.5 41t-67.5 41t-74 19q-116 0 -188 -100z" />
<glyph unicode="&#xe00;" horiz-adv-x="1024" />
<glyph unicode="&#xe01;" horiz-adv-x="1382" d="M51 958q102 114 279 188.5t372 74.5q299 0 433.5 -132.5t134.5 -388.5v-700h-365v700q0 127 -53 182.5t-184 55.5q-68 0 -138 -21.5t-114 -56.5l2 -4l192 -125v-113q-74 -39 -105.5 -97.5t-31.5 -164.5v-356h-364v358q0 208 190 312v4l-209 131z" />
<glyph unicode="&#xe02;" horiz-adv-x="1304" d="M82 428q0 73 23.5 139.5t57.5 112.5t67.5 83t57 66.5t23.5 47.5q0 32 -43 32h-176v283h221q76 0 130.5 -10t101 -36t70.5 -76.5t24 -125.5t-20.5 -135.5t-49.5 -100.5t-57.5 -78t-49 -88t-20.5 -110q0 -83 51 -130.5t144 -47.5t141.5 47t48.5 139v752h365v-752 q0 -221 -146 -345t-409 -124q-253 0 -404 117.5t-151 339.5z" />
<glyph unicode="&#xe03;" horiz-adv-x="1310" d="M61 1106v86h238v-27q0 -88 76 -88q41 0 57.5 22t16.5 66v27h237v-166q0 -95 -24.5 -170.5t-59 -123.5t-69.5 -90.5t-59.5 -94t-24.5 -111.5q0 -91 50 -136.5t144 -45.5q96 0 143.5 48.5t47.5 137.5v752h364v-752q0 -221 -146 -345t-409 -124q-158 0 -282 49.5 t-198.5 149.5t-74.5 238q0 80 28 149.5t72.5 119t89 88.5t89 76t61.5 62l-4 4q-53 -35 -148 -35q-102 0 -158.5 57.5t-56.5 176.5z" />
<glyph unicode="&#xe04;" horiz-adv-x="1425" d="M113 0v682q0 251 159.5 395t444.5 144q286 0 441 -143t155 -396v-682h-361v700q0 238 -235 238q-118 0 -181 -61t-63 -177v-198h4q83 133 250 133q33 0 71.5 -7.5t55.5 -17.5l-74 -276q-37 14 -90 14q-82 0 -140.5 -42t-76.5 -124v-182h-360z" />
<glyph unicode="&#xe05;" horiz-adv-x="1429" d="M113 0v774q0 93 19 169.5t58.5 137t108.5 94t162 33.5q101 0 163 -39t91 -98h8q26 56 91 96.5t155 40.5q80 0 141 -21t100 -58t63.5 -93t34 -120t9.5 -144v-772h-361v760q0 100 -18 133q-17 33 -51 33q-39 0 -58.5 -33t-19.5 -82h-186q0 115 -72 115q-78 0 -78 -166v-258 h4q83 133 250 133q33 0 71.5 -7.5t55.5 -17.5l-74 -276q-37 14 -90 14q-82 0 -140.5 -42t-76.5 -124v-182h-360z" />
<glyph unicode="&#xe06;" horiz-adv-x="1400" d="M92 1106v86h238v-27q0 -88 76 -88q41 0 57 22t16 66v27h238v-166q0 -95 -24.5 -170t-59.5 -122.5t-70 -89.5t-59.5 -93t-24.5 -111v-6q25 -87 92.5 -133.5t167.5 -46.5q185 0 185 203v735h364v-721q0 -233 -119.5 -366.5t-355.5 -133.5q-114 0 -210 46t-152 122h-2 l-21 -139h-309v408q0 80 28 149.5t72.5 119t89 88.5t89 76t61.5 62l-4 4q-53 -35 -148 -35q-102 0 -158.5 57.5t-56.5 176.5z" />
<glyph unicode="&#xe07;" horiz-adv-x="1316" d="M31 819l293 133l327 -669h15q53 0 92.5 20.5t63 52.5t38.5 78t20 89.5t5 94.5q0 56 -9.5 108.5t-30 102t-60.5 79.5t-95 30q-78 0 -145 -33l-92 260q103 56 266 56q112 0 202.5 -34t150 -91t99.5 -135.5t57 -163.5t17 -179q0 -91 -20 -178t-63 -167t-105 -140.5 t-152 -96.5t-198 -36h-265z" />
<glyph unicode="&#xe08;" horiz-adv-x="1294" d="M31 1053q97 82 245.5 125t313.5 43q317 0 475 -160.5t158 -452.5q0 -167 -67 -305t-192 -220.5t-284 -82.5h-279l-94 324q-8 32 -19.5 44.5t-39.5 12.5q-32 0 -82 -16l-60 280q80 39 201 39q111 0 172 -41.5t92 -148.5l64 -211h22q70 0 118 49.5t67.5 120.5t19.5 155 q0 330 -297 330q-229 0 -383 -113z" />
<glyph unicode="&#xe09;" horiz-adv-x="1378" d="M51 1034q218 187 586 187q137 0 244.5 -27.5t179 -76t118 -118.5t67 -150.5t20.5 -176.5v-672h-318l-20 139q-43 -84 -132 -126t-210 -42q-178 0 -274.5 94.5t-96.5 247.5v17q0 47 -41 47q-28 0 -70 -17l-47 244q41 24 109.5 39.5t132.5 15.5q139 0 195.5 -58.5 t56.5 -170.5v-31q0 -80 33.5 -112.5t122.5 -32.5q98 0 142 57t52 164v213q0 125 -75.5 187.5t-209.5 62.5q-247 0 -405 -133z" />
<glyph unicode="&#xe0a;" horiz-adv-x="1306" d="M82 428q0 73 23.5 139.5t57.5 112.5t67.5 83t57 66.5t23.5 47.5q0 32 -43 32h-176v283h221q76 0 130.5 -10t101 -36t70.5 -76.5t24 -125.5t-20.5 -135.5t-49.5 -100.5t-57.5 -78t-49 -88t-20.5 -110q0 -92 58.5 -135t156.5 -43q112 0 159.5 53.5t47.5 157.5q0 30 -1 51.5 t-4.5 47t-10.5 43.5t-18 33.5t-29 23.5t-41 8h-29v278h29q34 0 54 8t30.5 29.5t13.5 42.5t6 64l4 125h357l-8 -146q-4 -94 -40 -156.5t-108 -103.5v-8q76 -46 116 -137t40 -207q0 -226 -148 -358t-420 -132q-263 0 -419 121.5t-156 335.5z" />
<glyph unicode="&#xe0b;" horiz-adv-x="1312" d="M61 1106v86h238v-27q0 -88 76 -88q41 0 57.5 22t16.5 66v27h237v-166q0 -69 -13 -127.5t-34 -99t-46 -76t-50.5 -66.5t-46.5 -62t-34 -70.5t-13 -84.5q0 -94 55 -140t155 -46q114 0 162.5 53.5t48.5 157.5q0 30 -1 51.5t-4.5 47t-10.5 43.5t-18 33.5t-29 23.5t-41 8h-29 v278h29q34 0 54 8t30.5 29.5t13.5 42.5t6 64l4 125h357l-8 -146q-4 -94 -40 -156.5t-108 -103.5v-8q76 -46 116 -137t40 -207q0 -226 -148 -358t-424 -132q-257 0 -414 114t-157 314q0 81 27.5 151.5t71 121t87.5 90t88 77.5t62 64l-4 4q-53 -35 -144 -35q-215 0 -215 234z " />
<glyph unicode="&#xe0c;" horiz-adv-x="2140" d="M51 958q102 114 279 188.5t372 74.5q152 0 261 -34.5t174 -103.5t95 -163t30 -220v-194q14 -112 76 -182t167 -70q89 0 123.5 49.5t34.5 153.5v735h365v-721q0 -236 -110 -368t-343 -132q-113 0 -204 46t-144 122h-2l-21 -139h-299v700q0 127 -53 182.5t-184 55.5 q-68 0 -138 -21.5t-114 -56.5l2 -4l192 -125v-113q-85 -38 -113 -81.5t-28 -147.5v-41q0 -54 22.5 -78t67.5 -24q65 0 111 37l108 -224q-55 -47 -123 -67.5t-166 -20.5q-183 0 -284 90.5t-101 264.5v65q0 95 53.5 168t141.5 111v4l-209 139z" />
<glyph unicode="&#xe0d;" horiz-adv-x="2140" d="M51 958q102 114 279 188.5t372 74.5q152 0 261 -34.5t174 -103.5t95 -163t30 -220v-30q0 -116 46 -174t158 -58t158.5 58t46.5 174v522h357v-522q0 -91 -25 -167t-70 -124q105 -105 105 -244q0 -85 -31 -151.5t-84 -109.5t-128.5 -70.5t-158 -38.5t-180.5 -11 q-266 0 -469 101l55 247q184 -94 414 -94q332 0 332 160q0 41 -21 65q-115 -77 -301 -77q-272 0 -416.5 132t-144.5 382v30q0 127 -53 182.5t-184 55.5q-68 0 -138 -21.5t-114 -56.5l2 -4l192 -125v-113q-85 -38 -113 -81.5t-28 -147.5v-41q0 -54 22.5 -78t67.5 -24 q65 0 111 37l108 -224q-55 -47 -123 -67.5t-166 -20.5q-183 0 -284 90.5t-101 264.5v65q0 95 53.5 168t141.5 111v4l-209 139z" />
<glyph unicode="&#xe0e;" horiz-adv-x="1425" d="M41 27l39 243q37 -16 86 -16q39 0 53 21t14 63v57q0 195 132 275v4l-236 139l-39 145q102 114 280 188.5t373 74.5q299 0 434.5 -132.5t135.5 -388.5v-1212h-348q-194 117 -437 117q-170 0 -301 -80l-108 233q168 97 409 97q119 0 231.5 -37.5t188.5 -96.5v979 q0 127 -54 182.5t-185 55.5q-68 0 -139 -21.5t-115 -56.5l2 -4l219 -125v-113q-24 -12 -41 -26.5t-27 -35.5t-15.5 -34.5t-8 -43.5t-2.5 -40v-45v-117q0 -63 -14 -115t-45.5 -96.5t-90 -69t-141.5 -24.5q-158 0 -250 56z" />
<glyph unicode="&#xe0f;" horiz-adv-x="1425" d="M41 27l39 243q37 -16 86 -16q39 0 53 21t14 63v57q0 195 132 275v4l-236 139l-39 145q102 114 280 188.5t373 74.5q299 0 434.5 -132.5t135.5 -388.5v-1212h-443l-182 180h-4q-33 -83 -123 -131.5t-217 -48.5q-95 0 -209 20v254q160 -20 209 -20q78 0 115.5 28t58.5 93 l240 35l188 -179h2v981q0 127 -54 182.5t-185 55.5q-68 0 -139 -21.5t-115 -56.5l2 -4l219 -125v-113q-24 -12 -41 -26.5t-27 -35.5t-15.5 -34.5t-8 -43.5t-2.5 -40v-45v-117q0 -63 -14 -115t-45.5 -96.5t-90 -69t-141.5 -24.5q-158 0 -250 56z" />
<glyph unicode="&#xe10;" horiz-adv-x="1337" d="M31 1053q97 82 245.5 125t313.5 43q168 0 295 -47l301 120l100 -276l-182 -53q119 -125 119 -357q0 -167 -67 -305t-192 -220.5t-284 -82.5h-279l-94 324q-8 32 -19.5 44.5t-39.5 12.5q-32 0 -82 -16l-60 280q80 39 201 39q111 0 172 -41.5t92 -148.5l64 -211h22 q70 0 118 49.5t67.5 120.5t19.5 155q0 330 -297 330q-229 0 -383 -113zM156 -203q116 -22 202 -22q73 0 104 23t50 85l244 35l157 -207h5v207h262v-397h-416l-123 155h-4q-32 -81 -99 -118t-180 -37q-88 0 -202 20v256z" />
<glyph unicode="&#xe11;" horiz-adv-x="1564" d="M10 1106v86h238v-27q0 -44 16.5 -66t57.5 -22q40 0 55.5 21.5t15.5 66.5v27h238v-156q76 79 180.5 132t208.5 53q117 0 202.5 -36.5t134.5 -104t72 -153t23 -192.5v-735h-365v719q0 40 -2 68t-10 59t-21.5 49.5t-38 30.5t-59.5 12q-54 0 -106.5 -36.5t-92.5 -93 t-68.5 -121.5t-41.5 -126v-561h-364v514q16 146 102 274v115l-4 4q-53 -35 -135 -35q-236 0 -236 234z" />
<glyph unicode="&#xe12;" horiz-adv-x="2207" d="M72 578q0 98 12.5 187.5t42.5 174t75 146t115 98.5t158 37q93 0 149 -34t93 -104h8q36 65 108 101.5t154 36.5q86 0 149 -27.5t99.5 -71.5t58 -111.5t28.5 -134t7 -153.5v-217q14 -112 76.5 -182t167.5 -70q89 0 123.5 49.5t34.5 153.5v735h364v-721q0 -236 -110 -368 t-343 -132q-113 0 -204 46t-144 122h-2l-20 -139h-299v725q0 123 -15 163q-19 50 -65 50q-47 0 -67.5 -45.5t-20.5 -104.5h-176q0 36 -6 67.5t-25.5 57t-50.5 25.5q-115 0 -115 -360q0 -78 7.5 -132t27.5 -100t60.5 -69t101.5 -23q95 0 159 51l103 -233 q-50 -48 -130.5 -74.5t-176.5 -26.5q-242 0 -377 159.5t-135 447.5z" />
<glyph unicode="&#xe13;" horiz-adv-x="2140" d="M51 958q102 114 279 188.5t372 74.5q152 0 261 -34.5t174 -103.5t95 -163t30 -220v-239q0 -105 34.5 -154t124.5 -49q214 0 242 260v674h365v-1192h-310l-20 139q-108 -164 -332 -164q-241 0 -351 128t-110 372v225q0 127 -53 182.5t-184 55.5q-68 0 -138 -21.5 t-114 -56.5l2 -4l192 -125v-113q-85 -38 -113 -81.5t-28 -147.5v-41q0 -54 22.5 -78t67.5 -24q65 0 111 37l108 -224q-55 -47 -123 -67.5t-166 -20.5q-183 0 -284 90.5t-101 264.5v65q0 95 53.5 168t141.5 111v4l-209 139z" />
<glyph unicode="&#xe14;" horiz-adv-x="1454" d="M72 567q0 293 176.5 473.5t482.5 180.5q161 0 281 -41t190.5 -115t104.5 -167.5t34 -207.5v-690h-364v690q0 115 -61.5 181.5t-186.5 66.5q-143 0 -220 -102t-77 -269q0 -67 8.5 -119.5t29.5 -98.5t61 -70.5t98 -24.5q97 0 159 49l103 -231q-50 -48 -130.5 -74.5 t-176.5 -26.5q-238 0 -375 163.5t-137 432.5z" />
<glyph unicode="&#xe15;" horiz-adv-x="1454" d="M72 578q0 124 21.5 233.5t67 204t127 150t191.5 55.5q93 0 149 -34t93 -104h8q36 65 108 101.5t154 36.5q88 0 152 -27t101.5 -70.5t59.5 -110.5t29.5 -134.5t7.5 -155.5v-723h-364v725q0 123 -15 163q-19 50 -65 50q-47 0 -67.5 -45.5t-20.5 -104.5h-176q0 36 -6 67.5 t-25.5 57t-50.5 25.5q-119 0 -119 -360q0 -77 8 -131.5t29 -100.5t62 -69t102 -23q96 0 160 51l102 -233q-50 -48 -130.5 -74.5t-176.5 -26.5q-240 0 -378 160.5t-138 446.5z" />
<glyph unicode="&#xe16;" horiz-adv-x="1382" d="M51 958q102 114 279 188.5t372 74.5q299 0 433.5 -132.5t134.5 -388.5v-700h-365v700q0 127 -53 182.5t-184 55.5q-68 0 -138 -21.5t-114 -56.5l2 -4l192 -125v-113q-85 -38 -113 -81.5t-28 -147.5v-41q0 -54 22.5 -78t67.5 -24q65 0 111 37l108 -224q-55 -47 -123 -67.5 t-166 -20.5q-183 0 -284 90.5t-101 264.5v65q0 95 53.5 168t141.5 111v4l-209 139z" />
<glyph unicode="&#xe17;" horiz-adv-x="1392" d="M113 0v1190h323v-193h2q55 95 163 159.5t245 64.5q113 0 197.5 -35.5t135.5 -101t76 -153t25 -196.5v-735h-365v715q0 105 -36 164t-127 59q-109 0 -188 -103t-87 -237v-598h-364z" />
<glyph unicode="&#xe18;" horiz-adv-x="1333" d="M82 690q0 151 39 254.5t119.5 164t191 86.5t266.5 26q324 0 545 -127l-98 -246q-186 98 -445 98q-258 0 -258 -117l447 -61q191 -25 282 -115t91 -272q0 -110 -44 -191t-125 -128t-184 -69t-231 -22q-283 0 -432.5 99.5t-149.5 318.5v103h348v-103q0 -85 58 -116t178 -31 q53 0 91 5.5t72.5 20t52 44t17.5 73.5q0 69 -19 100.5t-89 42.5l-670 90z" />
<glyph unicode="&#xe19;" horiz-adv-x="1392" d="M113 475v717h364v-731q0 -203 180 -203q119 0 182 70t76 190v674h365v-1192h-309l-21 139q-49 -74 -142.5 -119t-211.5 -45q-244 0 -363.5 130t-119.5 370z" />
<glyph unicode="&#xe1a;" horiz-adv-x="1396" d="M113 485v707h364v-707q0 -114 53 -172.5t168 -58.5q116 0 169 57t53 174v707h364v-707q0 -244 -157.5 -379t-428.5 -135q-273 0 -429 134t-156 380z" />
<glyph unicode="&#xe1b;" horiz-adv-x="1400" d="M113 485v707h364v-707q0 -114 53 -172.5t168 -58.5q230 0 230 231v1051h360v-1051q0 -244 -159.5 -379t-430.5 -135q-273 0 -429 134t-156 380z" />
<glyph unicode="&#xe1c;" horiz-adv-x="1552" d="M113 367v415q0 83 9 143t33 113t65 85t106 50.5t155 18.5h191v-287h-137q-55 0 -66.5 -19.5t-11.5 -86.5v-430q0 -61 19 -88t65 -27q56 0 74 40t18 118v313h291v-313q0 -37 2.5 -60.5t10.5 -48.5t27 -37t48 -12q52 0 68 27t16 88v823h344v-825q0 -396 -365 -396 q-100 0 -179.5 53.5t-111.5 145.5h-8q-29 -93 -106 -146t-185 -53q-181 0 -276.5 101t-95.5 295z" />
<glyph unicode="&#xe1d;" horiz-adv-x="1556" d="M113 367v415q0 83 9 143t33 113t65 85t106 50.5t155 18.5h191v-287h-137q-55 0 -66.5 -19.5t-11.5 -86.5v-430q0 -61 19 -88t65 -27q56 0 75 40.5t19 117.5v313h291v-313q0 -37 2.5 -60.5t10.5 -48.5t27 -37t48 -12q52 0 71 28t19 87v1167h340v-1169q0 -396 -367 -396 q-100 0 -179.5 53.5t-111.5 145.5h-8q-29 -93 -107 -146t-186 -53q-181 0 -276.5 101t-95.5 295z" />
<glyph unicode="&#xe1e;" horiz-adv-x="1656" d="M51 1192h340l107 -748h8l180 686h285l188 -690h8l95 752h344l-242 -1192h-342l-193 678h-4l-186 -678h-344z" />
<glyph unicode="&#xe1f;" horiz-adv-x="1658" d="M51 1192h340l107 -748h8l180 686h285l188 -690h8l164 1096h328l-295 -1536h-342l-193 678h-4l-186 -678h-344z" />
<glyph unicode="&#xe20;" horiz-adv-x="1421" d="M41 27l39 243q37 -16 86 -16q39 0 53 21t14 63v57q0 195 132 275v4l-236 139l-39 145q102 114 279 188.5t372 74.5q299 0 433.5 -132.5t134.5 -388.5v-700h-365v700q0 127 -53 182.5t-184 55.5q-68 0 -138 -21.5t-114 -56.5l2 -4l219 -125v-113q-24 -12 -41 -26.5 t-27 -35.5t-15.5 -34.5t-8 -43.5t-2.5 -40v-45v-117q0 -63 -14 -115t-45.5 -96.5t-90 -69t-141.5 -24.5q-158 0 -250 56z" />
<glyph unicode="&#xe21;" horiz-adv-x="1392" d="M113 0v1192h364v-686q14 -110 82.5 -181t175.5 -71q97 0 138.5 50.5t41.5 152.5v735h365v-721q0 -233 -119.5 -366.5t-355.5 -133.5q-115 0 -212 46.5t-149 121.5h-2l-20 -139h-309z" />
<glyph unicode="&#xe22;" horiz-adv-x="1363" d="M72 354q0 101 59 169t162 100v4q-87 25 -148 90.5t-61 171.5q0 155 112 243.5t293 88.5q162 0 277 -56l-72 -260q-67 33 -147 33q-103 0 -103 -102q0 -53 20 -75t79 -22h153v-229h-131q-59 0 -96 -32.5t-37 -90.5q0 -133 230 -133q129 0 177 53t48 168v715h364v-715 q0 -238 -142 -371t-447 -133q-96 0 -181 13t-161 42t-130.5 72.5t-86 109t-31.5 146.5z" />
<glyph unicode="&#xe23;" horiz-adv-x="1230" d="M61 162l156 244q70 -67 179 -109.5t218 -42.5q195 0 195 86q0 19 -9 33.5t-22.5 23.5t-40 17.5t-49 13.5t-62.5 14t-69 17q-86 24 -146.5 46t-120.5 55t-96 72t-58.5 95.5t-22.5 126.5q0 120 66 204t179 123.5t263 39.5q317 0 518 -156l-154 -234q-76 49 -170.5 78 t-189.5 29q-62 0 -107 -19.5t-45 -62.5q0 -24 15.5 -41.5t46.5 -29.5t60.5 -19.5t74.5 -17.5t71 -17q56 -15 95.5 -27.5t87.5 -31.5t80.5 -39t66 -48.5t53.5 -62t32.5 -78t12.5 -96.5q0 -183 -148 -280t-407 -97q-362 3 -553 191z" />
<glyph unicode="&#xe24;" horiz-adv-x="1386" d="M51 958q102 114 280.5 188.5t373.5 74.5q299 0 434 -132.5t135 -388.5v-1212h-365v1212q0 127 -54 182.5t-185 55.5q-68 0 -139 -21.5t-115 -56.5l2 -4l192 -125v-113q-85 -38 -113 -81.5t-28 -147.5v-41q0 -54 22.5 -78t67.5 -24q65 0 111 37l108 -224 q-55 -47 -123 -67.5t-166 -20.5q-183 0 -284 90.5t-101 264.5v65q0 95 53.5 168t141.5 111v4l-209 139z" />
<glyph unicode="&#xe25;" horiz-adv-x="1386" d="M72 362q0 100 39.5 175.5t109.5 120.5t159.5 67.5t197.5 22.5q91 0 183.5 -23t151.5 -55v84q0 98 -66.5 143t-203.5 45q-95 0 -192.5 -29.5t-169.5 -83.5l-164 226q103 77 249 121.5t320 44.5q133 0 239 -27t185 -82t121.5 -144.5t42.5 -207.5v-760h-361v393 q-57 36 -142.5 60t-182.5 24q-160 0 -160 -117q0 -50 32.5 -80t86.5 -30q74 0 129 35l102 -224q-103 -77 -286 -77q-191 0 -305.5 100.5t-114.5 277.5z" />
<glyph unicode="&#xe26;" horiz-adv-x="1425" d="M41 27l39 243q37 -16 86 -16q39 0 53 21t14 63v57q0 195 132 275v4l-236 139l-39 145q102 114 280 188.5t373 74.5q299 0 434.5 -132.5t135.5 -388.5v-1212h-365v1212q0 127 -54 182.5t-185 55.5q-68 0 -139 -21.5t-115 -56.5l2 -4l219 -125v-113q-24 -12 -41 -26.5 t-27 -35.5t-15.5 -34.5t-8 -43.5t-2.5 -40v-45v-117q0 -63 -14 -115t-45.5 -96.5t-90 -69t-141.5 -24.5q-158 0 -250 56z" />
<glyph unicode="&#xe27;" horiz-adv-x="1243" d="M41 162l172 217q73 -64 148 -94.5t176 -30.5q69 0 120.5 19t82.5 49t49.5 76t25 92.5t6.5 105.5t-6.5 105.5t-24.5 92t-48 76t-80 49.5t-117 19q-102 0 -181 -31t-151 -94l-172 217q86 82 218 136.5t288 54.5q635 0 635 -625q0 -142 -35.5 -253.5t-110 -196t-200.5 -130 t-297 -45.5q-169 0 -297 54t-201 137z" />
<glyph unicode="&#xe28;" horiz-adv-x="1468" d="M113 0v682q0 251 159.5 395t444.5 144q157 0 284 -50l306 123l100 -276l-193 -57q99 -118 99 -320v-641h-361v700q0 238 -235 238q-118 0 -181 -61t-63 -177v-198h4q83 133 250 133q33 0 71.5 -7.5t55.5 -17.5l-74 -276q-37 14 -90 14q-82 0 -140.5 -42t-76.5 -124v-182 h-360z" />
<glyph unicode="&#xe29;" horiz-adv-x="1458" d="M113 485v707h364v-707q0 -114 53 -172.5t168 -58.5q228 0 228 231v45h-242v283h242v379h356v-379h125v-283h-125v-45q0 -245 -157 -379.5t-427 -134.5q-273 0 -429 134t-156 380z" />
<glyph unicode="&#xe2a;" horiz-adv-x="1437" d="M72 362q0 99 39.5 174t109.5 120t159.5 67t197.5 22q92 0 184.5 -22.5t150.5 -54.5v86q0 99 -67 145.5t-203 46.5q-96 0 -194.5 -29t-169.5 -83l-162 221q103 77 249 121.5t320 44.5q180 0 311 -52l310 125l100 -276l-213 -64q49 -49 64.5 -117t15.5 -167v-670h-361v395 q-57 36 -142.5 60t-182.5 24q-72 0 -116 -28.5t-44 -90.5q0 -50 32.5 -80t86.5 -30q74 0 129 35l102 -224q-103 -77 -286 -77q-191 0 -305.5 100.5t-114.5 277.5z" />
<glyph unicode="&#xe2b;" horiz-adv-x="1396" d="M113 0v1190h364v-412h144q90 0 149.5 17t94 54.5t48 89.5t13.5 130v121h360v-121q0 -306 -219 -410v-4q248 -125 248 -411v-244h-365v244q0 116 -21.5 180t-90.5 102q-94 -30 -232 -30h-129v-496h-364z" />
<glyph unicode="&#xe2c;" horiz-adv-x="1626" d="M51 1192h340l107 -748h8l180 609h285l188 -613h8l70 459q18 103 -8.5 146.5t-128.5 64.5v225l385 230l151 -217l-231 -117v-8q93 -38 128 -127t9 -219l-178 -877h-342l-193 678h-4l-186 -678h-344z" />
<glyph unicode="&#xe2d;" horiz-adv-x="1390" d="M92 426v279h594v-267h-250v-32q0 -152 248 -152q70 0 121 17t82 46t50 73.5t25.5 92t6.5 109.5q0 169 -73.5 257.5t-244.5 88.5q-228 0 -399 -117l-160 234q105 79 256.5 122.5t323.5 43.5q164 0 290.5 -46t206 -130.5t120 -198.5t40.5 -254q0 -291 -167.5 -456 t-477.5 -165q-170 0 -302.5 51.5t-211 155.5t-78.5 248z" />
<glyph unicode="&#xe2e;" horiz-adv-x="1447" d="M92 426v279h594v-267h-250v-32q0 -152 248 -152q70 0 121 17t82 46t50 73.5t25.5 92t6.5 109.5q0 169 -73.5 257.5t-244.5 88.5q-228 0 -399 -117l-160 234q105 79 256.5 122.5t323.5 43.5q81 0 167 -16.5t146 -45.5l332 135l100 -276l-219 -64q62 -66 96.5 -162 t34.5 -200q0 -291 -167.5 -456t-477.5 -165q-170 0 -302.5 51.5t-211 155.5t-78.5 248z" />
<glyph unicode="&#xe2f;" horiz-adv-x="1112" d="M82 1012h328q0 -95 24 -139t94 -44q67 0 99 53.5t32 129.5h340v-1012h-364v365q0 163 106 317l-10 8q-35 -48 -103 -81.5t-153 -33.5q-202 0 -297.5 107.5t-95.5 329.5z" />
<glyph unicode="&#xe30;" horiz-adv-x="923" d="M92 305v178h348v-112q0 -29 8 -40.5t37 -11.5h346v-266h-462q-144 0 -210.5 57.5t-66.5 194.5zM92 907v178h348v-108q0 -29 8 -40t37 -11h346v-271h-462q-144 0 -210.5 57.5t-66.5 194.5z" />
<glyph unicode="&#xe31;" d="M-836 1585v182h340v-116q0 -22 1.5 -31t10.5 -17t29 -8h537v-258h-641q-144 0 -210.5 55.5t-66.5 192.5z" />
<glyph unicode="&#xe32;" horiz-adv-x="1177" d="M31 1055q73 73 204 119.5t263 46.5q290 0 428.5 -124.5t138.5 -383.5v-713h-365v717q0 117 -54 169t-173 52q-151 0 -278 -100z" />
<glyph unicode="&#xe33;" horiz-adv-x="1177" d="M-627 1565q0 123 83 196.5t220 73.5t220.5 -73.5t83.5 -196.5q0 -128 -87.5 -199.5t-216.5 -71.5q-128 0 -215.5 71.5t-87.5 199.5zM-418 1565q0 -41 26 -65.5t68 -24.5t68.5 24.5t26.5 65.5t-26 65.5t-69 24.5t-68.5 -24.5t-25.5 -65.5zM31 1055q73 73 204 119.5 t263 46.5q290 0 428.5 -124.5t138.5 -383.5v-713h-365v717q0 117 -54 169t-173 52q-151 0 -278 -100z" />
<glyph unicode="&#xe34;" d="M-1141 1337v258h1028v-258h-1028z" />
<glyph unicode="&#xe35;" d="M-1141 1337v258h701v209h327v-467h-1028z" />
<glyph unicode="&#xe36;" d="M-1141 1337v258h541q0 105 72 174.5t192 69.5q122 0 195 -70t73 -182q0 -108 -73.5 -179t-194.5 -71h-805zM-418 1587q0 -40 21 -63t61 -23t60 23t20 63t-20 64t-60 24q-41 0 -61.5 -24t-20.5 -64z" />
<glyph unicode="&#xe37;" d="M-1141 1337v258h332v209h295v-217h106v217h295v-467h-1028z" />
<glyph unicode="&#xe38;" d="M-604 -150h117q102 0 167.5 -12.5t114.5 -45.5t70.5 -92.5t21.5 -152.5v-247h-331v247q0 41 -41 41h-119v262z" />
<glyph unicode="&#xe39;" d="M-924 -150h168q61 0 100 -6t73 -24t49.5 -54t15.5 -92v-120q0 -70 61 -70q62 0 62 70v296h282v-325q0 -109 -94.5 -177.5t-247.5 -68.5q-156 0 -251 65t-95 181v26q0 24 -7.5 30.5t-29.5 6.5h-86v262z" />
<glyph unicode="&#xe3a;" d="M-504 -344q0 88 55.5 147.5t153.5 59.5q101 0 155 -58.5t54 -148.5q0 -89 -56.5 -148t-152.5 -59q-99 0 -154 58.5t-55 148.5z" />
<glyph unicode="&#xe3f;" horiz-adv-x="1384" d="M123 8v1331h366v209h357v-213q191 -18 304.5 -105.5t113.5 -250.5q0 -95 -53 -159.5t-142 -88.5v-6q112 -32 183 -114.5t71 -192.5q0 -196 -130 -299t-347 -111v-209h-357v209h-366zM479 279h328q68 0 112 37t44 102q0 62 -46 98.5t-120 36.5h-318v-274zM479 815h273 q66 0 108.5 33t42.5 94q0 60 -41 93.5t-110 33.5h-273v-254z" />
<glyph unicode="&#xe40;" horiz-adv-x="765" d="M113 371v821h364v-823q0 -68 14 -95.5t60 -27.5q49 0 94 30l111 -217q-101 -88 -285 -88q-182 0 -270 108.5t-88 291.5z" />
<glyph unicode="&#xe41;" horiz-adv-x="1433" d="M113 371v821h364v-823q0 -68 14 -95.5t60 -27.5q49 0 94 30l111 -217q-101 -88 -285 -88q-182 0 -270 108.5t-88 291.5zM780 371v821h365v-823q0 -68 14 -95.5t60 -27.5q49 0 94 30l110 -217q-101 -88 -284 -88q-182 0 -270.5 108.5t-88.5 291.5z" />
<glyph unicode="&#xe42;" horiz-adv-x="946" d="M20 1534v172q73 98 195 136t295 38h375v-266h-348q-121 0 -156 -35v-8q132 -87 194 -210t62 -306v-686q0 -68 14 -95.5t60 -27.5q49 0 94 30l110 -217q-101 -88 -284 -88q-182 0 -270.5 108.5t-88.5 291.5v686q0 106 -9 171.5t-36.5 122.5t-76 98t-130.5 85z" />
<glyph unicode="&#xe43;" horiz-adv-x="933" d="M10 1665q68 114 190 181t281 67q207 0 319.5 -94.5t112.5 -276.5q0 -53 -16 -102.5t-41.5 -88.5t-56 -77t-61 -74.5t-56 -74t-41.5 -83t-16 -94.5v-579q0 -68 13.5 -95.5t59.5 -27.5q50 0 95 30l110 -217q-101 -88 -285 -88q-182 0 -270 108.5t-88 291.5v577 q0 80 32 155.5t77 132t90.5 107.5t77.5 101.5t32 93.5q0 104 -114 104q-128 0 -226 -157z" />
<glyph unicode="&#xe44;" horiz-adv-x="933" d="M72 1614v266h862v-266q-112 -100 -178 -188t-102 -199.5t-36 -251.5v-606q0 -68 14 -95.5t60 -27.5q49 0 94 30l111 -217q-101 -88 -285 -88q-182 0 -270 108.5t-88 291.5v602q0 190 83.5 357t215.5 280v4h-481z" />
<glyph unicode="&#xe45;" horiz-adv-x="1177" d="M31 1055q73 73 204 119.5t263 46.5q290 0 428.5 -124.5t138.5 -383.5v-1225h-365v1229q0 117 -54 169t-173 52q-151 0 -278 -100z" />
<glyph unicode="&#xe46;" horiz-adv-x="1331" d="M72 653q0 211 85 332t246 121q169 0 232 -129h8q29 60 94.5 94.5t147.5 34.5q80 0 140 -24.5t96.5 -64.5t59 -100t30.5 -122.5t8 -139.5v-1167h-361v1180q0 28 -0.5 42t-2.5 36t-7 32.5t-13 22.5t-22 17t-33 5q-42 0 -60 -34t-18 -76h-131q0 26 -5 48.5t-22.5 42 t-45.5 19.5q-50 0 -66 -38.5t-16 -120.5q0 -101 50.5 -131.5t182.5 -30.5l-82 -250q-495 0 -495 401z" />
<glyph unicode="&#xe47;" d="M-1122 1647q0 305 415 305h545v-217h-545q-71 0 -106 -18.5t-35 -74.5q0 -44 25.5 -67t70.5 -23q100 0 125 105h127q33 -105 129 -105q68 0 119 54l100 -170q-28 -38 -82.5 -67.5t-125.5 -29.5q-65 0 -117.5 31t-81.5 76h-8q-29 -46 -88.5 -76.5t-141.5 -30.5 q-152 0 -238.5 82.5t-86.5 225.5z" />
<glyph unicode="&#xe48;" d="M-432 1894v373h319v-373h-319z" />
<glyph unicode="&#xe49;" d="M-758 2109v226h252q55 0 92 -14.5t56 -43.5t26.5 -62.5t7.5 -80.5h367v-238h-641v152q0 34 -7 47.5t-34 13.5h-119z" />
<glyph unicode="&#xe4a;" d="M-811 1894q0 76 6.5 137.5t24.5 119.5t46.5 96.5t75.5 62t109 23.5q70 0 113.5 -40t58.5 -100h4q35 140 172 140q87 0 137.5 -58t59.5 -135h102v-246h-266q0 136 -15 176q-13 33 -38 33q-13 0 -23 -8t-16 -25.5t-9.5 -33t-4.5 -44t-1.5 -44t-0.5 -45.5v-9h-205 q0 48 -1 72.5t-5.5 62.5t-16.5 56t-31 18q-13 0 -22.5 -8t-15 -25.5t-9 -33t-4.5 -43.5t-1.5 -44t-0.5 -46v-9h-223z" />
<glyph unicode="&#xe4b;" d="M-571 2011v205h149v117h291v-117h149v-205h-149v-117h-291v117h-149z" />
<glyph unicode="&#xe4c;" d="M-698 1749v158q0 137 66 192t210 55h330v-258h-234q-28 0 -34.5 -10.5t-6.5 -40.5v-96h-331z" />
<glyph unicode="&#xe4d;" d="M-627 1565q0 123 83 196.5t220 73.5t220.5 -73.5t83.5 -196.5q0 -128 -87.5 -199.5t-216.5 -71.5q-128 0 -215.5 71.5t-87.5 199.5zM-418 1565q0 -41 26 -65.5t68 -24.5t68.5 24.5t26.5 65.5t-26 65.5t-69 24.5t-68.5 -24.5t-25.5 -65.5z" />
<glyph unicode="&#xe4e;" d="M-856 1608q0 78 58.5 126.5t158.5 59.5v4q-86 39 -86 129q0 53 27.5 92t76.5 61t108 32t130 10q152 0 233 -37l-49 -174q-62 26 -161 26q-38 0 -68.5 -11.5t-30.5 -37.5q0 -24 35 -38.5t80 -14.5l-31 -139q-215 12 -215 -51q0 -56 121 -56q83 0 129 21l29 -178 q-75 -43 -230 -39q-161 4 -238 62t-77 153z" />
<glyph unicode="&#xe4f;" horiz-adv-x="1325" d="M61 618q0 90 24 174t73.5 157.5t119.5 128.5t169.5 86.5t216.5 31.5t216 -31.5t169 -86.5t119 -128.5t72.5 -157.5t23.5 -174t-23.5 -174t-72.5 -157.5t-119 -128t-169 -86t-216 -31.5t-216.5 31.5t-169.5 86t-119.5 128t-73.5 157.5t-24 174zM332 618q0 -145 90 -238 t242 -93t240.5 92.5t88.5 238.5q0 148 -88.5 240t-240.5 92q-153 0 -242.5 -92.5t-89.5 -239.5zM440 618q0 97 58 159.5t164 62.5t163.5 -62.5t57.5 -159.5q0 -98 -57.5 -159.5t-163.5 -61.5q-107 0 -164.5 61.5t-57.5 159.5z" />
<glyph unicode="&#xe50;" horiz-adv-x="1316" d="M61 504q0 170 80 291.5t213 180t303 58.5q127 0 235.5 -34t189.5 -99t127 -167t46 -230q0 -165 -79.5 -287t-214 -184t-304.5 -62q-169 0 -303 62t-213.5 184t-79.5 287zM397 504q0 -132 70.5 -201.5t189.5 -69.5q120 0 191.5 69.5t71.5 201.5t-71 200t-192 68 q-119 0 -189.5 -68.5t-70.5 -199.5z" />
<glyph unicode="&#xe51;" horiz-adv-x="1306" d="M51 584q0 137 79 240.5t213.5 156.5t303.5 53q174 0 307.5 -58.5t212 -176t78.5 -279.5q0 -280 -185 -445t-517 -165v246q198 12 282 97t84 247q0 130 -66 201t-194 71q-114 0 -190 -46.5t-76 -143.5q0 -56 27 -88.5t79 -32.5q42 0 67 11t50 36l117 -189 q-86 -108 -274 -108q-189 0 -293.5 102.5t-104.5 270.5z" />
<glyph unicode="&#xe52;" horiz-adv-x="1507" d="M102 446v818h328v-809q0 -121 85 -173.5t243 -52.5q179 0 258.5 46t79.5 165v213v32t-1 32t-4 34.5t-8.5 25.5t-14.5 21.5t-21 6.5q-50 0 -50 -115h-118q0 115 -48 115q-51 0 -51 -117q0 -58 28 -84t110 -26l-33 -213q-181 0 -276 83t-95 248q0 159 69 246.5t191 87.5 q127 0 174 -102h4q19 45 68 73.5t110 28.5q69 0 121 -22.5t82.5 -59t49.5 -90.5t25.5 -109t6.5 -124v-183q0 -119 -47.5 -210t-135 -147.5t-206.5 -85t-266 -28.5q-198 0 -343 50t-230 158.5t-85 266.5z" />
<glyph unicode="&#xe53;" horiz-adv-x="1366" d="M72 475q0 87 9 162t34 150.5t64.5 128t105.5 85.5t153 33q89 0 152 -38.5t92 -112.5h4q29 73 95 112t153 39q79 0 138 -22t95 -59.5t58.5 -95.5t30.5 -121.5t8 -145.5v-590h-336v590v16q0 38 -1 59t-6.5 50t-20 43t-38.5 14q-74 0 -74 -145h-217q0 30 -2 51.5t-8.5 45 t-22 36t-38.5 12.5q-22 0 -38 -12.5t-26 -38.5t-16 -51.5t-8.5 -65t-3 -65t-0.5 -64.5q0 -122 31.5 -184t117.5 -62q82 0 137 37l99 -217q-98 -78 -285 -78q-143 0 -243 67.5t-146.5 179t-46.5 257.5z" />
<glyph unicode="&#xe54;" horiz-adv-x="1335" d="M61 508q0 163 83.5 284t224.5 182.5t319 61.5q84 0 139.5 6t97 16t81 37t70 54.5t85.5 83.5l174 -215q-129 -142 -267 -191t-359 -49q-142 0 -227 -71t-85 -199q0 -127 70 -190.5t221 -63.5h219v4q-71 22 -117.5 68.5t-46.5 111.5q0 49 26.5 93.5t74.5 68.5l284 -51 q-73 -59 -73 -139q0 -78 56 -113t157 -43v-244q-321 -14 -580 -14q-134 0 -245.5 30.5t-198 91t-135 160.5t-48.5 230z" />
<glyph unicode="&#xe55;" horiz-adv-x="1335" d="M61 508q0 100 28.5 179.5t82 135.5t121.5 94t156 64q-56 70 -56 154q0 117 77 190.5t206 73.5q128 0 205 -73t77 -191q0 -56 -22 -88q53 16 105.5 57.5t127.5 118.5l166 -205q-129 -141 -266 -188.5t-360 -47.5q-142 0 -227 -72.5t-85 -201.5q0 -127 70 -190.5t221 -63.5 h219v4q-71 22 -117.5 68.5t-46.5 111.5q0 49 26.5 93.5t74.5 68.5l284 -51q-73 -59 -73 -139q0 -78 56 -113t157 -43v-244q-321 -14 -580 -14q-134 0 -245.5 30.5t-198 91t-135 160.5t-48.5 230zM598 1135q0 -36 20.5 -58t57.5 -22q36 0 56 22t20 58q0 37 -20 60.5t-56 23.5 q-39 0 -58.5 -23t-19.5 -61z" />
<glyph unicode="&#xe56;" horiz-adv-x="1380" d="M0 1124l264 97l115 -332h8q55 79 155.5 127.5t217.5 48.5q260 0 409.5 -151t149.5 -398q0 -138 -47.5 -245t-129.5 -171t-185.5 -96.5t-223.5 -32.5q-69 0 -134 10.5t-136.5 39t-127.5 73.5t-99.5 120.5t-59.5 172.5l285 84q36 -238 270 -238q135 0 195.5 72.5 t60.5 208.5q0 132 -63 210.5t-193 78.5q-192 0 -264 -160h-268z" />
<glyph unicode="&#xe57;" horiz-adv-x="1708" d="M72 475q0 115 17.5 209.5t56.5 176t111 127.5t173 46q183 0 242 -151h4q29 72 94.5 111.5t151.5 39.5q76 0 131 -22t88 -59t52 -96t25.5 -121t6.5 -146v-369q55 0 76.5 35t21.5 96v914h283v-916q0 -186 -100.5 -268t-309.5 -82h-287v590v18q0 38 -1 58.5t-6.5 49.5 t-20.5 42.5t-39 13.5q-74 0 -74 -145h-217q0 32 -1.5 51.5t-7.5 44.5t-21 37t-38 12q-20 0 -35.5 -11.5t-24 -36t-14 -47t-7.5 -62t-2.5 -61.5t-0.5 -64v-5v-5v-5q0 -119 35.5 -182.5t122.5 -63.5q82 0 137 37l99 -217q-98 -78 -285 -78q-143 0 -243 67.5t-146.5 179 t-46.5 257.5z" />
<glyph unicode="&#xe58;" horiz-adv-x="1429" d="M72 483q0 274 152 401.5t444 127.5h137q79 0 136 12t98.5 40.5t67.5 56.5t60 77l181 -219q-87 -133 -214.5 -183.5t-328.5 -50.5h-139q-79 0 -130 -15t-79 -49.5t-38.5 -80.5t-10.5 -117q0 -54 2.5 -90.5t12 -78t31 -62.5t54.5 -21q26 0 44 9.5t28 24.5t15.5 39t7 46 t1.5 53v80h246v-82q0 -170 92 -170q49 0 68.5 40t19.5 130v150h307v-150q0 -204 -88 -318t-262 -114q-86 0 -157 46t-101 126h-4q-68 -172 -272 -172q-123 0 -210 68t-129 182.5t-42 263.5z" />
<glyph unicode="&#xe59;" horiz-adv-x="1597" d="M72 496q0 110 25 205.5t74.5 170.5t131 118.5t186.5 43.5q86 0 151.5 -37t94.5 -100h4q17 64 71 100.5t122 36.5q96 0 157 -40.5t109 -133.5q5 -9 25 -56.5t38 -75.5t35 -28q16 0 25 23t13 80t4.5 101.5t0.5 137.5v25v86h238v-86q0 -152 -11.5 -261.5t-33 -180.5 t-57 -112.5t-78 -58t-101.5 -16.5q-91 0 -148.5 48t-109.5 147q-12 23 -25.5 48t-19.5 36.5t-13 24t-12.5 16.5t-12.5 7t-17 3q-29 0 -30 -38.5t18 -104.5l145 -625h-301l-137 600q-8 32 -11.5 45.5t-11.5 38t-15.5 35.5t-18.5 25t-25.5 19t-32.5 5q-64 0 -93.5 -77 t-29.5 -195q0 -275 111 -275q40 0 82 29l106 -193q-82 -86 -239 -86q-87 0 -155.5 33t-110.5 85t-69 123t-37.5 140.5t-10.5 143.5z" />
<glyph unicode="&#xe5b;" horiz-adv-x="2768" d="M61 655q0 98 19 182.5t62.5 160t110.5 128.5t169 84t231 31q120 0 210.5 -33t144.5 -92t80 -134.5t26 -166.5v-72h-291v72q0 78 -37 119t-133 41q-70 0 -116.5 -24t-69.5 -70.5t-32 -98.5t-9 -125q0 -161 86 -252.5t262 -91.5q173 0 275 61.5t151 204t49 386.5h291 q73 -73 128.5 -192.5t62.5 -246.5h4q56 175 20 381h225q71 -71 119.5 -155t63.5 -209h4q23 61 24.5 141t-18.5 147h240q58 -204 208 -204h86v-160h-75q-246 0 -297 201h-4q8 -201 -103 -332h-235q17 197 -41 317h-4q0 -120 -47.5 -230.5t-108.5 -162.5h-258q14 282 -70 447 q-8 -171 -64.5 -300t-151 -207.5t-216 -117.5t-268.5 -39q-208 0 -366.5 72t-247.5 211.5t-89 328.5z" />
<glyph unicode="&#x2000;" horiz-adv-x="1167" />
<glyph unicode="&#x2001;" horiz-adv-x="2335" />
<glyph unicode="&#x2002;" horiz-adv-x="1167" />
<glyph unicode="&#x2003;" horiz-adv-x="2335" />
<glyph unicode="&#x2004;" horiz-adv-x="778" />
<glyph unicode="&#x2005;" horiz-adv-x="583" />
<glyph unicode="&#x2006;" horiz-adv-x="389" />
<glyph unicode="&#x2007;" horiz-adv-x="389" />
<glyph unicode="&#x2008;" horiz-adv-x="291" />
<glyph unicode="&#x2009;" horiz-adv-x="467" />
<glyph unicode="&#x200a;" horiz-adv-x="129" />
<glyph unicode="&#x2010;" horiz-adv-x="925" d="M61 385v332h803v-332h-803z" />
<glyph unicode="&#x2011;" horiz-adv-x="925" d="M61 385v332h803v-332h-803z" />
<glyph unicode="&#x2012;" horiz-adv-x="925" d="M61 385v332h803v-332h-803z" />
<glyph unicode="&#x2013;" horiz-adv-x="1347" d="M61 420v307h1225v-307h-1225z" />
<glyph unicode="&#x2014;" horiz-adv-x="1523" d="M61 420v307h1401v-307h-1401z" />
<glyph unicode="&#x2018;" horiz-adv-x="552" d="M61 918l127 430h304l-113 -430h-318z" />
<glyph unicode="&#x2019;" horiz-adv-x="552" d="M61 918l113 430h318l-127 -430h-304z" />
<glyph unicode="&#x201a;" horiz-adv-x="552" d="M61 -248l113 430h318l-127 -430h-304z" />
<glyph unicode="&#x201c;" horiz-adv-x="966" d="M61 918l127 430h304l-113 -430h-318zM475 918l113 430h317l-127 -430h-303z" />
<glyph unicode="&#x201d;" horiz-adv-x="966" d="M61 918l127 430h304l-113 -430h-318zM475 918l113 430h317l-127 -430h-303z" />
<glyph unicode="&#x201e;" horiz-adv-x="966" d="M61 -248l127 430h304l-113 -430h-318zM475 -248l113 430h317l-127 -430h-303z" />
<glyph unicode="&#x2020;" horiz-adv-x="989" d="M61 748v299h246v417h373v-417h248v-299h-244v-912h-381v912h-242z" />
<glyph unicode="&#x2021;" horiz-adv-x="989" d="M61 233v299h242v238h-242v299h242v395h381v-395h244v-299h-244v-238h244v-299h-244v-397h-381v397h-242z" />
<glyph unicode="&#x2022;" horiz-adv-x="743" d="M61 616q0 129 85 215.5t227 86.5q143 0 226 -86.5t83 -215.5q0 -128 -83 -212.5t-226 -84.5q-142 0 -227 85t-85 212z" />
<glyph unicode="&#x2026;" horiz-adv-x="1548" d="M61 0v324h361v-324h-361zM592 0v324h360v-324h-360zM1126 0v324h361v-324h-361z" />
<glyph unicode="&#x202f;" horiz-adv-x="467" />
<glyph unicode="&#x2030;" horiz-adv-x="2381" d="M61 1010q0 162 83 263t249 101t249 -101t83 -263q0 -163 -82.5 -263t-249.5 -100t-249.5 100t-82.5 263zM240 0l854 1350h331l-854 -1350h-331zM311 1010q0 -73 17.5 -107.5t64.5 -34.5t64.5 34.5t17.5 107.5q0 76 -17.5 109.5t-64.5 33.5q-46 0 -64 -34t-18 -109z M940 334q0 162 83 263t249 101t249 -101t83 -263q0 -163 -82.5 -263t-249.5 -100t-249.5 100t-82.5 263zM1190 334q0 -72 17.5 -106.5t64.5 -34.5t64.5 34.5t17.5 106.5q0 76 -17.5 109.5t-64.5 33.5q-46 0 -64 -34t-18 -109zM1657 334q0 162 83 263t249 101t248.5 -100.5 t82.5 -263.5t-82 -263t-249 -100t-249.5 100t-82.5 263zM1907 334q0 -72 17.5 -106.5t64.5 -34.5t64.5 34.5t17.5 106.5q0 76 -17.5 109.5t-64.5 33.5q-46 0 -64 -34t-18 -109z" />
<glyph unicode="&#x2039;" horiz-adv-x="821" d="M61 489v205l699 621v-414l-367 -307v-4l367 -316v-401z" />
<glyph unicode="&#x203a;" horiz-adv-x="821" d="M61 -127v401l367 316v4l-367 307v414l699 -621v-205z" />
<glyph unicode="&#x2044;" horiz-adv-x="1306" d="M61 0l852 1348h332l-852 -1348h-332z" />
<glyph unicode="&#x205f;" horiz-adv-x="583" />
<glyph unicode="&#x20ac;" horiz-adv-x="1544" d="M41 385l68 229h149q-2 14 -2 105h-178l67 229h156q75 200 250.5 314t431.5 114q145 0 283.5 -49t216.5 -139l-131 -223q-132 129 -328 129q-118 0 -202.5 -39t-127.5 -107h443l-70 -229h-436q-5 -20 -5 -52.5t5 -52.5h469l-70 -229h-330q38 -61 121.5 -96t202.5 -35 q102 0 181 29.5t149 99.5l129 -223q-80 -91 -216.5 -140t-283.5 -49q-256 0 -431.5 110t-244.5 304h-266z" />
<glyph unicode="&#x2122;" horiz-adv-x="1337" d="M61 1188v160h471v-160h-124v-410h-222v410h-125zM618 778v570h226l102 -289h2l105 289h223v-570h-168v320h-2l-109 -320h-98l-111 320h-2v-320h-168z" />
<glyph unicode="&#x2202;" horiz-adv-x="1234" d="M72 461q0 150 67 254t178 152t256 48q74 0 137.5 -19t96.5 -50h4q0 91 -41.5 158.5t-110.5 105.5t-160.5 56.5t-189.5 17t-200 -18.5l38 258q511 80 769 -135.5t258 -685.5q0 -133 -33 -244.5t-99.5 -199.5t-177.5 -137.5t-258 -49.5q-129 0 -231.5 38t-168 105 t-100 155.5t-34.5 191.5zM449 442q0 -87 45.5 -129.5t121.5 -42.5q75 0 119.5 43.5t44.5 128.5q0 79 -44 126.5t-122 47.5q-80 0 -122.5 -47t-42.5 -127z" />
<glyph unicode="&#x2206;" horiz-adv-x="1464" d="M61 0l549 1325h275l518 -1325h-1342zM539 299h397l-193 528h-4z" />
<glyph unicode="&#x220f;" horiz-adv-x="1421" d="M61 1104v303h1299v-303h-119v-1358h-377v1358h-307v-1358h-377v1358h-119z" />
<glyph unicode="&#x2211;" horiz-adv-x="1595" d="M61 -143l562 809v20l-533 770v201h1407v-299h-899l430 -610v-144l-465 -665h971v-299h-1473v217z" />
<glyph unicode="&#x2212;" horiz-adv-x="905" d="M61 406v307h783v-307h-783z" />
<glyph unicode="&#x221a;" horiz-adv-x="1579" d="M61 451v360h431l178 -403l356 1038h492v-307h-263l-397 -1139h-326l-221 451h-250z" />
<glyph unicode="&#x221e;" horiz-adv-x="2129" d="M61 614q0 213 144 336t377 123q80 0 156 -21.5t137 -58.5t108 -77.5t84 -86.5q80 100 204.5 169t270.5 69q245 0 385.5 -122.5t140.5 -346.5q0 -201 -140 -328t-374 -127q-146 0 -278.5 70.5t-214.5 161.5q-78 -98 -197 -163t-266 -65q-238 0 -387.5 125t-149.5 342z M434 614q0 -71 48.5 -111t127.5 -40q82 0 156 39t121 96v4q-134 164 -289 164q-75 0 -119.5 -41.5t-44.5 -110.5zM1235 590q45 -53 125.5 -96t161.5 -43q88 0 131 40t43 107q0 74 -47 114t-127 40q-79 0 -161.5 -47t-125.5 -111v-4z" />
<glyph unicode="&#x222b;" horiz-adv-x="1253" d="M61 -125l152 172q71 -96 158 -82q65 10 65 92v940q0 190 99 284.5t288 94.5q251 0 369 -188l-152 -172q-71 96 -157 82q-30 -5 -48 -28.5t-18 -63.5v-940q0 -184 -100 -281.5t-287 -97.5q-251 0 -369 188z" />
<glyph unicode="&#x2248;" horiz-adv-x="1265" d="M61 750q45 100 147.5 170.5t235.5 70.5q70 0 131 -21t98 -45.5t85 -45.5t94 -21q67 0 106.5 31t81.5 96l134 -176q-22 -43 -50.5 -80.5t-71.5 -75.5t-103.5 -60t-131.5 -22q-60 0 -119.5 21.5t-99.5 47.5t-91.5 47.5t-96.5 21.5q-73 0 -123.5 -32t-96.5 -93zM88 303 q45 100 147.5 171t235.5 71q67 0 127.5 -21t98 -45.5t87 -45.5t95.5 -21q67 0 106.5 31t81.5 96l137 -177q-17 -33 -37.5 -63t-52.5 -63t-69 -56.5t-88.5 -39t-108.5 -15.5q-63 0 -123.5 21.5t-100 47t-89.5 47t-95 21.5q-73 0 -123 -31.5t-96 -93.5z" />
<glyph unicode="&#x2260;" horiz-adv-x="950" d="M61 172v283h236l51 143h-287v283h388l114 323h307l-114 -323h133v-283h-234l-51 -143h285v-283h-385l-113 -315h-307l113 315h-136z" />
<glyph unicode="&#x2264;" horiz-adv-x="942" d="M61 0v246h820v-246h-820zM61 711v239l820 398v-322l-449 -201l449 -202v-324z" />
<glyph unicode="&#x2265;" horiz-adv-x="942" d="M61 0v246h820v-246h-820zM61 299v324l449 202l-449 201v322l820 -398v-239z" />
<glyph unicode="&#x25ca;" horiz-adv-x="1386" d="M61 637v70l514 682h236l514 -682v-70l-510 -682h-244zM430 670l258 -342h10l258 342v4l-258 342h-14l-254 -342v-4z" />
<glyph unicode="&#x25fc;" horiz-adv-x="1013" d="M0 0v1014h1014v-1014h-1014z" />
<glyph unicode="&#xf700;" horiz-adv-x="1337" d="M31 1053q97 82 245.5 125t313.5 43q168 0 295 -47l301 120l100 -276l-182 -53q119 -125 119 -357q0 -167 -67 -305t-192 -220.5t-284 -82.5h-279l-94 324q-8 32 -19.5 44.5t-39.5 12.5q-32 0 -82 -16l-60 280q80 39 201 39q111 0 172 -41.5t92 -148.5l64 -211h22 q70 0 118 49.5t67.5 120.5t19.5 155q0 330 -297 330q-229 0 -383 -113z" />
<glyph unicode="&#xf701;" d="M-1356 1337v258h791v-258h-791z" />
<glyph unicode="&#xf702;" d="M-1376 1337v258h483v209h328v-467h-811z" />
<glyph unicode="&#xf703;" d="M-1376 1337v258h321q0 106 71.5 175t190.5 69q122 0 195.5 -70.5t73.5 -181.5q0 -108 -74 -179t-195 -71h-583zM-874 1587q0 -40 20.5 -63t60.5 -23t60 23t20 63t-20 64t-60 24q-41 0 -61 -24t-20 -64z" />
<glyph unicode="&#xf704;" d="M-1376 1337v258h200v209h258v-219h91v219h262v-467h-811z" />
<glyph unicode="&#xf705;" d="M-926 1360v450h320v-450h-320z" />
<glyph unicode="&#xf706;" d="M-1327 1565v245h252q108 0 146 -51.5t38 -152.5h313v-246h-598v143q0 34 -7 48t-34 14h-110z" />
<glyph unicode="&#xf707;" d="M-1348 1360q0 450 226 450q110 0 155 -133h4q18 62 55.5 97.5t90.5 35.5q141 0 174 -188h117v-262h-260q0 229 -45 229q-11 0 -19.5 -10t-13.5 -30.5t-8.5 -40.5t-4.5 -50.5t-1.5 -49.5t-0.5 -48h-172q0 229 -45 229q-49 0 -49 -229h-203z" />
<glyph unicode="&#xf708;" d="M-1212 1475v213h161v122h299v-122h166v-213h-166v-115h-299v115h-161z" />
<glyph unicode="&#xf709;" d="M-1151 1360v174q0 137 66.5 192.5t210.5 55.5h296v-258h-208q-28 0 -34.5 -10.5t-6.5 -40.5v-113h-324z" />
<glyph unicode="&#xf70a;" d="M-461 1360v450h348v-450h-348z" />
<glyph unicode="&#xf70b;" d="M-866 1561v262h245q110 0 164 -58.5t54 -154.5h393v-250h-680v131v14.5v14t-0.5 11.5t-2 10.5l-4.5 7.5t-7.5 7t-11 3.5t-15.5 1.5h-135z" />
<glyph unicode="&#xf70c;" d="M-1108 1360q0 84 7 149t25.5 125t49 99.5t80.5 62.5t117 23q140 0 186 -144h6q16 60 63 102t130 42q62 0 107 -30.5t66.5 -71.5t30.5 -91h168v-266h-334q0 31 -0.5 48t-2 47.5t-5 49t-10 38t-17 29t-24.5 9.5t-25 -9.5t-17 -28.5t-10.5 -38.5t-6 -48.5t-2 -48.5 t-0.5 -47.5h-230q0 47 -1 74t-6 67t-17.5 60t-32.5 20q-14 0 -24.5 -9.5t-17 -29t-10 -38t-5 -49t-2 -47.5t-0.5 -48h-236z" />
<glyph unicode="&#xf70d;" d="M-739 1477v221h172v121h299v-121h172v-221h-172v-117h-299v117h-172z" />
<glyph unicode="&#xf70e;" d="M-782 1360v174q0 137 66 192.5t210 55.5h408v-258h-308q-15 0 -23.5 -2.5t-12 -10.5t-4 -14.5t-0.5 -23.5v-113h-336z" />
<glyph unicode="&#xf70f;" horiz-adv-x="2140" d="M51 958q102 114 279 188.5t372 74.5q152 0 261 -34.5t174 -103.5t95 -163t30 -220v-215q0 -116 46 -173.5t158 -57.5q111 0 158 57.5t47 173.5v707h357v-707q0 -251 -143.5 -382.5t-418.5 -131.5t-418 131.5t-143 382.5v215q0 127 -53 182.5t-184 55.5q-68 0 -138 -21.5 t-114 -56.5l2 -4l192 -125v-113q-85 -38 -113 -81.5t-28 -147.5v-41q0 -54 22.5 -78t67.5 -24q65 0 111 37l108 -224q-55 -47 -123 -67.5t-166 -20.5q-183 0 -284 90.5t-101 264.5v65q0 95 53.5 168t141.5 111v4l-209 139z" />
<glyph unicode="&#xf710;" d="M-1327 1585v182h336v-116q0 -22 1.5 -31t10.5 -17t29 -8h381v-258h-482q-144 0 -210 55.5t-66 192.5z" />
<glyph unicode="&#xf711;" d="M-1151 1565q0 123 83 196.5t220 73.5t220 -73.5t83 -196.5q0 -128 -87.5 -199.5t-215.5 -71.5t-215.5 71.5t-87.5 199.5zM-942 1565q0 -41 26 -65.5t68 -24.5t68 24.5t26 65.5t-25.5 65.5t-68.5 24.5t-68.5 -24.5t-25.5 -65.5z" />
<glyph unicode="&#xf712;" d="M-1378 1640q0 312 387 312h444v-217h-465q-60 0 -86 -22t-26 -73q0 -88 82 -88q85 0 100 101h119q15 -101 100 -101q33 0 53 15.5t41 46.5l88 -178q-20 -27 -38 -45.5t-54.5 -35t-81.5 -16.5q-51 0 -93 29.5t-64 73.5h-5q-24 -43 -83.5 -73t-129.5 -30q-134 0 -211 82.5 t-77 218.5z" />
<glyph unicode="&#xf713;" d="M-885 1894v373h320v-373h-320z" />
<glyph unicode="&#xf714;" d="M-1174 2107v226h252q106 0 144.5 -52t38.5 -149h387v-238h-662v152q0 34 -7 47.5t-34 13.5h-119z" />
<glyph unicode="&#xf715;" d="M-1210 1894q0 76 6.5 137.5t24.5 119.5t46.5 96.5t75.5 62t109 23.5q70 0 113.5 -40t58.5 -100h4q35 140 172 140q87 0 137.5 -58t59.5 -135h102v-246h-266q0 48 -1 72.5t-5.5 62.5t-16.5 56t-31 18q-13 0 -23 -8t-16 -25.5t-9.5 -33t-4.5 -44t-1.5 -44t-0.5 -45.5v-9 h-205q0 136 -15 176q-14 32 -38 33q-13 0 -22.5 -8t-15 -25.5t-9 -33t-4.5 -43.5t-1.5 -44t-0.5 -46v-9h-223z" />
<glyph unicode="&#xf716;" d="M-1024 2011v205h150v117h290v-117h150v-205h-150v-117h-290v117h-150z" />
<glyph unicode="&#xf717;" d="M-995 1708v178q0 137 66 192.5t210 55.5h316v-258h-220q-28 0 -34.5 -10.5t-6.5 -40.5v-117h-331z" />
<glyph unicode="&#xf718;" d="M-604 -512h117q102 0 167.5 -12.5t114.5 -45.5t70.5 -92.5t21.5 -152.5v-195h-331v195q0 41 -41 41h-119v262z" />
<glyph unicode="&#xf719;" d="M-924 -512h168q61 0 100 -6t73 -24t49.5 -54t15.5 -92v-64q0 -34 13.5 -51.5t47.5 -17.5q62 0 62 69v240h282v-268q0 -109 -94.5 -177.5t-247.5 -68.5q-156 0 -251 65t-95 181v10q0 24 -7.5 30.5t-29.5 6.5h-86v221z" />
<glyph unicode="&#xf71a;" d="M-504 -719q0 88 55.5 147.5t153.5 59.5q101 0 155 -58.5t54 -148.5q0 -89 -56.5 -148t-152.5 -59q-99 0 -154 58.5t-55 148.5z" />
<glyph unicode="&#xf71b;" horiz-adv-x="1425" d="M41 68l39 243q37 -16 86 -16q39 0 53 21t14 63v16q0 195 132 275v4l-236 139l-39 145q102 114 280 188.5t373 74.5q299 0 434.5 -132.5t135.5 -388.5v-1110h-348q-194 117 -437 117q-170 0 -301 -80l-108 234q167 96 409 96q120 0 232 -37.5t188 -95.5v876 q0 127 -54 182.5t-185 55.5q-68 0 -139 -21.5t-115 -56.5l2 -4l219 -125v-113q-24 -12 -41 -26.5t-27 -35.5t-15.5 -34.5t-8 -43.5t-2.5 -40v-45v-76q0 -63 -14 -115t-45.5 -96.5t-90 -69t-141.5 -24.5q-158 0 -250 56z" />
<glyph unicode="&#xf71c;" horiz-adv-x="1425" d="M41 68l39 243q37 -16 86 -16q39 0 53 21t14 63v16q0 195 132 275v4l-236 139l-39 145q102 114 280 188.5t373 74.5q299 0 434.5 -132.5t135.5 -388.5v-1110h-443l-182 181h-4q-33 -83 -123 -132t-217 -49q-89 0 -209 21v254q19 -2 54.5 -7t54.5 -7.5t47 -4.5t53 -2 q78 0 115.5 28t58.5 93l240 35l188 -178h2v878q0 127 -54 182.5t-185 55.5q-68 0 -139 -21.5t-115 -56.5l2 -4l219 -125v-113q-24 -12 -41 -26.5t-27 -35.5t-15.5 -34.5t-8 -43.5t-2.5 -40v-45v-76q0 -63 -14 -115t-45.5 -96.5t-90 -69t-141.5 -24.5q-158 0 -250 56z" />
<glyph unicode="&#xf71d;" horiz-adv-x="1622" d="M51 1192h340l107 -748h8l180 609h264l219 -654h9l36 228q13 66 10.5 108t-31.5 66t-97 37v225l344 229l151 -217l-211 -117v-8q93 -38 120.5 -118.5t-3.5 -221.5l-133 -610h-342l-193 678h-4l-186 -678h-344z" />
<glyph unicode="&#xf883;" horiz-adv-x="1386" d="M51 958q102 114 280.5 188.5t373.5 74.5q299 0 434 -132.5t135 -388.5v-1110h-365v1110q0 127 -54 182.5t-185 55.5q-68 0 -139 -21.5t-115 -56.5l2 -4l192 -125v-113q-85 -38 -113 -81.5t-28 -147.5v-41q0 -54 22.5 -78t67.5 -24q65 0 111 37l108 -224 q-55 -47 -123 -67.5t-166 -20.5q-183 0 -284 90.5t-101 264.5v65q0 95 53.5 168t141.5 111v4l-209 139z" />
<glyph unicode="&#xf884;" horiz-adv-x="1425" d="M41 27l39 243q37 -16 86 -16q39 0 53 21t14 63v57q0 195 132 275v4l-236 139l-39 145q102 114 280 188.5t373 74.5q299 0 434.5 -132.5t135.5 -388.5v-1110h-365v1110q0 127 -54 182.5t-185 55.5q-68 0 -139 -21.5t-115 -56.5l2 -4l219 -125v-113q-24 -12 -41 -26.5 t-27 -35.5t-15.5 -34.5t-8 -43.5t-2.5 -40v-45v-117q0 -63 -14 -115t-45.5 -96.5t-90 -69t-141.5 -24.5q-158 0 -250 56z" />
<glyph d="M-1159 1608q0 78 58.5 126.5t158.5 59.5v4q-86 39 -86 129q0 53 27.5 92t76.5 61t108 32t130 10q152 0 233 -37l-49 -174q-62 26 -162 26q-37 0 -67.5 -11.5t-30.5 -37.5q0 -24 35 -38.5t80 -14.5l-31 -139q-215 12 -215 -51q0 -56 121 -56q82 0 129 21l29 -178 q-75 -43 -230 -39q-161 4 -238 62t-77 153z" />
<glyph horiz-adv-x="1177" d="M-1151 1565q0 123 83 196.5t220 73.5t220 -73.5t83 -196.5q0 -128 -87.5 -199.5t-215.5 -71.5t-215.5 71.5t-87.5 199.5zM-942 1565q0 -41 26 -65.5t68 -24.5t68 24.5t26 65.5t-25.5 65.5t-68.5 24.5t-68.5 -24.5t-25.5 -65.5zM31 1055q73 73 204 119.5t263 46.5 q290 0 428.5 -124.5t138.5 -383.5v-713h-365v717q0 117 -54 169t-173 52q-151 0 -278 -100z" />
</font>
</defs>
</svg>
