<?xml version="1.0" standalone="no"?>
<!DOCTYPE svg PUBLIC "-//W3C//DTD SVG 1.1//EN" "http://www.w3.org/Graphics/SVG/1.1/DTD/svg11.dtd" >
<svg xmlns="http://www.w3.org/2000/svg" xmlns:xlink="http://www.w3.org/1999/xlink" version="1.1">
<metadata></metadata>
<defs>
<font id="psu_stidtiregular" horiz-adv-x="0" >
<font-face units-per-em="2048" ascent="1536" descent="-512" />
<missing-glyph horiz-adv-x="475" />
<glyph unicode="&#xe2f;&#xe2f;" horiz-adv-x="1376" d="M92 1012h201q0 -42 3 -73t13 -65t28 -55t50.5 -35t77.5 -14q111 0 178 75t72 167h188v-1012h-209v555l23 195h-4q-43 -66 -111.5 -105t-157.5 -39q-177 0 -264.5 107.5t-87.5 298.5zM1028 0v1012h205v-1012h-205z" />
<glyph unicode="&#xe4f;&#x22;" horiz-adv-x="1241" d="M92 610q0 143 65.5 261.5t187 188.5t276.5 70t276.5 -70t186.5 -188.5t65 -261.5t-65 -261.5t-186.5 -188.5t-276.5 -70t-276.5 70t-187 188.5t-65.5 261.5zM252 610q0 -160 101.5 -266t267.5 -106q163 0 265.5 106.5t102.5 265.5q0 157 -102.5 265t-265.5 108 q-165 0 -267 -107.5t-102 -265.5zM395 1214v359h176v-359h-176zM432 610q0 80 51.5 132.5t137.5 52.5q84 0 134 -52.5t50 -132.5t-50 -134t-134 -54q-86 0 -137.5 54t-51.5 134zM670 1214v359h176v-359h-176z" />
<glyph unicode="&#xe24;&#xe32;" horiz-adv-x="1990" d="M82 965q98 111 253.5 183.5t326.5 72.5q224 0 352 -82q147 82 340 82q252 0 372.5 -122.5t120.5 -332.5v-1278h-209v1278q0 132 -66 205t-218 73q-127 0 -217 -43q43 -87 43 -210v-1303h-209v1303q0 129 -77 191t-232 62q-215 0 -375 -129l2 -6l241 -166v-96 q-89 -41 -125 -107.5t-36 -185.5v-84q0 -67 26 -97t86 -30t107 35l78 -151q-83 -56 -203 -56q-145 0 -224 81t-79 224v78q0 126 38 206t128 134v4l-215 148z" />
<glyph unicode="&#xe26;&#xe32;" horiz-adv-x="2027" d="M72 6l34 160q43 -19 76 -19q80 0 80 70v158q0 124 26 193.5t107 127.5v4l-248 146l-28 119q98 111 253 183.5t326 72.5q225 0 353 -82q147 82 340 82q252 0 372.5 -122.5t120.5 -332.5v-1278h-209v1278q0 132 -66 205t-218 73q-127 0 -217 -43q43 -87 43 -210v-1303h-209 v1303q0 129 -77.5 191t-232.5 62q-214 0 -374 -129l2 -6l274 -164v-96q-30 -15 -51.5 -29.5t-36 -34t-22.5 -37.5t-12.5 -47t-5.5 -55.5t-1 -70.5v-164q0 -121 -59 -180.5t-166 -59.5q-102 0 -174 35z" />
<glyph unicode="fi" horiz-adv-x="1191" d="M82 752v172h123v86q0 173 102 268.5t285 95.5q148 0 249.5 -58t170.5 -169l-144 -74q-51 70 -110.5 105.5t-155.5 35.5t-146 -52.5t-50 -151.5v-86h258v-172h-258v-752h-201v752h-123zM860 0v971h209v-971h-209z" />
<glyph unicode="fl" horiz-adv-x="1409" d="M82 752v172h123v90q0 166 106.5 263t290.5 97q150 0 271 -51t196 -147v-697v-42v-62.5t1.5 -56.5t5 -50.5t11 -43t18 -34.5t27 -25.5t37.5 -14.5q38 -10 83 0.5t71 29.5l66 -149q-42 -35 -117 -50.5t-139 -7.5q-48 6 -86.5 19.5t-66.5 36t-48.5 47t-33.5 62t-21 70 t-11.5 83t-4.5 89t-1 97.5v647q-92 86 -258 86q-96 0 -146 -53t-50 -147v-86h258v-172h-258v-752h-201v752h-123z" />
<glyph />
<glyph />
<glyph unicode="&#xd;" horiz-adv-x="475" />
<glyph unicode=" "  horiz-adv-x="475" />
<glyph unicode="&#x09;" horiz-adv-x="475" />
<glyph unicode="&#xa0;" horiz-adv-x="475" />
<glyph unicode="!" horiz-adv-x="466" d="M133 2v193h201v-193h-201zM135 1350h197l-15 -1012h-167z" />
<glyph unicode="&#x22;" horiz-adv-x="604" d="M82 987v361h180v-361h-180zM342 987v361h180v-361h-180z" />
<glyph unicode="#" horiz-adv-x="1396" d="M82 293l43 143h184l107 332h-238l45 143h238l98 303h170l-98 -303h297l96 303h172l-96 -303h215l-47 -143h-211l-103 -332h263l-43 -143h-261l-90 -293h-170l90 293h-307l-96 -293h-170l96 293h-184zM481 436h303l103 332h-299z" />
<glyph unicode="$" horiz-adv-x="1175" d="M82 170l72 143q180 -141 383 -149v452q-109 40 -181 75t-131 82t-86.5 105.5t-27.5 133.5q0 159 116.5 242.5t309.5 91.5v202h143v-202q198 -15 367 -111l-76 -141q-147 80 -291 90v-430q91 -32 151 -58.5t114 -61t84.5 -73t47.5 -90t17 -117.5q0 -144 -107.5 -238 t-306.5 -112v-205h-143v205q-282 12 -455 166zM299 1012q0 -73 50.5 -113.5t187.5 -93.5v379q-119 -5 -178.5 -44.5t-59.5 -127.5zM680 164q225 25 225 190q0 78 -50.5 122t-174.5 89v-401z" />
<glyph unicode="%" horiz-adv-x="1376" d="M82 1042q0 160 71.5 247t219.5 87t219.5 -87t71.5 -247q0 -155 -72 -243t-219 -88t-219 88t-72 243zM164 0l854 1350h194l-854 -1350h-194zM233 1042q0 -200 140 -200q139 0 139 200q0 107 -34.5 155t-104.5 48t-105 -48t-35 -155zM713 303q0 160 71.5 247t219.5 87 t219 -87t71 -247q0 -156 -71.5 -244t-218.5 -88t-219 88t-72 244zM864 303q0 -201 140 -201q139 0 139 201q0 107 -34.5 155t-104.5 48t-105 -48t-35 -155z" />
<glyph unicode="&#x26;" horiz-adv-x="1361" d="M82 340q0 75 22.5 138.5t65 112t87.5 83t105 69.5l41 23q-167 130 -167 301q0 142 95.5 225.5t235.5 83.5q74 0 133.5 -18t98.5 -47.5t65 -70.5t37.5 -84.5t11.5 -90.5q0 -75 -29.5 -138t-75 -107t-118.5 -95l273 -287q26 32 46.5 68t31 61t30.5 76l137 -108 q-43 -124 -127 -230l260 -305h-229l-137 160q-95 -95 -200 -142t-236 -47q-196 0 -326.5 99t-130.5 270zM266 338q0 -101 74.5 -150t198.5 -49q109 0 184 40.5t137 115.5l-330 348l-45 -25q-45 -26 -68 -40.5t-57.5 -42t-51 -52.5t-29.5 -62.5t-13 -82.5zM412 1067 q0 -116 153 -223q96 58 136 106t40 113q0 62 -45.5 105.5t-128.5 43.5q-76 0 -115.5 -42.5t-39.5 -102.5z" />
<glyph unicode="'" horiz-adv-x="344" d="M82 987v361h180v-361h-180z" />
<glyph unicode="(" horiz-adv-x="602" d="M82 649q0 230 71.5 439t215.5 372l131 -51q-101 -177 -149 -374t-48 -386q0 -193 54.5 -387t162.5 -354l-127 -74q-147 153 -229 359.5t-82 455.5z" />
<glyph unicode=")" horiz-adv-x="602" d="M82 -92q108 160 162.5 354t54.5 387q0 189 -48 386t-149 374l131 51q144 -163 215.5 -372t71.5 -439q0 -249 -82 -455.5t-229 -359.5z" />
<glyph unicode="*" horiz-adv-x="708" d="M82 987l160 92l-158 97l78 118l123 -96l-11 150h160l-10 -150l123 96l78 -118l-160 -97l162 -92l-82 -119l-121 95l10 -138h-160l11 138l-121 -95z" />
<glyph unicode="+" horiz-adv-x="831" d="M82 461v172h244v274h180v-274h244v-172h-244v-258h-180v258h-244z" />
<glyph unicode="," horiz-adv-x="450" d="M82 -186l94 356h193l-109 -356h-178z" />
<glyph unicode="-" horiz-adv-x="831" d="M82 461v172h668v-172h-668z" />
<glyph unicode="." horiz-adv-x="380" d="M82 0v201h217v-201h-217z" />
<glyph unicode="/" horiz-adv-x="866" d="M82 0l493 1348h209l-495 -1348h-207z" />
<glyph unicode="0" horiz-adv-x="1314" d="M82 674q0 157 33.5 283t102 221t180 146.5t259.5 51.5q149 0 261 -51.5t180 -146.5t101.5 -221t33.5 -283t-34 -283.5t-102.5 -221.5t-180 -146.5t-259.5 -51.5q-119 0 -214.5 34t-162.5 95.5t-111.5 149t-65.5 193.5t-21 231zM299 672q0 -520 358 -520q359 0 359 522 t-359 522q-358 0 -358 -524z" />
<glyph unicode="1" horiz-adv-x="747" d="M31 1065l331 283h222v-1348h-217v1104l-211 -180z" />
<glyph unicode="2" horiz-adv-x="1118" d="M82 0q0 144 18.5 240.5t70.5 180.5t130.5 149.5t212.5 148.5q31 20 83 51t76.5 46.5t58.5 41t49 46t26.5 49t11.5 61.5q0 90 -66.5 136t-187.5 46q-108 0 -196 -46.5t-148 -119.5l-123 139q75 92 195 149.5t272 57.5q215 0 341 -93t126 -269q0 -53 -10.5 -98t-34 -82 t-47.5 -64.5t-64.5 -57.5t-70 -49t-80 -49.5t-78.5 -48.5q-69 -44 -111.5 -73t-89.5 -68.5t-72 -74t-42 -78t-17 -91.5h721v-180h-954z" />
<glyph unicode="3" horiz-adv-x="1193" d="M72 162l108 155q66 -74 163 -119.5t220 -45.5q154 0 243 54t89 169q0 57 -22.5 100t-58 68.5t-85.5 41.5t-97.5 21.5t-101.5 5.5v176q65 0 120.5 10.5t103.5 34t75 66t27 100.5q0 55 -25.5 95t-69.5 61.5t-93 31t-105 9.5q-207 0 -319 -135l-119 135q53 72 165 126 t273 54q110 0 201 -21.5t161 -65.5t109 -117.5t39 -170.5q0 -121 -79.5 -199t-192.5 -91v-4q137 -21 224 -110.5t87 -221.5q0 -133 -69.5 -225t-191 -135.5t-288.5 -43.5q-155 0 -284.5 50t-206.5 141z" />
<glyph unicode="4" horiz-adv-x="1183" d="M51 334v168l643 846h230v-842h198v-172h-194v-334h-213v334h-664zM270 506h453v608h-4z" />
<glyph unicode="5" horiz-adv-x="1206" d="M82 160l100 159q74 -79 173 -125.5t245 -46.5q157 0 236 71t79 202q0 143 -86 206.5t-258 63.5q-202 0 -397 -57v715h858v-177h-653v-319q119 14 201 14q257 0 400.5 -109.5t143.5 -336.5q0 -215 -136.5 -332t-387.5 -117q-339 0 -518 189z" />
<glyph unicode="6" horiz-adv-x="1216" d="M82 600q0 140 17.5 255t58 213.5t104 165.5t159 104.5t218.5 37.5q89 0 162 -17t126.5 -49t89.5 -63.5t73 -75.5l-129 -124q-123 149 -322 149q-93 0 -162 -37t-108.5 -102.5t-58.5 -146.5t-19 -179h4q51 58 139 95.5t199 37.5q240 0 371 -121t131 -323q0 -91 -31.5 -171 t-92 -142.5t-159 -99t-223.5 -36.5q-142 0 -248 45t-171 129t-96.5 197.5t-31.5 257.5zM311 426q0 -132 82 -205.5t240 -73.5q146 0 219.5 74.5t73.5 198.5q0 68 -24 120.5t-65.5 84t-93 47.5t-110.5 16q-142 0 -232 -68t-90 -194z" />
<glyph unicode="7" horiz-adv-x="1089" d="M82 1167v181h926v-193l-598 -1155h-242l614 1167h-700z" />
<glyph unicode="8" horiz-adv-x="1232" d="M82 362q0 243 252 338v2q-88 41 -143.5 116t-55.5 175q0 179 128.5 281t352.5 102q223 0 350.5 -101.5t127.5 -281.5q0 -204 -195 -291v-2q252 -102 252 -338q0 -188 -147 -289.5t-388 -101.5t-387.5 101.5t-146.5 289.5zM295 383q0 -116 83.5 -178t237.5 -62 q155 0 238.5 62t83.5 178q0 115 -87 173t-235 58t-234.5 -58t-86.5 -173zM348 993q0 -211 268 -211q269 0 269 211q0 97 -67 154t-202 57q-134 0 -201 -57.5t-67 -153.5z" />
<glyph unicode="9" horiz-adv-x="1216" d="M82 928q0 91 31.5 170.5t92 142.5t159 99t223.5 36q283 0 415 -160t132 -468q0 -143 -15.5 -256t-54 -213t-101 -166t-160 -104t-226.5 -38q-89 0 -162 17t-126.5 49t-89.5 63.5t-73 75.5l129 125q123 -149 322 -149q83 0 145.5 25t100.5 66t61.5 102.5t32 126t8.5 144.5 h-4q-51 -58 -139 -95.5t-199 -37.5q-226 0 -364 123.5t-138 321.5zM291 928q0 -133 84.5 -201t208.5 -68q142 0 231.5 68.5t89.5 194.5q0 132 -81.5 205t-239.5 73q-146 0 -219.5 -74t-73.5 -198z" />
<glyph unicode=":" horiz-adv-x="380" d="M82 100v201h217v-201h-217zM82 748v200h217v-200h-217z" />
<glyph unicode=";" horiz-adv-x="448" d="M82 -61l94 360h191l-109 -360h-176zM141 748v200h217v-200h-217z" />
<glyph unicode="&#x3c;" horiz-adv-x="862" d="M82 444v209l698 351v-203l-520 -250v-6l520 -258v-199z" />
<glyph unicode="=" horiz-adv-x="831" d="M82 301v164h668v-164h-668zM82 610v164h668v-164h-668z" />
<glyph unicode="&#x3e;" horiz-adv-x="862" d="M82 88v199l520 258v6l-520 250v203l698 -351v-209z" />
<glyph unicode="?" horiz-adv-x="948" d="M72 1202q58 75 164.5 122.5t238.5 47.5q106 0 192 -34t142.5 -110t56.5 -184q0 -58 -17 -104.5t-44.5 -79.5t-61 -64t-66.5 -66.5t-60.5 -78.5t-44.5 -109t-17 -149v-57h-201v57q0 88 17 161.5t44.5 123t61 91t67 73.5t61 62t44.5 65.5t17 74.5q0 72 -51.5 114t-139.5 42 q-94 0 -161 -31t-124 -94zM352 0v193h209v-193h-209z" />
<glyph unicode="@" horiz-adv-x="1603" d="M92 612q29 211 138.5 358t276.5 217t382 70q116 0 217 -24t182 -72t136.5 -117t80 -164t13.5 -208q-24 -235 -119.5 -363.5t-263.5 -128.5q-74 0 -123 34t-68 85q-41 -55 -103 -85t-136 -30q-155 0 -226.5 105t-40.5 291q25 161 121.5 257.5t243.5 92.5q83 -4 124 -34 t68 -85l35 72h127l-104 -459q-12 -52 12 -78.5t74 -26.5q102 0 152 85.5t71 267.5q25 214 -103.5 330t-392.5 116q-249 0 -410 -135.5t-198 -370.5q-14 -106 -7 -198t46 -167.5t102.5 -129t162 -82.5t224.5 -29q204 0 340 100l68 -122q-176 -117 -432 -117q-169 0 -305 52.5 t-225 147.5t-126.5 235.5t-13.5 309.5zM606 567q-21 -103 12 -167t117 -64q136 0 156 84l55 235q14 59 -24.5 95t-122.5 36q-77 0 -123 -54t-70 -165z" />
<glyph unicode="A" horiz-adv-x="1341" d="M31 0l547 1348h186l547 -1348h-221l-129 336h-580l-129 -336h-221zM438 492h465l-231 589h-2z" />
<glyph unicode="B" horiz-adv-x="1331" d="M133 0v1348h629q194 0 307 -95t113 -272q0 -93 -54.5 -165t-134.5 -103v-4q50 -17 93.5 -44t81 -64.5t59.5 -89t22 -110.5q0 -129 -64.5 -221t-169.5 -136t-239 -44h-643zM342 176h428q270 0 270 223q0 106 -82 162.5t-215 56.5h-401v-442zM342 778h369q122 0 192 52 t70 153q0 100 -62.5 144t-183.5 44h-385v-393z" />
<glyph unicode="C" horiz-adv-x="1435" d="M82 672q0 324 190 514t516 190q383 0 566 -252l-123 -137q-79 101 -182.5 155t-260.5 54q-233 0 -363 -143t-130 -381t129.5 -379t363.5 -141q155 0 261.5 52.5t181.5 155.5l123 -137q-181 -252 -566 -252q-327 0 -516.5 188.5t-189.5 512.5z" />
<glyph unicode="D" horiz-adv-x="1382" d="M133 0v1348h492q316 0 495.5 -171.5t179.5 -490.5q0 -325 -166.5 -505.5t-486.5 -180.5h-514zM346 180h301q222 0 331 133t109 373q0 236 -115 358.5t-345 122.5h-281v-987z" />
<glyph unicode="E" horiz-adv-x="1239" d="M133 0v1348h985v-177h-772v-383h590v-176h-590v-436h780v-176h-993z" />
<glyph unicode="F" horiz-adv-x="1208" d="M133 0v1348h983v-177h-770v-405h535v-176h-535v-590h-213z" />
<glyph unicode="G" horiz-adv-x="1456" d="M82 670q0 330 180 518t506 188q378 0 571 -235l-127 -140q-165 195 -444 195q-120 0 -211.5 -39t-148.5 -110t-85 -166t-28 -211q0 -255 119 -386.5t358 -131.5q179 0 279 86.5t100 224.5v86h-436v184h649v-252q0 -225 -160.5 -367.5t-431.5 -142.5q-332 0 -511 187 t-179 512z" />
<glyph unicode="H" horiz-adv-x="1398" d="M133 0v1348h213v-584h707v584h213v-1348h-213v584h-707v-584h-213z" />
<glyph unicode="I" horiz-adv-x="520" d="M154 0v1348h213v-1348h-213z" />
<glyph unicode="J" horiz-adv-x="962" d="M41 215l156 109q23 -42 42.5 -68.5t48.5 -52.5t68 -38.5t90 -12.5q54 0 91 18.5t56 54.5t26.5 77t7.5 97v949h213v-953q0 -424 -402 -424q-132 0 -235 61.5t-162 182.5z" />
<glyph unicode="K" horiz-adv-x="1273" d="M133 0v1348h201v-637l610 637h246l-520 -537q97 -82 158 -159t114 -177l250 -475h-223l-211 412q-51 100 -90.5 156t-116.5 124l-217 -215v-477h-201z" />
<glyph unicode="L" horiz-adv-x="1110" d="M133 0v1348h213v-1168h703v-180h-916z" />
<glyph unicode="M" horiz-adv-x="1572" d="M133 0v1348h303l348 -887h4l349 887h303v-1348h-197v1092h-4l-377 -916h-151l-377 916h-4v-1092h-197z" />
<glyph unicode="N" horiz-adv-x="1396" d="M133 0v1348h234l696 -1065h4v1065h197v-1348h-234l-696 1065h-4v-1065h-197z" />
<glyph unicode="O" horiz-adv-x="1490" d="M82 674q0 322 175 512t488 190t488.5 -190t175.5 -512t-175.5 -512.5t-488.5 -190.5t-488 190.5t-175 512.5zM295 674q0 -238 114.5 -380t335.5 -142t336 142t115 380t-115 380t-336 142t-335.5 -142t-114.5 -380z" />
<glyph unicode="P" horiz-adv-x="1282" d="M133 0v1348h606q215 0 343 -119t128 -322q0 -202 -128.5 -322t-342.5 -120h-393v-465h-213zM342 645h358q301 0 301 262q0 132 -80 196t-221 64h-358v-522z" />
<glyph unicode="Q" horiz-adv-x="1490" d="M82 674q0 322 175 512t488 190t488.5 -190t175.5 -512q0 -264 -123 -441.5t-352 -238.5l344 -154l-98 -178l-537 315q-267 29 -414 216t-147 481zM295 674q0 -238 114.5 -380t335.5 -142t336 142t115 380t-115 380t-336 142t-335.5 -142t-114.5 -380z" />
<glyph unicode="R" horiz-adv-x="1314" d="M133 0v1348h592q77 0 146 -14t132 -45t109 -77t73 -115.5t27 -154.5q0 -72 -23.5 -133.5t-60.5 -102t-85 -70.5t-93.5 -45t-89.5 -20v-4q125 -47 192.5 -121.5t98.5 -220.5l49 -225h-229l-49 225q-48 225 -324 301h-252v-526h-213zM342 707h344q151 0 234.5 53.5 t83.5 179.5q0 117 -85 172t-233 55h-344v-460z" />
<glyph unicode="S" horiz-adv-x="1200" d="M82 127l84 170q213 -145 438 -145q144 0 222.5 47t78.5 139q0 41 -11.5 72t-35 54t-59 42.5t-83 38t-106.5 40.5q-8 2 -12.5 4t-11.5 4.5t-13 4.5q-104 38 -168.5 66.5t-125 65.5t-92.5 76.5t-51 93t-19 122.5q0 116 66.5 197.5t174 119t246.5 37.5q274 0 467 -119 l-84 -159q-152 98 -383 98q-274 0 -274 -174q0 -84 58 -123t264 -115q11 -4 16 -6q83 -31 136.5 -53.5t110 -52.5t90 -60.5t61.5 -71t40 -90.5t12 -112q0 -170 -133.5 -268.5t-380.5 -98.5q-155 0 -275.5 35.5t-246.5 120.5z" />
<glyph unicode="T" horiz-adv-x="1216" d="M82 1167v181h1053v-181h-420v-1167h-213v1167h-420z" />
<glyph unicode="U" horiz-adv-x="1384" d="M123 522v826h213v-836q0 -360 356 -360q357 0 357 360v836h213v-826q0 -259 -144 -405t-426 -146t-425.5 146t-143.5 405z" />
<glyph unicode="V" horiz-adv-x="1355" d="M61 1348h230l383 -1112h8l383 1112h229l-495 -1348h-242z" />
<glyph unicode="W" horiz-adv-x="1798" d="M61 1348h222l221 -1045h4l301 922h180l305 -922h4l218 1045h221l-162 -674q-36 -148 -76.5 -318.5t-62 -263.5t-21.5 -92h-209l-305 924h-4l-305 -924h-209l-49 211q-107 444 -111 463z" />
<glyph unicode="X" horiz-adv-x="1351" d="M61 0l471 684l-460 664h243l351 -521l338 521h251l-446 -664l481 -684h-252l-364 543l-348 -543h-265z" />
<glyph unicode="Y" horiz-adv-x="1310" d="M51 1348h238l364 -727h4l365 727h238l-498 -916v-432h-213v432z" />
<glyph unicode="Z" horiz-adv-x="1320" d="M102 0v188l840 979h-811v181h1067v-189l-838 -979h859v-180h-1117z" />
<glyph unicode="[" horiz-adv-x="634" d="M133 -297v1939h440v-180h-223v-1579h223v-180h-440z" />
<glyph unicode="\" horiz-adv-x="866" d="M82 1348h209l493 -1348h-206z" />
<glyph unicode="]" horiz-adv-x="634" d="M61 -117h224v1579h-224v180h441v-1939h-441v180z" />
<glyph unicode="^" horiz-adv-x="995" d="M82 752l321 596h189l321 -596h-198l-217 417l-217 -417h-199z" />
<glyph unicode="_" horiz-adv-x="935" d="M0 0h936v-160h-936v160z" />
<glyph unicode="`" horiz-adv-x="1490" d="M549 1806h262l98 -340h-184z" />
<glyph unicode="a" horiz-adv-x="1110" d="M72 287q0 164 108 242.5t297 78.5q178 0 324 -71v106q0 119 -55.5 170t-200.5 51q-179 0 -326 -92l-67 168q75 45 179.5 72.5t213.5 27.5q230 0 341 -95t111 -302v-643h-151l-21 131q-133 -160 -352 -160q-193 0 -297 85.5t-104 230.5zM272 287q0 -77 55 -116.5 t156 -39.5q217 0 318 166v82q-79 37 -151.5 53.5t-172.5 16.5q-104 0 -154.5 -38.5t-50.5 -123.5z" />
<glyph unicode="b" horiz-adv-x="1226" d="M123 0v1434h205v-547q50 67 143 110t195 43q239 0 364 -143.5t125 -392.5q0 -250 -125 -391.5t-366 -141.5q-123 0 -212 48.5t-133 115.5l-20 -135h-176zM322 381q34 -114 120 -174t195 -60q156 0 232.5 85t76.5 272q0 360 -311 360q-121 0 -204.5 -68.5t-108.5 -181.5 v-233z" />
<glyph unicode="c" horiz-adv-x="1138" d="M72 506q0 249 151.5 391.5t405.5 142.5q136 0 250 -43.5t188 -128.5l-102 -137q-72 72 -149 102.5t-177 30.5q-171 0 -264.5 -95t-93.5 -263t93.5 -263.5t264.5 -95.5q106 0 182.5 31t143.5 103l102 -138q-140 -172 -438 -172q-253 0 -405 143t-152 392z" />
<glyph unicode="d" horiz-adv-x="1226" d="M72 489q0 248 128.5 399.5t360.5 151.5q102 0 195 -43t143 -110v547h205v-1434h-176l-21 135q-43 -66 -137 -115t-219 -49q-241 0 -360 133.5t-119 384.5zM281 489q0 -187 70.5 -264.5t226.5 -77.5q111 0 204.5 61t124.5 173v233q-25 112 -109.5 181t-205.5 69 q-160 0 -235.5 -100.5t-75.5 -274.5z" />
<glyph unicode="e" horiz-adv-x="1173" d="M72 510q0 244 140.5 387t389.5 143q171 0 289.5 -78t169.5 -209q40 -103 40 -228q0 -34 -3 -70h-817v-17q0 -128 85 -209q91 -86 250 -86q219 0 330 144l119 -119q-154 -197 -449 -197q-260 0 -402 144.5t-142 394.5zM287 610h616q-6 123 -83.5 188.5t-217.5 65.5 q-137 0 -221 -62.5t-94 -191.5z" />
<glyph unicode="f" horiz-adv-x="839" d="M82 760v172h123v131q0 147 84 230t235 83q196 0 295 -141l-100 -109q-74 86 -182 86q-127 0 -127 -141v-139h254v-172h-254v-760h-205v760h-123z" />
<glyph unicode="g" horiz-adv-x="1226" d="M72 524q0 230 138 373t380 143q115 0 194 -41t121 -102l21 115h178v-926q0 -234 -131.5 -355.5t-364.5 -121.5q-104 0 -198.5 23t-155.5 57l41 172q50 -25 83 -38.5t95 -25.5t135 -12q149 0 222 67.5t73 217.5v84q-45 -67 -135 -107.5t-205 -40.5q-218 0 -354.5 136.5 t-136.5 381.5zM283 524q0 -160 79 -253t234 -93q114 0 205 60.5t102 164.5v230q-12 97 -98.5 166t-210.5 69q-80 0 -141 -27t-97.5 -75t-54.5 -108.5t-18 -133.5z" />
<glyph unicode="h" horiz-adv-x="1210" d="M123 0v1434h196v-582q52 87 153.5 137.5t207.5 50.5q215 0 316.5 -106t101.5 -322v-612h-209v612q0 138 -56.5 195t-185.5 57q-72 0 -133.5 -26t-112 -90.5t-69.5 -161.5v-586h-209z" />
<glyph unicode="i" horiz-adv-x="475" d="M123 1130v177h229v-177h-229zM133 0v1012h209v-1012h-209z" />
<glyph unicode="j" horiz-adv-x="796" d="M0 -295l68 156q59 -39 108.5 -56.5t114.5 -17.5q33 0 58.5 9t43 22.5t29.5 37.5t18.5 46.5t10 58t4 62.5t0.5 69v920h209v-916q0 -88 -9 -156.5t-34 -132t-66 -105t-108.5 -66.5t-157.5 -25q-164 0 -289 94zM444 1130v177h230v-177h-230z" />
<glyph unicode="k" horiz-adv-x="1122" d="M123 0v1368h209v-827l434 471h252l-410 -447v-4q93 -30 155.5 -80.5t106.5 -134.5l191 -346h-230l-155 289q-32 60 -73.5 93.5t-110.5 53.5l-160 -164v-272h-209z" />
<glyph unicode="l" horiz-adv-x="661" d="M113 346v1022h209v-985q0 -139 23.5 -187.5t94.5 -48.5t135 33l66 -149q-91 -60 -246 -60q-142 0 -212 92t-70 283z" />
<glyph unicode="m" horiz-adv-x="1699" d="M123 0v1012h178l21 -129q94 157 303 157q103 0 171 -55.5t91 -132.5h2q38 79 125 133.5t198 54.5q181 0 278 -96.5t97 -261.5v-682h-209v672q0 87 -48.5 139.5t-147.5 52.5q-97 0 -158 -58t-72 -153v-653h-192v680q0 88 -45.5 136t-134.5 48q-102 0 -165.5 -56 t-82.5 -155v-653h-209z" />
<glyph unicode="n" horiz-adv-x="1210" d="M123 0v1012h176l20 -160q55 91 149 139.5t206 48.5q216 0 320 -106.5t104 -321.5v-612h-209v612q0 133 -54.5 192.5t-187.5 59.5q-129 0 -209 -73t-106 -195v-596h-209z" />
<glyph unicode="o" horiz-adv-x="1216" d="M72 506q0 250 144.5 392t391.5 142t392 -142t145 -392t-145 -392.5t-392 -142.5q-246 0 -391 142.5t-145 392.5zM281 506q0 -170 82.5 -264.5t244.5 -94.5t245 94.5t83 264.5t-83 264t-245 94t-244.5 -94t-82.5 -264z" />
<glyph unicode="p" horiz-adv-x="1226" d="M123 -356v1368h178l21 -135q52 74 144 118.5t200 44.5q119 0 213.5 -41t154 -113.5t90.5 -168.5t31 -209q0 -244 -125.5 -390.5t-363.5 -146.5q-106 0 -202.5 45t-135.5 105v-477h-205zM322 385q24 -108 112 -173t199 -65q166 0 239.5 91.5t73.5 269.5q0 163 -77.5 259.5 t-231.5 96.5q-137 0 -214.5 -72t-100.5 -182v-225z" />
<glyph unicode="q" horiz-adv-x="1226" d="M72 492q0 247 126.5 397.5t364.5 150.5q118 0 208 -46t134 -117l21 135h178v-1368h-205v481q-52 -70 -143.5 -112t-210.5 -42q-234 0 -353.5 137t-119.5 384zM281 492q0 -180 67.5 -262.5t226.5 -82.5q118 0 209.5 65t120.5 169v250q-34 114 -120 173.5t-195 59.5 q-309 0 -309 -372z" />
<glyph unicode="r" horiz-adv-x="905" d="M123 0v1012h178l21 -178q37 88 119.5 147t201.5 59q155 0 242 -82l-113 -157q-72 63 -172 63q-112 0 -174 -67t-94 -193v-604h-209z" />
<glyph unicode="s" horiz-adv-x="1001" d="M72 115l82 153q158 -125 358 -125q213 0 213 123q0 24 -8 42t-19.5 30t-37.5 24t-47.5 19t-63.5 20l-48 15q-43 13 -65 20t-62 21.5t-61.5 24.5t-53.5 27.5t-50 34t-39.5 40t-32.5 48t-18.5 56.5t-7.5 68q0 74 31.5 130t86.5 89t125 49t152 16q112 0 217.5 -27.5 t173.5 -76.5l-76 -152q-57 38 -140.5 61t-174.5 23q-191 0 -191 -116q0 -36 21.5 -64.5t60.5 -48t80 -33t95 -28.5q23 -6 34 -9q164 -48 244 -115.5t80 -187.5q0 -76 -34.5 -134.5t-94 -92.5t-132.5 -51t-157 -17q-133 0 -248.5 38.5t-191.5 105.5z" />
<glyph unicode="t" horiz-adv-x="784" d="M82 838v174h131v264h184v-264h273v-174h-273v-359q0 -17 -0.5 -54.5t0 -53.5t1 -47t3.5 -45.5t7 -37t11.5 -34.5t17.5 -25.5t24.5 -20.5t32.5 -11q19 -5 39 -5q21 -1 43 5q44 10 71 30l66 -149q-42 -35 -117 -51q-49 -10 -94 -10q-23 0 -45 3q-53 7 -94.5 25.5t-69 42.5 t-47 63.5t-30 74.5t-16 91t-6.5 98t-1 109v361h-111z" />
<glyph unicode="u" horiz-adv-x="1210" d="M113 391v621h209v-600q0 -133 52.5 -199t172.5 -66q138 0 220.5 65t111.5 204v596h208v-1012h-176l-20 158q-44 -84 -138 -135.5t-216 -51.5q-203 0 -313.5 110.5t-110.5 309.5z" />
<glyph unicode="v" horiz-adv-x="1073" d="M51 1012h213l271 -797h4l270 797h213l-383 -1012h-205z" />
<glyph unicode="w" horiz-adv-x="1511" d="M51 1012h205l193 -772h4l202 690h201l205 -690h4l188 772h207l-293 -1012h-204l-207 688h-4l-103 -344l-102 -344h-205z" />
<glyph unicode="x" horiz-adv-x="1101" d="M51 0l367 528v4l-346 480h233l234 -332h4l229 332h234l-342 -480v-4l387 -528h-234l-272 391h-4l-256 -391h-234z" />
<glyph unicode="y" horiz-adv-x="1069" d="M51 1012h217l264 -799h5l264 799h217l-375 -1012q-75 -201 -154.5 -297t-201.5 -96q-118 0 -197 59l66 150q52 -37 110 -37q49 0 85 36.5t53 82t26 100.5z" />
<glyph unicode="z" horiz-adv-x="1114" d="M92 0v172l658 668h-627v172h876v-172l-661 -668h684v-172h-930z" />
<glyph unicode="{" horiz-adv-x="782" d="M72 586v153q97 0 141.5 76t44.5 201v203q0 223 115.5 323t347.5 100v-155q-143 0 -196.5 -61t-53.5 -207v-203q0 -268 -207 -350v-7q207 -82 207 -350v-203q0 -149 53 -208.5t197 -59.5v-155q-234 0 -348.5 99t-114.5 324v203q0 125 -44.5 201t-141.5 76z" />
<glyph unicode="|" horiz-adv-x="483" d="M133 -297v1939h217v-1939h-217z" />
<glyph unicode="}" horiz-adv-x="782" d="M61 -162q144 0 197 59.5t53 208.5v203q0 268 207 350v7q-207 82 -207 350v203q0 146 -53.5 207t-196.5 61v155q232 0 347.5 -100t115.5 -323v-203q0 -125 45 -201t142 -76v-153q-97 0 -142 -76t-45 -201v-203q0 -225 -114.5 -324t-348.5 -99v155z" />
<glyph unicode="~" horiz-adv-x="1167" d="M82 537q42 82 126 135t200 53q63 0 121.5 -20.5t95 -45t80.5 -45t81 -20.5q62 0 109 34t88 99l102 -127q-112 -199 -307 -199q-52 0 -105 20.5t-91 45t-88 45t-95 20.5q-135 0 -213 -118z" />
<glyph unicode="&#xa1;" horiz-adv-x="466" d="M133 819v193h201v-193h-201zM135 -336l15 1012h167l15 -1012h-197z" />
<glyph unicode="&#xa2;" horiz-adv-x="1159" d="M82 506q0 229 130 369t351 161v185h144v-185q242 -23 370 -168l-102 -137q-63 61 -126.5 92t-141.5 39v-712q84 6 145.5 36.5t122.5 94.5l102 -138q-122 -147 -370 -170v-182h-144v184q-221 20 -351 161t-130 370zM291 506q0 -145 69.5 -237t202.5 -115v702 q-133 -23 -202.5 -114.5t-69.5 -235.5z" />
<glyph unicode="&#xa3;" horiz-adv-x="1091" d="M82 0v135q55 45 93 97t57 97.5t27 96.5t7.5 89.5t-6.5 82.5h-178v160h141q-27 85 -39.5 148.5t-7.5 140.5t37 143q48 96 143 144t222 50q112 1 206 -38t154 -111l-96 -121q-62 62 -120 87t-142 24q-65 -2 -115 -32.5t-74 -88.5q-15 -36 -18.5 -74t5.5 -84.5t21.5 -86 t34.5 -101.5h359v-160h-328q36 -293 -117 -434v-4h662v-160h-928z" />
<glyph unicode="&#xa4;" horiz-adv-x="1191" d="M82 1163l141 123l185 -221q88 37 188 37t188 -37l185 221l141 -123l-178 -202q102 -106 102 -275q0 -150 -98 -262l170 -197l-137 -123l-178 211q-87 -41 -195 -41t-195 41l-178 -211l-137 123l170 197q-96 110 -96 262q0 171 100 275zM340 686q0 -121 70 -194.5 t186 -73.5t187 73.5t71 194.5q0 123 -70.5 197.5t-187.5 74.5t-186.5 -74.5t-69.5 -197.5z" />
<glyph unicode="&#xa5;" horiz-adv-x="1388" d="M82 1348h219l393 -619h4l394 619h215l-426 -646h215v-143h-301v-133h301v-143h-301v-283h-201v283h-303v143h303v133h-303v143h207z" />
<glyph unicode="&#xa6;" horiz-adv-x="483" d="M133 -297v715h217v-715h-217zM133 928v714h217v-714h-217z" />
<glyph unicode="&#xa7;" horiz-adv-x="1021" d="M82 541q0 74 44 140.5t120 100.5q-164 108 -164 275q0 105 59 176.5t153.5 103t217.5 31.5q119 0 228 -29.5t182 -83.5l-74 -143q-147 96 -334 96q-63 0 -111 -12.5t-82 -48t-34 -90.5q0 -21 6 -40.5t13.5 -34.5t25 -30t28.5 -24.5t37.5 -22t38 -18t44 -16.5t42 -13.5 t43.5 -13.5q163 -50 223 -82q126 -67 147 -189q5 -27 5 -59q0 -73 -44.5 -140.5t-121.5 -103.5q166 -109 166 -272q0 -105 -59 -176.5t-153.5 -103t-217.5 -31.5q-257 0 -410 112l74 144q158 -97 334 -97q98 0 162.5 35.5t64.5 116.5q0 21 -6 40.5t-13.5 34.5t-25 30 t-28.5 24.5t-37.5 22t-38 18t-44 16.5t-42 13.5t-43.5 13.5q-163 50 -223 82q-126 67 -147 189q-5 27 -5 59zM274 559q0 -38 20 -66.5t56.5 -47.5t73 -32t83.5 -26q16 -4 23 -6q13 -5 37.5 -13t44.5 -15t37 -15q48 23 73.5 65t25.5 93q0 38 -20 66.5t-56.5 47.5t-73 32 t-83.5 26q-16 4 -23 6q-62 16 -119 41q-99 -47 -99 -156z" />
<glyph unicode="&#xa8;" horiz-adv-x="1490" d="M406 1499v209h221v-209h-221zM862 1499v209h221v-209h-221z" />
<glyph unicode="&#xa9;" horiz-adv-x="1581" d="M82 676q0 316 193 508t513 192q323 0 517 -192t194 -508t-194.5 -510.5t-516.5 -194.5q-320 0 -513 194.5t-193 510.5zM262 676q0 -252 135 -400.5t391 -148.5q257 0 394 148.5t137 400.5q0 158 -58 279.5t-179.5 193.5t-293.5 72q-257 0 -391.5 -145t-134.5 -400z M365 668q0 198 122 312t322 114q107 0 197 -34.5t149 -101.5l-80 -133q-59 59 -119 84t-139 25q-138 0 -203 -65.5t-65 -200.5t65 -200t203 -65q87 0 145 24t113 83l80 -131q-113 -135 -346 -135q-199 0 -321.5 114t-122.5 310z" />
<glyph unicode="&#xaa;" horiz-adv-x="790" d="M82 866q0 209 283 209q115 0 192 -43v53q0 75 -34 109.5t-122 34.5q-123 0 -206 -60l-70 115q111 76 276 76q163 0 235.5 -67.5t72.5 -209.5v-415h-117l-23 80q-35 -41 -101.5 -68t-135.5 -27q-111 0 -180.5 54t-69.5 159zM238 858q0 -90 129 -90q65 0 115.5 25t74.5 65 v47q-70 39 -190 39q-65 0 -97 -20t-32 -66z" />
<glyph unicode="&#xab;" horiz-adv-x="1132" d="M82 516v156l559 483v-233l-379 -326v-4l379 -326v-233zM492 516v156l559 483v-233l-379 -326v-4l379 -326v-233z" />
<glyph unicode="&#xac;" horiz-adv-x="1185" d="M82 565v164h1022v-483h-180v319h-842z" />
<glyph unicode="&#xad;" horiz-adv-x="831" d="M82 461v172h668v-172h-668z" />
<glyph unicode="&#xae;" horiz-adv-x="1581" d="M82 676q0 316 193 508t513 192q323 0 517 -192t194 -508t-194.5 -510.5t-516.5 -194.5q-320 0 -513 194.5t-193 510.5zM262 676q0 -252 135 -400.5t391 -148.5q257 0 394 148.5t137 400.5q0 158 -58 279.5t-179.5 193.5t-293.5 72q-257 0 -391.5 -145t-134.5 -400z M475 264v828h363q136 0 220.5 -60t84.5 -188q0 -55 -19.5 -96.5t-52 -64.5t-64.5 -35.5t-67 -16.5v-2q44 -16 72.5 -35.5t44.5 -49t23 -58t14 -78.5l20 -144h-172l-18 144q-11 90 -40 130t-98 40h-147v-314h-164zM635 717h192q87 0 119.5 27t32.5 100q0 60 -33.5 84 t-118.5 24h-192v-235z" />
<glyph unicode="&#xb0;" horiz-adv-x="778" d="M82 1352q0 121 85 205.5t222 84.5t222 -84.5t85 -205.5t-85 -206t-222 -85t-222 85t-85 206zM225 1352q0 -74 44 -121t120 -47t120 47t44 121q0 75 -43.5 121.5t-120.5 46.5t-120.5 -46.5t-43.5 -121.5z" />
<glyph unicode="&#xb1;" horiz-adv-x="831" d="M82 74v155h668v-155h-668zM82 575v160h248v277h172v-277h248v-160h-248v-260h-172v260h-248z" />
<glyph unicode="&#xb2;" horiz-adv-x="739" d="M82 612q0 154 46.5 232.5t172.5 154.5q24 14 61 34.5t54.5 30.5t37.5 25.5t27.5 31t7.5 34.5q0 70 -114 70q-61 0 -117 -25t-96 -61l-64 114q44 48 120 77.5t165 29.5q127 0 200.5 -52t73.5 -153q0 -19 -4.5 -37.5t-10.5 -33.5t-19.5 -31.5l-22.5 -27.5t-28 -25.5 t-29 -22t-33 -21.5t-31.5 -19t-33 -18t-29.5 -16q-95 -57 -120 -80q-38 -37 -38 -84h395v-127h-571z" />
<glyph unicode="&#xb3;" horiz-adv-x="731" d="M82 700l57 115q80 -80 201 -80q141 0 141 92q0 59 -45.5 81t-126.5 22v114q150 0 150 97q0 84 -115 84q-111 0 -180 -72l-64 104q37 46 106.5 74.5t158.5 28.5q112 0 187 -53t75 -146q0 -69 -41 -113t-101 -55v-2q70 -14 117 -59t47 -123q0 -69 -42.5 -117.5t-107.5 -70 t-145 -21.5q-81 0 -155.5 27t-116.5 73z" />
<glyph unicode="&#xb4;" horiz-adv-x="1490" d="M569 1466l99 340h262l-176 -340h-185z" />
<glyph unicode="&#xb5;" horiz-adv-x="1220" d="M123 -512v1524h209v-611q0 -124 53 -189t182 -65q133 0 215 69.5t107 199.5v596h209v-1012h-178l-19 158q-43 -81 -137 -134t-209 -53q-69 0 -132 21t-97 65h-2v-569h-201z" />
<glyph unicode="&#xb6;" horiz-adv-x="1359" d="M82 1047q0 80 27 140.5t74.5 94.5t104 50t122.5 16h868v-181h-141v-1679h-213v1679h-164v-1679h-213v1247h-137q-66 0 -122.5 17t-104 52.5t-74.5 97.5t-27 145z" />
<glyph unicode="&#xb7;" horiz-adv-x="380" d="M82 541v200h217v-200h-217z" />
<glyph unicode="&#xb8;" horiz-adv-x="1490" d="M514 -500l29 140q44 -19 106 -19q125 0 125 98q0 49 -27.5 77t-93.5 40l45 164h164l-37 -127q66 -20 97.5 -58t31.5 -108q0 -110 -78.5 -169.5t-211.5 -59.5q-98 0 -150 22z" />
<glyph unicode="&#xb9;" horiz-adv-x="532" d="M82 1194l203 154h166v-736h-168v584l-140 -104z" />
<glyph unicode="&#xba;" horiz-adv-x="884" d="M82 1008q0 165 96 258.5t264 93.5t264.5 -93.5t96.5 -258.5t-96.5 -260t-264.5 -95q-167 0 -263.5 94.5t-96.5 260.5zM233 1008q0 -102 51.5 -167t157.5 -65q107 0 158 64t51 168q0 107 -52 168t-157 61q-103 0 -156 -61.5t-53 -167.5z" />
<glyph unicode="&#xbb;" horiz-adv-x="1132" d="M82 33v233l379 326v4l-379 326v233l559 -483v-156zM492 33v233l378 326v4l-378 326v233l559 -483v-156z" />
<glyph unicode="&#xbc;" horiz-adv-x="1435" d="M82 1194l203 154h166v-736h-168v584l-140 -104zM197 0l854 1350h194l-854 -1350h-194zM743 166v106l357 463h157v-452h97v-117h-97v-166h-143v166h-371zM913 287h201v264h-2z" />
<glyph unicode="&#xbd;" horiz-adv-x="1562" d="M82 1194l203 154h166v-736h-168v584l-140 -104zM201 0l854 1350h194l-854 -1350h-194zM905 0q0 154 46.5 232.5t172.5 154.5q24 14 61 34.5t54.5 31t37.5 25.5t28 30.5t8 34.5q0 69 -115 69q-61 0 -117 -25t-96 -61l-63 115q44 48 119.5 77.5t164.5 29.5q127 0 201 -52 t74 -153q0 -21 -4.5 -41t-16 -38t-20 -32t-29.5 -31t-31 -26t-36.5 -25t-34.5 -20.5t-37.5 -20.5t-32.5 -18q-95 -57 -120 -80q-38 -37 -38 -84h396v-127h-572z" />
<glyph unicode="&#xbe;" horiz-adv-x="1531" d="M82 719l57 115q80 -80 201 -80q141 0 141 92q0 59 -45 80.5t-127 21.5v115q150 0 150 96q0 84 -115 84q-111 0 -180 -72l-64 105q37 46 106.5 74t158.5 28q112 0 187 -52.5t75 -145.5q0 -69 -41 -113t-101 -55v-2q70 -14 117 -59t47 -124q0 -69 -42.5 -117.5t-107.5 -70 t-145 -21.5q-81 0 -155.5 27t-116.5 74zM291 0l854 1350h194l-854 -1350h-194zM840 166v106l356 463h158v-452h96v-117h-96v-166h-144v166h-370zM1010 287h200v264h-2z" />
<glyph unicode="&#xbf;" horiz-adv-x="948" d="M82 -33q0 58 17 104.5t44.5 79.5t61 64t66.5 66.5t60.5 78.5t44.5 109t17 149v58h201v-58q0 -88 -17 -161.5t-44.5 -123t-61 -91t-66.5 -73.5t-60.5 -62t-44.5 -65.5t-17 -74.5q0 -72 51 -113.5t139 -41.5q94 0 161 31t124 94l119 -127q-58 -75 -165 -122.5t-239 -47.5 q-62 0 -118.5 12t-106.5 38.5t-87 64t-58 92t-21 120.5zM387 819v193h209v-193h-209z" />
<glyph unicode="&#xc0;" horiz-adv-x="1341" d="M31 0l547 1348h186l547 -1348h-221l-129 336h-580l-129 -336h-221zM395 1774h262l99 -340h-185zM438 492h465l-231 589h-2z" />
<glyph unicode="&#xc1;" horiz-adv-x="1341" d="M31 0l547 1348h186l547 -1348h-221l-129 336h-580l-129 -336h-221zM438 492h465l-231 589h-2zM586 1434l98 340h262l-176 -340h-184z" />
<glyph unicode="&#xc2;" horiz-adv-x="1341" d="M31 0l547 1348h186l547 -1348h-221l-129 336h-580l-129 -336h-221zM354 1434l215 338h207l209 -338h-207l-102 192h-4l-109 -192h-209zM438 492h465l-231 589h-2z" />
<glyph unicode="&#xc3;" horiz-adv-x="1341" d="M31 0l547 1348h186l547 -1348h-221l-129 336h-580l-129 -336h-221zM274 1546q38 71 107.5 120.5t157.5 49.5q55 0 101.5 -16.5t72.5 -36.5t57.5 -36.5t60.5 -16.5q51 0 77.5 22t62.5 78l94 -84q-31 -69 -90.5 -120.5t-147.5 -51.5q-45 0 -88.5 16.5t-72 37t-64 37 t-67.5 16.5q-53 0 -90.5 -22.5t-73.5 -74.5zM438 492h465l-231 589h-2z" />
<glyph unicode="&#xc4;" horiz-adv-x="1341" d="M31 0l547 1348h186l547 -1348h-221l-129 336h-580l-129 -336h-221zM334 1434v208h221v-208h-221zM438 492h465l-231 589h-2zM791 1434v208h221v-208h-221z" />
<glyph unicode="&#xc5;" horiz-adv-x="1341" d="M31 0l514 1270q-99 61 -99 186q0 94 62.5 156.5t163.5 62.5q97 0 159 -63t62 -156q0 -125 -98 -186l516 -1270h-221l-129 336h-580l-129 -336h-221zM438 492h465l-231 589h-2zM573 1456q0 -42 27.5 -69t71.5 -27q41 0 67.5 27.5t26.5 68.5t-26.5 68.5t-67.5 27.5 q-44 0 -71.5 -27t-27.5 -69z" />
<glyph unicode="&#xc6;" horiz-adv-x="1900" d="M31 0l694 1348h1042v-177h-733v-383h551v-176h-551v-436h754v-176h-967v336h-399l-170 -336h-221zM485 492h336v675h-4z" />
<glyph unicode="&#xc7;" horiz-adv-x="1435" d="M82 672q0 324 190 514t516 190q383 0 566 -252l-123 -137q-79 101 -182.5 155t-260.5 54q-233 0 -363 -143t-130 -381t129.5 -379t363.5 -141q155 0 261.5 52.5t181.5 155.5l123 -137q-161 -217 -475 -248l-29 -102q66 -20 97.5 -58t31.5 -108q0 -110 -78.5 -169.5 t-212.5 -59.5q-97 0 -149 22l28 140q44 -19 107 -19q125 0 125 98q0 49 -27.5 77t-93.5 40l37 139q-296 20 -464.5 205t-168.5 492z" />
<glyph unicode="&#xc8;" horiz-adv-x="1239" d="M133 0v1348h985v-177h-772v-383h590v-176h-590v-436h780v-176h-993zM375 1774h262l98 -340h-184z" />
<glyph unicode="&#xc9;" horiz-adv-x="1239" d="M133 0v1348h985v-177h-772v-383h590v-176h-590v-436h780v-176h-993zM541 1434l98 340h262l-176 -340h-184z" />
<glyph unicode="&#xca;" horiz-adv-x="1239" d="M133 0v1348h985v-177h-772v-383h590v-176h-590v-436h780v-176h-993zM311 1434l215 338h207l209 -338h-207l-102 192h-4l-109 -192h-209z" />
<glyph unicode="&#xcb;" horiz-adv-x="1239" d="M133 0v1348h985v-177h-772v-383h590v-176h-590v-436h780v-176h-993zM289 1454v209h221v-209h-221zM745 1454v209h222v-209h-222z" />
<glyph unicode="&#xcc;" horiz-adv-x="520" d="M-12 1774h262l98 -340h-184zM154 0v1348h213v-1348h-213z" />
<glyph unicode="&#xcd;" horiz-adv-x="520" d="M154 0v1348h213v-1348h-213zM172 1434l98 340h262l-176 -340h-184z" />
<glyph unicode="&#xce;" horiz-adv-x="520" d="M-55 1434l215 338h207l208 -338h-206l-103 192h-4l-108 -192h-209zM154 0v1348h213v-1348h-213z" />
<glyph unicode="&#xcf;" horiz-adv-x="520" d="M-51 1454v209h221v-209h-221zM154 0v1348h213v-1348h-213zM350 1454v209h221v-209h-221z" />
<glyph unicode="&#xd0;" horiz-adv-x="1517" d="M82 590v176h186v582h492q316 0 496 -172t180 -490q0 -325 -167 -505.5t-487 -180.5h-514v590h-186zM481 180h301q222 0 331.5 133t109.5 373q0 235 -115.5 358t-345.5 123h-281v-401h328v-176h-328v-410z" />
<glyph unicode="&#xd1;" horiz-adv-x="1396" d="M133 0v1348h234l696 -1065h4v1065h197v-1348h-234l-696 1065h-4v-1065h-197zM293 1546q38 71 107 120.5t157 49.5q55 0 102 -16.5t72.5 -36.5t57.5 -36.5t61 -16.5q27 0 46.5 5.5t36.5 21.5t27 29.5t29 43.5l94 -84q-31 -70 -90 -121t-147 -51q-45 0 -89 16.5t-72.5 37 t-64 37t-67.5 16.5q-53 0 -90.5 -22.5t-73.5 -74.5z" />
<glyph unicode="&#xd2;" horiz-adv-x="1490" d="M82 674q0 322 175 512t488 190t488.5 -190t175.5 -512t-175.5 -512.5t-488.5 -190.5t-488 190.5t-175 512.5zM295 674q0 -238 114.5 -380t335.5 -142t336 142t115 380t-115 380t-336 142t-335.5 -142t-114.5 -380zM487 1774h263l98 -340h-184z" />
<glyph unicode="&#xd3;" horiz-adv-x="1490" d="M82 674q0 322 175 512t488 190t488.5 -190t175.5 -512t-175.5 -512.5t-488.5 -190.5t-488 190.5t-175 512.5zM295 674q0 -238 114.5 -380t335.5 -142t336 142t115 380t-115 380t-336 142t-335.5 -142t-114.5 -380zM664 1434l98 340h262l-176 -340h-184z" />
<glyph unicode="&#xd4;" horiz-adv-x="1490" d="M82 674q0 322 175 512t488 190t488.5 -190t175.5 -512t-175.5 -512.5t-488.5 -190.5t-488 190.5t-175 512.5zM295 674q0 -238 114.5 -380t335.5 -142t336 142t115 380t-115 380t-336 142t-335.5 -142t-114.5 -380zM430 1434l215 338h207l209 -338h-207l-102 192h-4 l-109 -192h-209z" />
<glyph unicode="&#xd5;" horiz-adv-x="1490" d="M82 674q0 322 175 512t488 190t488.5 -190t175.5 -512t-175.5 -512.5t-488.5 -190.5t-488 190.5t-175 512.5zM295 674q0 -238 114.5 -380t335.5 -142t336 142t115 380t-115 380t-336 142t-335.5 -142t-114.5 -380zM350 1546q38 71 107 120.5t157 49.5q55 0 102 -16.5 t72.5 -36.5t57.5 -36.5t61 -16.5q51 0 77.5 22t62.5 78l94 -84q-31 -69 -90.5 -120.5t-147.5 -51.5q-45 0 -89 16.5t-72.5 37t-64 37t-67.5 16.5q-53 0 -90.5 -22.5t-73.5 -74.5z" />
<glyph unicode="&#xd6;" horiz-adv-x="1490" d="M82 674q0 322 175 512t488 190t488.5 -190t175.5 -512t-175.5 -512.5t-488.5 -190.5t-488 190.5t-175 512.5zM295 674q0 -238 114.5 -380t335.5 -142t336 142t115 380t-115 380t-336 142t-335.5 -142t-114.5 -380zM408 1454v209h221v-209h-221zM864 1454v209h221v-209 h-221z" />
<glyph unicode="&#xd7;" horiz-adv-x="845" d="M82 309l221 221l-221 224l119 118l221 -223l223 223l119 -118l-223 -224l223 -221l-119 -119l-223 222l-221 -222z" />
<glyph unicode="&#xd8;" horiz-adv-x="1490" d="M82 674q0 322 175 512t488 190q106 0 187 -20l55 141h164l-74 -194q160 -82 246 -244.5t86 -384.5q0 -322 -175.5 -512.5t-488.5 -190.5q-88 0 -172 19l-55 -146h-164l74 193q-167 80 -256.5 244t-89.5 393zM295 674q0 -328 201 -457l370 965q-68 14 -121 14 q-221 0 -335.5 -142t-114.5 -380zM639 162q55 -10 106 -10q221 0 336 142t115 380q0 318 -188 446z" />
<glyph unicode="&#xd9;" horiz-adv-x="1384" d="M123 522v826h213v-836q0 -360 356 -360q357 0 357 360v836h213v-826q0 -259 -144 -405t-426 -146t-425.5 146t-143.5 405zM440 1774h262l99 -340h-185z" />
<glyph unicode="&#xda;" horiz-adv-x="1384" d="M123 522v826h213v-836q0 -360 356 -360q357 0 357 360v836h213v-826q0 -259 -144 -405t-426 -146t-425.5 146t-143.5 405zM588 1434l98 340h262l-176 -340h-184z" />
<glyph unicode="&#xdb;" horiz-adv-x="1384" d="M123 522v826h213v-836q0 -360 356 -360q357 0 357 360v836h213v-826q0 -259 -144 -405t-426 -146t-425.5 146t-143.5 405zM377 1434l215 338h207l209 -338h-207l-103 192h-4l-108 -192h-209z" />
<glyph unicode="&#xdc;" horiz-adv-x="1384" d="M123 522v826h213v-836q0 -360 356 -360q357 0 357 360v836h213v-826q0 -259 -144 -405t-426 -146t-425.5 146t-143.5 405zM354 1454v209h221v-209h-221zM811 1454v209h221v-209h-221z" />
<glyph unicode="&#xdd;" horiz-adv-x="1310" d="M51 1348h238l364 -727h4l365 727h238l-498 -916v-432h-213v432zM565 1434l99 340h262l-176 -340h-185z" />
<glyph unicode="&#xde;" horiz-adv-x="1292" d="M133 0v1348h209v-191h397q215 0 343 -118.5t128 -321.5q0 -202 -128.5 -322.5t-342.5 -120.5h-393v-274h-213zM342 455h358q301 0 301 262q0 132 -80 196t-221 64h-358v-522z" />
<glyph unicode="&#xdf;" horiz-adv-x="1214" d="M123 0v881q0 481 469 481q213 0 331.5 -101.5t118.5 -273.5q0 -97 -55.5 -172t-142.5 -98v-4q140 -36 219.5 -126.5t79.5 -228.5q0 -191 -128 -299t-364 -108l-35 180q154 0 236 63.5t82 170.5q0 121 -82 188t-221 86v141q96 0 149.5 50t53.5 151q0 100 -65 150.5 t-179 50.5q-141 0 -197.5 -74t-56.5 -238v-870h-213z" />
<glyph unicode="&#xe0;" horiz-adv-x="1110" d="M72 287q0 164 108 242.5t297 78.5q178 0 324 -71v106q0 119 -55.5 170t-200.5 51q-179 0 -326 -92l-67 168q75 45 179.5 72.5t213.5 27.5q230 0 341 -95t111 -302v-643h-151l-21 131q-133 -160 -352 -160q-193 0 -297 85.5t-104 230.5zM272 287q0 -77 55 -116.5 t156 -39.5q217 0 318 166v82q-79 37 -151.5 53.5t-172.5 16.5q-104 0 -154.5 -38.5t-50.5 -123.5zM315 1470h263l98 -340h-184z" />
<glyph unicode="&#xe1;" horiz-adv-x="1110" d="M72 287q0 164 108 242.5t297 78.5q178 0 324 -71v106q0 119 -55.5 170t-200.5 51q-179 0 -326 -92l-67 168q75 45 179.5 72.5t213.5 27.5q230 0 341 -95t111 -302v-643h-151l-21 131q-133 -160 -352 -160q-193 0 -297 85.5t-104 230.5zM272 287q0 -77 55 -116.5 t156 -39.5q217 0 318 166v82q-79 37 -151.5 53.5t-172.5 16.5q-104 0 -154.5 -38.5t-50.5 -123.5zM457 1130l98 340h262l-176 -340h-184z" />
<glyph unicode="&#xe2;" horiz-adv-x="1110" d="M72 287q0 164 108 242.5t297 78.5q178 0 324 -71v106q0 119 -55.5 170t-200.5 51q-179 0 -326 -92l-67 168q75 45 179.5 72.5t213.5 27.5q230 0 341 -95t111 -302v-643h-151l-21 131q-133 -160 -352 -160q-193 0 -297 85.5t-104 230.5zM240 1130l215 338h207l208 -338 h-206l-103 193h-4l-108 -193h-209zM272 287q0 -77 55 -116.5t156 -39.5q217 0 318 166v82q-79 37 -151.5 53.5t-172.5 16.5q-104 0 -154.5 -38.5t-50.5 -123.5z" />
<glyph unicode="&#xe3;" horiz-adv-x="1110" d="M72 287q0 164 108 242.5t297 78.5q178 0 324 -71v106q0 119 -55.5 170t-200.5 51q-179 0 -326 -92l-67 168q75 45 179.5 72.5t213.5 27.5q230 0 341 -95t111 -302v-643h-151l-21 131q-133 -160 -352 -160q-193 0 -297 85.5t-104 230.5zM158 1243q38 71 107 120.5 t157 49.5q55 0 102 -16.5t72.5 -36.5t57.5 -36.5t61 -16.5q27 0 46.5 5.5t36.5 21.5t27 29.5t29 43.5l94 -84q-31 -70 -90 -121t-147 -51q-57 0 -110 26.5t-98.5 53t-84.5 26.5q-53 0 -90.5 -22t-73.5 -74zM272 287q0 -77 55 -116.5t156 -39.5q217 0 318 166v82 q-79 37 -151.5 53.5t-172.5 16.5q-104 0 -154.5 -38.5t-50.5 -123.5z" />
<glyph unicode="&#xe4;" horiz-adv-x="1110" d="M72 287q0 164 108 242.5t297 78.5q178 0 324 -71v106q0 119 -55.5 170t-200.5 51q-179 0 -326 -92l-67 168q75 45 179.5 72.5t213.5 27.5q230 0 341 -95t111 -302v-643h-151l-21 131q-133 -160 -352 -160q-193 0 -297 85.5t-104 230.5zM215 1151v209h221v-209h-221z M272 287q0 -77 55 -116.5t156 -39.5q217 0 318 166v82q-79 37 -151.5 53.5t-172.5 16.5q-104 0 -154.5 -38.5t-50.5 -123.5zM672 1151v209h221v-209h-221z" />
<glyph unicode="&#xe5;" horiz-adv-x="1110" d="M72 287q0 164 108 242.5t297 78.5q178 0 324 -71v106q0 119 -55.5 170t-200.5 51q-179 0 -326 -92l-67 168q75 45 179.5 72.5t213.5 27.5q230 0 341 -95t111 -302v-643h-151l-21 131q-133 -160 -352 -160q-193 0 -297 85.5t-104 230.5zM272 287q0 -77 55 -116.5 t156 -39.5q217 0 318 166v82q-79 37 -151.5 53.5t-172.5 16.5q-104 0 -154.5 -38.5t-50.5 -123.5zM342 1341q0 94 62 157t163 63q97 0 159 -63t62 -157q0 -93 -62 -156t-159 -63q-101 0 -163 62.5t-62 156.5zM469 1341q0 -42 27 -69t71 -27q41 0 68 27.5t27 68.5t-27 69 t-68 28q-44 0 -71 -27.5t-27 -69.5z" />
<glyph unicode="&#xe6;" horiz-adv-x="1880" d="M72 287q0 164 108 242.5t297 78.5q178 0 324 -71v106q0 119 -55.5 170t-200.5 51q-179 0 -326 -92l-67 168q75 45 179.5 72.5t213.5 27.5q282 0 385 -157h4q141 157 387 157q129 0 227.5 -45t157 -124t83.5 -185t15 -231h-786q-6 -143 76 -227.5t239 -84.5 q115 0 190 36.5t130 107.5l119 -119q-154 -197 -439 -197q-142 0 -248 52t-172 143h-4q-142 -195 -436 -195q-193 0 -297 85.5t-104 230.5zM272 287q0 -77 55 -116.5t156 -39.5q217 0 318 166v82q-79 37 -151.5 53.5t-172.5 16.5q-104 0 -154.5 -38.5t-50.5 -123.5z M1024 610h586q-6 124 -79.5 189t-211.5 65q-275 0 -295 -254z" />
<glyph unicode="&#xe7;" horiz-adv-x="1138" d="M72 506q0 249 151.5 391.5t405.5 142.5q136 0 250 -43.5t188 -128.5l-102 -137q-72 72 -149 102.5t-177 30.5q-171 0 -264.5 -95t-93.5 -263t93.5 -263.5t264.5 -95.5q106 0 182.5 31t143.5 103l102 -138q-122 -147 -373 -170l-28 -100q66 -20 97.5 -58t31.5 -108 q0 -110 -78.5 -169.5t-212.5 -59.5q-98 0 -150 22l29 140q44 -19 106 -19q125 0 125 98q0 49 -27.5 77t-92.5 40l38 141q-212 25 -336 165.5t-124 363.5z" />
<glyph unicode="&#xe8;" horiz-adv-x="1173" d="M72 510q0 244 140.5 387t389.5 143q171 0 289.5 -78t169.5 -209t37 -298h-817q-6 -140 85 -226t250 -86q219 0 330 144l119 -119q-154 -197 -449 -197q-260 0 -402 144.5t-142 394.5zM287 610h616q-6 123 -83.5 188.5t-217.5 65.5q-137 0 -221 -62.5t-94 -191.5z M319 1470h263l98 -340h-184z" />
<glyph unicode="&#xe9;" horiz-adv-x="1173" d="M72 510q0 244 140.5 387t389.5 143q171 0 289.5 -78t169.5 -209t37 -298h-817q-6 -140 85 -226t250 -86q219 0 330 144l119 -119q-154 -197 -449 -197q-260 0 -402 144.5t-142 394.5zM287 610h616q-6 123 -83.5 188.5t-217.5 65.5q-137 0 -221 -62.5t-94 -191.5z M504 1130l98 340h262l-176 -340h-184z" />
<glyph unicode="&#xea;" horiz-adv-x="1173" d="M72 510q0 244 140.5 387t389.5 143q171 0 289.5 -78t169.5 -209t37 -298h-817q-6 -140 85 -226t250 -86q219 0 330 144l119 -119q-154 -197 -449 -197q-260 0 -402 144.5t-142 394.5zM274 1130l215 338h207l209 -338h-207l-102 193h-4l-109 -193h-209zM287 610h616 q-6 123 -83.5 188.5t-217.5 65.5q-137 0 -221 -62.5t-94 -191.5z" />
<glyph unicode="&#xeb;" horiz-adv-x="1173" d="M72 510q0 244 140.5 387t389.5 143q171 0 289.5 -78t169.5 -209t37 -298h-817q-6 -140 85 -226t250 -86q219 0 330 144l119 -119q-154 -197 -449 -197q-260 0 -402 144.5t-142 394.5zM252 1151v209h221v-209h-221zM287 610h616q-6 123 -83.5 188.5t-217.5 65.5 q-137 0 -221 -62.5t-94 -191.5zM709 1151v209h221v-209h-221z" />
<glyph unicode="&#xec;" horiz-adv-x="475" d="M-33 1470h262l99 -340h-185zM133 0v1012h209v-1012h-209z" />
<glyph unicode="&#xed;" horiz-adv-x="475" d="M133 0v1012h209v-1012h-209zM147 1130l99 340h262l-176 -340h-185z" />
<glyph unicode="&#xee;" horiz-adv-x="475" d="M-78 1130l215 338h207l209 -338h-207l-102 193h-4l-109 -193h-209zM133 0v1012h209v-1012h-209z" />
<glyph unicode="&#xef;" horiz-adv-x="475" d="M-72 1151v209h222v-209h-222zM133 0v1012h209v-1012h-209zM326 1151v209h221v-209h-221z" />
<glyph unicode="&#xf0;" horiz-adv-x="1198" d="M92 442q0 113 38 201t105.5 143t158 83t198.5 28q103 0 181.5 -35t123.5 -90q-3 324 -238 449l-221 -197l-119 115l158 139q-141 24 -332 -4l23 149q265 40 457 -14l129 115l120 -115l-79 -72q167 -103 245.5 -291.5t73.5 -441.5q-19 -633 -534 -633q-119 0 -213 36.5 t-153.5 101t-90.5 149t-31 184.5zM297 442q0 -65 17 -116.5t44.5 -83.5t65.5 -52.5t76 -29t80 -8.5q41 0 79.5 7.5t79.5 27t71.5 50t51 81t23.5 114.5q4 137 -77 213t-216 76q-131 0 -213 -71.5t-82 -207.5z" />
<glyph unicode="&#xf1;" horiz-adv-x="1210" d="M123 0v1012h176l20 -160q55 91 149 139.5t206 48.5q216 0 320 -106.5t104 -321.5v-612h-209v612q0 133 -54.5 192.5t-187.5 59.5q-129 0 -209 -73t-106 -195v-596h-209zM221 1243q38 71 107 120.5t157 49.5q55 0 102 -16.5t72.5 -36.5t57.5 -36.5t61 -16.5q51 0 77.5 22 t62.5 78l94 -84q-31 -69 -90.5 -120.5t-147.5 -51.5q-57 0 -110 26.5t-98.5 53t-84.5 26.5q-53 0 -90.5 -22t-73.5 -74z" />
<glyph unicode="&#xf2;" horiz-adv-x="1216" d="M72 506q0 250 144.5 392t391.5 142t392 -142t145 -392t-145 -392.5t-392 -142.5q-246 0 -391 142.5t-145 392.5zM281 506q0 -170 82.5 -264.5t244.5 -94.5t245 94.5t83 264.5t-83 264t-245 94t-244.5 -94t-82.5 -264zM332 1470h262l98 -340h-184z" />
<glyph unicode="&#xf3;" horiz-adv-x="1216" d="M72 506q0 250 144.5 392t391.5 142t392 -142t145 -392t-145 -392.5t-392 -142.5q-246 0 -391 142.5t-145 392.5zM281 506q0 -170 82.5 -264.5t244.5 -94.5t245 94.5t83 264.5t-83 264t-245 94t-244.5 -94t-82.5 -264zM526 1130l99 340h262l-176 -340h-185z" />
<glyph unicode="&#xf4;" horiz-adv-x="1216" d="M72 506q0 250 144.5 392t391.5 142t392 -142t145 -392t-145 -392.5t-392 -142.5q-246 0 -391 142.5t-145 392.5zM281 506q0 -170 82.5 -264.5t244.5 -94.5t245 94.5t83 264.5t-83 264t-245 94t-244.5 -94t-82.5 -264zM293 1130l215 338h207l209 -338h-207l-103 193h-4 l-108 -193h-209z" />
<glyph unicode="&#xf5;" horiz-adv-x="1216" d="M72 506q0 250 144.5 392t391.5 142t392 -142t145 -392t-145 -392.5t-392 -142.5q-246 0 -391 142.5t-145 392.5zM213 1243q38 71 107 120.5t157 49.5q55 0 102 -16.5t72.5 -36.5t57.5 -36.5t61 -16.5q27 0 46.5 5.5t36.5 21.5t27 29.5t29 43.5l95 -84 q-31 -69 -90.5 -120.5t-147.5 -51.5q-57 0 -110 26.5t-98.5 53t-84.5 26.5q-53 0 -90.5 -22t-73.5 -74zM281 506q0 -170 82.5 -264.5t244.5 -94.5t245 94.5t83 264.5t-83 264t-245 94t-244.5 -94t-82.5 -264z" />
<glyph unicode="&#xf6;" horiz-adv-x="1216" d="M72 506q0 250 144.5 392t391.5 142t392 -142t145 -392t-145 -392.5t-392 -142.5q-246 0 -391 142.5t-145 392.5zM270 1151v209h222v-209h-222zM281 506q0 -170 82.5 -264.5t244.5 -94.5t245 94.5t83 264.5t-83 264t-245 94t-244.5 -94t-82.5 -264zM727 1151v209h221v-209 h-221z" />
<glyph unicode="&#xf7;" horiz-adv-x="831" d="M82 457v176h668v-176h-668zM311 129v193h209v-193h-209zM311 760v192h209v-192h-209z" />
<glyph unicode="&#xf8;" horiz-adv-x="1216" d="M72 506q0 250 144.5 392t391.5 142q64 0 111 -8l74 199h163l-88 -244q132 -61 204.5 -184t72.5 -297q0 -250 -145 -392.5t-392 -142.5q-56 0 -108 9l-74 -205h-164l90 248q-135 61 -207.5 183t-72.5 300zM281 506q0 -220 135 -309l241 665q-16 2 -49 2q-162 0 -244.5 -94 t-82.5 -264zM561 150q24 -3 47 -3q162 0 245 94.5t83 264.5q0 216 -133 305z" />
<glyph unicode="&#xf9;" horiz-adv-x="1210" d="M113 391v621h209v-600q0 -133 52.5 -199t172.5 -66q138 0 220.5 65t111.5 204v596h208v-1012h-176l-20 158q-44 -84 -138 -135.5t-216 -51.5q-203 0 -313.5 110.5t-110.5 309.5zM342 1470h262l98 -340h-184z" />
<glyph unicode="&#xfa;" horiz-adv-x="1210" d="M113 391v621h209v-600q0 -133 52.5 -199t172.5 -66q138 0 220.5 65t111.5 204v596h208v-1012h-176l-20 158q-44 -84 -138 -135.5t-216 -51.5q-203 0 -313.5 110.5t-110.5 309.5zM504 1130l98 340h262l-176 -340h-184z" />
<glyph unicode="&#xfb;" horiz-adv-x="1210" d="M113 391v621h209v-600q0 -133 52.5 -199t172.5 -66q138 0 220.5 65t111.5 204v596h208v-1012h-176l-20 158q-44 -84 -138 -135.5t-216 -51.5q-203 0 -313.5 110.5t-110.5 309.5zM285 1130l215 338h207l208 -338h-206l-103 193h-4l-108 -193h-209z" />
<glyph unicode="&#xfc;" horiz-adv-x="1210" d="M113 391v621h209v-600q0 -133 52.5 -199t172.5 -66q138 0 220.5 65t111.5 204v596h208v-1012h-176l-20 158q-44 -84 -138 -135.5t-216 -51.5q-203 0 -313.5 110.5t-110.5 309.5zM264 1151v209h221v-209h-221zM721 1151v209h221v-209h-221z" />
<glyph unicode="&#xfd;" horiz-adv-x="1069" d="M51 1012h217l264 -799h5l264 799h217l-375 -1012q-75 -201 -154.5 -297t-201.5 -96q-118 0 -197 59l66 150q52 -37 110 -37q49 0 85 36.5t53 82t26 100.5zM446 1130l99 340h262l-176 -340h-185z" />
<glyph unicode="&#xfe;" horiz-adv-x="1226" d="M123 -356v1704h207v-471q42 72 134 117.5t202 45.5q119 0 213.5 -41t154 -113.5t90.5 -168.5t31 -209q0 -244 -125.5 -390.5t-363.5 -146.5q-104 0 -201.5 46t-134.5 104v-477h-207zM322 385q26 -108 113 -173t198 -65q166 0 239.5 91.5t73.5 269.5q0 163 -77.5 259.5 t-231.5 96.5q-137 0 -214.5 -72t-100.5 -182v-225z" />
<glyph unicode="&#xff;" horiz-adv-x="1069" d="M51 1012h217l264 -799h5l264 799h217l-375 -1012q-75 -201 -154.5 -297t-201.5 -96q-118 0 -197 59l66 150q52 -37 110 -37q49 0 85 36.5t53 82t26 100.5zM197 1151v209h221v-209h-221zM653 1151v209h221v-209h-221z" />
<glyph unicode="&#x141;" horiz-adv-x="1212" d="M31 348v180l205 115v705h213v-586l315 176v-180l-315 -176v-402h702v-180h-915v463z" />
<glyph unicode="&#x142;" horiz-adv-x="784" d="M41 389v180l174 109v690h209v-559l268 170v-180l-268 -170v-246q0 -138 24 -187t95 -49t135 33l65 -149q-91 -60 -245 -60q-142 0 -212.5 92t-70.5 283v152z" />
<glyph unicode="&#x152;" horiz-adv-x="1933" d="M82 674q0 322 175 512t488 190q110 0 216 -28h839v-177h-694v-383h510v-176h-510v-436h715v-176h-858q-110 -29 -218 -29q-313 0 -488 190.5t-175 512.5zM295 674q0 -238 114.5 -380t335.5 -142q81 0 148 18v1006q-67 20 -148 20q-221 0 -335.5 -142t-114.5 -380z" />
<glyph unicode="&#x153;" horiz-adv-x="2025" d="M72 506q0 251 142 392.5t388 141.5q287 0 426 -186q138 186 428 186q81 0 154.5 -19t140 -63t113.5 -110t71.5 -167t16.5 -226h-815q-4 -60 14 -115t57 -99.5t106 -71t154 -26.5q113 0 190 35.5t134 104.5l121 -119q-156 -193 -445 -193q-300 0 -440 191 q-149 -191 -426 -191q-241 0 -385.5 147.5t-144.5 387.5zM281 506q0 -160 81.5 -259.5t239.5 -99.5q155 0 238 97.5t88 261.5q0 170 -82 264t-244 94t-241.5 -93.5t-79.5 -264.5zM1143 610h612q-7 129 -88.5 191.5t-212.5 62.5q-43 0 -82 -6.5t-80 -23.5t-71.5 -44.5 t-51.5 -73.5t-26 -106z" />
<glyph unicode="&#x160;" horiz-adv-x="1200" d="M82 127l84 170q213 -145 438 -145q144 0 222.5 47t78.5 139q0 41 -11.5 72t-35 54t-59 42.5t-83 38t-106.5 40.5q-8 2 -12.5 4t-11.5 4.5t-13 4.5q-104 38 -168.5 66.5t-125 65.5t-92.5 76.5t-51 93t-19 122.5q0 116 66.5 197.5t174 119t246.5 37.5q274 0 467 -119 l-84 -159q-152 98 -383 98q-274 0 -274 -174q0 -84 58 -123t264 -115q11 -4 16 -6q83 -31 136.5 -53.5t110 -52.5t90 -60.5t61.5 -71t40 -90.5t12 -112q0 -170 -133.5 -268.5t-380.5 -98.5q-155 0 -275.5 35.5t-246.5 120.5zM281 1772h208l109 -193h4l103 193h206l-209 -338 h-206z" />
<glyph unicode="&#x161;" horiz-adv-x="1001" d="M72 115l82 153q158 -125 358 -125q213 0 213 123q0 24 -8 42t-19.5 30t-37.5 24t-47.5 19t-63.5 20l-48 15q-43 13 -65 20t-62 21.5t-61.5 24.5t-53.5 27.5t-50 34t-39.5 40t-32.5 48t-18.5 56.5t-7.5 68q0 74 31.5 130t86.5 89t125 49t152 16q112 0 217.5 -27.5 t173.5 -76.5l-76 -152q-57 38 -140.5 61t-174.5 23q-191 0 -191 -116q0 -36 21.5 -64.5t60.5 -48t80 -33t95 -28.5q23 -6 34 -9q164 -48 244 -115.5t80 -187.5q0 -76 -34.5 -134.5t-94 -92.5t-132.5 -51t-157 -17q-133 0 -248.5 38.5t-191.5 105.5zM186 1468h209l109 -192h4 l102 192h207l-209 -338h-207z" />
<glyph unicode="&#x178;" horiz-adv-x="1310" d="M51 1348h238l364 -727h4l365 727h238l-498 -916v-432h-213v432zM317 1434v208h222v-208h-222zM774 1434v208h221v-208h-221z" />
<glyph unicode="&#x17d;" horiz-adv-x="1320" d="M102 0v188l840 979h-811v181h1067v-189l-838 -979h859v-180h-1117zM354 1772h209l109 -193h4l102 193h207l-209 -338h-207z" />
<glyph unicode="&#x17e;" horiz-adv-x="1114" d="M92 0v172l658 668h-627v172h876v-172l-661 -668h684v-172h-930zM248 1468h209l108 -192h4l103 192h207l-209 -338h-207z" />
<glyph unicode="&#x192;" horiz-adv-x="1275" d="M-164 -315l125 108q32 -44 68 -65t96 -21q72 0 109.5 43.5t56.5 124.5l155 741h-163l36 172h164l54 248q34 164 124.5 252t253.5 88q191 0 279 -141l-125 -109q-31 44 -68 65t-94 21q-72 0 -108 -43t-56 -125l-55 -256h258l-37 -172h-258l-153 -733q-34 -165 -124 -252.5 t-259 -87.5q-190 0 -279 142z" />
<glyph unicode="&#x2c6;" horiz-adv-x="1490" d="M430 1434l215 338h207l209 -338h-207l-102 192h-4l-109 -192h-209z" />
<glyph unicode="&#x2dc;" horiz-adv-x="1490" d="M350 1456q38 71 107 120.5t157 49.5q55 0 102 -16.5t72.5 -36.5t57.5 -36.5t61 -16.5q51 0 77.5 22t62.5 78l94 -84q-31 -69 -90.5 -120.5t-147.5 -51.5q-57 0 -110 26.5t-98.5 53t-84.5 26.5q-53 0 -90.5 -22t-73.5 -74z" />
<glyph unicode="&#xe00;" horiz-adv-x="1024" />
<glyph unicode="&#xe01;" horiz-adv-x="1318" d="M82 965q96 111 250.5 183.5t326.5 72.5q262 0 389.5 -107.5t127.5 -322.5v-791h-209v791q0 129 -76.5 191t-231.5 62q-114 0 -202.5 -32t-169.5 -97l2 -6l241 -166v-96q-89 -41 -125 -107.5t-36 -185.5v-354h-209v354q0 126 38 206t128 134v4l-215 148z" />
<glyph unicode="&#xe02;" horiz-adv-x="1220" d="M102 406q0 86 28 163.5t68 130.5t80.5 97.5t68.5 84t28 70.5q0 19 -5 31t-12 18.5t-22.5 10t-28 4t-37.5 0.5h-131v176h146q159 0 227 -51.5t68 -173.5q0 -59 -27.5 -113t-67 -99t-79.5 -93t-67.5 -114t-27.5 -142q0 -120 72.5 -189.5t214.5 -69.5q139 0 204.5 68 t65.5 205v772h209v-772q0 -218 -121.5 -333.5t-355.5 -115.5q-229 0 -363.5 117.5t-134.5 317.5z" />
<glyph unicode="&#xe03;" horiz-adv-x="1220" d="M92 1171v21h176v-21q0 -102 90 -102q91 0 91 102v21h180v-168q0 -64 -17.5 -117.5t-45.5 -90.5t-62 -71t-68 -67.5t-62 -70t-45.5 -88t-17.5 -113.5q0 -120 72.5 -189.5t214.5 -69.5q139 0 204.5 68t65.5 205v772h209v-772q0 -218 -121.5 -333.5t-355.5 -115.5 q-229 0 -363.5 117.5t-134.5 317.5q0 78 26 148.5t65 119.5t84.5 95t84.5 78t65 65.5t26 60.5l-2 2q-48 -45 -140 -45q-106 0 -162.5 65t-56.5 176z" />
<glyph unicode="&#xe04;" horiz-adv-x="1357" d="M143 0v707q0 242 135.5 378t405.5 136q268 0 399 -135.5t131 -378.5v-707h-208v707q0 172 -73.5 254.5t-248.5 82.5q-178 0 -255 -83t-77 -254v-226h4q40 85 126.5 138t199.5 53q58 0 131 -17l-51 -188q-62 12 -98 12q-130 0 -209.5 -69.5t-102.5 -200.5v-209h-209z" />
<glyph unicode="&#xe05;" horiz-adv-x="1363" d="M143 0v809q0 399 310 399q168 0 227 -139h8q27 64 87.5 101.5t144.5 37.5q73 0 127 -21t87 -55.5t53 -86.5t27 -105.5t7 -120.5v-819h-209v858q0 94 -24.5 134t-98.5 40q-122 0 -131 -147h-152q-9 147 -127 147q-71 0 -99 -45t-28 -131v-379h4q40 86 126.5 140.5 t199.5 54.5q58 0 131 -17l-51 -188q-62 12 -98 12q-130 0 -209.5 -67.5t-102.5 -198.5v-213h-209z" />
<glyph unicode="&#xe06;" horiz-adv-x="1314" d="M123 1171v21h176v-21q0 -102 90 -102t90 102v21h180v-168q0 -64 -17.5 -117.5t-45.5 -90.5t-62 -71l-67.5 -67.5t-61.5 -70t-45.5 -88t-17.5 -113.5v-15q86 -244 354 -244q63 0 109.5 16t76.5 44.5t48.5 71.5t25.5 91.5t7 110.5v711h208v-711q0 -240 -111 -375t-347 -135 q-135 0 -235 59t-154 156h-5l-16 -186h-170v406q0 68 19.5 129.5t50 107.5t68 87.5t75 74.5t68 61.5t50 55.5t19.5 51l-2 2q-48 -45 -139 -45q-106 0 -162.5 65t-56.5 176z" />
<glyph unicode="&#xe07;" horiz-adv-x="1236" d="M61 842l177 84l370 -750h27q137 0 214 112t77 320q0 74 -13 142.5t-41 130t-79 98.5t-119 37q-86 0 -166 -47l-55 155q36 30 96.5 49t126.5 19q98 0 176.5 -31.5t130.5 -86t87 -129.5t50 -159t15 -178q0 -96 -16.5 -183t-53.5 -165.5t-91.5 -135.5t-135.5 -90.5 t-181 -33.5h-174z" />
<glyph unicode="&#xe08;" horiz-adv-x="1251" d="M61 1065q83 70 213.5 113t290.5 43q291 0 437.5 -151t146.5 -439q0 -96 -19.5 -187t-61 -171.5t-99 -141t-139.5 -96t-177 -35.5h-182l-131 416q-11 37 -27 51t-53 14q-48 0 -84 -18l-37 172q27 14 75 24.5t91 10.5q92 0 133.5 -33.5t67.5 -116.5l110 -344h21 q142 0 222.5 121.5t80.5 333.5q0 207 -92.5 310t-286.5 103q-249 0 -403 -122z" />
<glyph unicode="&#xe09;" horiz-adv-x="1304" d="M82 1079q92 67 226.5 104.5t283.5 37.5q128 0 226.5 -26.5t162.5 -73t105 -115t58 -145.5t17 -171v-690h-172l-20 170q-99 -199 -361 -199q-389 0 -389 375v72q0 26 -10 39.5t-37 13.5q-28 0 -61 -14l-27 159q25 18 73.5 30.5t94.5 12.5q92 0 134 -52.5t42 -139.5v-100 q0 -122 47 -171t160 -49q145 0 215.5 68t101.5 213v281q0 335 -364 335q-242 0 -410 -110z" />
<glyph unicode="&#xe0a;" horiz-adv-x="1226" d="M102 406q0 86 28 163.5t68 130.5t80.5 97.5t68.5 84t28 70.5q0 19 -5 31t-12 18.5t-22.5 10t-28 4t-37.5 0.5h-131v176h146q159 0 227 -51.5t68 -173.5q0 -59 -27.5 -113t-67 -99t-79.5 -93t-67.5 -114t-27.5 -142q0 -123 79.5 -191t225.5 -68q157 0 223 72t66 213 q0 109 -43 178.5t-139 69.5h-49v176h55q35 0 61.5 8t43.5 24.5t28.5 33.5t18.5 44.5t10 46.5t6 50l12 156h205l-12 -158q-17 -223 -195 -289v-4q101 -41 154 -129t53 -207q0 -225 -128 -343t-370 -118q-232 0 -373 117t-141 318z" />
<glyph unicode="&#xe0b;" horiz-adv-x="1226" d="M92 1171v21h176v-21q0 -102 90 -102q91 0 91 102v21h180v-168q0 -64 -17.5 -117.5t-45.5 -90.5t-62 -71t-68 -67.5t-62 -70t-45.5 -88t-17.5 -113.5q0 -123 78 -191t223 -68q158 0 225.5 72.5t67.5 212.5q0 109 -43 178.5t-139 69.5h-49v176h55q35 0 61.5 8t43.5 24.5 t28.5 33.5t18.5 44.5t10 46.5t6 50l12 156h205l-12 -158q-17 -223 -195 -289v-4q101 -41 154 -129t53 -207q0 -225 -129.5 -343t-372.5 -118q-231 0 -370.5 117t-139.5 318q0 78 26 148.5t65 119.5t84.5 95t84.5 78t65 65.5t26 60.5l-2 2q-48 -45 -140 -45q-106 0 -162.5 65 t-56.5 176z" />
<glyph unicode="&#xe0c;" horiz-adv-x="2076" d="M82 965q95 109 247.5 182.5t309.5 73.5q253 0 378.5 -110t125.5 -320v-304q30 -158 121 -249t235 -91q59 0 100 16t65.5 42t38 70.5t17.5 91t4 114.5v711h209v-711q0 -96 -12.5 -172.5t-42 -141t-76.5 -107t-117.5 -66t-162.5 -23.5q-134 0 -236.5 64.5t-157.5 165.5h-2 l-16 -201h-172v791q0 253 -299 253q-192 0 -352 -129l2 -6l241 -166v-96q-89 -41 -125 -107.5t-36 -185.5v-84q0 -67 26 -97t86 -30t107 35l78 -151q-83 -56 -203 -56q-145 0 -224 81t-79 224v78q0 126 38 206t128 134v4l-215 148z" />
<glyph unicode="&#xe0d;" horiz-adv-x="2076" d="M82 965q95 109 247.5 182.5t309.5 73.5q253 0 378.5 -110t125.5 -320v-117q0 -168 67 -255t228 -87q286 0 286 336v524h209v-539q0 -87 -20 -160.5t-49 -113.5q80 -84 80 -221q0 -164 -138 -260.5t-364 -96.5q-274 0 -414 82l39 172q63 -35 165 -56.5t210 -21.5 q169 0 245 48.5t76 154.5q0 52 -22 84q-116 -104 -303 -104q-110 0 -197 28t-143 76t-92.5 114.5t-52 139.5t-15.5 156v117q0 253 -299 253q-192 0 -352 -129l2 -6l241 -166v-96q-89 -41 -125 -107.5t-36 -185.5v-84q0 -67 26 -97t86 -30t107 35l78 -151q-83 -56 -203 -56 q-145 0 -224 81t-79 224v78q0 126 38 206t128 134v4l-215 148z" />
<glyph unicode="&#xe0e;" horiz-adv-x="1359" d="M72 6l34 160q43 -19 76 -19q80 0 80 70v158q0 124 26 193.5t107 127.5v4l-248 146l-28 119q96 111 250.5 183.5t326.5 72.5q521 0 521 -430v-1303h-197q-180 139 -451 139q-184 0 -346 -90l-67 170q175 96 413 96q249 0 439 -139v1127q0 132 -77.5 192.5t-234.5 60.5 q-114 0 -202.5 -32t-169.5 -97l2 -6l274 -164v-96q-30 -15 -51.5 -29.5t-36 -34t-22.5 -37.5t-12.5 -47t-5.5 -55.5t-1 -70.5v-164q0 -121 -59 -180.5t-166 -59.5q-102 0 -174 35z" />
<glyph unicode="&#xe0f;" horiz-adv-x="1359" d="M72 6l34 160q43 -19 76 -19q80 0 80 70v158q0 124 26 193.5t107 127.5v4l-248 146l-28 119q96 111 250.5 183.5t326.5 72.5q521 0 521 -430v-1303h-283l-217 205q-31 -90 -104.5 -143.5t-186.5 -53.5q-116 0 -236 21v159q160 -20 236 -20t113 38.5t59 119.5l195 28 l215 -213v1162q0 132 -77.5 192.5t-234.5 60.5q-114 0 -202.5 -32t-169.5 -97l2 -6l274 -164v-96q-30 -15 -51.5 -29.5t-36 -34t-22.5 -37.5t-12.5 -47t-5.5 -55.5t-1 -70.5v-164q0 -121 -59 -180.5t-166 -59.5q-102 0 -174 35z" />
<glyph unicode="&#xe10;" horiz-adv-x="1286" d="M61 1065q83 70 213.5 113t290.5 43q154 0 277 -54l309 123l63 -174l-210 -61q145 -157 145 -424q0 -96 -19.5 -187t-61 -171.5t-99 -141t-139.5 -96t-177 -35.5h-182l-131 416q-11 37 -27 51t-53 14q-48 0 -84 -18l-37 172q27 14 75 24.5t91 10.5q92 0 133.5 -33.5 t67.5 -116.5l110 -344h21q142 0 222.5 121.5t80.5 333.5q0 207 -92.5 310t-286.5 103q-249 0 -403 -122zM160 -266q168 -21 235 -21q76 0 111 36.5t57 117.5l189 29l190 -213v215h188v-357h-274l-174 195q-34 -86 -106.5 -136.5t-180.5 -50.5q-115 0 -235 21v164z" />
<glyph unicode="&#xe11;" horiz-adv-x="1464" d="M31 1171v21h176v-21q0 -102 90 -102t90 102v21h168v-180q73 91 185 150t216 59q83 0 146.5 -21t104.5 -58t67 -92.5t36.5 -119t10.5 -142.5v-788h-209v788q0 48 -3.5 83t-14.5 69.5t-30.5 55.5t-52.5 34.5t-79 13.5q-64 0 -136 -42.5t-130.5 -108.5t-103 -147.5 t-58.5 -157.5v-588h-209v559q6 74 34 149t66 134v129l-6 4q-48 -45 -139 -45q-106 0 -162.5 65t-56.5 176z" />
<glyph unicode="&#xe12;" horiz-adv-x="2154" d="M102 569q0 105 9.5 194.5t35 176t65 147t104 97.5t147.5 37q90 0 139.5 -39.5t75.5 -110.5h8q28 69 86.5 109.5t147.5 40.5q157 0 229 -96.5t72 -266.5v-371q30 -158 121 -249t235 -91q59 0 100 16t65.5 42t38 70.5t17.5 91t4 114.5v711h209v-711q0 -121 -21 -211.5 t-67.5 -159.5t-127.5 -104t-196 -35q-134 0 -236 64.5t-157 165.5h-2l-16 -201h-172v848q0 47 -5 80t-18 60.5t-38.5 41.5t-63.5 14q-39 0 -66 -16t-40 -43t-18 -53t-5 -55h-158q-2 23 -3 31t-5 30.5t-8.5 32.5t-14 27t-21.5 25t-31 14.5t-42 6.5q-51 0 -85.5 -35.5 t-52 -104t-24 -147.5t-6.5 -188q0 -210 66.5 -316t226.5 -106q93 0 170 50l74 -156q-99 -70 -270 -70q-230 0 -353 156.5t-123 441.5z" />
<glyph unicode="&#xe13;" horiz-adv-x="2076" d="M82 965q95 109 247.5 182.5t309.5 73.5q253 0 378.5 -110t125.5 -320v-338q0 -167 51 -236.5t178 -69.5q148 0 230.5 69t121.5 214v762h209v-1192h-172l-20 184h-2q-111 -213 -375 -213q-216 0 -321 122t-105 370v328q0 253 -299 253q-192 0 -352 -129l2 -6l241 -166v-96 q-89 -41 -125 -107.5t-36 -185.5v-84q0 -67 26 -97t86 -30t107 35l78 -151q-83 -56 -203 -56q-145 0 -224 81t-79 224v78q0 126 38 206t128 134v4l-215 148z" />
<glyph unicode="&#xe14;" horiz-adv-x="1398" d="M102 569q0 195 69.5 341t208.5 228.5t333 82.5q542 0 542 -516v-705h-208v705q0 339 -336 339q-205 0 -302.5 -126.5t-97.5 -348.5q0 -206 71 -314t230 -108q93 0 170 50l74 -156q-99 -70 -270 -70q-223 0 -353.5 160t-130.5 438z" />
<glyph unicode="&#xe15;" horiz-adv-x="1398" d="M102 569q0 103 11 194t38.5 176.5t69 146.5t107.5 98t149 37q170 0 223 -150h9q27 69 89.5 109.5t151.5 40.5q158 0 231.5 -96.5t73.5 -266.5v-858h-208v848q0 96 -27.5 146t-101.5 50q-38 0 -65.5 -16.5t-41.5 -43t-20.5 -53t-6.5 -54.5h-157q-2 25 -5 43t-12 43.5 t-22.5 41.5t-38 27.5t-57.5 11.5q-181 0 -181 -475q0 -207 66.5 -314.5t226.5 -107.5q93 0 170 50l74 -156q-99 -70 -270 -70q-230 0 -353 156.5t-123 441.5z" />
<glyph unicode="&#xe16;" horiz-adv-x="1318" d="M82 965q96 111 250.5 183.5t326.5 72.5q262 0 389.5 -107.5t127.5 -322.5v-791h-209v791q0 129 -76.5 191t-231.5 62q-114 0 -202.5 -32t-169.5 -97l2 -6l241 -166v-96q-89 -41 -125 -107.5t-36 -185.5v-84q0 -67 26 -97t86 -30t107 35l78 -151q-83 -56 -203 -56 q-145 0 -224 81t-79 224v78q0 126 38 206t128 134v4l-215 148z" />
<glyph unicode="&#xe17;" horiz-adv-x="1337" d="M143 0v1192h193v-254h2q58 124 173 203.5t271 79.5q212 0 312 -119t100 -334v-768h-209v768q0 138 -49.5 207t-177.5 69q-163 0 -271.5 -119.5t-134.5 -308.5v-616h-209z" />
<glyph unicode="&#xe18;" horiz-adv-x="1273" d="M113 735q0 137 31 230t98.5 150t166.5 81.5t244 24.5q282 0 486 -103l-62 -164q-75 42 -192 68.5t-232 26.5q-66 0 -113.5 -5t-92.5 -19.5t-72 -39.5t-43.5 -66.5t-16.5 -99.5l514 -74q188 -29 265 -118.5t77 -261.5q0 -207 -133 -300.5t-387 -93.5t-385 90.5t-131 288.5 v133h201v-133q0 -115 74 -161t243 -46q162 0 240 47t78 168q0 101 -31 147t-135 62l-637 90z" />
<glyph unicode="&#xe19;" horiz-adv-x="1337" d="M143 463v729h209v-739q0 -160 63 -233t203 -73q159 0 250 90t117 242v713h209v-1192h-172l-21 193h-2q-47 -94 -146 -158t-245 -64q-231 0 -348 125t-117 367z" />
<glyph unicode="&#xe1a;" horiz-adv-x="1341" d="M143 485v707h209v-707q0 -167 75.5 -252.5t242.5 -85.5q168 0 243.5 84t75.5 248v713h209v-713q0 -81 -17 -153t-57 -138t-99.5 -113.5t-150.5 -75.5t-204 -28t-203 28t-150 76t-99.5 114.5t-57 140t-17.5 155.5z" />
<glyph unicode="&#xe1b;" horiz-adv-x="1345" d="M143 485v707h209v-707q0 -167 75.5 -252.5t242.5 -85.5q171 0 247 84t76 248v1057h209v-1057q0 -80 -18 -152.5t-58.5 -138.5t-101 -113.5t-151 -75.5t-203.5 -28t-203 28t-150 76t-99.5 114.5t-57 140t-17.5 155.5z" />
<glyph unicode="&#xe1c;" horiz-adv-x="1490" d="M143 342v563q0 143 58.5 215t183.5 72h186v-168h-137q-55 0 -72.5 -23t-17.5 -83v-607q0 -87 33.5 -127.5t111.5 -40.5q41 0 70.5 13.5t48 36t29 58t14.5 73.5t4 88v354h193v-354q0 -62 7 -108t24.5 -84t50 -57.5t80.5 -19.5q76 0 106.5 39.5t30.5 128.5v881h201v-860 q0 -166 -83 -263.5t-225 -97.5q-119 0 -192.5 66.5t-93.5 175.5h-4q-20 -109 -92 -175.5t-189 -66.5q-161 0 -243.5 99t-82.5 272z" />
<glyph unicode="&#xe1d;" horiz-adv-x="1495" d="M143 342v563q0 143 58.5 215t183.5 72h186v-168h-137q-55 0 -72.5 -23t-17.5 -83v-607q0 -87 33.5 -127.5t111.5 -40.5q50 0 84 19.5t52 57.5t25 83.5t7 108.5v354h193v-354q0 -62 7 -108t24.5 -84t50 -57.5t80.5 -19.5q76 0 107.5 40t31.5 128l2 1225h199v-1204 q0 -166 -83 -263.5t-225 -97.5q-119 0 -193.5 66.5t-94.5 175.5h-4q-20 -109 -93 -175.5t-190 -66.5q-161 0 -243.5 99t-82.5 272z" />
<glyph unicode="&#xe1e;" horiz-adv-x="1585" d="M82 1192h209l147 -899h4l263 837h176l260 -837h4l149 899h209l-237 -1192h-201l-270 864h-4l-271 -864h-201z" />
<glyph unicode="&#xe1f;" horiz-adv-x="1581" d="M82 1192h201l155 -916h4l267 854h168l266 -854h4l213 1260h201l-295 -1536h-197l-274 856h-4l-275 -856h-197z" />
<glyph unicode="&#xe20;" horiz-adv-x="1355" d="M72 6l34 160q43 -19 84 -19q72 0 72 70v158q0 124 26 193.5t107 127.5v4l-248 146l-28 119q96 111 250.5 183.5t326.5 72.5q262 0 389 -107.5t127 -322.5v-791h-208v791q0 129 -76.5 191t-231.5 62q-114 0 -202.5 -32t-169.5 -97l2 -6l274 -164v-96q-30 -15 -51.5 -29.5 t-36 -34t-22.5 -37.5t-12.5 -47t-5.5 -55.5t-1 -70.5v-164q0 -240 -217 -240q-110 0 -182 35z" />
<glyph unicode="&#xe21;" horiz-adv-x="1337" d="M143 0v1192h209v-713q39 -150 136.5 -241t248.5 -91q75 0 125 23.5t76 70.5t36.5 103.5t10.5 136.5v711h209v-711q0 -246 -104 -378t-338 -132q-137 0 -244 63t-170 167h-2l-17 -201h-176z" />
<glyph unicode="&#xe22;" horiz-adv-x="1310" d="M102 350q0 104 59.5 171.5t153.5 96.5v5q-92 24 -149 91t-57 163q0 158 96.5 242.5t275.5 84.5q103 0 176 -30l-41 -166q-56 20 -120 20q-83 0 -131 -38.5t-48 -119.5q0 -161 191 -161h145v-164h-145q-96 0 -146.5 -48t-50.5 -139q0 -211 328 -211q164 0 241.5 71.5 t77.5 219.5v754h209v-754q0 -218 -135.5 -342.5t-390.5 -124.5q-156 0 -275 39.5t-191.5 126.5t-72.5 213z" />
<glyph unicode="&#xe23;" horiz-adv-x="1153" d="M92 135l98 152q158 -144 385 -144q281 0 281 176q0 28 -7.5 51t-18 39.5t-32.5 31.5t-38.5 24t-50 19.5t-53 15.5t-60.5 15t-61 15q-77 21 -134 43t-110.5 53t-86.5 68.5t-53 89t-20 115.5q0 69 27 124.5t72 92t106 60.5t125 34.5t133 10.5q118 0 228 -31t175 -88 l-94 -150q-53 43 -136.5 70t-172.5 27q-258 0 -258 -150q0 -43 15 -72.5t54 -50.5t67 -31t93 -28q4 -1 7 -2t7 -2t7 -2q21 -6 63 -17t66.5 -18t64 -20t64 -24t57.5 -28.5t53 -36t43 -44.5t35 -55.5t20.5 -67.5t8.5 -81q0 -175 -129 -261.5t-357 -86.5q-156 0 -282.5 44.5 t-200.5 119.5z" />
<glyph unicode="&#xe24;" horiz-adv-x="1323" d="M82 965q98 111 253.5 183.5t326.5 72.5q262 0 390 -107.5t128 -322.5v-1303h-209v1303q0 129 -77 191t-232 62q-215 0 -375 -129l2 -6l241 -166v-96q-89 -41 -125 -107.5t-36 -185.5v-84q0 -67 26 -97t86 -30t107 35l78 -151q-83 -56 -203 -56q-145 0 -224 81t-79 224v78 q0 126 38 206t128 134v4l-215 148z" />
<glyph unicode="&#xe25;" horiz-adv-x="1314" d="M102 342q0 185 132 287t352 102q200 0 377 -94v141q0 142 -75 204t-253 62q-217 0 -379 -112l-109 145q67 57 199.5 100.5t290.5 43.5q268 0 401 -106t133 -329v-786h-208v461q-153 98 -377 98q-279 0 -279 -217q0 -93 49.5 -144t145.5 -51q84 0 160 46l69 -152 q-55 -38 -109 -54t-130 -16q-180 0 -285 99.5t-105 271.5z" />
<glyph unicode="&#xe26;" horiz-adv-x="1359" d="M72 6l34 160q43 -19 84 -19q72 0 72 70v158q0 124 26 193.5t107 127.5v4l-248 146l-28 119q98 111 253 183.5t326 72.5q519 0 519 -430v-1303h-209v1303q0 129 -77.5 191t-232.5 62q-214 0 -374 -129l2 -6l274 -164v-96q-30 -15 -51.5 -29.5t-36 -34t-22.5 -37.5 t-12.5 -47t-5.5 -55.5t-1 -70.5v-164q0 -240 -217 -240q-110 0 -182 35z" />
<glyph unicode="&#xe27;" horiz-adv-x="1187" d="M72 1077q188 144 463 144q146 0 255 -43.5t175.5 -125.5t98.5 -191t32 -247q0 -643 -568 -643q-294 0 -454 150l108 141q74 -57 152.5 -86t193.5 -29q84 0 148 24t103.5 64.5t64 101.5t34 127.5t9.5 149.5q0 76 -9.5 136.5t-34 117t-64 94t-102.5 60t-147 22.5 q-210 0 -350 -108z" />
<glyph unicode="&#xe28;" horiz-adv-x="1357" d="M143 0v707q0 118 31.5 211t96 161.5t169.5 105t244 36.5q146 0 246 -43l293 112l63 -174l-203 -63q69 -63 100 -148t31 -219v-686h-208v707q0 172 -73.5 254.5t-248.5 82.5q-178 0 -255 -83t-77 -254v-226h4q40 85 126.5 138t199.5 53q58 0 131 -17l-51 -188 q-62 12 -98 12q-130 0 -209.5 -69.5t-102.5 -200.5v-209h-209z" />
<glyph unicode="&#xe29;" horiz-adv-x="1411" d="M143 485v707h209v-707q0 -166 76.5 -252t243.5 -86q168 0 243.5 84t75.5 248v105h-262v176h262v432h209v-432h150v-176h-150v-105q0 -81 -17 -153t-57 -138t-99.5 -113.5t-150.5 -75.5t-204 -28t-204 28t-150.5 76t-99.5 114.5t-57.5 139.5t-17.5 156z" />
<glyph unicode="&#xe2a;" horiz-adv-x="1347" d="M102 342q0 185 132 287t352 102q200 0 377 -94v141q0 142 -75 204t-253 62q-217 0 -379 -112l-109 145q67 57 199.5 100.5t290.5 43.5q171 0 287 -43l299 112l63 -174l-205 -63q51 -59 70.5 -127t19.5 -168v-758h-208v461q-153 98 -377 98q-279 0 -279 -217 q0 -93 49.5 -144t145.5 -51q84 0 160 46l69 -152q-55 -38 -109 -54t-130 -16q-180 0 -285 99.5t-105 271.5z" />
<glyph unicode="&#xe2b;" horiz-adv-x="1314" d="M143 0v1192h209v-451h191q240 0 333 79.5t93 287.5v84h202v-84q0 -150 -50.5 -260t-174.5 -172v-4q130 -63 193 -165t63 -259v-248h-209v248q0 131 -46.5 210.5t-155.5 133.5q-74 -27 -246 -27h-193v-565h-209z" />
<glyph unicode="&#xe2c;" horiz-adv-x="1574" d="M82 1192h209l149 -916h4l261 773h176l262 -773h4l100 642q18 121 -7.5 176t-129.5 90v119l342 258l102 -146l-233 -172v-8q169 -95 121 -326l-176 -909h-201l-270 799h-4l-271 -799h-201z" />
<glyph unicode="&#xe2d;" horiz-adv-x="1333" d="M123 391v279h502v-185h-297v-82q0 -130 82 -193t233 -63q202 0 295.5 112.5t93.5 313.5q0 89 -11.5 159t-39.5 129.5t-73.5 99t-115 61.5t-161.5 22q-228 0 -404 -122l-102 151q95 70 227 109t283 39q606 0 606 -648q0 -133 -37 -242t-109.5 -190t-188 -125.5 t-265.5 -44.5q-235 0 -376.5 118.5t-141.5 301.5z" />
<glyph unicode="&#xe2e;" horiz-adv-x="1351" d="M123 391v279h502v-185h-297v-82q0 -130 82 -193t233 -63q202 0 295.5 112.5t93.5 313.5q0 89 -11.5 159t-39.5 129.5t-73.5 99t-115 61.5t-161.5 22q-228 0 -404 -122l-102 151q95 70 227 109t283 39q160 0 276 -45l306 114l63 -174l-205 -63q87 -91 126.5 -207.5 t39.5 -272.5q0 -133 -37 -242t-109.5 -190t-188 -125.5t-265.5 -44.5q-235 0 -376.5 118.5t-141.5 301.5z" />
<glyph unicode="&#xe2f;" horiz-adv-x="1046" d="M92 1012h201q0 -42 3 -73t13 -65t28 -55t50.5 -35t77.5 -14q111 0 178 75t72 167h188v-1012h-209v555l23 195h-4q-43 -66 -111.5 -105t-157.5 -39q-177 0 -264.5 107.5t-87.5 298.5z" />
<glyph unicode="&#xe30;" horiz-adv-x="851" d="M102 324v129h201v-68q0 -52 8.5 -65t55.5 -13h383v-168h-453q-102 0 -148.5 41t-46.5 144zM102 899v129h201v-67q0 -52 8.5 -65t55.5 -13h383v-168h-453q-102 0 -148.5 41t-46.5 143z" />
<glyph unicode="&#xe31;" d="M-774 1604v129h201v-72q0 -27 0.5 -33.5t3 -20t9 -16t18.5 -5.5t32 -3h559v-164h-629q-102 0 -148 41t-46 144z" />
<glyph unicode="&#xe32;" horiz-adv-x="1101" d="M61 1096q65 56 172.5 90.5t231.5 34.5q252 0 372.5 -122.5t120.5 -332.5v-766h-208v766q0 278 -285 278q-173 0 -299 -90z" />
<glyph unicode="&#xe33;" horiz-adv-x="1101" d="M-547 1579q0 104 70.5 173t179.5 69q110 0 180 -68.5t70 -173.5q0 -103 -70.5 -171.5t-179.5 -68.5t-179.5 68.5t-70.5 171.5zM-403 1579q0 -46 29 -77.5t77 -31.5q49 0 78 31.5t29 77.5q0 49 -28.5 80t-78.5 31q-48 0 -77 -31.5t-29 -79.5zM61 1096q65 56 172.5 90.5 t231.5 34.5q252 0 372.5 -122.5t120.5 -332.5v-766h-208v766q0 278 -285 278q-173 0 -299 -90z" />
<glyph unicode="&#xe34;" d="M-1075 1419v164h932v-164h-932z" />
<glyph unicode="&#xe35;" d="M-1075 1419v164h731v189h201v-353h-932z" />
<glyph unicode="&#xe36;" d="M-1075 1419v164h586q-5 25 -5 31q0 84 54.5 139t144.5 55q87 0 142 -55.5t55 -138.5t-55 -139t-142 -56h-780zM-379 1614q0 -36 24 -60t60 -24t59 24t23 60t-23 60t-59 24t-60 -24t-24 -60z" />
<glyph unicode="&#xe37;" d="M-1075 1419v164h461v176h188v-176h94v176h189v-340h-932z" />
<glyph unicode="&#xe38;" d="M-479 -147h59q59 0 98 -4.5t76 -18t57.5 -38t33 -65.5t12.5 -100v-237h-201v237q0 44 -14 53t-60 9h-61v164z" />
<glyph unicode="&#xe39;" d="M-848 -147h160q85 0 124.5 -33t39.5 -103v-120q0 -45 25.5 -71t74.5 -26t74.5 26t25.5 71v251h181v-266q0 -105 -76 -166t-205 -61t-205 61t-76 166v43q0 23 -5 36.5t-18 19t-24.5 7t-35.5 1.5h-60v164z" />
<glyph unicode="&#xe3a;" d="M-375 -283q0 57 34 92t93 35q56 0 91.5 -36t35.5 -91t-35.5 -91t-91.5 -36q-59 0 -93 35t-34 92z" />
<glyph unicode="&#xe3f;" horiz-adv-x="1333" d="M143 8v1331h435v205h143v-205h43q195 0 307.5 -93t112.5 -269q0 -93 -54 -163t-135 -101v-4q50 -17 93 -42.5t81 -62t60 -87.5t22 -111q0 -130 -64.5 -221.5t-169.5 -134t-239 -42.5h-57v-209h-143v209h-435zM332 168h246v457h-246v-457zM332 772h246v408h-246v-408z M721 168h55q131 0 207 61t76 177q0 106 -87 162.5t-222 56.5h-29v-457zM721 772q122 0 196 52t74 153t-69 152t-189 51h-12v-408z" />
<glyph unicode="&#xe40;" horiz-adv-x="612" d="M143 258v934h209v-926q0 -67 14.5 -97t63.5 -30q50 0 88 23l74 -135q-72 -56 -191 -56q-132 0 -195 71.5t-63 215.5z" />
<glyph unicode="&#xe41;" horiz-adv-x="1165" d="M143 258v934h209v-926q0 -67 14.5 -97t63.5 -30q50 0 88 23l74 -135q-72 -56 -191 -56q-132 0 -195 71.5t-63 215.5zM696 258v934h209v-926q0 -67 14.5 -97t63.5 -30q50 0 88 23l74 -135q-72 -56 -191 -56q-132 0 -195 71.5t-63 215.5z" />
<glyph unicode="&#xe42;" horiz-adv-x="811" d="M51 1589v111q26 42 61.5 72t73.5 47.5t88 28t95.5 13.5t105.5 3h273v-160h-275h-16q-52 0 -81 -1.5t-68 -12t-56 -31.5v-8q133 -80 195.5 -199t62.5 -307v-879q0 -67 14.5 -97t63.5 -30q50 0 88 23l74 -135q-72 -56 -191 -56q-132 0 -195 71.5t-63 215.5v887 q0 101 -7.5 159t-36 110t-74.5 89t-132 86z" />
<glyph unicode="&#xe43;" horiz-adv-x="849" d="M51 1675q55 91 155.5 154t225.5 63q179 0 278 -81t99 -234q0 -59 -29.5 -122t-71.5 -117t-83.5 -106t-71 -107.5t-29.5 -104.5v-754q0 -67 14.5 -97t63.5 -30q50 0 88 23l74 -135q-72 -56 -191 -56q-132 0 -195 71.5t-63 215.5v762q0 59 30.5 123.5t74 119.5t87.5 108 t74.5 107t30.5 99q0 82 -45.5 119t-134.5 37q-151 0 -266 -172z" />
<glyph unicode="&#xe44;" horiz-adv-x="804" d="M82 1704v160h713v-162q-176 -171 -243 -338t-67 -410v-688q0 -67 14.5 -97t63.5 -30q50 0 88 23l74 -135q-72 -56 -190 -56q-132 0 -195.5 71.5t-63.5 215.5v696q0 229 78 427.5t219 322.5h-491z" />
<glyph unicode="&#xe45;" horiz-adv-x="1101" d="M61 1096q65 56 172.5 90.5t231.5 34.5q252 0 372.5 -122.5t120.5 -332.5v-1278h-208v1278q0 278 -285 278q-173 0 -299 -90z" />
<glyph unicode="&#xe46;" horiz-adv-x="1204" d="M102 752q0 158 73 255t208 97q155 0 199 -141h4q20 59 71.5 100t137.5 41q63 0 111.5 -21t77 -54t46.5 -80t24.5 -92.5t6.5 -98.5v-1153h-209v1153q0 34 -1 54t-6.5 45t-15.5 38.5t-29.5 23t-47.5 9.5q-98 0 -109 -137h-127q-5 63 -31 100t-75 37q-111 0 -111 -176 q0 -90 50.5 -131t152.5 -41l-66 -160q-153 0 -243.5 91.5t-90.5 240.5z" />
<glyph unicode="&#xe47;" d="M-1018 1665q0 270 346 270h496v-151h-496q-85 0 -127.5 -27.5t-42.5 -91.5q0 -113 111 -113q107 0 137 121h98q30 -121 138 -121q66 0 120 60l66 -125q-29 -41 -78 -63.5t-106 -22.5q-60 0 -111 28t-76 72h-2q-27 -45 -81.5 -72.5t-125.5 -27.5q-116 0 -191 71.5 t-75 192.5z" />
<glyph unicode="&#xe48;" d="M-336 1913v315h193v-315h-193z" />
<glyph unicode="&#xe49;" d="M-676 2120v143h156q75 0 116.5 -33.5t41.5 -93.5v-72h403v-151h-571v155q0 18 -0.5 25t-5 15t-15 10t-29.5 2h-96z" />
<glyph unicode="&#xe4a;" d="M-713 1913q0 338 203 338q59 0 99 -36t51 -97h2q7 59 49 96t100 37q150 0 178 -174h119v-164h-235q0 32 -0.5 53t-4.5 51.5t-11 48.5t-21 31.5t-33 13.5q-25 0 -41 -18t-22.5 -51.5t-8.5 -61.5t-2 -67h-139q0 42 -1.5 67.5t-7 60.5t-19.5 52.5t-36 17.5q-17 0 -30 -7.5 t-20.5 -25t-12 -32.5t-6 -43.5t-2 -43.5t-0.5 -46h-148z" />
<glyph unicode="&#xe4b;" d="M-483 2034v131h155v125h168v-125h156v-131h-156v-121h-168v121h-155z" />
<glyph unicode="&#xe4c;" d="M-608 1802v129q0 185 198 185h308v-164h-242q-36 0 -50 -12t-14 -46v-92h-200z" />
<glyph unicode="&#xe4d;" d="M-547 1579q0 104 70.5 173t179.5 69q110 0 180 -68.5t70 -173.5q0 -103 -70.5 -171.5t-179.5 -68.5t-179.5 68.5t-70.5 171.5zM-403 1579q0 -46 29 -77.5t77 -31.5q49 0 78 31.5t29 77.5q0 49 -28.5 80t-78.5 31q-48 0 -77 -31.5t-29 -79.5z" />
<glyph unicode="&#xe4e;" d="M-795 1599q0 65 53 109.5t164 54.5v2q-96 35 -96 127q0 45 26 78.5t70.5 52t97.5 27t115 8.5q122 0 189 -33l-29 -102q-67 21 -149 21q-168 0 -168 -72q0 -26 14.5 -43.5t42 -24.5t52.5 -9.5t61 -2.5l-19 -94h-17q-35 0 -54.5 -0.5t-55 -2.5t-56.5 -7.5t-44 -14.5 t-34 -24.5t-11 -36.5q0 -78 149 -78q100 0 170 37l27 -94q-82 -58 -217 -58q-129 0 -205 45.5t-76 134.5z" />
<glyph unicode="&#xe4f;" horiz-adv-x="1241" d="M92 610q0 143 65.5 261.5t187 188.5t276.5 70t276.5 -70t186.5 -188.5t65 -261.5t-65 -261.5t-186.5 -188.5t-276.5 -70t-276.5 70t-187 188.5t-65.5 261.5zM252 610q0 -160 101.5 -266t267.5 -106q163 0 265.5 106.5t102.5 265.5q0 157 -102.5 265t-265.5 108 q-165 0 -267 -107.5t-102 -265.5zM432 610q0 80 51.5 132.5t137.5 52.5q84 0 134 -52.5t50 -132.5t-50 -134t-134 -54q-86 0 -137.5 54t-51.5 134z" />
<glyph unicode="&#xe50;" horiz-adv-x="1318" d="M92 506q0 245 156 391.5t411 146.5t411.5 -146.5t156.5 -391.5q0 -160 -73.5 -282.5t-202.5 -187.5t-292 -65t-291.5 65t-202 187.5t-73.5 282.5zM293 506q0 -172 99.5 -271.5t266.5 -99.5t267 99.5t100 271.5t-100 273.5t-267 101.5t-266.5 -101.5t-99.5 -273.5z" />
<glyph unicode="&#xe51;" horiz-adv-x="1267" d="M82 561q0 221 148 352t399 131q262 0 404.5 -134t142.5 -382q0 -251 -152.5 -412t-405.5 -161v151q353 34 353 422q0 177 -92.5 263t-249.5 86q-160 0 -251 -83t-91 -245q0 -184 141 -184q52 0 87 15t69 48l73 -135q-40 -49 -105 -70.5t-124 -21.5q-164 0 -255 97 t-91 263z" />
<glyph unicode="&#xe52;" horiz-adv-x="1439" d="M133 420v846h201v-848q0 -67 20 -117t54.5 -81.5t86.5 -50.5t109 -26.5t129 -7.5q201 0 294 60t93 204v299q0 42 -2 66.5t-10.5 51.5t-27.5 39.5t-50 12.5q-89 0 -92 -120h-119q-5 59 -26.5 89.5t-69.5 30.5q-57 0 -82 -51.5t-25 -130.5q0 -57 13.5 -92.5t45 -52.5 t66.5 -22t95 -5l-29 -152q-193 0 -284 71.5t-91 252.5q0 70 15 130.5t45 109.5t81.5 77.5t118.5 28.5q70 0 118 -32.5t67 -88.5h4q45 121 192 121q244 0 244 -334v-299q0 -144 -73.5 -241.5t-201.5 -142t-307 -44.5q-132 0 -238.5 25t-189.5 77t-128.5 140t-45.5 207z" />
<glyph unicode="&#xe53;" horiz-adv-x="1335" d="M102 471q0 112 18 206.5t57.5 177t112 130t171.5 47.5q157 0 209 -129h4q31 65 92.5 97t136.5 32q85 0 144 -28t92.5 -83t48 -126t14.5 -166v-629h-205v629q0 45 -1.5 73t-8.5 62.5t-20.5 53.5t-38 32.5t-60.5 13.5q-54 0 -89.5 -40t-41.5 -109h-135q-8 74 -36.5 111.5 t-88.5 37.5q-170 0 -170 -393q0 -162 51 -247t164 -85q79 0 144 41l65 -145q-82 -64 -213 -64q-106 0 -186.5 37.5t-130 106t-74.5 158t-25 198.5z" />
<glyph unicode="&#xe54;" horiz-adv-x="1310" d="M92 483q0 110 34 199.5t93.5 150t143.5 101.5t180.5 59.5t206.5 18.5q156 0 248 46t190 161l112 -138q-109 -125 -235 -181t-299 -56q-225 0 -347 -84.5t-122 -276.5q0 -319 397 -319h240v2q-159 80 -156 233q1 49 26.5 93.5t67.5 74.5l183 -39q-64 -58 -76 -129 q-20 -101 53 -164t199 -71v-152q-273 -12 -537 -12q-278 0 -440 124.5t-162 358.5z" />
<glyph unicode="&#xe55;" horiz-adv-x="1310" d="M92 483q0 210 114.5 333.5t315.5 170.5q-43 55 -43 131q0 99 66.5 164.5t169.5 65.5q102 0 168.5 -65.5t66.5 -164.5q0 -51 -20 -90q133 41 258 191l112 -138q-109 -125 -235 -181t-299 -56q-225 0 -347 -84.5t-122 -276.5q0 -319 397 -319h240v2q-159 80 -156 233 q1 49 26.5 93.5t67.5 74.5l183 -39q-64 -58 -76 -129q-20 -101 53 -164t199 -71v-152q-273 -12 -537 -12q-278 0 -440 124.5t-162 358.5zM614 1118q0 -43 28.5 -71.5t72.5 -28.5q46 0 72 28t26 72q0 46 -26 74.5t-72 28.5q-44 0 -72.5 -29.5t-28.5 -73.5z" />
<glyph unicode="&#xe56;" horiz-adv-x="1337" d="M10 1126l172 76l148 -348h4q56 86 158 138t217 52q130 0 232.5 -41.5t168.5 -116t100.5 -174.5t34.5 -220q0 -232 -144.5 -376.5t-393.5 -144.5q-216 0 -358 112t-167 302l185 53q35 -167 118 -233t232 -66q157 0 240 92.5t83 260.5q0 108 -33.5 192.5t-110 138.5 t-187.5 54q-245 0 -340 -181h-154z" />
<glyph unicode="&#xe57;" horiz-adv-x="1671" d="M102 471q0 89 9.5 166t34 151.5t63 127t100.5 84.5t142 32q156 0 208 -129h5q69 129 221 129q84 0 142.5 -28.5t91 -84.5t46 -126t13.5 -164v-465q97 0 130 46t33 150v906h197v-906q0 -174 -89.5 -267t-270.5 -93h-201v629q0 48 -1 74t-7.5 61.5t-19 54t-36.5 32 t-59 13.5q-54 0 -87.5 -40t-39.5 -109h-135q-8 74 -36.5 111.5t-88.5 37.5q-50 0 -84 -33t-49.5 -94t-21 -122.5t-5.5 -143.5q0 -162 51 -247t164 -85q79 0 144 41l65 -145q-82 -64 -213 -64q-106 0 -186.5 37.5t-130 106t-74.5 158t-25 198.5z" />
<glyph unicode="&#xe58;" horiz-adv-x="1396" d="M102 461q0 144 28.5 244.5t94.5 171t174.5 103t266.5 32.5h149q130 0 210.5 44.5t150.5 141.5l108 -133q-146 -221 -469 -221h-151q-198 0 -277.5 -86t-79.5 -297q0 -69 6 -120t23 -100.5t51.5 -75.5t85.5 -26q47 0 78.5 18.5t47 53.5t21 73.5t5.5 90.5v110h176v-110 q0 -236 149 -236q76 0 104.5 64t28.5 184v135h197v-135q0 -92 -18 -166t-54.5 -131t-98 -88t-142.5 -31q-89 0 -158.5 47t-93.5 113h-4q-31 -79 -95.5 -119.5t-148.5 -40.5q-94 0 -165.5 38.5t-114.5 106.5t-64 155t-21 190z" />
<glyph unicode="&#xe59;" horiz-adv-x="1515" d="M102 477q0 555 351 555q98 0 158.5 -42.5t97.5 -125.5h4q10 77 61.5 122.5t124.5 45.5q49 0 85 -14t66.5 -51.5t46.5 -65.5t49 -95q4 -7 6 -11t5 -11t6 -12t11 -21.5t12 -23t12 -18.5t14 -17t15 -9.5t18 -4.5q60 0 60 317v250h159v-252q0 -68 -2.5 -118t-9.5 -108.5 t-22.5 -98.5t-39 -75.5t-61 -53t-86.5 -17.5q-48 0 -86.5 17t-68 51t-50 69t-43.5 86q-5 9 -15 30t-14 27.5t-12 20.5t-13 18.5t-13.5 11.5t-17 9t-19.5 2q-34 0 -49 -30t-14 -66.5t10 -77.5l151 -690h-196l-136 641q-27 108 -43 141q-40 82 -135 82q-172 0 -172 -387 q0 -158 43 -252t137 -94q73 0 117 41l76 -135q-82 -66 -209 -66q-185 0 -277 136.5t-92 369.5z" />
<glyph unicode="&#xe5b;" horiz-adv-x="2580" d="M92 633q0 96 19.5 180t64 158t110.5 127t164.5 83.5t221.5 30.5q210 0 337.5 -111.5t127.5 -297.5v-35h-185v35q0 124 -68.5 182.5t-211.5 58.5q-189 0 -282 -109.5t-93 -299.5q0 -196 118.5 -297.5t315.5 -101.5q285 0 422 166.5t137 517.5h174q44 -29 77.5 -67.5 t53.5 -83.5t33.5 -88t19 -96.5t7.5 -93t2 -92.5q57 87 72.5 193t-7.5 266h162q104 -75 137 -176t33 -256q52 65 65 148.5t-8 183.5h140q29 -82 64 -124t98 -42h75v-105h-78q-137 0 -188 119l-4 -4l8 -33q0 -63 -29.5 -126t-82.5 -109h-187q0 186 -11 253q-18 100 -67 150 q16 -51 11.5 -119.5t-22 -135t-54.5 -128.5t-84 -100h-187q0 127 -1 180.5t-8 128.5t-22.5 122t-43.5 95q0 -211 -80.5 -370t-241.5 -250.5t-385 -91.5q-134 0 -249.5 36.5t-202.5 106t-137 178t-50 244.5z" />
<glyph unicode="&#x2000;" horiz-adv-x="1145" />
<glyph unicode="&#x2001;" horiz-adv-x="2290" />
<glyph unicode="&#x2002;" horiz-adv-x="1145" />
<glyph unicode="&#x2003;" horiz-adv-x="2290" />
<glyph unicode="&#x2004;" horiz-adv-x="763" />
<glyph unicode="&#x2005;" horiz-adv-x="572" />
<glyph unicode="&#x2006;" horiz-adv-x="381" />
<glyph unicode="&#x2007;" horiz-adv-x="381" />
<glyph unicode="&#x2008;" horiz-adv-x="286" />
<glyph unicode="&#x2009;" horiz-adv-x="458" />
<glyph unicode="&#x200a;" horiz-adv-x="127" />
<glyph unicode="&#x2010;" horiz-adv-x="831" d="M82 461v172h668v-172h-668z" />
<glyph unicode="&#x2011;" horiz-adv-x="831" d="M82 461v172h668v-172h-668z" />
<glyph unicode="&#x2012;" horiz-adv-x="831" d="M82 461v172h668v-172h-668z" />
<glyph unicode="&#x2013;" horiz-adv-x="1294" d="M82 457v176h1130v-176h-1130z" />
<glyph unicode="&#x2014;" horiz-adv-x="1470" d="M82 457v176h1307v-176h-1307z" />
<glyph unicode="&#x2018;" horiz-adv-x="442" d="M82 991l104 357h174l-94 -357h-184z" />
<glyph unicode="&#x2019;" horiz-adv-x="442" d="M82 991l94 357h184l-104 -357h-174z" />
<glyph unicode="&#x201a;" horiz-adv-x="442" d="M82 -186l94 356h184l-104 -356h-174z" />
<glyph unicode="&#x201c;" horiz-adv-x="690" d="M82 991l104 357h174l-94 -357h-184zM330 991l94 357h184l-104 -357h-174z" />
<glyph unicode="&#x201d;" horiz-adv-x="690" d="M82 991l104 357h174l-94 -357h-184zM330 991l94 357h184l-104 -357h-174z" />
<glyph unicode="&#x201e;" horiz-adv-x="690" d="M82 -186l94 356h184l-104 -356h-174zM330 -186l94 356h184l-104 -356h-174z" />
<glyph unicode="&#x2020;" horiz-adv-x="851" d="M82 831v181h237v452h213v-452h238v-181h-238v-995h-213v995h-237z" />
<glyph unicode="&#x2021;" horiz-adv-x="851" d="M82 287v180h237v367h-237v180h237v450h213v-450h238v-180h-238v-367h238v-180h-238v-451h-213v451h-237z" />
<glyph unicode="&#x2022;" horiz-adv-x="598" d="M82 610q0 94 59.5 155.5t157.5 61.5t157.5 -61.5t59.5 -155.5t-59.5 -155.5t-157.5 -61.5t-157.5 61.5t-59.5 155.5z" />
<glyph unicode="&#x2026;" horiz-adv-x="1122" d="M82 0v201h217v-201h-217zM453 0v201h217v-201h-217zM823 0v201h217v-201h-217z" />
<glyph unicode="&#x202f;" horiz-adv-x="458" />
<glyph unicode="&#x2030;" horiz-adv-x="2033" d="M82 1042q0 160 71.5 247t219.5 87t219.5 -87t71.5 -247q0 -155 -72 -243t-219 -88t-219 88t-72 243zM164 0l854 1350h194l-854 -1350h-194zM233 1042q0 -200 140 -200q139 0 139 200q0 107 -34.5 155t-104.5 48t-105 -48t-35 -155zM713 303q0 160 71.5 247t219.5 87 t219 -87t71 -247q0 -156 -71.5 -244t-218.5 -88t-219 88t-72 244zM864 303q0 -201 140 -201q139 0 139 201q0 107 -34.5 155t-104.5 48t-105 -48t-35 -155zM1370 303q0 160 71.5 247t219.5 87t219.5 -87t71.5 -247q0 -156 -72 -244t-219 -88t-219 88t-72 244zM1522 303 q0 -201 139 -201t139 201q0 107 -34.5 155t-104.5 48t-104.5 -48t-34.5 -155z" />
<glyph unicode="&#x2039;" horiz-adv-x="722" d="M82 516v156l559 483v-233l-379 -326v-4l379 -326v-233z" />
<glyph unicode="&#x203a;" horiz-adv-x="722" d="M82 33v233l379 326v4l-379 326v233l559 -483v-156z" />
<glyph unicode="&#x2044;" horiz-adv-x="1212" d="M82 0l854 1350h194l-854 -1350h-194z" />
<glyph unicode="&#x205f;" horiz-adv-x="572" />
<glyph unicode="&#x20ac;" horiz-adv-x="1476" d="M61 410l58 155h160q-7 61 -7 109q0 30 4 92h-202l57 156h178q68 209 239 331.5t417 122.5t401 -92l-100 -162q-69 39 -137.5 56.5t-163.5 17.5q-142 0 -257 -71t-169 -203h516l-60 -156h-495q-6 -47 -6 -92q0 -65 8 -109h532l-59 -155h-430q54 -125 169 -191.5t261 -66.5 q214 0 330 96l90 -164q-168 -113 -420 -113q-248 0 -420 117t-242 322h-252z" />
<glyph unicode="&#x2122;" horiz-adv-x="1314" d="M82 1233v115h442v-115h-151v-455h-144v455h-147zM631 778v570h182l119 -359h2l121 359h178v-570h-123v387h-2l-131 -387h-84l-137 387h-2v-387h-123z" />
<glyph unicode="&#x2202;" horiz-adv-x="1198" d="M92 442q0 113 38 201t105.5 143t158 83t198.5 28q103 0 181.5 -35t123.5 -90q0 124 -35 219.5t-100 157t-157 97.5t-207.5 41t-250.5 -13l23 149q174 23 312.5 13t244 -58t180.5 -121t121.5 -175.5t67.5 -220.5t18 -257q-19 -633 -534 -633q-119 0 -213 36.5t-153.5 101 t-90.5 149t-31 184.5zM297 442q0 -65 17 -116.5t44.5 -83.5t65.5 -52.5t76 -29t80 -8.5q41 0 79.5 7.5t79.5 27t71.5 50t51 81t23.5 114.5q4 137 -77 213t-216 76q-131 0 -213 -71.5t-82 -207.5z" />
<glyph unicode="&#x2206;" horiz-adv-x="1370" d="M82 0v4l547 1321h143l516 -1323v-2h-1206zM369 176h632l-307 836z" />
<glyph unicode="&#x220f;" horiz-adv-x="1366" d="M82 1227v180h1202v-180h-123v-1481h-217v1481h-522v-1481h-217v1481h-123z" />
<glyph unicode="&#x2211;" horiz-adv-x="1566" d="M82 -238l620 900v28l-587 864v103h1327v-184h-1000l494 -740v-112l-535 -797h1084v-184h-1403v122z" />
<glyph unicode="&#x2212;" horiz-adv-x="831" d="M82 459v176h668v-176h-668z" />
<glyph unicode="&#x221a;" horiz-adv-x="1564" d="M82 545v184h338l250 -532h4l459 1249h350v-180h-191l-467 -1266h-266l-266 545h-211z" />
<glyph unicode="&#x221e;" horiz-adv-x="2162" d="M82 606q0 199 128.5 312.5t342.5 113.5q74 0 141 -19t113.5 -45t97.5 -72t80 -79t73 -87q11 -14 17 -21q32 43 53.5 69.5t61 69.5t78 70t89.5 55t111.5 41.5t128.5 13.5q226 0 355 -115t129 -327q0 -186 -126 -303t-339 -117q-78 0 -150 19.5t-124 47.5t-104 72t-83.5 79 t-69.5 83q-41 -52 -74 -88.5t-83 -80t-100.5 -70t-118.5 -44.5t-144 -18q-212 0 -347.5 118.5t-135.5 321.5zM287 606q0 -69 24 -120t65.5 -80t91 -42.5t107.5 -13.5q61 0 112 12.5t85.5 29.5t73 52.5t60 61t61.5 76.5q-12 14 -35 41q-43 50 -63.5 73t-54.5 57.5t-57 49 t-56.5 31.5t-69 22.5t-78.5 5.5q-117 0 -191.5 -71t-74.5 -185zM1188 582q42 -52 73.5 -85t83.5 -75.5t113 -64t129 -21.5q140 0 214.5 72t74.5 178q0 125 -80 191.5t-213 66.5q-33 0 -64.5 -5.5t-56.5 -12.5t-52 -22.5t-44.5 -26t-42 -34.5t-36.5 -36t-35.5 -41.5 t-31.5 -40.5t-32 -43z" />
<glyph unicode="&#x222b;" horiz-adv-x="1191" d="M82 -172l100 109q73 -82 183 -82q70 0 100.5 38.5t30.5 118.5v1030q0 148 83.5 241t235.5 93q196 0 295 -141l-100 -109q-73 82 -183 82q-65 0 -98 -41.5t-33 -115.5v-1031q0 -149 -83 -241t-236 -92q-196 0 -295 141z" />
<glyph unicode="&#x2248;" horiz-adv-x="1167" d="M82 328q42 82 126 135t200 53q63 0 121.5 -20.5t95 -45t80.5 -45t81 -20.5q62 0 109 34t88 99l102 -127q-111 -198 -307 -198q-52 0 -105 20.5t-91 45t-88 45t-95 20.5q-134 0 -213 -119zM82 700q42 82 126 135.5t200 53.5q63 0 121.5 -20.5t95 -45t80.5 -45t81 -20.5 q62 0 109 34t88 99l102 -127q-112 -199 -307 -199q-52 0 -105 20.5t-91 45t-88 45t-95 20.5q-135 0 -213 -118z" />
<glyph unicode="&#x2260;" horiz-adv-x="872" d="M82 301v164h240l53 145h-293v164h352l125 338h184l-125 -338h173v-164h-232l-53 -145h285v-164h-347l-122 -336h-183l123 336h-180z" />
<glyph unicode="&#x2264;" horiz-adv-x="751" d="M82 70v159h588v-159h-588zM86 692v172l580 414v-229l-400 -269v-4l400 -268v-229z" />
<glyph unicode="&#x2265;" horiz-adv-x="751" d="M82 70v159h588v-159h-588zM86 279v229l399 268v4l-399 269v229l580 -414v-172z" />
<glyph unicode="&#x25ca;" horiz-adv-x="1363" d="M82 659v25l536 711h138l526 -711v-25l-530 -710h-138zM295 666l383 -512h8l383 512v12l-383 512h-8l-383 -512v-12z" />
<glyph unicode="&#x25fc;" horiz-adv-x="1013" d="M0 0v1014h1014v-1014h-1014z" />
<glyph unicode="&#xf700;" horiz-adv-x="1296" d="M61 1065q83 70 213.5 113t290.5 43q154 0 277 -54l309 123l63 -174l-210 -61q145 -157 145 -424q0 -96 -19.5 -187t-61 -171.5t-99 -141t-139.5 -96t-177 -35.5h-182l-131 416q-11 37 -27 51t-53 14q-48 0 -84 -18l-37 172q27 14 75 24.5t91 10.5q92 0 133.5 -33.5 t67.5 -116.5l110 -344h21q142 0 222.5 121.5t80.5 333.5q0 207 -92.5 310t-286.5 103q-249 0 -403 -122z" />
<glyph unicode="&#xf701;" d="M-1223 1419v164h758v-164h-758z" />
<glyph unicode="&#xf702;" d="M-1223 1419v164h557v189h201v-353h-758z" />
<glyph unicode="&#xf703;" d="M-1223 1419v164h400q-4 20 -4 31q0 84 54 139t144 55q87 0 142 -55.5t55 -138.5t-55 -139t-142 -56h-594zM-713 1614q0 -36 24 -60t60 -24t59 24t23 60t-23 60t-59 24t-60 -24t-24 -60z" />
<glyph unicode="&#xf704;" d="M-1223 1419v164h285v176h188v-176h97v176h188v-340h-758z" />
<glyph unicode="&#xf705;" d="M-793 1438v360h201v-360h-201z" />
<glyph unicode="&#xf706;" d="M-1118 1661v156h168q75 0 116 -33.5t41 -93.5v-97h342v-155h-518v151q0 27 -1 38t-12.5 22.5t-35.5 11.5h-100z" />
<glyph unicode="&#xf707;" d="M-1223 1438q0 338 207 338q60 0 98.5 -34.5t49.5 -94.5h2q7 60 47 94.5t100 34.5q148 0 176 -174h113v-164h-229q0 28 -0.5 43.5t-2 43.5t-6 44.5t-11.5 35t-19.5 27t-28.5 8.5q-25 0 -41 -19t-22.5 -53.5t-8.5 -62.5t-2 -67h-139q0 41 -1.5 67t-7 62t-19.5 54.5 t-36 18.5q-21 0 -35.5 -13.5t-22 -31.5t-11.5 -48.5t-5 -53t-1 -55.5h-144z" />
<glyph unicode="&#xf708;" d="M-985 1575v139h160v137h168v-137h159v-139h-159v-137h-168v137h-160z" />
<glyph unicode="&#xf709;" d="M-977 1438v129q0 184 195 184h282v-156h-205q-41 0 -56 -10.5t-15 -54.5v-92h-201z" />
<glyph unicode="&#xf70a;" d="M-344 1438v360h201v-360h-201z" />
<glyph unicode="&#xf70b;" d="M-739 1661v156h168q75 0 116 -33.5t41 -93.5v-97h414v-155h-590v151q0 27 -1 38t-12.5 22.5t-35.5 11.5h-100z" />
<glyph unicode="&#xf70c;" d="M-1018 1438q0 358 221 358q126 0 160 -131h4q16 65 59.5 97t100.5 32q86 0 132 -53.5t65 -151.5h225v-151h-377q0 32 -0.5 45t-2 43.5t-5.5 45.5t-11.5 34t-20.5 27.5t-30 8.5q-24 0 -39 -18.5t-21 -54.5t-7.5 -62.5t-1.5 -68.5h-144q0 28 -0.5 42.5t-2 43.5t-5.5 45.5 t-11 35.5t-18.5 28t-27.5 9q-18 0 -31 -8.5t-21 -27t-12.5 -35t-6.5 -45t-2.5 -44.5t-0.5 -44h-168z" />
<glyph unicode="&#xf70d;" d="M-610 1575v139h159v137h168v-137h160v-139h-160v-137h-168v137h-159z" />
<glyph unicode="&#xf70e;" d="M-670 1438v129q0 184 199 184h420v-164h-355q-36 0 -49.5 -16t-13.5 -62v-71h-201z" />
<glyph unicode="&#xf70f;" horiz-adv-x="2076" d="M82 965q95 109 247.5 182.5t309.5 73.5q253 0 378.5 -110t125.5 -320v-306q0 -171 64.5 -254.5t228.5 -83.5q160 0 224 83t64 249v713h209v-713q0 -82 -14.5 -153t-50 -137.5t-91 -113.5t-142.5 -75.5t-199 -28.5q-113 0 -200.5 28.5t-143 75.5t-91 114.5t-49.5 139.5 t-14 156v306q0 253 -299 253q-192 0 -352 -129l2 -6l241 -166v-96q-89 -41 -125 -107.5t-36 -185.5v-84q0 -67 26 -97t86 -30t107 35l78 -151q-83 -56 -203 -56q-145 0 -224 81t-79 224v78q0 126 38 206t128 134v4l-215 148z" />
<glyph unicode="&#xf710;" d="M-1223 1604v129h197v-72q0 -27 0.5 -33.5t3 -20t9 -16t18.5 -5.5t32 -3h498v-164h-563q-102 0 -148.5 41t-46.5 144z" />
<glyph unicode="&#xf711;" d="M-963 1579q0 104 70.5 173t179.5 69q110 0 180 -68.5t70 -173.5q0 -103 -70.5 -171.5t-179.5 -68.5t-179.5 68.5t-70.5 171.5zM-819 1579q0 -46 29 -77.5t77 -31.5q49 0 78 31.5t29 77.5q0 49 -28.5 80t-78.5 31q-48 0 -77 -31.5t-29 -79.5z" />
<glyph unicode="&#xf712;" d="M-1223 1663q0 136 86 204t240 68h455v-147h-455q-150 0 -150 -125q0 -51 24.5 -81t72.5 -30q55 0 82 32.5t39 88.5h94q8 -52 38 -86.5t81 -34.5q68 0 114 58l64 -123q-61 -86 -176 -86q-53 0 -97.5 26.5t-68.5 69.5h-2q-59 -96 -195 -96q-106 0 -176 73.5t-70 188.5z" />
<glyph unicode="&#xf713;" d="M-657 1913v315h192v-315h-192z" />
<glyph unicode="&#xf714;" d="M-981 2120v143h156q75 0 116 -33.5t41 -93.5v-72h404v-151h-572v155q0 19 -0.5 25t-5 14.5t-14.5 10.5t-29 2h-96z" />
<glyph unicode="&#xf715;" d="M-973 1913q0 53 3.5 95.5t16 90t33.5 79t58 52.5t88 21q59 0 98.5 -36t50.5 -97h2q7 60 48 96.5t98 36.5q150 0 178 -174h113v-164h-230q0 42 -1.5 67.5t-7.5 60.5t-21 52.5t-39 17.5q-17 0 -30 -8t-20.5 -26.5t-11.5 -32.5t-5.5 -44t-2 -42.5t-0.5 -44.5h-139 q0 42 -1.5 67.5t-7 60.5t-19.5 52.5t-36 17.5q-16 0 -28 -7t-19 -23t-11.5 -30.5t-6 -41t-2 -41.5t-0.5 -45v-10h-148z" />
<glyph unicode="&#xf716;" d="M-805 2034v131h156v125h168v-125h155v-131h-155v-121h-168v121h-156z" />
<glyph unicode="&#xf717;" d="M-840 1718v129q0 185 195 185h299v-164h-234q-36 0 -49.5 -16t-13.5 -62v-72h-197z" />
<glyph unicode="&#xf718;" d="M-479 -471h59q59 0 98 -4.5t76 -17.5t57.5 -37.5t33 -65.5t12.5 -100v-217h-201v217q0 24 -3 36.5t-14.5 18t-20.5 6t-36 0.5h-61v164z" />
<glyph unicode="&#xf719;" d="M-848 -473h160q86 0 125 -32.5t39 -102.5v-103q0 -45 25.5 -70.5t74.5 -25.5t74.5 25.5t25.5 70.5v234h181v-248q0 -105 -76 -166t-205 -61t-205 61t-76 166v25q0 23 -5 36.5t-18.5 19t-24.5 6.5t-35 1h-60v164z" />
<glyph unicode="&#xf71a;" d="M-375 -602q0 57 34 92t93 35q56 0 91.5 -35.5t35.5 -91.5t-35.5 -91.5t-91.5 -35.5q-59 0 -93 35t-34 92z" />
<glyph unicode="&#xf71b;" horiz-adv-x="1359" d="M72 47l34 160q43 -19 76 -19q80 0 80 70v117q0 124 26 193.5t107 127.5v4l-248 146l-28 119q96 111 250.5 183.5t326.5 72.5q521 0 521 -430v-1147h-197q-180 139 -451 139q-184 0 -346 -90l-67 170q175 96 413 96q249 0 439 -139v971q0 132 -77.5 192.5t-234.5 60.5 q-114 0 -202.5 -32t-169.5 -97l2 -6l274 -164v-96q-30 -15 -51.5 -29.5t-36 -34t-22.5 -37.5t-12.5 -47t-5.5 -55.5t-1 -70.5v-123q0 -121 -59 -180.5t-166 -59.5q-102 0 -174 35z" />
<glyph unicode="&#xf71c;" horiz-adv-x="1359" d="M72 47l34 160q43 -19 76 -19q80 0 80 70v117q0 124 26 193.5t107 127.5v4l-248 146l-28 119q96 111 250.5 183.5t326.5 72.5q521 0 521 -430v-1147h-283l-217 204q-31 -90 -104.5 -143t-186.5 -53q-122 0 -236 20v160q160 -20 236 -20q77 0 113.5 38t58.5 119l195 29 l215 -213v1006q0 132 -77.5 192.5t-234.5 60.5q-114 0 -202.5 -32t-169.5 -97l2 -6l274 -164v-96q-30 -15 -51.5 -29.5t-36 -34t-22.5 -37.5t-12.5 -47t-5.5 -55.5t-1 -70.5v-123q0 -121 -59 -180.5t-166 -59.5q-102 0 -174 35z" />
<glyph unicode="&#xf71d;" horiz-adv-x="1574" d="M82 1192h209l149 -916h4l261 732h176l262 -732h4l72 398q10 52 10.5 89.5t-7 65.5t-28 48.5t-48.5 36t-73 30.5v119l338 233l102 -145l-229 -147v-9q180 -89 121 -344l-139 -651h-201l-270 758h-4l-271 -758h-201z" />
<glyph unicode="&#xf883;" horiz-adv-x="1323" d="M82 965q98 111 253.5 183.5t326.5 72.5q262 0 390 -107.5t128 -322.5v-1147h-209v1147q0 129 -77 191t-232 62q-215 0 -375 -129l2 -6l241 -166v-96q-89 -41 -125 -107.5t-36 -185.5v-84q0 -67 26 -97t86 -30t107 35l78 -151q-83 -56 -203 -56q-145 0 -224 81t-79 224v78 q0 126 38 206t128 134v4l-215 148z" />
<glyph unicode="&#xf884;" horiz-adv-x="1359" d="M72 6l34 160q43 -19 84 -19q72 0 72 70v158q0 124 26 193.5t107 127.5v4l-248 146l-28 119q98 111 253 183.5t326 72.5q519 0 519 -430v-1147h-209v1147q0 129 -77.5 191t-232.5 62q-214 0 -374 -129l2 -6l274 -164v-96q-30 -15 -51.5 -29.5t-36 -34t-22.5 -37.5 t-12.5 -47t-5.5 -55.5t-1 -70.5v-164q0 -240 -217 -240q-110 0 -182 35z" />
<glyph d="M-1040 1599q0 65 53 109.5t164 54.5v2q-97 35 -97 127q0 59 46.5 98t113 53.5t150.5 14.5q121 0 188 -33l-29 -102q-67 21 -149 21q-168 0 -168 -72q0 -26 14.5 -43.5t42 -24.5t52.5 -9.5t61 -2.5l-18 -94h-17q-35 0 -54.5 -0.5t-55 -2.5t-57 -7.5t-44.5 -14.5t-34 -24.5 t-11 -36.5q0 -78 150 -78q100 0 170 37l26 -94q-82 -58 -217 -58q-129 0 -204.5 45.5t-75.5 134.5z" />
<glyph horiz-adv-x="1101" d="M-963 1579q0 104 70.5 173t179.5 69q110 0 180 -68.5t70 -173.5q0 -103 -70.5 -171.5t-179.5 -68.5t-179.5 68.5t-70.5 171.5zM-819 1579q0 -46 29 -77.5t77 -31.5q49 0 78 31.5t29 77.5q0 49 -28.5 80t-78.5 31q-48 0 -77 -31.5t-29 -79.5zM61 1096q65 56 172.5 90.5 t231.5 34.5q252 0 372.5 -122.5t120.5 -332.5v-766h-208v766q0 278 -285 278q-173 0 -299 -90z" />
</font>
</defs>
</svg>
